<svg id="svg" version="1.1" xmlns="http://www.w3.org/2000/svg" xmlns:xlink="http://www.w3.org/1999/xlink" width="400" height="400" viewBox="0, 0, 400,400"><g id="svgg"><path id="path0" d="M58.308 79.987 C 57.757 80.420,57.197 80.664,57.063 80.530 C 56.929 80.395,56.705 80.581,56.567 80.943 C 56.428 81.304,56.053 81.600,55.734 81.600 C 55.414 81.600,55.264 81.780,55.400 82.000 C 55.536 82.220,55.446 82.400,55.200 82.400 C 54.954 82.400,54.864 82.580,55.000 82.800 C 55.136 83.020,55.074 83.200,54.863 83.200 C 54.651 83.200,54.285 83.754,54.049 84.432 C 53.526 85.931,53.456 224.000,53.978 224.000 C 54.163 224.000,54.422 224.279,54.553 224.621 C 54.711 225.033,54.632 225.143,54.316 224.948 C 54.055 224.787,54.202 225.273,54.643 226.027 C 55.084 226.782,55.583 227.343,55.753 227.274 C 55.922 227.204,56.420 227.562,56.859 228.069 C 57.299 228.575,57.870 229.010,58.129 229.034 C 59.457 229.159,59.630 229.228,59.429 229.554 C 59.309 229.748,59.748 230.130,60.405 230.402 C 61.062 230.674,61.600 231.047,61.600 231.230 C 61.600 231.414,62.228 231.682,62.996 231.826 C 63.765 231.970,64.294 232.248,64.173 232.444 C 64.052 232.640,64.218 232.800,64.543 232.800 C 64.868 232.800,65.197 232.990,65.274 233.222 C 65.351 233.454,65.681 233.686,66.007 233.737 C 66.333 233.789,67.056 234.134,67.613 234.505 C 68.171 234.875,69.021 235.239,69.503 235.312 C 69.985 235.386,70.519 235.600,70.690 235.787 C 70.860 235.975,70.730 235.996,70.400 235.834 C 70.070 235.673,70.149 235.824,70.576 236.170 C 71.004 236.517,71.579 236.800,71.856 236.800 C 72.132 236.800,72.846 237.252,73.442 237.804 C 74.038 238.356,74.611 238.722,74.715 238.618 C 74.820 238.514,75.287 238.640,75.753 238.899 C 76.219 239.158,76.735 239.332,76.900 239.285 C 77.065 239.238,77.200 239.451,77.200 239.757 C 77.200 240.064,77.479 240.422,77.821 240.553 C 78.229 240.709,78.356 240.622,78.191 240.295 C 78.053 240.023,78.224 240.149,78.570 240.576 C 78.917 241.004,79.200 241.140,79.200 240.880 C 79.200 240.620,79.702 240.933,80.316 241.575 C 80.930 242.217,81.921 242.865,82.520 243.016 C 83.118 243.166,83.706 243.449,83.827 243.644 C 83.948 243.840,84.476 244.000,85.000 244.000 C 85.524 244.000,86.064 244.180,86.200 244.400 C 86.336 244.620,86.627 244.800,86.847 244.800 C 87.067 244.800,87.122 244.597,86.969 244.349 C 86.772 244.031,86.890 244.011,87.370 244.279 C 88.638 244.989,94.831 242.221,94.213 241.222 C 94.099 241.036,94.274 240.781,94.602 240.654 C 94.931 240.528,95.200 240.049,95.200 239.589 C 95.200 239.129,95.380 238.864,95.600 239.000 C 95.820 239.136,96.000 238.977,96.000 238.647 C 96.000 238.317,95.793 237.919,95.539 237.763 C 95.216 237.562,95.278 237.332,95.750 236.987 C 96.371 236.533,96.413 233.573,96.310 196.848 C 96.250 175.042,96.345 157.152,96.522 157.093 C 96.699 157.034,96.883 156.718,96.931 156.390 C 97.035 155.683,98.332 153.757,98.608 153.900 C 99.155 154.184,99.316 153.933,98.800 153.600 C 98.291 153.271,98.310 153.211,98.924 153.206 C 99.368 153.202,99.537 153.022,99.362 152.738 C 99.189 152.459,99.252 152.385,99.520 152.550 C 100.037 152.870,102.070 152.437,101.835 152.057 C 101.200 151.032,107.134 152.277,108.262 153.405 C 108.594 153.736,109.030 153.905,109.232 153.780 C 109.435 153.655,109.600 153.731,109.600 153.949 C 109.600 154.168,109.939 154.454,110.352 154.585 C 110.766 154.716,111.521 155.184,112.029 155.625 C 112.537 156.066,113.189 156.336,113.477 156.226 C 113.764 156.115,114.000 156.182,114.000 156.373 C 114.000 156.565,114.540 156.910,115.200 157.140 C 115.860 157.370,116.400 157.748,116.400 157.979 C 116.400 158.211,116.584 158.400,116.808 158.400 C 117.032 158.400,117.977 158.881,118.908 159.468 C 119.839 160.056,120.690 160.525,120.800 160.511 C 121.308 160.447,124.000 162.063,124.000 162.432 C 124.000 162.660,124.180 162.736,124.400 162.600 C 124.620 162.464,124.800 162.554,124.800 162.800 C 124.800 163.046,124.980 163.136,125.200 163.000 C 125.420 162.864,125.600 162.943,125.600 163.176 C 125.600 163.409,125.836 163.600,126.125 163.600 C 126.413 163.600,127.036 163.960,127.508 164.400 C 127.980 164.840,128.734 165.200,129.183 165.200 C 129.632 165.200,130.000 165.380,130.000 165.600 C 130.000 165.820,130.276 166.000,130.613 166.000 C 130.949 166.000,131.335 166.285,131.468 166.634 C 131.664 167.144,131.777 167.163,132.050 166.734 C 132.300 166.339,132.391 166.408,132.400 167.000 C 132.408 167.554,132.510 167.645,132.732 167.297 C 132.967 166.926,133.283 167.062,133.937 167.814 C 134.424 168.374,134.979 168.736,135.170 168.619 C 135.360 168.501,135.619 168.674,135.746 169.002 C 135.872 169.332,136.474 169.603,137.087 169.606 C 137.953 169.611,138.067 169.698,137.600 170.000 C 137.116 170.313,137.177 170.389,137.913 170.394 C 138.414 170.397,138.930 170.673,139.058 171.007 C 139.186 171.341,139.496 171.590,139.746 171.560 C 140.731 171.442,141.236 171.619,141.000 172.000 C 140.766 172.379,140.938 172.467,142.100 172.560 C 142.375 172.582,142.981 173.005,143.446 173.500 C 143.911 173.995,144.550 174.400,144.866 174.400 C 145.182 174.400,145.656 174.616,145.920 174.880 C 146.184 175.144,146.400 175.242,146.400 175.098 C 146.400 174.954,146.842 175.278,147.382 175.818 C 147.922 176.358,148.655 176.800,149.010 176.800 C 149.366 176.800,149.927 177.070,150.257 177.400 C 150.587 177.730,151.234 178.000,151.695 178.000 C 152.156 178.000,152.413 178.120,152.266 178.268 C 151.913 178.620,155.173 180.464,155.639 180.176 C 155.838 180.053,156.000 180.118,156.000 180.319 C 156.000 180.800,160.060 180.789,160.682 180.305 C 160.948 180.100,161.353 180.047,161.582 180.189 C 161.812 180.331,162.000 180.257,162.000 180.024 C 162.000 179.791,162.251 179.600,162.557 179.600 C 162.864 179.600,163.218 179.330,163.345 179.000 C 163.471 178.670,164.009 178.400,164.538 178.400 C 165.068 178.400,165.747 178.105,166.045 177.745 C 166.344 177.385,167.356 176.762,168.294 176.360 C 169.232 175.957,170.000 175.442,170.000 175.214 C 170.000 174.986,170.360 174.800,170.800 174.800 C 171.240 174.800,171.600 174.609,171.600 174.376 C 171.600 174.143,171.769 174.057,171.975 174.185 C 172.182 174.312,172.536 174.098,172.763 173.708 C 172.990 173.319,173.181 173.166,173.188 173.370 C 173.195 173.573,173.625 173.340,174.145 172.851 C 174.665 172.363,175.250 172.000,175.445 172.045 C 176.068 172.189,177.204 171.530,176.974 171.158 C 176.852 170.961,177.123 170.800,177.576 170.800 C 178.029 170.800,178.400 170.590,178.400 170.333 C 178.400 170.077,178.509 169.976,178.643 170.110 C 178.777 170.243,179.360 169.913,179.939 169.376 C 180.518 168.839,181.399 168.400,181.896 168.400 C 182.393 168.400,182.800 168.220,182.800 168.000 C 182.800 167.780,183.070 167.600,183.400 167.600 C 183.730 167.600,184.000 167.409,184.000 167.176 C 184.000 166.943,184.194 166.873,184.432 167.020 C 184.670 167.167,185.113 166.931,185.418 166.496 C 185.722 166.061,186.496 165.601,187.137 165.473 C 187.779 165.344,188.589 164.954,188.938 164.605 C 189.287 164.256,190.167 163.722,190.894 163.418 C 191.621 163.115,192.552 162.495,192.962 162.042 C 193.372 161.589,193.863 161.315,194.053 161.433 C 194.244 161.551,194.400 161.427,194.400 161.157 C 194.400 160.887,194.517 160.784,194.660 160.927 C 194.804 161.070,195.177 160.875,195.490 160.494 C 195.803 160.112,195.947 160.023,195.809 160.295 C 195.644 160.622,195.771 160.709,196.179 160.553 C 196.521 160.422,196.800 160.187,196.800 160.031 C 196.800 159.875,197.520 159.343,198.400 158.848 C 199.280 158.353,200.000 158.059,200.000 158.195 C 200.000 158.330,200.585 158.017,201.300 157.500 C 202.015 156.983,203.092 156.315,203.693 156.016 C 204.295 155.717,205.108 155.172,205.502 154.806 C 205.895 154.439,206.463 154.221,206.764 154.321 C 207.092 154.431,207.200 154.324,207.035 154.056 C 206.859 153.772,206.984 153.696,207.376 153.846 C 207.740 153.986,208.094 153.819,208.239 153.442 C 208.375 153.089,208.736 152.800,209.043 152.800 C 209.349 152.800,209.600 152.650,209.600 152.466 C 209.600 152.282,210.359 152.101,211.287 152.065 C 212.214 152.029,213.294 151.897,213.687 151.773 C 214.108 151.639,214.400 151.748,214.400 152.040 C 214.400 152.311,214.518 152.415,214.663 152.270 C 214.808 152.125,215.168 152.207,215.463 152.452 C 215.758 152.697,216.000 152.746,216.000 152.560 C 216.000 152.374,216.282 152.625,216.627 153.118 C 216.972 153.610,217.421 153.911,217.624 153.785 C 217.827 153.660,218.298 154.197,218.670 154.979 C 219.043 155.760,219.489 156.400,219.662 156.400 C 219.834 156.400,219.871 156.670,219.745 157.000 C 219.610 157.352,219.739 157.600,220.057 157.600 C 220.508 157.600,220.589 161.277,220.536 179.388 L 220.473 201.176 219.336 202.175 C 218.711 202.725,217.994 203.180,217.743 203.187 C 217.491 203.194,217.175 203.489,217.039 203.842 C 216.899 204.208,216.537 204.385,216.197 204.254 C 215.868 204.128,215.600 204.199,215.600 204.413 C 215.600 204.626,215.352 204.800,215.049 204.800 C 214.746 204.800,214.276 205.068,214.004 205.396 C 213.732 205.723,213.376 205.909,213.214 205.808 C 213.051 205.708,212.576 205.890,212.159 206.214 C 211.420 206.786,211.421 206.796,212.200 206.563 C 212.852 206.369,212.889 206.404,212.400 206.756 C 212.070 206.994,211.485 207.191,211.100 207.194 C 210.715 207.197,210.400 207.500,210.400 207.867 C 210.400 208.233,210.282 208.415,210.137 208.270 C 209.992 208.125,209.597 208.230,209.260 208.503 C 208.771 208.900,208.707 208.899,208.947 208.500 C 209.112 208.225,209.058 208.000,208.827 208.000 C 208.596 208.000,208.182 208.360,207.907 208.800 C 207.632 209.240,207.082 209.600,206.685 209.600 C 206.287 209.600,205.491 210.095,204.915 210.700 C 204.340 211.305,204.023 211.530,204.211 211.200 C 204.577 210.559,203.317 211.367,202.755 212.134 C 202.621 212.318,202.441 212.427,202.355 212.375 C 202.017 212.173,200.400 212.877,200.400 213.227 C 200.400 213.432,200.154 213.600,199.854 213.600 C 199.554 213.600,198.834 213.973,198.254 214.429 C 197.674 214.885,197.200 215.124,197.200 214.959 C 197.200 214.795,196.782 215.054,196.270 215.534 C 195.759 216.014,195.245 216.311,195.127 216.194 C 195.010 216.077,194.686 216.255,194.408 216.590 C 194.130 216.926,193.688 217.200,193.426 217.200 C 193.165 217.200,192.560 217.564,192.083 218.008 C 191.606 218.453,191.114 218.794,190.991 218.767 C 190.546 218.668,188.400 219.704,188.400 220.018 C 188.400 220.194,187.758 220.550,186.973 220.809 C 185.944 221.148,185.611 221.452,185.782 221.897 C 185.974 222.399,185.909 222.423,185.432 222.026 C 184.956 221.631,184.747 221.696,184.326 222.370 C 184.041 222.826,183.489 223.200,183.100 223.200 C 182.711 223.200,182.084 223.560,181.707 224.000 C 181.330 224.440,180.785 224.800,180.495 224.800 C 179.625 224.800,176.638 226.462,176.077 227.258 C 175.790 227.666,175.205 228.000,174.777 228.000 C 174.350 228.000,174.000 228.199,174.000 228.443 C 174.000 228.686,173.730 228.782,173.400 228.655 C 173.017 228.509,172.800 228.662,172.800 229.079 C 172.800 229.439,172.688 229.621,172.550 229.484 C 172.221 229.154,169.385 230.615,168.355 231.645 C 167.908 232.092,167.199 232.523,166.778 232.604 C 166.358 232.685,165.317 233.311,164.466 233.995 C 163.614 234.680,162.756 235.209,162.559 235.172 C 161.800 235.031,161.079 235.213,161.346 235.479 C 161.499 235.632,160.854 236.042,159.912 236.390 L 158.200 237.023 158.132 260.212 C 158.059 284.887,158.239 287.200,160.226 287.200 C 160.488 287.200,160.924 287.468,161.196 287.796 C 161.468 288.123,161.831 288.304,162.003 288.198 C 162.175 288.092,162.416 288.265,162.539 288.584 C 162.880 289.473,165.891 290.903,166.138 290.292 C 166.260 289.989,166.349 290.051,166.368 290.454 C 166.386 290.814,166.872 291.417,167.449 291.795 C 168.146 292.252,168.392 292.301,168.180 291.941 C 167.894 291.454,168.882 292.174,170.316 293.499 C 170.613 293.774,171.338 294.112,171.928 294.251 C 172.518 294.390,173.523 294.975,174.162 295.552 C 174.801 296.128,175.195 296.375,175.038 296.100 C 174.640 295.403,175.416 295.474,176.143 296.200 C 176.473 296.530,176.916 296.800,177.129 296.800 C 177.341 296.800,177.625 297.089,177.761 297.442 C 177.901 297.808,178.263 297.985,178.603 297.854 C 178.965 297.715,179.200 297.856,179.200 298.213 C 179.200 298.536,179.428 298.800,179.707 298.800 C 179.986 298.800,180.877 299.250,181.686 299.800 C 182.495 300.350,183.437 300.800,183.779 300.800 C 184.120 300.800,184.400 300.939,184.400 301.108 C 184.400 301.278,185.255 301.863,186.300 302.408 C 187.345 302.954,188.290 303.503,188.400 303.629 C 188.510 303.755,189.815 304.445,191.300 305.162 C 192.785 305.880,194.000 306.651,194.000 306.876 C 194.000 307.101,194.279 307.178,194.621 307.047 C 194.962 306.916,195.140 306.974,195.015 307.176 C 194.797 307.529,196.285 308.242,196.900 308.079 C 197.065 308.036,197.200 308.270,197.200 308.600 C 197.200 308.933,197.556 309.200,198.000 309.200 C 198.440 309.200,198.800 309.391,198.800 309.624 C 198.800 309.857,198.980 309.936,199.200 309.800 C 199.420 309.664,199.600 309.724,199.600 309.933 C 199.600 310.142,200.050 310.426,200.600 310.564 C 201.150 310.702,201.600 311.002,201.600 311.231 C 201.600 311.460,201.780 311.536,202.000 311.400 C 202.220 311.264,202.400 311.331,202.400 311.549 C 202.400 311.954,203.564 312.467,204.092 312.295 C 204.253 312.243,204.658 312.591,204.993 313.068 C 205.327 313.546,206.116 314.050,206.746 314.188 C 207.376 314.327,208.269 314.791,208.729 315.220 C 209.190 315.649,209.822 316.000,210.134 316.000 C 210.447 316.000,210.933 316.278,211.215 316.618 C 211.497 316.958,211.979 317.140,212.285 317.023 C 212.635 316.889,212.735 316.981,212.555 317.273 C 212.364 317.582,212.490 317.651,212.934 317.481 C 213.376 317.311,213.600 317.431,213.600 317.836 C 213.600 318.172,213.780 318.336,214.000 318.200 C 214.220 318.064,214.400 318.154,214.400 318.400 C 214.400 318.646,214.565 318.745,214.766 318.621 C 214.967 318.497,215.195 318.586,215.273 318.819 C 215.351 319.053,215.771 319.303,216.207 319.375 C 216.643 319.447,216.948 319.729,216.884 320.002 C 216.812 320.307,217.011 320.405,217.399 320.256 C 217.766 320.115,218.125 320.261,218.257 320.604 C 218.382 320.929,218.645 321.096,218.842 320.974 C 219.039 320.852,219.200 320.954,219.200 321.200 C 219.200 321.446,219.353 321.553,219.539 321.437 C 219.726 321.322,220.221 321.545,220.639 321.932 C 221.514 322.743,224.812 324.400,225.550 324.400 C 225.823 324.400,225.935 324.581,225.798 324.803 C 225.661 325.024,225.786 325.277,226.075 325.364 C 226.364 325.452,226.960 325.642,227.400 325.787 C 227.840 325.933,228.242 325.995,228.292 325.926 C 228.343 325.857,228.670 326.208,229.020 326.707 C 229.369 327.205,229.810 327.517,230.000 327.400 C 230.189 327.283,230.465 327.382,230.613 327.621 C 230.760 327.859,231.172 327.943,231.528 327.806 C 231.884 327.670,232.048 327.686,231.891 327.842 C 231.515 328.218,232.389 329.254,232.845 328.972 C 233.040 328.851,233.200 328.943,233.200 329.176 C 233.200 329.409,233.650 329.600,234.200 329.600 C 234.750 329.600,235.200 329.780,235.200 330.000 C 235.200 330.220,235.470 330.400,235.800 330.400 C 236.130 330.400,236.400 330.670,236.400 331.000 C 236.400 331.625,236.434 331.642,237.893 331.796 C 238.384 331.848,239.018 332.083,239.302 332.318 C 239.783 332.718,243.175 332.676,245.000 332.249 C 245.440 332.146,245.954 332.047,246.143 332.031 C 246.331 332.014,246.380 331.726,246.252 331.391 C 246.070 330.918,246.172 330.863,246.709 331.148 C 247.442 331.537,248.600 330.737,248.076 330.205 C 247.924 330.050,248.070 329.976,248.400 330.040 C 249.242 330.204,250.800 329.625,250.800 329.149 C 250.800 328.931,250.954 328.848,251.142 328.964 C 251.330 329.080,251.906 328.726,252.423 328.176 C 252.939 327.626,253.589 327.264,253.868 327.371 C 254.147 327.478,254.498 327.365,254.649 327.121 C 254.815 326.852,254.741 326.789,254.462 326.962 C 254.208 327.119,254.000 327.155,254.000 327.042 C 254.000 326.805,256.184 325.783,257.498 325.406 C 257.991 325.264,258.698 324.844,259.069 324.474 C 259.440 324.103,259.846 323.795,259.971 323.790 C 260.480 323.767,262.800 322.587,262.800 322.351 C 262.800 322.211,263.340 321.873,264.000 321.600 C 264.660 321.327,265.200 320.934,265.200 320.728 C 265.200 320.522,265.380 320.464,265.600 320.600 C 265.820 320.736,266.000 320.646,266.000 320.400 C 266.000 320.154,266.180 320.064,266.400 320.200 C 266.620 320.336,266.800 320.257,266.800 320.024 C 266.800 319.791,267.042 319.600,267.338 319.600 C 267.634 319.600,268.208 319.234,268.613 318.786 C 269.018 318.338,269.595 318.066,269.896 318.181 C 270.196 318.297,270.332 318.213,270.197 317.995 C 270.063 317.778,270.225 317.600,270.559 317.600 C 270.892 317.600,271.813 317.160,272.606 316.622 C 273.398 316.084,274.936 315.242,276.023 314.751 C 277.111 314.259,278.000 313.699,278.000 313.505 C 278.000 313.311,278.180 313.264,278.400 313.400 C 278.620 313.536,278.800 313.471,278.800 313.255 C 278.800 313.039,279.443 312.650,280.228 312.391 C 281.013 312.132,281.753 311.668,281.871 311.360 C 281.989 311.052,282.314 310.800,282.594 310.800 C 282.873 310.800,283.324 310.532,283.596 310.204 C 283.868 309.877,284.229 309.694,284.398 309.799 C 284.568 309.904,285.132 309.662,285.653 309.263 C 286.174 308.863,286.915 308.421,287.300 308.281 C 287.685 308.140,288.000 307.829,288.000 307.589 C 288.000 307.349,288.179 307.263,288.398 307.399 C 288.616 307.534,289.398 307.184,290.135 306.622 C 290.872 306.060,291.610 305.600,291.774 305.600 C 291.938 305.600,292.371 305.277,292.736 304.881 C 293.101 304.486,293.220 304.425,293.000 304.747 C 292.663 305.239,292.734 305.259,293.453 304.877 C 293.922 304.627,294.410 304.150,294.538 303.818 C 294.671 303.471,295.032 303.314,295.385 303.450 C 295.801 303.609,296.002 303.446,296.006 302.943 C 296.011 302.317,296.073 302.294,296.400 302.800 C 296.682 303.236,296.789 303.257,296.794 302.876 C 296.797 302.588,296.961 302.452,297.158 302.574 C 297.355 302.696,297.616 302.536,297.737 302.219 C 297.859 301.901,298.680 301.448,299.563 301.210 C 300.445 300.973,301.292 300.575,301.445 300.327 C 301.629 300.029,301.533 299.985,301.162 300.197 C 300.781 300.414,300.729 300.385,301.000 300.107 C 301.220 299.881,302.053 299.488,302.852 299.233 C 303.650 298.978,304.623 298.417,305.014 297.985 C 305.404 297.553,305.977 297.200,306.286 297.200 C 306.594 297.200,306.746 297.037,306.623 296.837 C 306.500 296.638,306.759 296.569,307.199 296.684 C 307.647 296.801,308.000 296.696,308.000 296.447 C 308.000 296.201,308.294 296.000,308.653 296.000 C 309.012 296.000,309.597 295.667,309.953 295.261 C 310.309 294.854,311.231 294.315,312.003 294.062 C 312.775 293.809,313.894 293.150,314.490 292.597 C 315.086 292.044,315.715 291.615,315.887 291.643 C 316.640 291.767,317.200 291.568,317.200 291.176 C 317.200 290.943,316.992 290.881,316.738 291.038 C 316.450 291.216,316.385 291.148,316.566 290.855 C 316.725 290.598,317.009 290.482,317.198 290.599 C 317.639 290.871,319.600 289.984,319.600 289.512 C 319.600 289.315,319.768 289.257,319.974 289.384 C 320.180 289.511,320.810 289.154,321.374 288.589 C 321.938 288.025,322.400 287.652,322.400 287.761 C 322.400 287.870,322.940 287.770,323.600 287.540 C 324.259 287.310,324.708 286.974,324.596 286.793 C 324.484 286.612,325.069 286.250,325.896 285.988 C 326.723 285.726,327.609 285.250,327.864 284.929 C 328.119 284.609,328.389 284.403,328.464 284.472 C 328.539 284.541,329.230 284.225,330.000 283.771 C 330.770 283.317,331.580 282.872,331.800 282.783 C 332.020 282.694,332.521 282.346,332.913 282.010 C 333.305 281.675,333.755 281.380,333.913 281.355 C 334.683 281.233,336.800 280.189,336.800 279.931 C 336.800 279.770,337.565 279.291,338.500 278.868 C 339.435 278.445,340.599 277.715,341.088 277.246 C 341.576 276.776,342.116 276.422,342.288 276.459 C 342.917 276.596,344.000 275.899,344.000 275.357 C 344.000 275.051,344.289 274.800,344.643 274.800 C 345.059 274.800,345.202 274.582,345.047 274.179 C 344.916 273.838,344.977 273.662,345.183 273.789 C 346.284 274.470,346.398 269.870,346.376 225.800 C 346.350 174.772,346.571 178.311,343.298 176.594 C 342.474 176.161,341.683 175.645,341.541 175.446 C 341.398 175.248,340.903 175.184,340.440 175.305 C 339.978 175.426,339.700 175.362,339.823 175.163 C 340.406 174.220,335.137 175.027,334.040 176.049 C 333.596 176.462,332.956 176.800,332.617 176.800 C 332.278 176.800,332.000 176.991,332.000 177.224 C 332.000 177.457,331.851 177.555,331.668 177.442 C 331.486 177.330,330.667 177.790,329.848 178.465 C 329.029 179.140,328.253 179.586,328.123 179.457 C 327.994 179.327,327.212 179.757,326.386 180.411 C 325.561 181.065,324.606 181.600,324.266 181.600 C 323.926 181.600,323.532 181.786,323.392 182.013 C 323.252 182.240,322.296 182.816,321.269 183.293 C 320.241 183.770,319.161 184.489,318.870 184.891 C 318.578 185.293,318.038 185.571,317.670 185.511 C 317.301 185.450,317.043 185.619,317.095 185.886 C 317.148 186.156,316.940 186.275,316.626 186.155 C 316.316 186.036,315.703 186.297,315.264 186.736 C 314.826 187.174,314.362 187.428,314.233 187.300 C 314.105 187.172,314.000 187.254,314.000 187.483 C 314.000 187.713,313.438 188.012,312.751 188.150 C 311.753 188.349,311.593 188.509,311.954 188.945 C 312.319 189.384,312.226 189.456,311.479 189.313 C 310.936 189.209,310.334 189.398,310.027 189.768 C 309.738 190.116,309.287 190.400,309.024 190.400 C 308.204 190.400,305.765 192.923,304.964 194.600 C 304.246 196.105,304.204 197.214,304.264 213.200 C 304.300 222.550,304.321 230.650,304.312 231.200 C 304.303 231.750,304.268 235.080,304.234 238.600 C 304.201 242.120,304.070 245.270,303.943 245.600 C 303.817 245.930,303.481 246.917,303.197 247.794 C 302.601 249.632,299.397 252.960,298.200 252.984 C 297.760 252.993,297.448 253.234,297.506 253.519 C 297.565 253.804,297.385 253.996,297.106 253.945 C 296.321 253.802,293.915 255.011,292.743 256.137 C 292.162 256.695,291.577 257.043,291.443 256.910 C 291.309 256.776,291.200 256.877,291.200 257.133 C 291.200 257.390,291.009 257.600,290.776 257.600 C 290.543 257.600,290.482 257.375,290.641 257.100 C 290.799 256.825,290.487 257.001,289.947 257.492 C 289.407 257.983,288.388 258.585,287.683 258.831 C 286.943 259.089,286.397 259.558,286.394 259.939 C 286.389 260.454,286.313 260.482,286.050 260.066 C 285.777 259.637,285.664 259.656,285.468 260.166 C 285.335 260.515,284.971 260.800,284.662 260.800 C 284.352 260.800,283.876 261.068,283.604 261.396 C 283.332 261.723,282.956 261.897,282.769 261.781 C 282.582 261.665,282.078 261.922,281.648 262.352 C 281.218 262.782,280.762 263.028,280.633 262.900 C 280.505 262.772,280.400 262.877,280.400 263.133 C 280.400 263.390,280.265 263.564,280.100 263.521 C 279.520 263.368,277.991 264.061,278.191 264.386 C 278.303 264.567,277.946 264.827,277.397 264.965 C 276.849 265.103,276.400 265.392,276.400 265.608 C 276.400 265.823,275.993 266.000,275.496 266.000 C 274.999 266.000,274.088 266.468,273.471 267.039 C 272.855 267.610,272.119 268.112,271.835 268.154 C 271.552 268.195,270.849 268.538,270.274 268.915 C 269.699 269.292,269.031 269.600,268.790 269.600 C 268.550 269.600,268.452 269.761,268.574 269.958 C 268.696 270.155,268.517 270.423,268.177 270.554 C 267.770 270.710,267.644 270.621,267.810 270.295 C 267.948 270.023,267.687 270.225,267.230 270.744 C 266.717 271.328,266.395 271.481,266.388 271.144 C 266.380 270.781,266.240 270.833,265.968 271.300 C 265.744 271.685,265.231 272.000,264.829 272.000 C 264.427 272.000,263.867 272.278,263.584 272.619 C 263.302 272.959,262.155 273.687,261.035 274.235 C 258.677 275.392,257.650 276.002,256.888 276.700 C 256.588 276.975,255.996 277.200,255.571 277.200 C 255.147 277.200,254.800 277.359,254.800 277.554 C 254.800 277.749,254.170 278.208,253.400 278.573 C 252.630 278.939,252.000 279.420,252.000 279.642 C 252.000 279.865,251.821 279.937,251.602 279.801 C 251.384 279.666,250.619 279.971,249.902 280.478 C 249.186 280.985,248.354 281.452,248.053 281.516 C 247.752 281.579,246.925 282.074,246.215 282.616 C 245.505 283.157,244.446 283.600,243.862 283.600 C 243.278 283.600,242.800 283.761,242.800 283.958 C 242.800 284.154,242.350 284.289,241.800 284.258 C 241.250 284.226,240.800 284.088,240.800 283.950 C 240.800 283.743,239.101 283.215,237.885 283.044 C 237.712 283.020,237.418 282.752,237.230 282.449 C 237.043 282.146,236.685 282.024,236.435 282.178 C 236.171 282.341,236.026 282.237,236.090 281.930 C 236.151 281.638,235.930 281.400,235.600 281.400 C 235.270 281.400,234.910 281.309,234.800 281.199 C 233.913 280.307,231.163 278.776,230.823 278.985 C 230.591 279.129,230.400 279.077,230.400 278.870 C 230.400 278.402,228.410 277.067,227.712 277.067 C 227.431 277.067,227.200 276.950,227.200 276.808 C 227.200 276.666,226.570 276.302,225.800 276.000 C 225.030 275.698,224.400 275.285,224.400 275.083 C 224.400 274.880,224.145 274.812,223.833 274.932 C 223.521 275.052,223.159 274.870,223.028 274.529 C 222.880 274.143,222.491 273.988,221.995 274.117 C 221.557 274.232,221.277 274.199,221.373 274.044 C 221.469 273.889,221.382 273.500,221.180 273.181 C 220.912 272.758,220.811 272.740,220.806 273.116 C 220.803 273.418,220.344 273.209,219.700 272.612 C 219.095 272.051,218.375 271.678,218.100 271.783 C 217.825 271.889,217.600 271.730,217.600 271.430 C 217.600 270.783,216.506 270.287,215.902 270.661 C 215.668 270.805,215.592 270.737,215.733 270.508 C 215.874 270.280,215.407 269.855,214.695 269.563 C 213.983 269.272,213.160 268.800,212.868 268.513 C 212.575 268.227,212.142 268.112,211.906 268.258 C 211.660 268.410,211.592 268.337,211.747 268.086 C 211.895 267.846,211.778 267.503,211.486 267.325 C 210.542 266.747,208.896 264.216,209.100 263.654 C 209.209 263.353,209.051 262.951,208.749 262.760 C 208.363 262.516,208.346 262.410,208.691 262.406 C 208.986 262.402,209.165 261.880,209.140 261.100 C 209.117 260.385,209.121 259.530,209.149 259.200 C 209.217 258.417,210.800 256.619,211.725 256.275 C 212.124 256.127,212.351 255.844,212.228 255.645 C 212.106 255.447,212.462 255.171,213.019 255.031 C 213.577 254.891,213.926 254.604,213.796 254.393 C 213.665 254.182,213.815 254.107,214.128 254.228 C 214.441 254.348,214.977 254.166,215.320 253.823 C 215.663 253.480,216.136 253.200,216.371 253.200 C 216.607 253.200,216.800 253.034,216.800 252.832 C 216.800 252.629,217.321 252.349,217.959 252.209 C 218.596 252.069,219.434 251.605,219.821 251.177 C 220.207 250.750,220.785 250.400,221.105 250.400 C 221.461 250.400,221.595 250.164,221.452 249.791 C 221.266 249.306,221.368 249.262,221.952 249.574 C 222.500 249.867,222.884 249.781,223.473 249.232 C 223.907 248.828,224.653 248.374,225.131 248.222 C 225.609 248.070,226.176 247.619,226.390 247.219 C 226.603 246.820,227.428 246.371,228.223 246.222 C 229.190 246.041,229.600 245.776,229.463 245.421 C 229.324 245.058,229.504 244.954,230.030 245.092 C 230.495 245.213,230.800 245.090,230.800 244.780 C 230.800 244.498,230.914 244.381,231.054 244.520 C 231.193 244.660,231.757 244.420,232.308 243.987 C 232.858 243.554,233.554 243.200,233.854 243.200 C 234.154 243.200,234.400 243.061,234.400 242.891 C 234.400 242.721,235.075 242.228,235.900 241.795 C 236.725 241.362,237.490 240.916,237.600 240.804 C 237.710 240.692,238.070 240.600,238.400 240.600 C 238.730 240.600,238.966 240.407,238.924 240.171 C 238.881 239.934,239.736 239.421,240.823 239.031 C 241.909 238.640,242.707 238.173,242.596 237.993 C 242.484 237.813,242.916 237.550,243.555 237.410 C 244.194 237.270,245.030 236.809,245.412 236.387 C 245.794 235.964,246.264 235.716,246.457 235.835 C 246.649 235.954,247.069 235.815,247.389 235.526 C 248.426 234.591,249.019 234.203,249.616 234.068 C 249.937 233.996,250.484 233.681,250.831 233.368 C 251.179 233.056,251.674 232.800,251.931 232.800 C 252.189 232.800,252.400 232.620,252.400 232.400 C 252.400 232.180,252.771 232.000,253.224 232.000 C 253.734 232.000,253.941 231.828,253.768 231.548 C 253.598 231.273,253.706 231.170,254.044 231.285 C 254.350 231.390,254.915 231.115,255.300 230.676 C 255.685 230.237,256.000 230.000,256.000 230.149 C 256.000 230.553,258.325 229.275,259.221 228.379 C 259.650 227.950,260.180 227.600,260.400 227.600 C 260.620 227.600,260.759 227.465,260.710 227.300 C 260.660 227.135,261.110 226.479,261.710 225.842 C 262.309 225.204,262.801 224.304,262.802 223.842 C 262.972 144.337,262.931 85.719,262.705 85.859 C 262.542 85.959,262.514 85.769,262.642 85.435 C 262.770 85.101,262.527 84.327,262.102 83.714 C 261.678 83.101,261.217 82.285,261.078 81.900 C 260.939 81.515,260.549 81.200,260.213 81.200 C 259.876 81.200,259.600 81.063,259.600 80.896 C 259.600 80.729,259.195 80.334,258.700 80.017 C 257.739 79.403,251.600 79.094,251.600 79.660 C 251.600 79.833,251.300 79.860,250.934 79.719 C 250.510 79.557,250.366 79.622,250.538 79.899 C 250.700 80.162,250.321 80.442,249.584 80.603 C 248.670 80.804,248.466 80.997,248.774 81.369 C 249.083 81.741,248.963 81.845,248.293 81.786 C 247.802 81.742,247.130 81.928,246.800 82.198 C 246.470 82.468,245.430 83.021,244.489 83.427 C 243.388 83.901,242.851 84.356,242.984 84.703 C 243.098 84.999,243.025 85.139,242.823 85.014 C 242.372 84.736,239.600 86.012,239.600 86.498 C 239.600 86.690,239.432 86.744,239.228 86.617 C 239.023 86.491,238.738 86.577,238.594 86.810 C 238.450 87.043,237.627 87.516,236.766 87.860 C 235.905 88.205,235.200 88.618,235.200 88.779 C 235.200 89.205,233.066 90.225,231.900 90.356 C 231.530 90.398,231.544 90.504,231.953 90.762 C 232.387 91.037,232.323 91.171,231.653 91.383 C 231.184 91.532,230.797 91.867,230.794 92.127 C 230.790 92.448,230.680 92.429,230.452 92.070 C 230.184 91.647,229.970 91.688,229.387 92.270 C 228.985 92.672,228.599 92.955,228.529 92.900 C 228.158 92.612,227.613 92.863,227.700 93.281 C 227.755 93.546,227.530 93.789,227.200 93.820 C 226.870 93.852,226.375 93.906,226.100 93.939 C 225.825 93.973,225.597 94.315,225.594 94.700 C 225.589 95.202,225.498 95.258,225.269 94.897 C 225.033 94.526,224.603 94.704,223.622 95.580 C 222.892 96.232,222.184 96.737,222.048 96.703 C 221.368 96.534,220.017 97.308,220.258 97.729 C 220.407 97.988,220.387 98.073,220.215 97.917 C 219.864 97.601,216.764 99.058,216.306 99.754 C 216.144 99.999,216.009 100.037,216.006 99.839 C 216.003 99.640,215.654 99.877,215.230 100.365 C 214.807 100.853,214.402 101.207,214.330 101.152 C 214.018 100.912,211.600 101.999,211.600 102.379 C 211.600 102.611,211.324 102.800,210.987 102.800 C 210.651 102.800,210.286 103.032,210.177 103.316 C 210.068 103.599,209.629 103.858,209.200 103.890 C 208.772 103.922,208.030 104.314,207.550 104.760 C 207.071 105.207,206.533 105.482,206.354 105.372 C 206.175 105.261,205.678 105.522,205.248 105.952 C 204.818 106.382,204.387 106.654,204.290 106.557 C 204.193 106.460,203.886 106.655,203.608 106.990 C 203.330 107.326,202.876 107.600,202.600 107.600 C 202.324 107.600,201.876 107.868,201.604 108.196 C 201.332 108.523,200.950 108.693,200.755 108.572 C 200.560 108.451,200.400 108.543,200.400 108.776 C 200.400 109.009,200.130 109.200,199.800 109.200 C 199.470 109.200,199.200 109.391,199.200 109.624 C 199.200 109.857,199.029 109.942,198.820 109.812 C 198.611 109.683,198.232 109.967,197.977 110.443 C 197.645 111.064,197.428 111.169,197.208 110.813 C 196.988 110.457,196.718 110.582,196.244 111.259 C 195.881 111.777,195.502 112.171,195.401 112.135 C 194.920 111.964,193.633 112.537,193.455 113.002 C 193.344 113.289,192.700 113.646,192.024 113.795 C 191.282 113.958,190.900 114.238,191.062 114.501 C 191.231 114.774,191.095 114.845,190.695 114.692 C 190.345 114.557,189.845 114.705,189.584 115.019 C 189.323 115.334,188.950 115.493,188.755 115.372 C 188.560 115.251,188.400 115.324,188.400 115.533 C 188.400 115.742,187.671 116.205,186.779 116.562 C 185.888 116.918,185.269 117.388,185.403 117.605 C 185.537 117.822,185.371 118.000,185.034 118.000 C 184.006 118.000,180.800 119.726,180.800 120.280 C 180.800 120.738,180.630 120.825,179.796 120.792 C 179.402 120.776,177.034 122.109,176.491 122.652 C 176.190 122.953,175.686 123.200,175.371 123.200 C 175.057 123.200,174.797 123.515,174.794 123.900 C 174.789 124.498,174.731 124.513,174.400 124.000 C 174.142 123.600,174.010 123.567,174.006 123.900 C 174.003 124.175,173.773 124.400,173.496 124.400 C 173.219 124.400,172.499 124.857,171.896 125.416 C 171.253 126.012,170.797 126.219,170.794 125.916 C 170.790 125.571,170.691 125.543,170.494 125.832 C 170.332 126.069,169.165 126.766,167.900 127.379 C 166.635 127.992,165.600 128.639,165.600 128.816 C 165.600 128.993,164.984 129.341,164.232 129.589 C 163.480 129.838,162.657 130.290,162.404 130.595 C 162.152 130.899,161.372 131.271,160.672 131.420 C 159.973 131.570,159.220 131.818,159.000 131.971 C 158.648 132.216,157.781 132.244,157.500 132.020 C 157.445 131.976,156.987 131.864,156.483 131.770 C 155.979 131.677,155.180 131.240,154.708 130.800 C 154.236 130.360,153.658 130.003,153.425 130.006 C 153.191 130.009,153.270 130.187,153.600 130.400 C 153.930 130.613,154.053 130.791,153.873 130.794 C 153.496 130.801,150.743 128.801,150.306 128.202 C 150.112 127.936,150.008 127.935,150.000 128.200 C 149.992 128.467,149.890 128.467,149.694 128.200 C 149.190 127.514,147.587 126.761,147.174 127.016 C 146.957 127.150,146.830 127.021,146.890 126.730 C 146.951 126.438,146.775 126.245,146.500 126.300 C 146.225 126.355,146.000 126.209,146.000 125.976 C 146.000 125.743,145.820 125.664,145.600 125.800 C 145.380 125.936,145.197 125.812,145.194 125.524 C 145.189 125.143,145.082 125.164,144.800 125.600 C 144.492 126.077,144.411 126.086,144.406 125.647 C 144.398 124.896,142.765 123.528,142.156 123.761 C 141.887 123.865,141.573 123.708,141.460 123.412 C 141.347 123.117,140.700 122.754,140.024 122.605 C 139.347 122.457,138.895 122.170,139.020 121.967 C 139.247 121.601,138.681 121.439,137.660 121.579 C 137.363 121.620,137.227 121.480,137.358 121.269 C 137.620 120.845,136.512 120.283,136.017 120.589 C 135.847 120.695,135.385 120.425,134.991 119.991 C 134.598 119.556,134.111 119.200,133.909 119.200 C 133.708 119.200,133.292 118.975,132.985 118.700 C 131.568 117.429,131.060 117.098,129.202 116.238 C 128.110 115.732,127.347 115.172,127.508 114.995 C 127.669 114.818,127.485 114.786,127.100 114.924 C 126.715 115.062,126.400 115.022,126.400 114.836 C 126.400 114.463,123.980 113.353,123.500 113.505 C 123.335 113.557,123.200 113.311,123.200 112.957 C 123.200 112.550,122.980 112.399,122.600 112.545 C 122.270 112.671,122.000 112.618,122.000 112.427 C 122.000 112.236,121.359 111.701,120.576 111.239 C 119.793 110.777,119.282 110.624,119.440 110.899 C 119.599 111.175,119.295 111.008,118.765 110.530 C 118.234 110.051,117.306 109.537,116.703 109.387 C 116.099 109.237,115.689 108.979,115.791 108.814 C 115.893 108.649,115.310 108.173,114.495 107.757 C 113.679 107.341,112.772 106.775,112.478 106.500 C 111.973 106.028,111.380 105.845,110.700 105.953 C 110.535 105.979,110.400 105.832,110.400 105.627 C 110.400 105.422,109.996 105.126,109.502 104.969 C 109.007 104.812,108.383 104.395,108.114 104.042 C 107.768 103.588,107.622 103.553,107.613 103.924 C 107.606 104.212,107.417 104.334,107.193 104.196 C 106.970 104.058,106.891 103.777,107.017 103.572 C 107.144 103.368,107.012 103.199,106.724 103.198 C 106.436 103.197,105.402 102.667,104.427 102.020 C 103.451 101.373,102.524 100.923,102.367 101.020 C 102.210 101.118,101.658 100.751,101.141 100.205 C 100.623 99.660,99.795 99.211,99.300 99.207 C 98.805 99.203,98.400 99.009,98.400 98.776 C 98.400 98.543,98.220 98.464,98.000 98.600 C 97.780 98.736,97.600 98.657,97.600 98.424 C 97.600 98.191,97.339 98.000,97.020 98.000 C 96.701 98.000,96.256 97.685,96.032 97.300 C 95.808 96.915,95.619 96.744,95.612 96.920 C 95.605 97.097,94.978 96.766,94.217 96.186 C 93.457 95.606,92.666 95.236,92.459 95.363 C 92.253 95.491,91.976 95.315,91.845 94.972 C 91.713 94.630,91.424 94.461,91.203 94.598 C 90.981 94.735,90.800 94.669,90.800 94.451 C 90.800 94.234,90.395 93.994,89.900 93.918 C 89.405 93.843,89.043 93.567,89.095 93.305 C 89.147 93.044,88.305 92.515,87.223 92.131 C 86.142 91.747,85.333 91.309,85.426 91.158 C 85.655 90.788,84.422 90.339,83.961 90.624 C 83.759 90.749,83.486 90.569,83.354 90.225 C 83.222 89.881,82.858 89.600,82.545 89.600 C 82.231 89.600,81.872 89.331,81.746 89.002 C 81.619 88.674,81.355 88.504,81.158 88.626 C 80.961 88.748,80.800 88.636,80.800 88.377 C 80.800 88.085,80.402 87.983,79.751 88.107 C 78.949 88.261,78.653 88.124,78.498 87.531 C 78.380 87.079,78.066 86.842,77.747 86.965 C 77.431 87.086,77.200 86.917,77.200 86.564 C 77.200 86.228,77.032 86.056,76.828 86.183 C 76.623 86.309,76.342 86.230,76.204 86.007 C 76.066 85.783,75.587 85.600,75.139 85.600 C 74.674 85.600,74.239 85.272,74.125 84.834 C 74.015 84.413,73.448 83.948,72.866 83.802 C 72.284 83.656,71.708 83.375,71.587 83.178 C 71.465 82.981,70.923 82.746,70.383 82.655 C 69.842 82.565,69.449 82.277,69.510 82.016 C 69.570 81.754,69.456 81.642,69.255 81.766 C 69.055 81.890,68.668 81.723,68.396 81.396 C 68.124 81.068,67.682 80.800,67.412 80.800 C 67.143 80.800,66.503 80.436,65.990 79.991 C 65.307 79.399,64.978 79.312,64.759 79.666 C 64.559 79.991,64.287 80.021,63.930 79.759 C 63.081 79.136,61.124 79.077,60.752 79.664 C 60.499 80.064,60.411 80.073,60.406 79.700 C 60.397 78.962,59.445 79.092,58.308 79.987 M336.561 79.663 C 336.458 79.829,336.105 79.862,335.775 79.735 C 335.438 79.606,334.858 79.872,334.447 80.345 C 334.047 80.807,333.619 81.085,333.496 80.963 C 333.262 80.729,329.897 82.783,329.667 83.300 C 329.593 83.465,329.188 83.600,328.767 83.600 C 328.345 83.600,328.000 83.786,328.000 84.013 C 328.000 84.239,327.685 84.536,327.300 84.672 C 326.915 84.808,326.166 85.297,325.635 85.760 C 325.105 86.222,324.799 86.377,324.956 86.105 C 325.148 85.771,325.039 85.687,324.623 85.846 C 324.283 85.977,324.103 86.243,324.223 86.437 C 324.343 86.632,324.162 86.684,323.821 86.553 C 323.479 86.422,323.200 86.486,323.200 86.696 C 323.200 86.907,322.469 87.408,321.576 87.811 C 320.682 88.214,319.773 88.876,319.556 89.283 C 319.338 89.690,318.989 89.917,318.780 89.788 C 318.571 89.658,318.400 89.754,318.400 90.000 C 318.400 90.246,318.235 90.345,318.032 90.220 C 317.556 89.925,316.323 91.152,316.617 91.628 C 316.741 91.827,316.585 91.893,316.272 91.772 C 315.959 91.652,315.431 91.826,315.099 92.158 C 314.767 92.490,314.387 92.654,314.255 92.522 C 314.123 92.389,313.327 92.758,312.486 93.341 C 311.645 93.923,310.824 94.400,310.662 94.400 C 310.131 94.400,306.021 98.152,305.969 98.684 C 305.953 98.858,305.826 99.360,305.688 99.800 C 305.150 101.513,305.153 132.523,305.691 132.865 C 306.091 133.118,306.093 133.189,305.700 133.194 C 305.425 133.197,305.200 133.470,305.200 133.800 C 305.200 134.130,305.363 134.400,305.563 134.400 C 305.762 134.400,305.835 134.743,305.726 135.163 C 305.613 135.592,305.849 136.264,306.263 136.698 C 306.668 137.123,307.204 137.814,307.453 138.235 C 307.709 138.667,308.231 138.940,308.653 138.862 C 309.064 138.786,309.274 138.852,309.119 139.010 C 308.633 139.504,309.987 140.493,311.219 140.543 C 311.869 140.570,312.400 140.717,312.400 140.871 C 312.400 141.216,314.053 141.156,314.600 140.792 C 314.820 140.645,315.487 140.559,316.081 140.600 C 316.699 140.642,317.255 140.433,317.378 140.112 C 317.497 139.802,317.754 139.648,317.950 139.769 C 318.146 139.890,318.818 139.587,319.443 139.095 C 320.069 138.603,320.675 138.237,320.790 138.283 C 320.906 138.329,321.523 137.969,322.163 137.483 C 322.802 136.997,323.482 136.647,323.674 136.704 C 323.865 136.761,324.126 136.537,324.253 136.206 C 324.380 135.875,324.618 135.687,324.781 135.788 C 324.945 135.890,325.507 135.574,326.030 135.086 C 326.553 134.599,327.030 134.245,327.091 134.300 C 327.409 134.592,328.011 134.342,327.803 134.005 C 327.663 133.778,327.823 133.711,328.176 133.846 C 328.540 133.986,328.894 133.819,329.039 133.442 C 329.175 133.089,329.523 132.800,329.812 132.800 C 330.102 132.800,330.873 132.350,331.527 131.800 C 332.181 131.250,332.985 130.800,333.315 130.800 C 333.645 130.800,334.028 130.504,334.167 130.143 C 334.305 129.781,334.527 129.594,334.660 129.727 C 334.793 129.860,335.644 129.458,336.551 128.834 C 337.458 128.210,338.290 127.708,338.400 127.718 C 338.510 127.728,339.361 127.256,340.292 126.668 C 341.223 126.081,342.155 125.600,342.363 125.600 C 342.571 125.600,343.091 125.156,343.518 124.614 C 343.945 124.071,344.393 123.726,344.514 123.848 C 344.636 123.969,344.923 123.717,345.154 123.287 C 345.384 122.857,345.458 122.392,345.319 122.253 C 345.180 122.114,345.287 122.000,345.557 122.000 C 345.827 122.000,345.944 121.832,345.817 121.628 C 345.691 121.423,345.763 121.147,345.978 121.014 C 346.531 120.672,346.554 84.942,346.001 84.601 C 345.773 84.460,345.690 84.178,345.816 83.974 C 345.942 83.770,345.585 83.394,345.023 83.137 C 344.460 82.881,344.000 82.498,344.000 82.287 C 344.000 82.075,344.315 82.144,344.700 82.439 C 345.085 82.734,344.964 82.486,344.430 81.888 C 343.897 81.290,343.235 80.800,342.959 80.800 C 342.683 80.800,342.199 80.542,341.883 80.226 C 341.273 79.616,336.878 79.150,336.561 79.663 " stroke="none" fill="#047cfc" fill-rule="evenodd"></path><path id="path1" d="M262.995 154.600 C 262.995 191.340,263.042 206.311,263.100 187.868 C 263.158 169.426,263.158 139.366,263.100 121.068 C 263.042 102.771,262.995 117.860,262.995 154.600 M230.880 91.280 C 230.616 91.544,230.403 91.949,230.406 92.180 C 230.410 92.461,230.510 92.456,230.706 92.166 C 230.868 91.927,231.360 91.527,231.800 91.278 C 232.393 90.942,232.440 90.821,231.980 90.812 C 231.639 90.805,231.144 91.016,230.880 91.280 M133.600 119.082 C 133.930 119.203,134.650 119.684,135.200 120.151 L 136.200 121.000 135.230 119.900 C 134.697 119.295,133.977 118.814,133.630 118.832 C 133.091 118.859,133.086 118.895,133.600 119.082 M304.093 209.200 C 304.093 209.970,304.175 210.285,304.276 209.900 C 304.376 209.515,304.376 208.885,304.276 208.500 C 304.175 208.115,304.093 208.430,304.093 209.200 M304.114 220.600 C 304.117 221.700,304.195 222.103,304.287 221.495 C 304.379 220.886,304.377 219.986,304.282 219.495 C 304.187 219.003,304.111 219.500,304.114 220.600 M304.038 231.400 C 304.049 232.799,304.098 232.883,304.426 232.065 C 304.662 231.475,304.657 230.884,304.412 230.465 C 304.116 229.958,304.027 230.180,304.038 231.400 M162.976 234.587 C 162.549 234.910,162.380 235.175,162.600 235.175 C 162.820 235.175,163.349 234.910,163.776 234.587 C 164.204 234.264,164.373 234.000,164.153 234.000 C 163.933 234.000,163.404 234.264,162.976 234.587 M304.120 243.200 C 304.120 244.410,304.195 244.905,304.287 244.300 C 304.378 243.695,304.378 242.705,304.287 242.100 C 304.195 241.495,304.120 241.990,304.120 243.200 M175.371 296.209 C 175.795 296.529,176.240 296.694,176.359 296.574 C 176.610 296.323,175.594 295.609,175.000 295.619 C 174.780 295.622,174.947 295.888,175.371 296.209 M253.600 327.236 C 252.936 327.779,252.869 327.915,253.400 327.640 C 254.705 326.966,255.428 326.412,255.000 326.415 C 254.780 326.417,254.150 326.786,253.600 327.236 " stroke="none" fill="#0484fc" fill-rule="evenodd"></path></g></svg>