<svg id="svg" version="1.1" xmlns="http://www.w3.org/2000/svg" xmlns:xlink="http://www.w3.org/1999/xlink" width="400" height="400" viewBox="0, 0, 400,400"><g id="svgg"><path id="path0" d="M189.648 1.685 C 140.330 4.911,96.779 23.687,62.976 56.296 C 61.780 57.449,60.742 58.333,60.669 58.260 C 60.483 58.074,58.178 60.395,58.282 60.665 C 58.328 60.786,57.926 61.315,57.388 61.840 C 56.849 62.364,55.204 64.111,53.731 65.723 C -16.655 142.733,-15.921 259.929,55.425 336.061 C 57.049 337.795,58.322 339.269,58.253 339.338 C 58.085 339.507,60.376 341.808,60.652 341.747 C 60.772 341.721,62.050 342.807,63.492 344.161 C 97.713 376.292,138.868 394.330,186.523 398.086 C 190.893 398.430,209.107 398.430,213.477 398.086 C 261.131 394.330,302.319 376.283,336.447 344.202 C 337.963 342.778,339.262 341.670,339.333 341.742 C 339.506 341.915,341.819 339.617,341.732 339.360 C 341.694 339.250,342.902 337.840,344.416 336.226 C 406.006 270.557,416.126 173.208,369.359 96.289 C 362.329 84.726,350.602 69.623,342.612 61.840 C 342.074 61.315,341.672 60.786,341.718 60.665 C 341.822 60.395,339.517 58.074,339.331 58.260 C 339.258 58.333,338.221 57.449,337.027 56.296 C 304.680 25.059,262.239 6.074,215.723 2.034 C 212.247 1.732,192.890 1.473,189.648 1.685 M198.438 24.972 L 198.438 45.257 194.775 45.395 C 185.618 45.738,176.886 46.786,168.398 48.559 C 166.604 48.934,164.873 49.288,164.551 49.345 L 163.965 49.448 160.647 36.150 C 158.822 28.836,157.261 22.852,157.180 22.852 C 157.098 22.852,142.258 30.238,124.202 39.266 L 91.373 55.681 91.849 56.307 C 92.110 56.652,94.858 60.361,97.954 64.551 C 101.050 68.740,104.308 73.147,105.193 74.344 L 106.803 76.521 104.427 78.371 C 101.369 80.752,97.011 84.504,94.063 87.293 L 91.739 89.492 77.363 75.103 L 62.988 60.715 64.279 59.508 C 74.942 49.541,81.449 44.315,91.867 37.347 C 122.436 16.903,160.022 5.085,195.654 4.716 L 198.438 4.688 198.438 24.972 M213.119 5.085 C 255.905 7.972,295.824 24.493,328.418 52.805 C 330.663 54.755,336.914 60.579,336.914 60.721 C 336.914 60.787,330.468 67.287,322.589 75.165 L 308.263 89.489 305.450 86.851 C 278.314 61.404,243.010 46.800,205.225 45.393 L 201.563 45.257 201.563 24.941 L 201.563 4.625 205.844 4.754 C 208.199 4.825,211.473 4.974,213.119 5.085 M175.842 109.811 C 187.181 155.168,196.430 192.307,196.396 192.341 C 196.312 192.425,96.289 57.090,96.289 56.893 C 96.289 56.758,154.777 27.384,155.103 27.355 C 155.170 27.349,164.502 64.454,175.842 109.811 M198.438 68.750 L 198.438 89.063 197.119 89.064 C 192.147 89.072,183.158 90.139,176.807 91.477 L 174.610 91.940 174.424 91.234 C 173.072 86.119,164.848 52.821,164.898 52.668 C 165.297 51.471,186.749 48.577,196.045 48.466 L 198.438 48.438 198.438 68.750 M208.398 48.634 C 244.924 50.845,278.682 65.432,304.446 90.137 L 306.075 91.699 291.722 106.041 L 277.369 120.384 275.672 118.834 C 271.389 114.927,267.152 111.523,262.922 108.595 C 261.316 107.483,260.553 106.839,260.606 106.642 C 260.651 106.480,262.981 102.702,265.786 98.245 C 268.590 93.789,270.822 90.083,270.745 90.010 C 270.410 89.693,239.826 72.804,239.741 72.890 C 239.688 72.942,238.140 77.635,236.300 83.318 C 234.460 89.002,232.901 93.714,232.835 93.789 C 232.769 93.864,231.676 93.626,230.407 93.260 C 222.192 90.892,210.272 89.075,202.881 89.064 L 201.563 89.063 201.563 68.750 L 201.563 48.438 203.369 48.438 C 204.363 48.439,206.626 48.527,208.398 48.634 M75.167 77.413 L 89.493 91.740 87.761 93.575 C 83.234 98.373,80.081 102.112,76.123 107.381 C 66.329 120.417,58.796 134.743,53.404 150.586 C 52.485 153.287,52.097 154.192,51.868 154.172 C 51.623 154.150,51.563 154.366,51.563 155.255 C 51.563 155.866,51.338 157.139,51.062 158.091 C 47.939 168.863,45.902 182.167,45.399 195.068 L 45.268 198.438 24.948 198.438 L 4.628 198.438 4.761 194.189 C 6.139 150.360,21.848 108.720,49.576 75.391 C 52.863 71.440,60.433 63.086,60.726 63.086 C 60.789 63.086,67.288 69.533,75.167 77.413 M342.527 66.455 C 375.387 101.743,393.730 146.191,395.239 194.189 L 395.372 198.437 375.055 198.438 L 354.737 198.438 354.606 195.264 C 353.235 162.168,342.952 132.784,323.832 107.322 C 319.923 102.117,316.756 98.362,312.239 93.575 L 310.507 91.740 324.833 77.413 C 332.712 69.533,339.211 63.086,339.274 63.086 C 339.338 63.086,340.801 64.602,342.527 66.455 M254.035 84.220 C 260.839 88.002,266.406 91.169,266.406 91.258 C 266.406 91.407,263.278 96.442,258.002 104.785 C 256.120 107.762,239.107 134.832,231.243 147.363 C 229.558 150.049,224.334 158.354,219.636 165.820 C 214.937 173.286,209.849 181.386,208.329 183.820 C 206.810 186.254,205.547 188.227,205.524 188.205 C 205.500 188.182,206.396 185.356,207.515 181.924 C 214.423 160.721,238.922 85.306,240.583 80.127 C 241.075 78.596,241.518 77.344,241.570 77.344 C 241.621 77.344,247.230 80.438,254.035 84.220 M120.035 94.434 C 126.226 102.813,131.629 110.120,132.043 110.673 L 132.795 111.679 130.606 113.429 C 129.403 114.391,127.548 115.960,126.486 116.916 C 125.423 117.871,124.118 119.040,123.587 119.513 L 122.621 120.374 108.270 106.036 L 93.919 91.699 95.934 89.777 C 99.734 86.154,108.253 79.018,108.626 79.146 C 108.711 79.175,113.845 86.055,120.035 94.434 M198.438 112.500 L 198.438 132.813 197.260 132.813 C 195.465 132.812,190.692 133.355,187.830 133.883 C 186.421 134.144,185.248 134.337,185.224 134.312 C 185.121 134.210,175.383 95.060,175.444 94.998 C 176.228 94.214,190.678 92.289,196.338 92.215 L 198.438 92.188 198.438 112.500 M207.520 92.388 C 215.329 92.956,230.661 95.830,231.763 96.932 C 231.836 97.005,219.446 135.309,219.305 135.446 C 219.268 135.482,218.096 135.219,216.699 134.861 C 212.507 133.789,205.799 132.815,202.588 132.813 L 201.563 132.813 201.563 112.500 L 201.563 92.188 203.174 92.188 C 204.060 92.189,206.016 92.279,207.520 92.388 M120.313 122.656 C 120.313 122.710,119.481 123.660,118.464 124.766 C 107.770 136.406,99.461 150.502,94.638 165.186 C 94.347 166.072,94.076 166.797,94.037 166.797 C 93.786 166.797,55.424 155.294,55.317 155.187 C 55.244 155.113,55.736 153.411,56.411 151.404 C 63.256 131.049,74.249 112.670,89.239 96.518 L 91.661 93.908 105.987 108.233 C 113.866 116.111,120.313 122.602,120.313 122.656 M314.150 100.293 C 337.208 126.715,350.180 159.543,351.485 194.775 L 351.621 198.438 331.304 198.438 L 310.988 198.438 310.856 195.850 C 309.493 168.981,299.926 145.263,282.717 126.088 C 281.857 125.130,280.809 123.957,280.388 123.484 L 279.625 122.622 293.963 108.271 L 308.301 93.920 310.032 95.739 C 310.985 96.740,312.838 98.789,314.150 100.293 M260.603 110.776 C 264.621 113.468,269.944 117.723,273.340 120.956 L 275.098 122.630 260.761 136.980 L 246.424 151.331 244.560 149.671 C 242.980 148.264,241.666 147.234,237.633 144.238 L 237.107 143.848 247.889 126.709 C 253.819 117.283,258.701 109.570,258.737 109.570 C 258.774 109.570,259.614 110.113,260.603 110.776 M146.768 130.566 L 158.772 146.777 157.863 147.559 C 157.363 147.988,156.195 149.014,155.267 149.837 L 153.579 151.334 139.245 136.999 L 124.911 122.664 125.786 121.764 C 127.488 120.011,134.341 114.230,134.618 114.312 C 134.698 114.336,140.165 121.650,146.768 130.566 M137.038 139.284 L 151.323 153.568 149.538 155.603 C 144.076 161.833,139.923 168.808,136.996 176.666 C 136.477 178.059,136.038 179.225,136.020 179.256 C 135.985 179.316,97.219 167.791,97.118 167.691 C 97.086 167.659,97.533 166.275,98.112 164.617 C 102.534 151.959,109.564 139.733,118.141 129.786 C 120.110 127.503,122.458 125.000,122.632 125.000 C 122.698 125.000,129.181 131.428,137.038 139.284 M279.106 126.709 C 296.580 145.346,307.744 172.806,307.809 197.314 L 307.813 198.438 287.519 198.438 L 267.225 198.438 267.092 196.338 C 266.139 181.346,260.742 167.771,251.271 156.543 C 250.274 155.361,249.268 154.223,249.036 154.014 L 248.614 153.633 262.929 139.317 C 270.803 131.442,277.303 125.000,277.374 125.000 C 277.446 125.000,278.225 125.769,279.106 126.709 M198.438 156.227 L 198.438 176.517 197.119 176.608 C 196.394 176.658,195.792 176.690,195.782 176.679 C 195.771 176.669,193.592 167.959,190.940 157.324 C 188.288 146.689,186.076 137.850,186.026 137.681 C 185.905 137.280,189.781 136.545,194.531 136.069 C 194.907 136.031,195.940 135.986,196.826 135.969 L 198.438 135.938 198.438 156.227 M209.264 136.535 C 211.722 136.891,218.022 138.269,218.254 138.501 C 218.345 138.592,205.978 176.705,205.799 176.883 C 205.737 176.946,205.124 176.899,204.438 176.780 C 203.752 176.660,202.824 176.563,202.377 176.563 L 201.563 176.563 201.563 156.220 L 201.563 135.877 203.997 136.001 C 205.336 136.068,207.706 136.309,209.264 136.535 M237.506 147.966 C 239.074 149.094,241.195 150.821,243.094 152.514 L 244.228 153.524 229.891 167.863 L 215.553 182.202 214.759 181.591 C 214.322 181.254,213.936 180.961,213.902 180.938 C 213.853 180.906,231.244 153.130,234.718 147.690 C 235.495 146.474,235.425 146.468,237.506 147.966 M172.782 165.786 C 179.349 174.667,184.677 182.010,184.621 182.103 C 184.565 182.196,178.049 175.799,170.140 167.886 L 155.762 153.500 156.373 152.971 C 159.043 150.656,160.608 149.410,160.714 149.515 C 160.783 149.583,166.214 156.905,172.782 165.786 M167.921 170.167 L 182.227 184.474 181.142 185.916 C 180.546 186.708,179.567 188.358,178.968 189.582 C 178.018 191.520,177.827 191.791,177.485 191.682 C 177.269 191.614,168.563 189.016,158.137 185.910 C 147.711 182.804,139.142 180.223,139.094 180.174 C 138.660 179.740,143.167 169.968,145.579 166.113 C 147.678 162.759,152.989 155.903,153.516 155.866 C 153.570 155.862,160.052 162.298,167.921 170.167 M247.937 157.422 C 255.710 166.037,261.175 177.480,263.186 189.352 C 263.647 192.073,264.216 198.154,264.028 198.342 C 263.974 198.396,254.995 198.417,244.075 198.390 L 224.219 198.340 236.475 196.710 C 243.215 195.814,248.747 195.065,248.767 195.046 C 248.801 195.014,244.897 179.247,244.831 179.154 C 244.814 179.129,239.575 181.350,233.191 184.088 C 226.806 186.826,221.437 189.112,221.261 189.169 C 221.024 189.244,220.757 188.945,220.248 188.035 C 219.868 187.355,219.153 186.278,218.659 185.642 L 217.761 184.486 232.074 170.173 C 239.945 162.300,246.438 155.881,246.501 155.908 C 246.564 155.935,247.210 156.616,247.937 157.422 M69.407 162.711 C 77.371 165.083,86.787 167.889,90.332 168.947 C 93.877 170.005,118.662 177.388,145.410 185.355 C 193.155 199.575,194.289 199.917,194.124 200.080 C 194.080 200.125,172.158 206.679,145.410 214.645 C 118.662 222.612,93.877 229.995,90.332 231.053 C 69.769 237.190,54.912 241.602,54.807 241.602 C 54.741 241.602,54.688 222.881,54.688 200.000 C 54.688 177.119,54.741 158.398,54.807 158.398 C 54.873 158.398,61.443 160.339,69.407 162.711 M51.563 184.082 L 51.563 198.438 49.971 198.438 L 48.379 198.438 48.515 194.775 C 48.764 188.056,49.459 181.100,50.491 175.000 C 51.217 170.707,51.402 169.727,51.486 169.727 C 51.528 169.727,51.563 176.187,51.563 184.082 M198.420 183.350 L 198.402 187.012 197.546 183.691 C 196.464 179.494,196.464 179.688,197.559 179.688 L 198.438 179.688 198.420 183.350 M204.685 180.016 C 204.762 180.104,204.100 182.373,203.213 185.059 L 201.602 189.941 201.582 184.786 L 201.563 179.631 203.053 179.744 C 203.873 179.806,204.607 179.928,204.685 180.016 M243.789 187.839 C 244.397 190.282,244.853 192.321,244.803 192.371 C 244.695 192.479,211.886 196.882,211.666 196.818 C 211.550 196.785,242.128 183.537,242.582 183.424 C 242.637 183.410,243.180 185.397,243.789 187.839 M212.852 184.041 L 213.272 184.488 211.095 186.629 C 209.898 187.806,209.051 188.550,209.214 188.281 C 212.118 183.492,212.222 183.370,212.852 184.041 M194.273 196.612 C 194.212 196.674,181.216 192.805,181.102 192.691 C 180.830 192.419,182.573 189.108,183.911 187.354 L 184.427 186.676 189.374 191.620 C 192.095 194.340,194.300 196.586,194.273 196.612 M216.998 188.699 C 217.546 189.554,217.965 190.345,217.927 190.456 C 217.870 190.628,214.846 191.976,208.301 194.750 L 206.934 195.329 211.220 191.032 C 214.452 187.793,215.568 186.786,215.754 186.940 C 215.890 187.053,216.449 187.844,216.998 188.699 M45.395 204.834 C 45.904 217.692,47.659 229.408,50.765 240.690 C 51.274 242.539,51.563 243.997,51.563 244.721 C 51.563 245.638,51.622 245.850,51.872 245.828 C 52.107 245.807,52.549 246.862,53.699 250.195 C 61.026 271.423,72.824 290.816,88.075 306.697 L 89.535 308.218 75.177 322.576 L 60.819 336.934 58.759 334.824 C 25.601 300.866,4.688 249.994,4.688 203.292 L 4.688 201.563 24.976 201.563 L 45.265 201.563 45.395 204.834 M51.540 215.967 L 51.518 230.371 51.049 228.027 C 49.705 221.301,48.453 209.278,48.440 202.979 L 48.438 201.563 50.000 201.563 L 51.563 201.563 51.540 215.967 M220.087 202.783 C 219.761 205.244,218.080 209.602,216.907 211.023 L 216.504 211.511 210.593 206.664 C 207.342 203.998,204.624 201.760,204.554 201.690 C 204.484 201.620,207.987 201.563,212.337 201.563 L 220.248 201.563 220.087 202.783 M264.063 202.012 C 264.063 209.893,261.259 220.743,257.113 228.906 C 254.719 233.620,250.852 239.437,250.324 239.120 C 249.672 238.729,219.141 213.627,219.141 213.482 C 219.141 213.392,219.534 212.680,220.014 211.901 C 221.561 209.393,222.875 205.701,223.163 203.055 C 223.235 202.395,223.331 201.790,223.377 201.709 C 223.423 201.628,232.596 201.563,243.762 201.563 L 264.063 201.563 264.063 202.012 M307.728 204.443 C 306.773 224.491,300.776 243.012,289.940 259.375 C 288.283 261.878,285.190 266.187,284.561 266.870 C 284.475 266.965,277.437 261.340,268.923 254.370 C 260.408 247.401,253.321 241.609,253.175 241.499 C 252.961 241.337,253.099 241.046,253.877 240.018 C 261.655 229.743,266.150 217.314,267.094 203.467 L 267.224 201.563 287.544 201.563 L 307.865 201.563 307.728 204.443 M351.560 202.979 C 351.497 234.026,338.490 270.147,318.711 294.199 L 318.262 294.745 302.832 282.125 C 294.346 275.184,287.282 269.388,287.135 269.244 C 286.909 269.023,287.174 268.572,288.821 266.376 C 302.281 248.420,309.720 227.436,310.847 204.248 L 310.978 201.563 331.270 201.563 L 351.563 201.563 351.560 202.979 M395.311 203.369 C 395.290 223.322,390.536 248.391,382.968 268.457 C 373.545 293.441,357.083 319.421,340.302 335.789 L 339.153 336.910 333.201 330.955 L 327.248 325.000 333.547 318.700 L 339.845 312.399 330.535 304.784 C 325.415 300.595,321.098 297.074,320.942 296.959 C 320.707 296.786,320.912 296.424,322.122 294.876 C 342.161 269.242,353.246 238.511,354.603 204.834 L 354.735 201.563 375.024 201.563 L 395.313 201.563 395.311 203.369 M196.372 211.994 C 195.688 215.959,195.104 219.270,195.074 219.351 C 194.888 219.854,189.938 217.604,187.924 216.101 L 186.907 215.341 192.224 210.022 C 195.148 207.096,197.558 204.721,197.578 204.744 C 197.599 204.767,197.056 208.029,196.372 211.994 M206.729 211.699 C 208.741 214.428,210.430 216.774,210.483 216.913 C 210.634 217.305,205.269 219.774,204.945 219.462 C 204.893 219.412,202.734 206.833,202.734 206.580 C 202.734 206.277,202.685 206.213,206.729 211.699 M182.601 206.909 C 182.249 207.224,181.252 207.583,181.156 207.429 C 181.093 207.326,181.330 207.158,181.682 207.056 C 182.393 206.851,182.725 206.798,182.601 206.909 M178.278 208.693 C 178.364 209.301,142.224 227.339,141.875 226.862 C 141.655 226.560,139.461 221.134,139.171 220.173 C 139.067 219.828,139.132 219.716,139.491 219.626 C 139.739 219.564,148.423 216.976,158.789 213.874 C 178.406 208.005,178.188 208.063,178.278 208.693 M286.100 272.461 L 335.156 312.597 320.850 326.904 C 312.981 334.773,306.478 341.189,306.397 341.162 C 306.259 341.116,208.984 209.590,208.984 209.450 C 208.984 209.376,217.885 216.648,286.100 272.461 M183.877 209.945 C 183.775 210.043,171.261 219.309,156.069 230.535 L 128.446 250.947 124.868 246.179 C 122.899 243.557,121.289 241.344,121.289 241.262 C 121.289 241.143,183.659 209.816,183.975 209.777 C 184.023 209.771,183.979 209.846,183.877 209.945 M200.445 211.963 C 200.626 213.064,201.126 215.986,201.558 218.457 C 202.424 223.418,208.244 257.284,209.160 262.695 C 209.479 264.575,211.277 275.078,213.157 286.035 C 215.037 296.992,216.635 306.375,216.708 306.885 L 216.841 307.813 200.000 307.813 L 183.159 307.813 183.292 306.885 C 183.365 306.375,184.963 296.992,186.843 286.035 C 188.722 275.078,190.648 263.828,191.121 261.035 C 191.982 255.955,196.616 228.970,198.760 216.553 C 199.386 212.927,199.947 209.961,200.008 209.961 C 200.068 209.961,200.265 210.862,200.445 211.963 M168.066 229.697 L 153.613 244.160 152.681 243.125 C 152.169 242.556,151.227 241.464,150.590 240.700 L 149.430 239.310 165.682 227.282 C 174.620 220.666,182.065 215.249,182.226 215.244 C 182.387 215.239,176.015 221.743,168.066 229.697 M186.169 218.657 C 187.848 219.924,190.902 221.470,192.969 222.097 C 193.774 222.342,194.460 222.558,194.492 222.576 C 194.541 222.605,188.109 260.490,187.773 262.158 C 187.632 262.857,187.536 262.851,183.941 261.933 C 174.269 259.464,165.468 254.795,157.656 247.991 L 155.839 246.408 170.253 231.993 C 178.181 224.065,184.683 217.578,184.703 217.578 C 184.723 217.578,185.383 218.064,186.169 218.657 M224.636 235.944 C 231.228 244.863,236.647 252.237,236.680 252.330 C 236.881 252.912,227.895 257.821,223.484 259.538 C 219.522 261.081,212.735 262.996,212.404 262.664 C 212.284 262.545,205.416 222.626,205.508 222.582 C 205.540 222.567,206.455 222.261,207.541 221.903 C 208.628 221.545,210.122 220.915,210.862 220.504 C 211.602 220.093,212.307 219.750,212.429 219.742 C 212.552 219.733,218.045 227.024,224.636 235.944 M136.874 222.908 C 137.316 224.120,138.030 225.900,138.460 226.863 L 139.241 228.613 127.807 234.335 L 116.373 240.056 116.845 240.682 C 117.105 241.027,119.672 244.450,122.549 248.289 C 125.483 252.205,127.868 255.214,127.982 255.143 C 128.094 255.074,132.398 251.902,137.548 248.093 C 142.697 244.284,146.979 241.244,147.063 241.336 C 147.147 241.428,147.768 242.163,148.443 242.969 C 149.118 243.774,150.072 244.853,150.564 245.365 L 151.457 246.296 137.047 260.697 L 122.636 275.098 121.275 273.633 C 110.986 262.562,103.057 249.454,98.223 235.522 L 97.096 232.275 104.749 229.994 C 108.958 228.740,117.632 226.145,124.023 224.229 C 130.415 222.312,135.740 220.735,135.857 220.724 C 135.974 220.712,136.431 221.695,136.874 222.908 M95.095 236.035 C 100.226 250.763,108.246 264.179,118.455 275.114 L 120.476 277.278 106.086 291.668 L 91.696 306.057 89.830 304.054 C 75.566 288.742,65.218 272.194,58.104 253.320 C 56.497 249.057,55.161 244.969,55.322 244.809 C 55.501 244.629,93.594 233.237,93.898 233.272 C 94.032 233.288,94.571 234.531,95.095 236.035 M154.954 249.743 C 163.054 257.251,174.479 263.139,185.596 265.533 C 186.428 265.713,187.109 265.897,187.109 265.944 C 187.109 266.081,180.480 304.737,180.356 305.322 C 180.209 306.015,180.128 306.012,176.399 305.164 C 157.967 300.976,141.595 292.460,127.464 279.710 C 126.109 278.488,125.000 277.433,125.000 277.367 C 125.000 277.241,153.559 248.633,153.684 248.633 C 153.724 248.633,154.295 249.133,154.954 249.743 M250.617 271.096 C 257.206 280.013,262.598 287.414,262.598 287.542 C 262.598 288.556,249.482 296.082,242.578 299.030 C 235.096 302.226,220.555 306.557,219.810 305.812 C 219.720 305.722,212.908 266.487,212.894 265.981 C 212.892 265.908,213.396 265.747,214.014 265.625 C 221.601 264.115,231.376 259.955,237.598 255.590 C 238.135 255.213,238.588 254.899,238.605 254.894 C 238.622 254.888,244.028 262.179,250.617 271.096 M129.004 285.163 C 141.611 295.644,156.096 303.119,171.765 307.228 C 174.258 307.882,179.173 308.984,179.596 308.984 C 179.666 308.984,179.664 309.424,179.590 309.961 L 179.456 310.938 188.947 310.938 L 198.438 310.938 198.438 331.250 L 198.438 351.563 197.607 351.561 C 161.167 351.479,124.022 336.334,95.852 310.074 L 93.950 308.301 108.335 293.913 L 122.721 279.524 124.788 281.451 C 125.925 282.510,127.822 284.181,129.004 285.163 M276.091 305.566 C 282.281 313.945,287.684 321.254,288.099 321.808 L 288.853 322.816 285.881 324.858 C 261.729 341.464,235.126 350.181,204.639 351.479 L 201.563 351.610 201.563 331.274 L 201.563 310.938 211.053 310.938 L 220.544 310.938 220.410 309.961 C 220.336 309.424,220.334 308.984,220.404 308.984 C 220.475 308.984,221.604 308.763,222.913 308.492 C 236.586 305.665,250.930 299.567,262.109 291.828 C 263.345 290.973,264.464 290.286,264.597 290.302 C 264.729 290.319,269.902 297.188,276.091 305.566 M92.493 311.152 C 102.781 322.011,122.631 335.168,139.551 342.346 C 157.604 350.004,173.870 353.540,195.947 354.607 L 198.438 354.727 198.438 375.020 L 198.438 395.313 197.217 395.311 C 149.792 395.239,99.364 374.567,65.078 341.143 L 63.065 339.182 77.382 324.864 C 85.256 316.990,91.748 310.547,91.809 310.547 C 91.869 310.547,92.177 310.819,92.493 311.152 M295.905 332.373 C 298.744 336.213,302.199 340.883,303.582 342.751 L 306.098 346.147 315.549 336.697 L 325.000 327.247 330.968 333.214 L 336.935 339.182 334.922 341.143 C 300.960 374.251,254.802 393.516,205.322 395.236 L 201.563 395.366 201.563 375.047 L 201.563 354.727 204.053 354.607 C 215.399 354.059,221.618 353.357,230.231 351.651 C 250.816 347.576,270.666 339.187,287.695 327.366 C 289.253 326.285,290.576 325.398,290.635 325.395 C 290.694 325.393,293.066 328.533,295.905 332.373 " stroke="none" fill="#7b7e7c" fill-rule="evenodd"></path><path id="path1" d="M125.635 42.052 C 109.495 50.129,96.289 56.807,96.289 56.893 C 96.289 57.090,196.312 192.425,196.396 192.341 C 196.502 192.235,155.232 27.343,155.103 27.355 C 155.035 27.361,141.775 33.974,125.635 42.052 M235.382 96.370 C 234.867 98.142,234.856 97.979,235.498 98.137 C 238.823 98.960,250.166 104.265,255.400 107.446 L 256.015 107.820 256.833 106.525 C 257.283 105.812,257.578 105.161,257.488 105.077 C 256.717 104.362,248.830 100.220,245.072 98.558 C 242.723 97.518,236.155 94.922,235.876 94.922 C 235.835 94.922,235.613 95.573,235.382 96.370 M221.875 137.987 C 221.623 138.792,221.454 139.479,221.499 139.514 C 221.545 139.549,222.549 139.954,223.730 140.414 C 224.912 140.874,227.416 142.038,229.296 143.001 L 232.712 144.751 233.104 144.253 C 233.320 143.979,233.693 143.408,233.934 142.985 L 234.372 142.214 233.212 141.509 C 231.171 140.269,223.017 136.523,222.360 136.523 C 222.346 136.523,222.128 137.182,221.875 137.987 M54.688 200.000 C 54.688 222.881,54.741 241.602,54.807 241.602 C 54.912 241.602,69.769 237.190,90.332 231.053 C 93.877 229.995,118.662 222.612,145.410 214.645 C 172.158 206.679,194.080 200.125,194.124 200.080 C 194.289 199.917,193.155 199.575,145.410 185.355 C 118.662 177.388,93.877 170.005,90.332 168.947 C 69.769 162.810,54.912 158.398,54.807 158.398 C 54.741 158.398,54.688 177.119,54.688 200.000 M208.330 179.596 L 207.835 181.067 208.654 181.395 C 209.104 181.575,209.489 181.726,209.509 181.730 C 209.571 181.744,211.133 179.291,211.133 179.182 C 211.133 179.092,209.089 178.125,208.899 178.125 C 208.858 178.125,208.602 178.787,208.330 179.596 M208.984 209.450 C 208.984 209.590,306.259 341.116,306.397 341.162 C 306.478 341.189,312.981 334.773,320.850 326.904 L 335.156 312.597 286.100 272.461 C 217.885 216.648,208.984 209.376,208.984 209.450 " stroke="none" fill="#f4a927" fill-rule="evenodd"></path><path id="path2" d="M192.676 4.818 C 144.623 6.724,100.076 25.557,65.148 58.734 L 63.011 60.764 77.341 75.095 L 91.671 89.425 92.887 88.316 C 93.555 87.706,95.056 86.334,96.221 85.268 C 98.594 83.096,103.331 79.122,105.317 77.637 C 106.035 77.100,106.627 76.590,106.632 76.504 C 106.638 76.392,93.344 58.240,91.554 55.917 C 91.393 55.707,156.625 22.852,157.202 22.852 C 157.297 22.852,158.847 28.762,160.648 35.986 C 162.448 43.210,163.979 49.186,164.048 49.265 C 164.118 49.345,165.616 49.099,167.377 48.720 C 176.048 46.851,185.715 45.663,194.580 45.376 L 198.438 45.250 198.438 24.969 L 198.438 4.688 196.240 4.726 C 195.032 4.747,193.428 4.788,192.676 4.818 M201.563 24.972 L 201.563 45.313 203.564 45.313 C 236.133 45.328,272.349 58.865,298.730 80.884 C 301.342 83.063,302.694 84.261,307.121 88.315 L 308.331 89.424 322.660 75.094 L 336.989 60.764 334.852 58.734 C 299.400 25.059,254.728 6.418,205.518 4.764 L 201.563 4.631 201.563 24.972 M193.652 48.567 C 185.374 48.963,177.707 49.888,170.215 51.394 C 166.770 52.086,165.032 52.481,164.915 52.598 C 164.815 52.698,174.514 91.571,174.679 91.736 C 174.741 91.798,176.134 91.578,177.776 91.247 C 183.645 90.066,189.643 89.333,195.154 89.125 L 198.438 89.001 198.438 68.719 L 198.438 48.438 196.631 48.474 C 195.637 48.495,194.297 48.537,193.652 48.567 M201.563 68.719 L 201.563 89.001 204.846 89.125 C 213.529 89.453,223.939 91.191,231.878 93.639 L 232.799 93.922 235.063 86.951 C 236.308 83.117,237.872 78.341,238.537 76.337 L 239.746 72.694 255.153 81.256 C 263.626 85.965,270.639 89.897,270.737 89.995 C 270.843 90.101,268.839 93.469,265.731 98.406 C 262.880 102.935,260.547 106.715,260.547 106.807 C 260.547 106.898,261.316 107.483,262.256 108.107 C 266.156 110.695,270.931 114.482,275.110 118.302 L 277.378 120.375 291.728 106.037 L 306.079 91.699 304.651 90.365 C 276.131 63.721,239.042 48.471,202.686 48.439 L 201.563 48.438 201.563 68.719 M57.687 66.267 C 24.522 101.775,6.525 145.480,4.770 194.775 L 4.640 198.438 24.946 198.438 L 45.252 198.438 45.386 194.580 C 45.805 182.488,47.909 168.832,50.972 158.316 C 51.316 157.136,51.563 155.835,51.563 155.202 C 51.563 154.365,51.624 154.137,51.828 154.216 C 52.023 154.290,52.443 153.288,53.405 150.450 C 60.499 129.523,71.679 110.846,86.993 94.336 L 89.439 91.699 75.140 77.393 C 67.275 69.524,60.797 63.089,60.743 63.093 C 60.689 63.097,59.313 64.525,57.687 66.267 M324.857 77.392 L 310.554 91.699 312.765 94.071 C 338.973 122.188,354.646 160.569,354.686 196.729 L 354.688 198.438 375.025 198.438 L 395.362 198.438 395.232 194.873 C 393.585 149.965,378.744 110.053,351.168 76.367 C 347.480 71.863,339.845 63.364,339.280 63.135 C 339.214 63.108,332.723 69.524,324.857 77.392 M105.600 81.427 C 102.568 83.855,98.557 87.341,95.643 90.081 L 93.922 91.699 108.276 106.042 L 122.631 120.384 124.646 118.538 C 127.314 116.093,129.062 114.585,130.957 113.094 C 131.816 112.418,132.548 111.790,132.583 111.698 C 132.646 111.534,108.872 79.243,108.623 79.153 C 108.553 79.128,107.193 80.151,105.600 81.427 M194.043 92.323 C 187.171 92.687,175.266 94.592,175.478 95.295 C 175.529 95.466,177.741 104.307,180.393 114.941 C 183.045 125.576,185.224 134.292,185.235 134.311 C 185.247 134.329,186.055 134.180,187.033 133.980 C 189.634 133.446,193.113 133.015,195.947 132.875 L 198.438 132.752 198.438 112.470 L 198.438 92.188 196.826 92.224 C 195.940 92.245,194.688 92.289,194.043 92.323 M201.563 112.443 L 201.563 132.752 204.053 132.875 C 208.359 133.088,214.327 134.065,217.941 135.149 C 218.645 135.360,219.239 135.513,219.263 135.489 C 219.352 135.400,231.812 96.981,231.766 96.935 C 231.740 96.909,230.273 96.488,228.506 95.999 C 221.113 93.952,212.725 92.647,204.541 92.270 L 201.563 92.133 201.563 112.443 M88.929 96.911 C 74.829 112.284,64.893 128.471,57.720 147.754 C 56.346 151.449,55.174 155.044,55.302 155.171 C 55.347 155.217,63.995 157.820,74.519 160.954 C 85.042 164.089,93.740 166.686,93.848 166.726 C 93.955 166.766,94.426 165.677,94.894 164.307 C 99.917 149.609,107.644 136.609,118.356 124.835 L 120.372 122.618 106.023 108.269 L 91.673 93.919 88.929 96.911 M293.964 108.272 L 279.627 122.620 281.830 125.031 C 299.544 144.411,309.695 169.002,310.860 195.361 L 310.997 198.438 331.298 198.438 L 351.600 198.438 351.475 195.459 C 349.860 156.782,335.921 123.345,309.824 95.546 L 308.301 93.924 293.964 108.272 M248.730 125.433 C 243.252 134.154,238.403 141.875,237.956 142.592 L 237.142 143.896 238.614 144.924 C 240.613 146.320,243.600 148.714,245.141 150.155 L 246.411 151.344 260.741 137.013 C 273.802 123.951,275.045 122.653,274.791 122.343 C 274.245 121.680,269.354 117.401,267.068 115.587 C 264.459 113.518,258.990 109.561,258.754 109.573 C 258.720 109.575,254.209 116.712,248.730 125.433 M132.201 116.172 C 129.669 118.211,125.000 122.393,125.000 122.622 C 125.000 122.695,131.441 129.195,139.312 137.066 L 153.624 151.377 154.302 150.673 C 154.675 150.286,155.829 149.266,156.865 148.408 L 158.750 146.846 146.827 130.699 C 140.269 121.817,134.839 114.478,134.760 114.389 C 134.682 114.300,133.530 115.102,132.201 116.172 M120.835 126.807 C 110.732 137.819,103.010 150.681,98.229 164.459 L 97.109 167.688 116.377 173.423 C 126.974 176.576,135.739 179.192,135.855 179.235 C 135.971 179.278,136.177 178.936,136.313 178.475 C 138.497 171.053,145.824 158.784,150.864 154.109 L 151.382 153.629 137.068 139.315 C 129.196 131.442,122.696 125.000,122.623 125.000 C 122.551 125.000,121.746 125.813,120.835 126.807 M262.933 139.313 L 248.621 153.626 249.232 154.206 C 258.736 163.218,266.184 180.694,267.104 196.143 L 267.241 198.438 287.544 198.438 L 307.848 198.438 307.719 195.850 C 306.585 173.102,299.443 152.993,286.197 135.254 C 283.615 131.796,277.765 125.000,277.371 125.000 C 277.302 125.000,270.805 131.441,262.933 139.313 M195.117 136.066 C 190.347 136.523,186.133 137.258,186.133 137.633 C 186.133 137.852,195.583 175.886,195.781 176.465 C 195.820 176.578,196.394 176.633,197.143 176.595 L 198.438 176.529 198.438 156.233 L 198.438 135.938 197.119 135.969 C 196.394 135.986,195.493 136.029,195.117 136.066 M201.563 156.221 L 201.563 176.563 202.503 176.563 C 203.021 176.563,203.952 176.656,204.573 176.771 C 205.194 176.886,205.740 176.943,205.785 176.897 C 205.831 176.852,208.665 168.210,212.083 157.694 L 218.298 138.574 217.206 138.236 C 214.071 137.267,208.066 136.269,203.845 136.017 L 201.563 135.880 201.563 156.221 M224.647 163.763 L 213.908 180.846 214.733 181.522 L 215.557 182.197 229.859 167.895 L 244.160 153.593 243.027 152.517 C 241.192 150.773,235.897 146.680,235.477 146.680 C 235.427 146.680,230.553 154.367,224.647 163.763 M158.789 150.937 C 157.769 151.788,156.694 152.741,156.401 153.055 L 155.869 153.624 170.194 167.948 C 178.073 175.826,184.561 182.196,184.613 182.103 C 184.664 182.010,179.402 174.771,172.919 166.016 C 166.436 157.261,161.023 149.938,160.888 149.743 C 160.664 149.417,160.495 149.514,158.789 150.937 M152.439 157.066 C 148.412 161.411,144.130 167.950,141.619 173.593 C 140.624 175.826,138.996 180.085,139.102 180.174 C 139.164 180.226,177.538 191.637,177.783 191.676 C 177.863 191.689,178.218 191.040,178.571 190.234 C 179.211 188.778,180.606 186.474,181.654 185.144 L 182.202 184.447 167.893 170.139 L 153.584 155.831 152.439 157.066 M232.057 170.180 C 223.457 178.786,217.815 184.573,217.947 184.654 C 218.165 184.789,220.815 188.713,220.939 189.086 C 220.975 189.194,226.354 186.989,232.893 184.187 C 239.432 181.385,244.808 179.118,244.840 179.150 C 244.960 179.270,248.839 194.976,248.767 195.048 C 248.725 195.090,243.254 195.847,236.609 196.732 L 224.526 198.340 244.228 198.390 C 255.064 198.417,263.966 198.404,264.008 198.361 C 264.154 198.216,263.655 192.691,263.256 190.039 C 261.464 178.104,255.377 165.337,247.527 157.046 L 246.387 155.842 232.057 170.180 M51.086 171.729 C 49.659 179.524,48.904 186.509,48.521 195.459 L 48.393 198.438 49.978 198.438 L 51.563 198.438 51.563 184.180 C 51.563 176.338,51.530 169.922,51.490 169.922 C 51.450 169.922,51.268 170.735,51.086 171.729 M196.685 179.932 C 196.688 180.066,197.076 181.670,197.546 183.496 L 198.402 186.816 198.420 183.252 L 198.438 179.688 197.559 179.688 C 196.983 179.688,196.682 179.772,196.685 179.932 M201.569 184.786 L 201.576 189.941 203.163 185.100 C 204.954 179.638,204.964 179.916,202.960 179.748 L 201.563 179.631 201.569 184.786 M211.286 185.016 C 210.806 185.791,210.082 186.953,209.676 187.598 L 208.938 188.770 211.102 186.632 C 213.339 184.422,213.410 184.276,212.492 183.785 C 212.216 183.637,212.007 183.851,211.286 185.016 M183.529 187.939 C 182.718 189.083,181.055 192.174,181.055 192.538 C 181.055 192.629,182.747 193.204,184.814 193.816 C 186.882 194.428,189.889 195.319,191.495 195.797 L 194.416 196.665 189.446 191.692 C 186.712 188.957,184.457 186.719,184.435 186.719 C 184.413 186.719,184.005 187.268,183.529 187.939 M211.230 191.014 L 206.934 195.317 212.461 192.944 C 216.940 191.020,217.967 190.510,217.872 190.256 C 217.676 189.732,216.609 188.029,216.052 187.350 L 215.527 186.711 211.230 191.014 M4.690 202.490 C 4.778 233.949,14.258 268.767,30.358 296.771 C 38.453 310.851,50.439 326.761,59.899 335.983 L 60.847 336.908 75.197 322.557 L 89.546 308.206 87.778 306.398 C 73.099 291.389,60.479 270.472,53.335 249.313 C 52.642 247.259,52.048 245.801,51.905 245.801 C 51.745 245.801,51.621 245.359,51.548 244.531 C 51.486 243.833,50.939 241.372,50.331 239.063 C 47.419 227.999,45.810 217.009,45.389 205.322 L 45.253 201.563 24.970 201.563 L 4.688 201.563 4.690 202.490 M48.528 204.639 C 48.872 213.126,50.185 224.659,51.357 229.492 C 51.453 229.888,51.531 224.161,51.543 215.869 L 51.563 201.563 49.983 201.563 L 48.404 201.563 48.528 204.639 M204.883 201.949 C 205.151 202.154,207.876 204.383,210.938 206.902 C 217.387 212.209,216.530 211.997,218.171 208.687 C 219.142 206.726,220.117 203.488,220.117 202.221 L 220.117 201.563 212.256 201.569 C 204.473 201.575,204.399 201.579,204.883 201.949 M223.365 202.002 C 223.301 202.244,223.246 202.672,223.245 202.953 C 223.236 204.717,221.721 208.982,220.098 211.812 C 219.285 213.229,219.157 213.575,219.370 213.779 C 221.593 215.910,250.526 239.204,250.709 239.011 C 257.441 231.916,264.063 213.429,264.063 201.729 C 264.063 201.638,254.932 201.563,243.773 201.563 L 223.483 201.563 223.365 202.002 M267.108 203.662 C 266.278 216.808,261.822 229.308,254.364 239.414 C 253.595 240.456,252.980 241.318,252.997 241.330 C 253.014 241.341,260.089 247.126,268.721 254.185 C 277.352 261.243,284.437 266.990,284.465 266.956 C 298.264 250.329,307.716 224.029,307.811 202.002 L 307.813 201.563 287.527 201.563 L 267.241 201.563 267.108 203.662 M310.859 204.541 C 309.815 227.319,302.120 248.891,288.738 266.550 C 287.218 268.556,286.930 269.042,287.143 269.241 C 287.339 269.425,312.804 290.256,317.507 294.081 L 318.315 294.738 320.928 291.265 C 339.987 265.939,350.157 237.093,351.472 204.639 L 351.596 201.563 331.296 201.563 L 310.995 201.563 310.859 204.541 M354.612 205.322 C 353.450 237.842,342.089 269.315,322.384 294.605 L 320.729 296.729 330.296 304.554 L 339.864 312.380 333.556 318.690 L 327.248 325.000 333.200 330.954 L 339.152 336.909 340.101 335.984 C 346.956 329.301,356.804 317.002,363.520 306.736 C 383.388 276.370,393.856 242.824,395.228 205.127 L 395.357 201.563 375.052 201.563 L 354.747 201.563 354.612 205.322 M192.245 210.010 L 186.935 215.332 187.784 215.975 C 189.702 217.426,194.613 219.710,194.995 219.328 C 195.047 219.276,195.627 216.071,196.284 212.205 C 196.942 208.339,197.517 205.066,197.562 204.932 C 197.692 204.546,197.816 204.427,192.245 210.010 M202.810 206.934 C 202.871 207.256,203.368 210.155,203.915 213.377 C 204.463 216.598,204.950 219.273,204.999 219.322 C 205.237 219.560,209.137 218.019,210.333 217.214 C 210.552 217.067,210.183 216.451,208.545 214.227 C 203.257 207.047,202.698 206.336,202.810 206.934 M181.787 207.063 C 181.492 207.171,181.250 207.342,181.250 207.443 C 181.250 207.593,182.300 207.178,182.601 206.909 C 182.741 206.784,182.347 206.858,181.787 207.063 M158.466 214.020 L 139.101 219.804 139.686 221.463 C 140.341 223.317,141.776 226.769,141.994 227.015 C 142.098 227.133,177.895 209.440,178.289 209.075 C 178.400 208.973,178.109 208.202,177.965 208.220 C 177.892 208.229,169.118 210.839,158.466 214.020 M165.780 227.214 C 156.896 233.784,149.623 239.235,149.618 239.327 C 149.609 239.509,150.991 241.202,152.609 242.990 L 153.633 244.122 168.076 229.678 C 176.019 221.734,182.387 215.242,182.226 215.251 C 182.065 215.260,174.665 220.644,165.780 227.214 M170.259 231.994 L 155.874 246.387 156.990 247.381 C 164.446 254.026,173.174 258.865,182.471 261.509 C 184.723 262.150,187.486 262.776,187.589 262.668 C 187.662 262.593,194.272 224.114,194.374 223.175 C 194.432 222.637,194.378 222.601,192.709 222.053 C 190.577 221.353,187.789 219.929,186.208 218.733 C 185.552 218.236,184.931 217.778,184.829 217.715 C 184.728 217.652,178.171 224.078,170.259 231.994 M210.742 220.569 C 209.937 221.008,208.442 221.657,207.422 222.011 C 205.642 222.629,205.569 222.678,205.626 223.193 C 205.659 223.489,207.176 232.422,208.996 243.046 C 210.816 253.669,212.305 262.446,212.305 262.550 C 212.305 263.125,220.148 260.902,224.512 259.091 C 227.960 257.659,235.634 253.467,236.685 252.441 C 236.811 252.318,212.686 219.824,212.449 219.798 C 212.316 219.783,211.548 220.130,210.742 220.569 M116.797 226.440 C 106.323 229.576,97.622 232.191,97.461 232.252 C 96.839 232.487,100.169 241.193,103.315 247.559 C 108.071 257.183,114.008 265.779,121.264 273.548 L 122.684 275.069 137.015 260.739 C 151.189 246.566,151.342 246.405,151.014 245.981 C 150.832 245.746,150.068 244.862,149.316 244.017 C 148.564 243.172,147.721 242.188,147.443 241.830 L 146.938 241.180 137.581 248.094 C 132.434 251.897,128.121 255.068,127.997 255.141 C 127.855 255.224,125.719 252.530,122.256 247.900 C 119.222 243.845,116.657 240.421,116.556 240.291 C 116.421 240.118,119.389 238.547,127.783 234.351 L 139.193 228.647 138.181 226.286 C 137.625 224.988,136.916 223.201,136.606 222.314 C 136.296 221.428,135.996 220.711,135.941 220.721 C 135.885 220.731,127.271 223.305,116.797 226.440 M74.616 238.994 C 64.039 242.157,55.348 244.782,55.303 244.827 C 55.004 245.126,59.351 256.719,61.857 262.305 C 68.635 277.416,80.530 294.971,90.704 304.879 L 91.803 305.950 106.058 291.696 C 113.898 283.857,120.312 277.384,120.313 277.313 C 120.313 277.242,119.514 276.319,118.537 275.262 C 107.788 263.626,99.533 249.652,94.640 234.814 C 94.348 233.928,94.050 233.212,93.978 233.223 C 93.906 233.234,85.193 235.831,74.616 238.994 M139.259 262.987 L 124.931 277.316 126.381 278.663 C 132.370 284.222,138.320 288.682,145.117 292.708 C 153.860 297.887,163.108 301.738,172.908 304.283 C 176.120 305.117,180.052 305.951,180.179 305.824 C 180.222 305.781,181.755 297.004,183.585 286.320 C 185.415 275.636,186.961 266.669,187.019 266.392 C 187.122 265.904,187.080 265.881,185.506 265.547 C 174.642 263.247,160.626 255.957,154.688 249.517 C 154.419 249.226,154.062 248.913,153.893 248.823 C 153.656 248.694,150.400 251.845,139.259 262.987 M236.781 256.151 C 230.176 260.536,221.237 264.276,214.102 265.640 C 212.920 265.866,212.876 265.895,212.979 266.385 C 213.039 266.665,214.585 275.636,216.415 286.320 C 218.245 297.004,219.783 305.786,219.832 305.835 C 219.959 305.962,223.584 305.188,227.135 304.276 C 236.796 301.796,246.837 297.576,255.566 292.327 C 257.740 291.020,262.695 287.716,262.695 287.573 C 262.695 287.482,239.141 255.589,238.770 255.177 C 238.630 255.023,238.058 255.303,236.781 256.151 M108.300 293.957 L 94.043 308.227 96.201 310.315 C 120.954 334.265,157.534 349.888,192.090 351.266 C 193.594 351.326,195.637 351.423,196.631 351.481 L 198.438 351.586 198.438 331.262 L 198.438 310.938 188.892 310.938 L 179.347 310.938 179.518 310.026 C 179.723 308.926,180.000 309.115,177.441 308.607 C 158.514 304.846,138.536 294.558,124.794 281.494 C 123.749 280.500,122.818 279.688,122.725 279.688 C 122.633 279.688,116.142 286.109,108.300 293.957 M263.368 291.046 C 253.979 297.669,242.278 303.249,230.899 306.530 C 227.450 307.525,221.347 308.984,220.637 308.984 C 220.270 308.984,220.271 308.976,220.490 310.107 L 220.651 310.938 211.107 310.938 L 201.563 310.938 201.563 331.244 L 201.563 351.550 204.150 351.449 C 231.583 350.376,255.456 343.413,277.930 329.930 C 281.381 327.860,288.092 323.413,288.491 322.932 C 288.684 322.700,265.168 290.470,264.667 290.279 C 264.591 290.251,264.006 290.595,263.368 291.046 M77.379 324.867 L 63.059 339.188 65.307 341.349 C 100.495 375.176,149.150 394.948,198.096 395.310 C 198.419 395.312,198.438 394.216,198.438 375.000 L 198.438 354.688 197.490 354.688 C 174.554 354.688,147.613 347.616,126.273 335.993 C 114.326 329.487,100.346 319.240,92.782 311.444 C 92.303 310.951,91.863 310.547,91.805 310.547 C 91.746 310.547,85.254 316.991,77.379 324.867 M287.891 327.268 C 263.652 344.260,231.380 354.633,202.588 354.686 L 201.563 354.688 201.563 375.011 L 201.563 395.334 204.736 395.217 C 255.044 393.362,300.468 374.524,334.721 341.309 L 336.936 339.160 330.968 333.204 L 325.000 327.248 315.529 336.717 C 306.612 345.632,306.043 346.163,305.786 345.798 C 304.390 343.812,290.760 325.480,290.660 325.454 C 290.587 325.435,289.341 326.251,287.891 327.268 " stroke="none" fill="#fbfbfb" fill-rule="evenodd"></path><path id="path3" d="M193.018 4.822 C 193.206 4.871,193.513 4.871,193.701 4.822 C 193.889 4.773,193.735 4.733,193.359 4.733 C 192.983 4.733,192.830 4.773,193.018 4.822 M206.299 4.822 C 206.487 4.871,206.794 4.871,206.982 4.822 C 207.170 4.773,207.017 4.733,206.641 4.733 C 206.265 4.733,206.111 4.773,206.299 4.822 M193.408 45.447 C 193.596 45.496,193.904 45.496,194.092 45.447 C 194.280 45.398,194.126 45.358,193.750 45.358 C 193.374 45.358,193.220 45.398,193.408 45.447 M205.908 45.447 C 206.096 45.496,206.404 45.496,206.592 45.447 C 206.780 45.398,206.626 45.358,206.250 45.358 C 205.874 45.358,205.720 45.398,205.908 45.447 M193.799 48.572 C 193.987 48.621,194.294 48.621,194.482 48.572 C 194.670 48.523,194.517 48.483,194.141 48.483 C 193.765 48.483,193.611 48.523,193.799 48.572 M205.518 48.572 C 205.706 48.621,206.013 48.621,206.201 48.572 C 206.389 48.523,206.235 48.483,205.859 48.483 C 205.483 48.483,205.330 48.523,205.518 48.572 M240.459 80.518 C 239.901 82.263,238.625 86.210,237.622 89.287 L 235.798 94.883 238.065 95.717 C 244.407 98.050,251.468 101.405,256.555 104.503 L 257.739 105.224 262.073 98.320 C 264.456 94.522,266.406 91.343,266.406 91.255 C 266.406 91.116,241.817 77.344,241.568 77.344 C 241.516 77.344,241.017 78.772,240.459 80.518 M306.641 87.952 C 306.641 87.985,306.926 88.271,307.275 88.587 L 307.910 89.160 307.337 88.525 C 306.802 87.934,306.641 87.801,306.641 87.952 M228.650 116.878 C 225.253 127.326,222.421 136.010,222.358 136.175 C 222.269 136.406,222.678 136.641,224.158 137.208 C 226.487 138.099,231.594 140.527,233.220 141.514 C 233.872 141.910,234.474 142.158,234.556 142.065 C 234.846 141.738,255.858 108.208,255.907 107.994 C 256.091 107.198,243.521 101.032,236.603 98.525 L 234.828 97.881 228.650 116.878 M215.145 158.452 C 211.721 169.004,208.887 177.731,208.847 177.846 C 208.758 178.101,211.151 179.164,211.348 178.957 C 211.426 178.875,216.182 171.338,221.919 162.207 C 227.656 153.076,232.519 145.345,232.727 145.027 C 232.935 144.709,233.005 144.511,232.882 144.586 C 232.760 144.662,231.134 143.942,229.269 142.987 C 227.404 142.031,224.912 140.872,223.730 140.410 C 222.549 139.947,221.534 139.501,221.476 139.419 C 221.418 139.336,218.569 147.901,215.145 158.452 M207.712 181.294 C 207.420 182.091,205.496 188.178,205.528 188.205 C 205.642 188.306,209.509 181.912,209.403 181.797 C 209.060 181.425,207.802 181.051,207.712 181.294 M4.737 194.043 C 4.739 194.473,4.779 194.625,4.826 194.382 C 4.872 194.140,4.871 193.788,4.822 193.601 C 4.773 193.415,4.735 193.613,4.737 194.043 M395.166 194.043 C 395.169 194.473,395.209 194.625,395.255 194.382 C 395.302 194.140,395.300 193.788,395.251 193.601 C 395.202 193.415,395.164 193.613,395.166 194.043 M45.362 194.434 C 45.364 194.863,45.404 195.016,45.451 194.773 C 45.497 194.530,45.496 194.179,45.447 193.992 C 45.398 193.805,45.360 194.004,45.362 194.434 M354.541 194.434 C 354.544 194.863,354.584 195.016,354.630 194.773 C 354.677 194.530,354.675 194.179,354.626 193.992 C 354.577 193.805,354.539 194.004,354.541 194.434 M48.487 194.824 C 48.489 195.254,48.529 195.407,48.576 195.164 C 48.622 194.921,48.621 194.569,48.572 194.382 C 48.523 194.196,48.485 194.395,48.487 194.824 M351.420 194.922 C 351.420 195.405,351.458 195.603,351.505 195.361 C 351.552 195.120,351.552 194.724,351.505 194.482 C 351.458 194.241,351.420 194.438,351.420 194.922 M48.487 204.980 C 48.489 205.410,48.529 205.563,48.576 205.320 C 48.622 205.077,48.621 204.725,48.572 204.539 C 48.523 204.352,48.485 204.551,48.487 204.980 M351.416 204.980 C 351.419 205.410,351.459 205.563,351.505 205.320 C 351.552 205.077,351.550 204.725,351.501 204.539 C 351.452 204.352,351.414 204.551,351.416 204.980 M45.358 205.469 C 45.358 205.845,45.398 205.999,45.447 205.811 C 45.496 205.623,45.496 205.315,45.447 205.127 C 45.398 204.939,45.358 205.093,45.358 205.469 M354.538 205.469 C 354.538 205.845,354.578 205.999,354.627 205.811 C 354.676 205.623,354.676 205.315,354.627 205.127 C 354.578 204.939,354.538 205.093,354.538 205.469 M4.741 205.859 C 4.741 206.343,4.779 206.541,4.825 206.299 C 4.872 206.057,4.872 205.662,4.825 205.420 C 4.779 205.178,4.741 205.376,4.741 205.859 M395.170 205.859 C 395.170 206.343,395.208 206.541,395.255 206.299 C 395.302 206.057,395.302 205.662,395.255 205.420 C 395.208 205.178,395.170 205.376,395.170 205.859 M198.760 216.553 C 196.616 228.970,191.982 255.955,191.121 261.035 C 190.648 263.828,188.722 275.078,186.843 286.035 C 184.963 296.992,183.365 306.375,183.292 306.885 L 183.159 307.813 200.000 307.813 L 216.841 307.813 216.708 306.885 C 216.635 306.375,215.037 296.992,213.157 286.035 C 211.277 275.078,209.479 264.575,209.160 262.695 C 208.244 257.284,202.424 223.418,201.558 218.457 C 201.126 215.986,200.626 213.064,200.445 211.963 C 200.265 210.862,200.068 209.961,200.008 209.961 C 199.947 209.961,199.386 212.927,198.760 216.553 M91.016 305.371 C 91.380 305.747,91.722 306.055,91.776 306.055 C 91.830 306.055,91.575 305.747,91.211 305.371 C 90.847 304.995,90.504 304.688,90.451 304.688 C 90.397 304.688,90.651 304.995,91.016 305.371 M93.945 308.264 C 93.945 308.298,94.231 308.583,94.580 308.899 L 95.215 309.473 94.641 308.838 C 94.106 308.246,93.945 308.113,93.945 308.264 M195.654 351.505 C 195.896 351.552,196.292 351.552,196.533 351.505 C 196.775 351.458,196.577 351.420,196.094 351.420 C 195.610 351.420,195.413 351.458,195.654 351.505 M203.467 351.505 C 203.708 351.552,204.104 351.552,204.346 351.505 C 204.587 351.458,204.390 351.420,203.906 351.420 C 203.423 351.420,203.225 351.458,203.467 351.505 M195.166 354.627 C 195.354 354.676,195.662 354.676,195.850 354.627 C 196.038 354.578,195.884 354.538,195.508 354.538 C 195.132 354.538,194.978 354.578,195.166 354.627 M204.150 354.627 C 204.338 354.676,204.646 354.676,204.834 354.627 C 205.022 354.578,204.868 354.538,204.492 354.538 C 204.116 354.538,203.962 354.578,204.150 354.627 M194.678 395.255 C 194.919 395.302,195.315 395.302,195.557 395.255 C 195.798 395.208,195.601 395.170,195.117 395.170 C 194.634 395.170,194.436 395.208,194.678 395.255 M204.443 395.255 C 204.685 395.302,205.081 395.302,205.322 395.255 C 205.564 395.208,205.366 395.170,204.883 395.170 C 204.399 395.170,204.202 395.208,204.443 395.255 " stroke="none" fill="#8ff18f" fill-rule="evenodd"></path><path id="path4" d="M226.998 190.112 C 218.482 193.776,211.583 196.794,211.666 196.818 C 211.886 196.882,244.695 192.479,244.803 192.371 C 244.919 192.255,242.718 183.390,242.582 183.424 C 242.526 183.438,235.513 186.447,226.998 190.112 M152.588 225.450 C 135.374 234.065,121.289 241.180,121.289 241.262 C 121.289 241.344,122.899 243.557,124.868 246.179 L 128.446 250.947 156.069 230.535 C 182.338 211.124,184.184 209.751,183.975 209.777 C 183.926 209.782,169.802 216.836,152.588 225.450 " stroke="none" fill="#2362f9" fill-rule="evenodd"></path></g></svg>