<svg id="svg" version="1.1" xmlns="http://www.w3.org/2000/svg" xmlns:xlink="http://www.w3.org/1999/xlink" width="400" height="266.6666666666667" viewBox="0, 0, 400,266.6666666666667"><g id="svgg"><path id="path0" d="M193.333 14.933 C 193.041 15.339,192.643 15.467,191.674 15.467 C 190.974 15.467,190.400 15.587,190.400 15.733 C 190.400 15.880,190.040 16.000,189.600 16.000 C 189.160 16.000,188.800 16.120,188.800 16.267 C 188.800 16.413,188.624 16.533,188.408 16.533 C 188.193 16.533,187.563 16.790,187.008 17.103 C 186.454 17.416,185.558 17.904,185.018 18.187 C 184.478 18.470,183.893 18.874,183.719 19.084 C 183.544 19.295,183.236 19.467,183.034 19.467 C 182.832 19.467,182.667 19.587,182.667 19.733 C 182.667 19.880,182.453 20.000,182.192 20.000 C 181.931 20.000,181.545 20.240,181.333 20.533 C 181.122 20.827,180.735 21.067,180.474 21.067 C 180.214 21.067,180.000 21.187,180.000 21.333 C 180.000 21.480,179.760 21.600,179.467 21.600 C 179.173 21.600,178.933 21.720,178.933 21.867 C 178.933 22.013,178.693 22.133,178.400 22.133 C 178.107 22.133,177.867 22.253,177.867 22.400 C 177.867 22.547,177.653 22.667,177.392 22.667 C 177.131 22.667,176.745 22.907,176.533 23.200 C 176.322 23.493,175.962 23.733,175.733 23.733 C 175.505 23.733,175.145 23.973,174.933 24.267 C 174.722 24.560,174.335 24.800,174.074 24.800 C 173.814 24.800,173.600 24.920,173.600 25.067 C 173.600 25.213,173.446 25.333,173.259 25.333 C 173.071 25.333,172.745 25.573,172.533 25.867 C 172.322 26.160,171.935 26.400,171.674 26.400 C 171.414 26.400,171.200 26.520,171.200 26.667 C 171.200 26.813,170.960 26.933,170.667 26.933 C 170.373 26.933,170.133 27.040,170.133 27.170 C 170.133 27.300,169.683 27.608,169.133 27.855 C 167.021 28.802,164.800 30.003,164.800 30.197 C 164.800 30.309,164.643 30.400,164.450 30.400 C 164.258 30.400,163.868 30.610,163.584 30.867 C 163.299 31.123,162.739 31.503,162.338 31.709 C 161.937 31.916,161.372 32.306,161.082 32.576 C 160.793 32.846,160.371 33.067,160.144 33.067 C 159.918 33.067,159.733 33.187,159.733 33.333 C 159.733 33.480,159.520 33.600,159.259 33.600 C 158.998 33.600,158.611 33.840,158.400 34.133 C 158.189 34.427,157.802 34.667,157.541 34.667 C 157.280 34.667,157.067 34.787,157.067 34.933 C 157.067 35.080,156.827 35.200,156.533 35.200 C 156.240 35.200,156.000 35.320,156.000 35.467 C 156.000 35.613,155.786 35.733,155.526 35.733 C 155.265 35.733,154.878 35.973,154.667 36.267 C 154.455 36.560,154.069 36.800,153.808 36.800 C 153.547 36.800,153.333 36.920,153.333 37.067 C 153.333 37.213,153.120 37.333,152.859 37.333 C 152.598 37.333,152.211 37.573,152.000 37.867 C 151.789 38.160,151.402 38.400,151.141 38.400 C 150.880 38.400,150.667 38.518,150.667 38.662 C 150.667 38.805,150.367 38.998,150.000 39.090 C 149.633 39.183,149.333 39.365,149.333 39.496 C 149.333 39.626,149.176 39.733,148.984 39.733 C 148.791 39.733,148.376 39.973,148.061 40.267 C 147.747 40.560,147.304 40.800,147.078 40.800 C 146.852 40.800,146.667 40.920,146.667 41.067 C 146.667 41.213,146.427 41.333,146.133 41.333 C 145.840 41.333,145.600 41.453,145.600 41.600 C 145.600 41.747,145.360 41.867,145.067 41.867 C 144.773 41.867,144.533 41.987,144.533 42.133 C 144.533 42.280,144.376 42.400,144.184 42.400 C 143.991 42.400,143.576 42.640,143.261 42.933 C 142.947 43.227,142.530 43.467,142.337 43.467 C 142.143 43.467,141.811 43.707,141.600 44.000 C 141.389 44.293,141.002 44.533,140.741 44.533 C 140.480 44.533,140.267 44.653,140.267 44.800 C 140.267 44.947,140.113 45.067,139.926 45.067 C 139.738 45.067,139.411 45.307,139.200 45.600 C 138.989 45.893,138.602 46.133,138.341 46.133 C 138.080 46.133,137.867 46.253,137.867 46.400 C 137.867 46.547,137.653 46.667,137.392 46.667 C 137.131 46.667,136.745 46.907,136.533 47.200 C 136.322 47.493,136.019 47.733,135.861 47.733 C 135.416 47.733,134.138 48.376,134.135 48.600 C 134.134 48.710,133.893 48.800,133.600 48.800 C 133.307 48.800,133.067 48.906,133.067 49.036 C 133.067 49.165,132.857 49.340,132.600 49.424 C 132.343 49.508,131.653 49.878,131.067 50.245 C 130.480 50.612,129.626 51.103,129.169 51.336 C 128.712 51.569,128.088 51.994,127.780 52.280 C 127.473 52.566,127.037 52.800,126.811 52.800 C 126.585 52.800,126.400 52.920,126.400 53.067 C 126.400 53.213,126.186 53.333,125.926 53.333 C 125.665 53.333,125.278 53.573,125.067 53.867 C 124.855 54.160,124.553 54.400,124.394 54.400 C 123.950 54.400,122.671 55.042,122.669 55.267 C 122.668 55.377,122.482 55.467,122.256 55.467 C 122.029 55.467,121.587 55.707,121.272 56.000 C 120.957 56.293,120.542 56.533,120.350 56.533 C 120.157 56.533,120.000 56.653,120.000 56.800 C 120.000 56.947,119.843 57.067,119.650 57.067 C 119.458 57.067,119.043 57.307,118.728 57.600 C 118.413 57.893,117.997 58.133,117.803 58.133 C 117.610 58.133,117.278 58.373,117.067 58.667 C 116.855 58.960,116.529 59.200,116.341 59.200 C 116.154 59.200,116.000 59.320,116.000 59.467 C 116.000 59.613,115.760 59.733,115.467 59.733 C 115.173 59.733,114.933 59.853,114.933 60.000 C 114.933 60.147,114.703 60.267,114.422 60.267 C 114.141 60.267,113.871 60.357,113.822 60.467 C 113.773 60.577,112.804 61.147,111.667 61.733 C 110.531 62.320,109.601 62.890,109.600 63.000 C 109.600 63.110,109.449 63.200,109.264 63.200 C 108.596 63.200,101.867 69.566,101.867 70.198 C 101.867 70.391,101.627 70.722,101.333 70.933 C 101.040 71.145,100.800 71.505,100.800 71.733 C 100.800 71.962,100.560 72.322,100.267 72.533 C 99.973 72.745,99.733 73.071,99.733 73.259 C 99.733 73.446,99.613 73.600,99.467 73.600 C 99.320 73.600,99.200 73.780,99.200 74.000 C 99.200 74.220,99.080 74.400,98.933 74.400 C 98.787 74.400,98.667 74.700,98.667 75.067 C 98.667 75.433,98.547 75.733,98.400 75.733 C 98.253 75.733,98.133 75.966,98.133 76.251 C 98.133 76.536,98.013 76.843,97.867 76.933 C 97.720 77.024,97.600 77.391,97.600 77.749 C 97.600 78.107,97.480 78.400,97.333 78.400 C 97.187 78.400,97.067 78.760,97.067 79.200 C 97.067 79.640,96.947 80.000,96.800 80.000 C 96.653 80.000,96.533 80.437,96.533 80.971 C 96.533 81.587,96.363 82.066,96.067 82.282 C 95.341 82.813,95.341 183.913,96.067 184.638 C 96.323 184.895,96.533 185.456,96.533 185.886 C 96.533 186.315,96.653 186.667,96.800 186.667 C 96.947 186.667,97.067 187.027,97.067 187.467 C 97.067 187.907,97.187 188.267,97.333 188.267 C 97.480 188.267,97.600 188.627,97.600 189.067 C 97.600 189.507,97.720 189.867,97.867 189.867 C 98.013 189.867,98.133 190.107,98.133 190.400 C 98.133 190.693,98.253 190.933,98.400 190.933 C 98.547 190.933,98.667 191.233,98.667 191.600 C 98.667 191.967,98.787 192.267,98.933 192.267 C 99.080 192.267,99.200 192.480,99.200 192.741 C 99.200 193.002,99.440 193.389,99.733 193.600 C 100.027 193.811,100.267 194.120,100.267 194.286 C 100.267 194.452,100.627 194.964,101.067 195.425 C 101.507 195.885,101.867 196.388,101.867 196.541 C 101.867 197.119,108.647 203.467,109.264 203.467 C 109.449 203.467,109.600 203.557,109.600 203.667 C 109.601 203.777,110.531 204.347,111.667 204.933 C 112.804 205.520,113.773 206.090,113.822 206.200 C 113.871 206.310,114.141 206.400,114.422 206.400 C 114.703 206.400,114.933 206.520,114.933 206.667 C 114.933 206.813,115.173 206.933,115.467 206.933 C 115.760 206.933,116.000 207.053,116.000 207.200 C 116.000 207.347,116.154 207.467,116.341 207.467 C 116.529 207.467,116.855 207.707,117.067 208.000 C 117.278 208.293,117.610 208.533,117.803 208.533 C 117.997 208.533,118.413 208.773,118.728 209.067 C 119.043 209.360,119.458 209.600,119.650 209.600 C 119.843 209.600,120.000 209.720,120.000 209.867 C 120.000 210.013,120.157 210.133,120.350 210.133 C 120.542 210.133,120.957 210.373,121.272 210.667 C 121.587 210.960,122.029 211.200,122.256 211.200 C 122.482 211.200,122.668 211.290,122.669 211.400 C 122.671 211.624,123.950 212.267,124.394 212.267 C 124.553 212.267,124.855 212.507,125.067 212.800 C 125.278 213.093,125.665 213.333,125.926 213.333 C 126.186 213.333,126.400 213.453,126.400 213.600 C 126.400 213.747,126.585 213.867,126.811 213.867 C 127.037 213.867,127.473 214.101,127.780 214.387 C 128.088 214.673,128.712 215.098,129.169 215.331 C 129.626 215.564,130.480 216.055,131.067 216.422 C 131.653 216.789,132.343 217.158,132.600 217.242 C 132.857 217.327,133.067 217.502,133.067 217.631 C 133.067 217.761,133.307 217.867,133.600 217.867 C 133.893 217.867,134.134 217.957,134.135 218.067 C 134.138 218.291,135.416 218.933,135.861 218.933 C 136.019 218.933,136.322 219.173,136.533 219.467 C 136.745 219.760,137.131 220.000,137.392 220.000 C 137.653 220.000,137.867 220.120,137.867 220.267 C 137.867 220.413,138.080 220.533,138.341 220.533 C 138.602 220.533,138.989 220.773,139.200 221.067 C 139.411 221.360,139.738 221.600,139.926 221.600 C 140.113 221.600,140.267 221.720,140.267 221.867 C 140.267 222.013,140.480 222.133,140.741 222.133 C 141.002 222.133,141.389 222.373,141.600 222.667 C 141.811 222.960,142.143 223.200,142.337 223.200 C 142.530 223.200,142.947 223.440,143.261 223.733 C 143.576 224.027,143.991 224.267,144.184 224.267 C 144.376 224.267,144.533 224.387,144.533 224.533 C 144.533 224.680,144.773 224.800,145.067 224.800 C 145.360 224.800,145.600 224.920,145.600 225.067 C 145.600 225.213,145.840 225.333,146.133 225.333 C 146.427 225.333,146.667 225.453,146.667 225.600 C 146.667 225.747,146.852 225.867,147.078 225.867 C 147.304 225.867,147.747 226.107,148.061 226.400 C 148.376 226.693,148.791 226.933,148.984 226.933 C 149.176 226.933,149.333 227.040,149.333 227.171 C 149.333 227.302,149.633 227.484,150.000 227.576 C 150.367 227.668,150.667 227.861,150.667 228.005 C 150.667 228.149,150.880 228.267,151.141 228.267 C 151.402 228.267,151.789 228.507,152.000 228.800 C 152.211 229.093,152.598 229.333,152.859 229.333 C 153.120 229.333,153.333 229.453,153.333 229.600 C 153.333 229.747,153.547 229.867,153.808 229.867 C 154.069 229.867,154.455 230.107,154.667 230.400 C 154.878 230.693,155.265 230.933,155.526 230.933 C 155.786 230.933,156.000 231.053,156.000 231.200 C 156.000 231.347,156.240 231.467,156.533 231.467 C 156.827 231.467,157.067 231.587,157.067 231.733 C 157.067 231.880,157.280 232.000,157.541 232.000 C 157.802 232.000,158.189 232.240,158.400 232.533 C 158.611 232.827,158.998 233.067,159.259 233.067 C 159.520 233.067,159.733 233.187,159.733 233.333 C 159.733 233.480,159.918 233.600,160.144 233.600 C 160.371 233.600,160.793 233.821,161.082 234.091 C 161.372 234.361,161.937 234.751,162.338 234.957 C 162.739 235.164,163.299 235.543,163.584 235.800 C 163.868 236.057,164.258 236.267,164.450 236.267 C 164.643 236.267,164.800 236.358,164.800 236.469 C 164.800 236.664,167.021 237.865,169.133 238.812 C 169.683 239.059,170.133 239.367,170.133 239.497 C 170.133 239.627,170.373 239.733,170.667 239.733 C 170.960 239.733,171.200 239.853,171.200 240.000 C 171.200 240.147,171.414 240.267,171.674 240.267 C 171.935 240.267,172.322 240.507,172.533 240.800 C 172.745 241.093,173.071 241.333,173.259 241.333 C 173.446 241.333,173.600 241.453,173.600 241.600 C 173.600 241.747,173.814 241.867,174.074 241.867 C 174.335 241.867,174.722 242.107,174.933 242.400 C 175.145 242.693,175.505 242.933,175.733 242.933 C 175.962 242.933,176.322 243.173,176.533 243.467 C 176.745 243.760,177.131 244.000,177.392 244.000 C 177.653 244.000,177.867 244.120,177.867 244.267 C 177.867 244.413,178.107 244.533,178.400 244.533 C 178.693 244.533,178.933 244.653,178.933 244.800 C 178.933 244.947,179.173 245.067,179.467 245.067 C 179.760 245.067,180.000 245.187,180.000 245.333 C 180.000 245.480,180.214 245.600,180.474 245.600 C 180.735 245.600,181.122 245.840,181.333 246.133 C 181.545 246.427,181.931 246.667,182.192 246.667 C 182.453 246.667,182.667 246.787,182.667 246.933 C 182.667 247.080,182.832 247.200,183.034 247.200 C 183.236 247.200,183.544 247.372,183.719 247.583 C 183.893 247.793,184.478 248.197,185.018 248.480 C 185.558 248.763,186.454 249.251,187.008 249.564 C 187.563 249.877,188.193 250.133,188.408 250.133 C 188.624 250.133,188.800 250.253,188.800 250.400 C 188.800 250.547,189.160 250.667,189.600 250.667 C 190.040 250.667,190.400 250.787,190.400 250.933 C 190.400 251.080,190.974 251.200,191.674 251.200 C 192.643 251.200,193.041 251.328,193.333 251.733 C 193.930 252.561,206.070 252.561,206.667 251.733 C 206.959 251.328,207.357 251.200,208.326 251.200 C 209.026 251.200,209.600 251.080,209.600 250.933 C 209.600 250.787,209.960 250.667,210.400 250.667 C 210.840 250.667,211.200 250.547,211.200 250.400 C 211.200 250.253,211.376 250.133,211.592 250.133 C 211.807 250.133,212.437 249.877,212.992 249.564 C 213.546 249.251,214.442 248.763,214.982 248.480 C 215.522 248.197,216.107 247.793,216.281 247.583 C 216.456 247.372,216.764 247.200,216.966 247.200 C 217.168 247.200,217.333 247.080,217.333 246.933 C 217.333 246.787,217.547 246.667,217.808 246.667 C 218.069 246.667,218.455 246.427,218.667 246.133 C 218.878 245.840,219.265 245.600,219.526 245.600 C 219.786 245.600,220.000 245.480,220.000 245.333 C 220.000 245.187,220.240 245.067,220.533 245.067 C 220.827 245.067,221.067 244.947,221.067 244.800 C 221.067 244.653,221.307 244.533,221.600 244.533 C 221.893 244.533,222.133 244.413,222.133 244.267 C 222.133 244.120,222.347 244.000,222.608 244.000 C 222.869 244.000,223.255 243.760,223.467 243.467 C 223.678 243.173,224.038 242.933,224.267 242.933 C 224.495 242.933,224.855 242.693,225.067 242.400 C 225.278 242.107,225.665 241.867,225.926 241.867 C 226.186 241.867,226.400 241.747,226.400 241.600 C 226.400 241.453,226.554 241.333,226.741 241.333 C 226.929 241.333,227.255 241.093,227.467 240.800 C 227.678 240.507,228.065 240.267,228.326 240.267 C 228.586 240.267,228.800 240.147,228.800 240.000 C 228.800 239.853,229.040 239.733,229.333 239.733 C 229.627 239.733,229.867 239.627,229.867 239.497 C 229.867 239.367,230.317 239.059,230.867 238.812 C 232.979 237.865,235.200 236.664,235.200 236.469 C 235.200 236.358,235.357 236.267,235.550 236.267 C 235.742 236.267,236.132 236.057,236.416 235.800 C 236.701 235.543,237.261 235.164,237.662 234.957 C 238.063 234.751,238.628 234.361,238.918 234.091 C 239.207 233.821,239.629 233.600,239.856 233.600 C 240.082 233.600,240.267 233.480,240.267 233.333 C 240.267 233.187,240.480 233.067,240.741 233.067 C 241.002 233.067,241.389 232.827,241.600 232.533 C 241.811 232.240,242.198 232.000,242.459 232.000 C 242.720 232.000,242.933 231.880,242.933 231.733 C 242.933 231.587,243.173 231.467,243.467 231.467 C 243.760 231.467,244.000 231.347,244.000 231.200 C 244.000 231.053,244.214 230.933,244.474 230.933 C 244.735 230.933,245.122 230.693,245.333 230.400 C 245.545 230.107,245.931 229.867,246.192 229.867 C 246.453 229.867,246.667 229.747,246.667 229.600 C 246.667 229.453,246.880 229.333,247.141 229.333 C 247.402 229.333,247.789 229.093,248.000 228.800 C 248.211 228.507,248.598 228.267,248.859 228.267 C 249.120 228.267,249.333 228.149,249.333 228.005 C 249.333 227.861,249.633 227.668,250.000 227.576 C 250.367 227.484,250.667 227.302,250.667 227.171 C 250.667 227.040,250.824 226.933,251.016 226.933 C 251.209 226.933,251.624 226.693,251.939 226.400 C 252.253 226.107,252.696 225.867,252.922 225.867 C 253.148 225.867,253.333 225.747,253.333 225.600 C 253.333 225.453,253.573 225.333,253.867 225.333 C 254.160 225.333,254.400 225.213,254.400 225.067 C 254.400 224.920,254.640 224.800,254.933 224.800 C 255.227 224.800,255.467 224.680,255.467 224.533 C 255.467 224.387,255.624 224.267,255.816 224.267 C 256.009 224.267,256.424 224.027,256.739 223.733 C 257.053 223.440,257.470 223.200,257.663 223.200 C 257.857 223.200,258.189 222.960,258.400 222.667 C 258.611 222.373,258.998 222.133,259.259 222.133 C 259.520 222.133,259.733 222.013,259.733 221.867 C 259.733 221.720,259.887 221.600,260.074 221.600 C 260.262 221.600,260.589 221.360,260.800 221.067 C 261.011 220.773,261.398 220.533,261.659 220.533 C 261.920 220.533,262.133 220.413,262.133 220.267 C 262.133 220.120,262.347 220.000,262.608 220.000 C 262.869 220.000,263.255 219.760,263.467 219.467 C 263.678 219.173,263.981 218.933,264.139 218.933 C 264.584 218.933,265.862 218.291,265.865 218.067 C 265.866 217.957,266.107 217.867,266.400 217.867 C 266.693 217.867,266.933 217.761,266.933 217.631 C 266.933 217.502,267.143 217.327,267.400 217.242 C 267.657 217.158,268.347 216.789,268.933 216.422 C 269.520 216.055,270.374 215.564,270.831 215.331 C 271.288 215.098,271.912 214.673,272.220 214.387 C 272.527 214.101,272.963 213.867,273.189 213.867 C 273.415 213.867,273.600 213.747,273.600 213.600 C 273.600 213.453,273.814 213.333,274.074 213.333 C 274.335 213.333,274.722 213.093,274.933 212.800 C 275.145 212.507,275.447 212.267,275.606 212.267 C 276.050 212.267,277.329 211.624,277.331 211.400 C 277.332 211.290,277.518 211.200,277.744 211.200 C 277.971 211.200,278.413 210.960,278.728 210.667 C 279.043 210.373,279.458 210.133,279.650 210.133 C 279.843 210.133,280.000 210.013,280.000 209.867 C 280.000 209.720,280.157 209.600,280.350 209.600 C 280.542 209.600,280.957 209.360,281.272 209.067 C 281.587 208.773,282.003 208.533,282.197 208.533 C 282.390 208.533,282.722 208.293,282.933 208.000 C 283.145 207.707,283.471 207.467,283.659 207.467 C 283.846 207.467,284.000 207.347,284.000 207.200 C 284.000 207.053,284.240 206.933,284.533 206.933 C 284.827 206.933,285.067 206.813,285.067 206.667 C 285.067 206.520,285.297 206.400,285.578 206.400 C 285.859 206.400,286.129 206.310,286.178 206.200 C 286.227 206.090,287.196 205.520,288.333 204.933 C 289.469 204.347,290.399 203.777,290.400 203.667 C 290.400 203.557,290.551 203.467,290.736 203.467 C 291.404 203.467,298.133 197.101,298.133 196.469 C 298.133 196.276,298.373 195.945,298.667 195.733 C 298.960 195.522,299.200 195.162,299.200 194.933 C 299.200 194.705,299.440 194.345,299.733 194.133 C 300.027 193.922,300.267 193.595,300.267 193.408 C 300.267 193.220,300.387 193.067,300.533 193.067 C 300.680 193.067,300.800 192.887,300.800 192.667 C 300.800 192.447,300.920 192.267,301.067 192.267 C 301.213 192.267,301.333 191.967,301.333 191.600 C 301.333 191.233,301.453 190.933,301.600 190.933 C 301.747 190.933,301.867 190.700,301.867 190.416 C 301.867 190.131,301.987 189.824,302.133 189.733 C 302.280 189.643,302.400 189.276,302.400 188.918 C 302.400 188.560,302.520 188.267,302.667 188.267 C 302.813 188.267,302.933 187.907,302.933 187.467 C 302.933 187.027,303.053 186.667,303.200 186.667 C 303.347 186.667,303.467 186.230,303.467 185.696 C 303.467 185.079,303.637 184.601,303.933 184.384 C 304.365 184.069,304.861 84.177,304.436 83.067 C 304.380 82.920,304.324 82.706,304.310 82.590 C 304.297 82.475,304.101 82.197,303.876 81.971 C 303.651 81.746,303.467 81.210,303.467 80.781 C 303.467 80.351,303.347 80.000,303.200 80.000 C 303.053 80.000,302.933 79.640,302.933 79.200 C 302.933 78.760,302.813 78.400,302.667 78.400 C 302.520 78.400,302.400 78.040,302.400 77.600 C 302.400 77.160,302.280 76.800,302.133 76.800 C 301.987 76.800,301.867 76.560,301.867 76.267 C 301.867 75.973,301.747 75.733,301.600 75.733 C 301.453 75.733,301.333 75.492,301.333 75.196 C 301.333 74.603,300.912 73.773,300.200 72.963 C 299.943 72.672,299.733 72.302,299.733 72.142 C 299.733 71.982,299.493 71.678,299.200 71.467 C 298.907 71.255,298.667 70.945,298.667 70.776 C 298.667 70.447,293.296 64.800,292.983 64.800 C 292.880 64.800,292.418 64.440,291.958 64.000 C 291.498 63.560,290.959 63.200,290.760 63.200 C 290.562 63.200,290.400 63.110,290.400 63.000 C 290.399 62.890,289.469 62.320,288.333 61.733 C 287.196 61.147,286.227 60.577,286.178 60.467 C 286.129 60.357,285.859 60.267,285.578 60.267 C 285.297 60.267,285.067 60.147,285.067 60.000 C 285.067 59.853,284.827 59.733,284.533 59.733 C 284.240 59.733,284.000 59.613,284.000 59.467 C 284.000 59.320,283.846 59.200,283.659 59.200 C 283.471 59.200,283.145 58.960,282.933 58.667 C 282.722 58.373,282.390 58.133,282.197 58.133 C 282.003 58.133,281.587 57.893,281.272 57.600 C 280.957 57.307,280.542 57.067,280.350 57.067 C 280.157 57.067,280.000 56.947,280.000 56.800 C 280.000 56.653,279.843 56.533,279.650 56.533 C 279.458 56.533,279.043 56.293,278.728 56.000 C 278.413 55.707,277.971 55.467,277.744 55.467 C 277.518 55.467,277.332 55.377,277.331 55.267 C 277.329 55.042,276.050 54.400,275.606 54.400 C 275.447 54.400,275.145 54.160,274.933 53.867 C 274.722 53.573,274.335 53.333,274.074 53.333 C 273.814 53.333,273.600 53.213,273.600 53.067 C 273.600 52.920,273.415 52.800,273.189 52.800 C 272.963 52.800,272.527 52.566,272.220 52.280 C 271.912 51.994,271.288 51.569,270.831 51.336 C 270.374 51.103,269.520 50.612,268.933 50.245 C 268.347 49.878,267.657 49.508,267.400 49.424 C 267.143 49.340,266.933 49.165,266.933 49.036 C 266.933 48.906,266.693 48.800,266.400 48.800 C 266.107 48.800,265.866 48.710,265.865 48.600 C 265.862 48.376,264.584 47.733,264.139 47.733 C 263.981 47.733,263.678 47.493,263.467 47.200 C 263.255 46.907,262.869 46.667,262.608 46.667 C 262.347 46.667,262.133 46.547,262.133 46.400 C 262.133 46.253,261.920 46.133,261.659 46.133 C 261.398 46.133,261.011 45.893,260.800 45.600 C 260.589 45.307,260.262 45.067,260.074 45.067 C 259.887 45.067,259.733 44.947,259.733 44.800 C 259.733 44.653,259.520 44.533,259.259 44.533 C 258.998 44.533,258.611 44.293,258.400 44.000 C 258.189 43.707,257.857 43.467,257.663 43.467 C 257.470 43.467,257.053 43.227,256.739 42.933 C 256.424 42.640,256.009 42.400,255.816 42.400 C 255.624 42.400,255.467 42.280,255.467 42.133 C 255.467 41.987,255.227 41.867,254.933 41.867 C 254.640 41.867,254.400 41.747,254.400 41.600 C 254.400 41.453,254.160 41.333,253.867 41.333 C 253.573 41.333,253.333 41.213,253.333 41.067 C 253.333 40.920,253.148 40.800,252.922 40.800 C 252.696 40.800,252.253 40.560,251.939 40.267 C 251.624 39.973,251.209 39.733,251.016 39.733 C 250.824 39.733,250.667 39.626,250.667 39.496 C 250.667 39.365,250.367 39.183,250.000 39.090 C 249.633 38.998,249.333 38.805,249.333 38.662 C 249.333 38.518,249.120 38.400,248.859 38.400 C 248.598 38.400,248.211 38.160,248.000 37.867 C 247.789 37.573,247.402 37.333,247.141 37.333 C 246.880 37.333,246.667 37.213,246.667 37.067 C 246.667 36.920,246.453 36.800,246.192 36.800 C 245.931 36.800,245.545 36.560,245.333 36.267 C 245.122 35.973,244.735 35.733,244.474 35.733 C 244.214 35.733,244.000 35.613,244.000 35.467 C 244.000 35.320,243.760 35.200,243.467 35.200 C 243.173 35.200,242.933 35.080,242.933 34.933 C 242.933 34.787,242.720 34.667,242.459 34.667 C 242.198 34.667,241.811 34.427,241.600 34.133 C 241.389 33.840,241.002 33.600,240.741 33.600 C 240.480 33.600,240.267 33.480,240.267 33.333 C 240.267 33.187,240.082 33.067,239.856 33.067 C 239.629 33.067,239.207 32.846,238.918 32.576 C 238.628 32.306,238.063 31.916,237.662 31.709 C 237.261 31.503,236.701 31.123,236.416 30.867 C 236.132 30.610,235.742 30.400,235.550 30.400 C 235.357 30.400,235.200 30.309,235.200 30.197 C 235.200 30.003,232.979 28.802,230.867 27.855 C 230.317 27.608,229.867 27.300,229.867 27.170 C 229.867 27.040,229.627 26.933,229.333 26.933 C 229.040 26.933,228.800 26.813,228.800 26.667 C 228.800 26.520,228.586 26.400,228.326 26.400 C 228.065 26.400,227.678 26.160,227.467 25.867 C 227.255 25.573,226.929 25.333,226.741 25.333 C 226.554 25.333,226.400 25.213,226.400 25.067 C 226.400 24.920,226.186 24.800,225.926 24.800 C 225.665 24.800,225.278 24.560,225.067 24.267 C 224.855 23.973,224.495 23.733,224.267 23.733 C 224.038 23.733,223.678 23.493,223.467 23.200 C 223.255 22.907,222.869 22.667,222.608 22.667 C 222.347 22.667,222.133 22.547,222.133 22.400 C 222.133 22.253,221.893 22.133,221.600 22.133 C 221.307 22.133,221.067 22.013,221.067 21.867 C 221.067 21.720,220.827 21.600,220.533 21.600 C 220.240 21.600,220.000 21.480,220.000 21.333 C 220.000 21.187,219.786 21.067,219.526 21.067 C 219.265 21.067,218.878 20.827,218.667 20.533 C 218.455 20.240,218.069 20.000,217.808 20.000 C 217.547 20.000,217.333 19.880,217.333 19.733 C 217.333 19.587,217.168 19.467,216.966 19.467 C 216.764 19.467,216.456 19.295,216.281 19.084 C 216.107 18.874,215.522 18.470,214.982 18.187 C 214.442 17.904,213.546 17.416,212.992 17.103 C 212.437 16.790,211.807 16.533,211.592 16.533 C 211.376 16.533,211.200 16.413,211.200 16.267 C 211.200 16.120,210.840 16.000,210.400 16.000 C 209.960 16.000,209.600 15.880,209.600 15.733 C 209.600 15.587,209.026 15.467,208.326 15.467 C 207.357 15.467,206.959 15.339,206.667 14.933 C 206.301 14.426,205.976 14.400,200.000 14.400 C 194.024 14.400,193.699 14.426,193.333 14.933 M202.322 20.012 C 206.659 20.594,209.571 21.759,215.409 25.246 C 217.944 26.761,220.083 28.000,220.161 28.000 C 220.240 28.000,220.806 28.342,221.419 28.760 C 222.032 29.179,222.653 29.569,222.800 29.627 C 223.053 29.728,229.800 33.728,237.067 38.085 C 238.900 39.185,240.760 40.288,241.200 40.538 C 243.137 41.636,249.492 45.410,249.733 45.605 C 249.880 45.724,250.780 46.266,251.733 46.810 C 254.635 48.465,254.928 48.638,259.200 51.200 C 261.473 52.564,263.753 53.916,264.267 54.206 C 264.780 54.495,266.940 55.776,269.067 57.053 C 272.777 59.280,275.492 60.886,277.200 61.864 C 287.603 67.821,290.997 70.239,293.302 73.333 C 293.684 73.847,294.071 74.327,294.162 74.400 C 294.854 74.959,297.438 80.799,297.967 83.000 C 298.225 84.070,297.487 83.961,296.738 82.817 C 294.417 79.277,287.723 78.962,283.019 82.173 C 282.406 82.591,281.776 82.933,281.619 82.933 C 281.462 82.933,281.333 83.045,281.333 83.180 C 281.333 83.316,281.182 83.466,280.997 83.514 C 280.586 83.619,272.909 88.359,265.671 92.976 C 264.903 93.466,264.153 93.867,264.004 93.867 C 263.855 93.867,263.733 93.987,263.733 94.133 C 263.733 94.280,263.617 94.400,263.475 94.400 C 263.333 94.400,262.403 94.919,261.408 95.554 C 260.414 96.188,257.500 98.003,254.933 99.587 C 248.531 103.538,247.169 104.384,244.400 106.132 C 243.080 106.965,239.900 108.940,237.333 110.520 C 234.767 112.101,232.039 113.801,231.271 114.297 C 230.503 114.794,229.812 115.200,229.734 115.200 C 229.657 115.200,228.785 115.721,227.797 116.359 C 225.054 118.127,222.036 120.020,218.800 122.001 C 217.187 122.988,215.058 124.322,214.070 124.965 C 213.082 125.608,212.207 126.133,212.126 126.133 C 212.046 126.133,210.874 126.873,209.523 127.778 C 202.919 132.199,199.731 136.273,198.183 142.267 C 197.676 144.227,197.361 230.047,197.840 235.371 C 198.273 240.169,199.470 242.787,202.008 244.488 C 203.616 245.564,203.777 246.005,202.646 246.231 C 200.525 246.655,195.129 246.252,193.804 245.571 C 193.549 245.440,193.157 245.333,192.933 245.333 C 192.709 245.333,192.318 245.229,192.063 245.101 C 191.808 244.974,191.028 244.615,190.330 244.303 C 189.631 243.992,187.351 242.701,185.263 241.434 C 183.175 240.168,180.927 238.830,180.267 238.461 C 179.607 238.092,177.327 236.747,175.200 235.472 C 170.291 232.529,160.834 226.907,160.133 226.515 C 159.167 225.975,157.753 225.153,156.400 224.345 C 153.347 222.521,146.208 218.289,145.467 217.863 C 145.027 217.610,143.587 216.746,142.267 215.943 C 140.947 215.139,138.067 213.423,135.867 212.129 C 133.667 210.835,130.367 208.875,128.533 207.773 C 126.700 206.671,124.959 205.641,124.665 205.484 C 123.450 204.839,113.363 198.794,112.097 197.953 C 107.732 195.054,104.222 190.185,102.230 184.267 L 101.467 182.000 101.467 133.333 L 101.467 84.667 102.079 82.533 C 104.616 73.695,107.953 70.365,122.800 61.864 C 124.508 60.886,127.223 59.280,130.933 57.053 C 133.060 55.776,135.220 54.495,135.733 54.206 C 136.247 53.916,138.527 52.564,140.800 51.200 C 145.072 48.638,145.365 48.465,148.267 46.810 C 149.220 46.266,150.120 45.724,150.267 45.605 C 150.508 45.410,156.863 41.636,158.800 40.538 C 159.240 40.288,161.100 39.185,162.933 38.085 C 170.200 33.728,176.947 29.728,177.200 29.627 C 177.347 29.569,177.968 29.179,178.581 28.760 C 179.194 28.342,179.765 28.000,179.848 28.000 C 179.932 28.000,182.091 26.737,184.645 25.194 C 187.200 23.651,189.930 22.138,190.712 21.832 C 191.494 21.526,192.373 21.179,192.667 21.060 C 193.562 20.698,194.441 20.496,196.667 20.143 C 199.487 19.694,199.885 19.685,202.322 20.012 M231.191 145.316 C 231.342 145.599,231.467 147.219,231.467 148.916 C 231.467 150.612,231.528 152.000,231.604 152.000 C 231.679 152.000,231.949 151.894,232.204 151.765 C 233.730 150.990,237.071 150.704,238.261 151.246 C 239.284 151.712,239.304 152.358,238.406 155.867 C 237.272 160.298,236.912 160.697,234.573 160.116 C 230.647 159.141,224.614 163.923,224.350 168.220 C 224.158 171.332,225.207 172.232,229.051 172.254 C 233.466 172.279,236.298 173.121,238.153 174.962 C 243.261 180.026,240.978 192.363,233.552 199.828 L 231.733 201.655 231.733 205.245 C 231.733 209.574,231.762 209.514,228.897 211.207 C 225.526 213.198,225.077 212.860,225.071 208.328 L 225.067 205.590 224.333 205.765 C 223.930 205.862,223.364 206.062,223.075 206.211 C 220.392 207.592,215.605 206.107,216.207 204.080 C 216.372 203.523,216.770 201.987,217.091 200.667 C 217.951 197.127,218.212 196.707,219.421 196.917 C 221.942 197.355,222.587 197.374,223.977 197.052 C 229.059 195.871,232.531 192.133,232.754 187.600 C 232.927 184.063,231.848 183.277,226.141 182.784 C 221.441 182.377,219.903 181.813,218.192 179.870 C 217.573 179.167,217.067 178.427,217.067 178.226 C 217.067 178.024,216.958 177.651,216.826 177.396 C 216.216 176.224,215.946 173.368,216.259 171.413 C 217.219 165.414,219.328 161.153,223.255 157.280 L 225.067 155.492 225.070 152.213 C 225.075 147.830,225.039 147.915,227.573 146.253 C 229.898 144.726,230.756 144.504,231.191 145.316 M270.667 189.048 C 270.667 192.441,272.273 191.093,257.867 199.792 C 256.767 200.457,254.907 201.591,253.733 202.313 C 250.196 204.491,250.133 204.465,250.133 200.862 C 250.133 197.298,248.931 198.323,262.400 190.405 C 264.967 188.896,267.718 187.261,268.514 186.771 C 270.482 185.560,270.667 185.755,270.667 189.048 " stroke="none" fill="#242c34" fill-rule="evenodd"></path><path id="path1" d="M197.138 20.536 C 193.241 21.076,190.417 22.171,186.129 24.803 C 184.936 25.535,183.901 26.133,183.828 26.133 C 183.756 26.133,183.173 26.493,182.533 26.933 C 181.894 27.373,181.318 27.733,181.254 27.733 C 181.190 27.733,178.639 29.233,175.584 31.067 C 172.529 32.900,170.002 34.400,169.968 34.400 C 169.934 34.400,168.928 35.000,167.733 35.733 C 166.538 36.467,165.501 37.067,165.428 37.067 C 165.356 37.067,164.773 37.427,164.133 37.867 C 163.494 38.307,162.891 38.667,162.793 38.667 C 162.696 38.667,162.297 38.893,161.908 39.169 C 161.519 39.445,160.750 39.925,160.200 40.235 C 158.114 41.413,157.337 41.870,152.667 44.669 C 150.027 46.250,147.507 47.750,147.067 48.002 C 146.627 48.253,145.607 48.852,144.800 49.333 C 143.993 49.814,142.973 50.418,142.533 50.674 C 141.186 51.459,134.881 55.208,133.467 56.065 C 132.733 56.509,131.773 57.080,131.333 57.332 C 130.893 57.585,129.873 58.186,129.067 58.667 C 128.260 59.148,127.240 59.750,126.800 60.006 C 126.360 60.262,125.100 61.012,124.000 61.673 C 122.900 62.334,119.960 64.081,117.467 65.555 C 108.621 70.784,105.457 74.061,103.306 80.220 C 101.549 85.249,101.599 83.681,101.608 133.177 C 101.618 184.700,101.510 182.412,104.190 187.983 C 107.033 193.896,110.377 196.825,121.333 202.998 C 121.847 203.287,122.387 203.618,122.533 203.733 C 122.680 203.849,123.234 204.185,123.763 204.480 C 125.692 205.554,126.002 205.736,126.133 205.867 C 126.264 205.998,126.575 206.179,128.503 207.253 C 129.033 207.549,129.587 207.885,129.733 208.000 C 129.880 208.115,130.420 208.447,130.933 208.737 C 133.106 209.965,136.648 212.055,140.224 214.219 C 142.328 215.492,144.106 216.533,144.176 216.533 C 144.246 216.533,144.827 216.893,145.467 217.333 C 146.106 217.773,146.700 218.133,146.787 218.133 C 146.874 218.133,147.392 218.419,147.939 218.769 C 148.878 219.369,153.162 221.917,165.467 229.196 C 168.400 230.932,174.040 234.281,178.000 236.640 C 189.515 243.500,190.536 244.057,193.200 244.938 C 194.843 245.481,196.079 245.677,198.576 245.792 C 202.669 245.981,203.093 245.851,201.691 244.835 C 199.532 243.271,198.417 241.382,197.732 238.128 C 197.041 234.842,197.153 145.269,197.852 142.107 C 198.971 137.048,202.473 132.136,207.342 128.797 C 208.070 128.298,208.787 127.792,208.933 127.674 C 209.396 127.301,211.014 126.270,213.615 124.689 C 215.000 123.848,217.453 122.322,219.067 121.300 C 220.680 120.277,222.210 119.372,222.467 119.289 C 222.723 119.206,222.933 119.032,222.933 118.902 C 222.933 118.773,223.060 118.667,223.215 118.667 C 223.369 118.667,224.203 118.187,225.067 117.600 C 225.931 117.013,226.700 116.533,226.776 116.533 C 226.853 116.533,227.909 115.895,229.124 115.114 C 230.339 114.334,233.253 112.517,235.600 111.077 C 237.947 109.637,240.767 107.891,241.867 107.198 C 242.967 106.504,245.607 104.859,247.733 103.540 C 249.860 102.222,253.554 99.926,255.941 98.439 C 258.329 96.951,260.344 95.733,260.419 95.733 C 260.494 95.733,260.701 95.607,260.878 95.453 C 261.302 95.085,272.575 88.065,274.646 86.880 C 275.148 86.593,276.251 85.887,277.098 85.312 C 277.945 84.737,278.711 84.267,278.800 84.267 C 278.889 84.267,279.669 83.787,280.533 83.200 C 281.397 82.613,282.182 82.133,282.278 82.133 C 282.373 82.133,282.800 81.885,283.227 81.581 C 287.455 78.570,293.368 78.712,296.485 81.900 C 297.500 82.938,297.524 82.789,296.704 80.532 C 294.186 73.597,291.710 70.980,282.533 65.555 C 280.040 64.081,277.100 62.334,276.000 61.673 C 274.900 61.012,273.640 60.262,273.200 60.006 C 272.760 59.750,271.740 59.148,270.933 58.667 C 270.127 58.186,269.107 57.585,268.667 57.332 C 268.227 57.080,267.267 56.509,266.533 56.065 C 265.119 55.208,258.814 51.459,257.467 50.674 C 257.027 50.418,256.007 49.814,255.200 49.333 C 254.393 48.852,253.373 48.253,252.933 48.002 C 252.493 47.750,249.973 46.250,247.333 44.669 C 242.663 41.870,241.886 41.413,239.800 40.235 C 239.250 39.925,238.481 39.445,238.092 39.169 C 237.703 38.893,237.304 38.667,237.207 38.667 C 237.109 38.667,236.506 38.307,235.867 37.867 C 235.227 37.427,234.644 37.067,234.572 37.067 C 234.499 37.067,233.462 36.467,232.267 35.733 C 231.072 35.000,230.066 34.400,230.032 34.400 C 229.998 34.400,227.471 32.900,224.416 31.067 C 221.361 29.233,218.810 27.733,218.746 27.733 C 218.682 27.733,218.106 27.373,217.467 26.933 C 216.827 26.493,216.248 26.133,216.179 26.133 C 216.111 26.133,215.241 25.639,214.246 25.035 C 211.265 23.223,210.182 22.661,208.346 21.970 C 204.918 20.680,200.334 20.093,197.138 20.536 M229.067 145.861 C 228.700 146.151,228.250 146.391,228.067 146.394 C 227.883 146.397,227.733 146.512,227.733 146.649 C 227.733 146.785,227.489 146.975,227.191 147.070 C 225.793 147.513,225.600 148.109,225.599 151.984 L 225.599 155.600 223.723 157.440 C 220.805 160.303,217.326 166.242,217.332 168.351 C 217.333 168.617,217.205 169.075,217.048 169.369 C 216.635 170.141,216.697 175.926,217.131 177.067 C 218.582 180.880,220.145 181.771,226.333 182.308 C 229.733 182.603,230.550 182.760,231.320 183.264 C 235.430 185.952,232.948 193.518,226.991 196.464 C 224.786 197.554,220.771 198.031,219.505 197.354 C 218.772 196.961,218.256 197.733,217.713 200.035 C 217.492 200.969,217.203 202.153,217.069 202.667 C 216.625 204.374,216.554 204.935,216.744 205.229 C 217.531 206.442,221.923 206.457,224.472 205.256 C 225.421 204.809,225.575 205.234,225.657 208.509 C 225.754 212.364,225.878 212.477,228.350 210.964 C 229.336 210.360,230.247 209.867,230.374 209.867 C 231.159 209.867,231.516 207.927,231.329 204.685 L 231.141 201.425 232.203 200.583 C 233.431 199.611,235.931 196.620,236.815 195.067 C 237.739 193.443,238.933 190.957,238.933 190.659 C 238.933 190.512,239.042 190.184,239.174 189.930 C 240.327 187.712,240.797 182.992,240.165 179.974 C 239.090 174.833,236.983 173.360,229.902 172.798 C 224.968 172.406,223.737 171.597,223.734 168.743 C 223.731 163.979,228.948 159.584,234.388 159.769 C 237.086 159.861,236.957 160.037,238.277 154.479 C 238.969 151.562,238.341 151.093,234.576 151.712 C 233.526 151.885,232.307 152.050,231.867 152.080 L 231.067 152.133 230.933 148.800 C 230.786 145.105,230.530 144.703,229.067 145.861 " stroke="none" fill="#fbfbfb" fill-rule="evenodd"></path><path id="path2" d="M268.514 186.771 C 267.718 187.261,264.967 188.896,262.400 190.405 C 248.931 198.323,250.133 197.298,250.133 200.862 C 250.133 204.465,250.196 204.491,253.733 202.313 C 254.907 201.591,256.767 200.457,257.867 199.792 C 272.273 191.093,270.667 192.441,270.667 189.048 C 270.667 185.755,270.482 185.560,268.514 186.771 " stroke="none" fill="#4cae22" fill-rule="evenodd"></path><path id="path3" d="M197.190 20.264 C 196.305 20.387,195.165 20.618,194.657 20.777 L 193.733 21.065 194.667 20.921 C 200.173 20.073,202.793 20.231,207.867 21.718 C 208.160 21.804,208.003 21.690,207.519 21.464 C 205.397 20.475,200.092 19.859,197.190 20.264 M190.158 22.279 C 189.072 22.789,188.259 23.281,188.352 23.374 C 188.445 23.467,188.695 23.398,188.908 23.221 C 189.121 23.044,190.114 22.550,191.114 22.124 C 192.115 21.697,192.753 21.349,192.533 21.350 C 192.313 21.351,191.245 21.769,190.158 22.279 M186.864 24.100 C 185.583 24.887,185.226 25.259,186.267 24.721 C 187.103 24.289,188.230 23.484,188.000 23.483 C 187.927 23.483,187.416 23.761,186.864 24.100 M212.400 23.864 C 212.996 24.359,214.685 25.272,214.267 24.873 C 214.120 24.733,213.520 24.349,212.933 24.020 C 212.347 23.690,212.107 23.620,212.400 23.864 M184.400 25.600 C 183.960 25.891,183.720 26.128,183.867 26.126 C 184.134 26.121,185.584 25.082,185.333 25.074 C 185.260 25.072,184.840 25.309,184.400 25.600 M215.200 25.576 C 215.567 25.876,215.987 26.122,216.133 26.123 C 216.419 26.125,215.936 25.756,215.067 25.307 C 214.712 25.123,214.757 25.214,215.200 25.576 M182.189 26.844 C 181.560 27.223,181.099 27.588,181.165 27.654 C 181.283 27.771,183.467 26.422,183.467 26.231 C 183.467 26.081,183.412 26.107,182.189 26.844 M216.533 26.209 C 216.533 26.370,218.604 27.733,218.848 27.733 C 218.953 27.733,218.926 27.633,218.787 27.509 C 218.368 27.139,216.533 26.081,216.533 26.209 M177.733 29.501 C 176.120 30.465,174.680 31.380,174.533 31.536 C 174.387 31.691,174.687 31.575,175.200 31.276 C 179.477 28.792,181.214 27.682,180.733 27.742 C 180.697 27.746,179.347 28.538,177.733 29.501 M219.200 27.822 C 219.200 27.894,220.250 28.579,221.533 29.344 C 222.817 30.109,224.257 30.969,224.733 31.256 C 225.210 31.542,225.600 31.717,225.600 31.645 C 225.600 31.572,224.550 30.887,223.267 30.123 C 221.983 29.358,220.543 28.498,220.067 28.211 C 219.590 27.924,219.200 27.749,219.200 27.822 M171.923 32.971 C 170.780 33.647,169.893 34.249,169.952 34.308 C 170.048 34.403,173.704 32.252,174.073 31.883 C 174.414 31.541,173.889 31.807,171.923 32.971 M225.905 31.840 C 226.226 32.200,229.941 34.415,230.046 34.310 C 230.104 34.252,229.277 33.691,228.209 33.064 C 225.885 31.698,225.683 31.591,225.905 31.840 M168.333 35.084 C 167.075 35.839,166.784 36.233,167.933 35.627 C 168.739 35.202,169.811 34.420,169.600 34.411 C 169.527 34.408,168.957 34.711,168.333 35.084 M230.800 34.807 C 231.093 35.046,231.693 35.417,232.133 35.633 C 232.881 36.000,232.899 35.998,232.400 35.593 C 232.107 35.354,231.507 34.983,231.067 34.767 C 230.319 34.400,230.301 34.402,230.800 34.807 M166.067 36.419 C 165.663 36.638,165.333 36.873,165.333 36.942 C 165.333 37.199,165.755 37.038,166.400 36.533 C 167.192 35.913,167.074 35.873,166.067 36.419 M233.600 36.511 C 234.242 37.035,234.667 37.205,234.667 36.940 C 234.667 36.871,234.277 36.623,233.800 36.391 L 232.933 35.968 233.600 36.511 M163.789 37.777 C 163.160 38.157,162.699 38.521,162.765 38.587 C 162.883 38.705,165.067 37.355,165.067 37.165 C 165.067 37.014,165.012 37.040,163.789 37.777 M234.933 37.143 C 234.933 37.303,237.004 38.667,237.248 38.667 C 237.353 38.667,237.326 38.566,237.187 38.443 C 236.768 38.072,234.933 37.014,234.933 37.143 M161.122 39.377 C 160.493 39.757,160.032 40.121,160.098 40.187 C 160.216 40.305,162.400 38.955,162.400 38.765 C 162.400 38.614,162.345 38.640,161.122 39.377 M237.600 38.743 C 237.600 38.903,239.670 40.267,239.914 40.267 C 240.020 40.267,239.993 40.166,239.853 40.043 C 239.434 39.672,237.600 38.614,237.600 38.743 M158.867 40.686 C 158.463 40.905,158.133 41.140,158.133 41.209 C 158.133 41.466,158.555 41.305,159.200 40.800 C 159.992 40.180,159.874 40.139,158.867 40.686 M240.800 40.778 C 241.442 41.301,241.867 41.472,241.867 41.207 C 241.867 41.137,241.477 40.890,241.000 40.657 L 240.133 40.235 240.800 40.778 M156.867 41.897 C 155.958 42.479,155.664 42.870,156.467 42.429 C 157.079 42.093,158.037 41.351,157.867 41.346 C 157.793 41.344,157.343 41.592,156.867 41.897 M242.533 41.738 C 242.827 41.977,243.307 42.290,243.600 42.434 L 244.133 42.696 243.600 42.262 C 243.307 42.023,242.827 41.710,242.533 41.566 L 242.000 41.304 242.533 41.738 M154.667 43.222 L 154.000 43.765 154.867 43.343 C 155.343 43.110,155.733 42.863,155.733 42.793 C 155.733 42.528,155.309 42.699,154.667 43.222 M244.267 42.793 C 244.267 42.863,244.657 43.110,245.133 43.343 L 246.000 43.765 245.333 43.222 C 244.691 42.699,244.267 42.528,244.267 42.793 M151.467 45.091 C 149.588 46.215,147.914 47.395,148.933 46.876 C 149.800 46.435,153.867 43.935,153.867 43.844 C 153.867 43.659,153.808 43.690,151.467 45.091 M246.133 43.828 C 246.133 43.897,247.183 44.581,248.467 45.347 C 251.385 47.090,251.200 46.989,251.200 46.834 C 251.200 46.761,250.150 46.076,248.867 45.309 C 246.041 43.622,246.133 43.672,246.133 43.828 M147.467 47.467 C 147.100 47.753,146.920 47.988,147.067 47.988 C 147.213 47.988,147.633 47.753,148.000 47.467 C 148.367 47.180,148.547 46.945,148.400 46.945 C 148.253 46.945,147.833 47.180,147.467 47.467 M252.000 47.467 C 252.367 47.753,252.787 47.988,252.933 47.988 C 253.080 47.988,252.900 47.753,252.533 47.467 C 252.167 47.180,251.747 46.945,251.600 46.945 C 251.453 46.945,251.633 47.180,252.000 47.467 M144.472 49.257 C 143.338 49.940,142.450 50.538,142.498 50.587 C 142.601 50.690,146.667 48.275,146.667 48.111 C 146.667 47.937,146.648 47.946,144.472 49.257 M253.333 48.100 C 253.333 48.243,257.325 50.667,257.562 50.667 C 257.651 50.667,257.306 50.389,256.795 50.051 C 255.404 49.128,253.333 47.961,253.333 48.100 M138.039 53.062 C 134.332 55.281,132.861 56.252,134.400 55.464 C 135.527 54.888,141.168 51.524,141.733 51.091 C 142.820 50.260,141.900 50.751,138.039 53.062 M258.267 51.055 C 258.792 51.493,264.303 54.804,265.600 55.461 C 267.714 56.532,263.460 53.891,258.400 50.992 C 257.762 50.627,257.756 50.629,258.267 51.055 M132.315 56.429 C 131.682 56.808,131.221 57.176,131.290 57.246 C 131.413 57.369,133.600 56.029,133.600 55.831 C 133.600 55.670,133.514 55.710,132.315 56.429 M266.400 55.824 C 266.400 55.985,268.494 57.334,268.728 57.325 C 268.841 57.320,268.693 57.131,268.400 56.905 C 267.763 56.412,266.400 55.676,266.400 55.824 M129.667 58.018 C 128.408 58.772,128.118 59.166,129.267 58.561 C 130.073 58.136,131.144 57.354,130.933 57.344 C 130.860 57.341,130.290 57.644,129.667 58.018 M269.467 57.741 C 269.760 57.979,270.360 58.351,270.800 58.567 C 271.548 58.934,271.565 58.931,271.067 58.526 C 270.773 58.288,270.173 57.916,269.733 57.700 C 268.985 57.333,268.968 57.336,269.467 57.741 M127.400 59.353 C 126.997 59.571,126.667 59.807,126.667 59.875 C 126.667 60.133,127.088 59.971,127.733 59.467 C 128.526 58.847,128.407 58.806,127.400 59.353 M272.267 59.445 C 272.909 59.968,273.333 60.139,273.333 59.874 C 273.333 59.804,272.943 59.557,272.467 59.324 L 271.600 58.901 272.267 59.445 M121.600 62.829 C 119.033 64.375,116.213 66.044,115.333 66.540 C 113.900 67.347,112.255 68.480,112.933 68.193 C 113.893 67.788,126.400 60.276,126.400 60.106 C 126.400 59.937,126.480 59.891,121.600 62.829 M273.600 60.084 C 273.600 60.256,275.175 61.228,281.467 64.937 C 287.750 68.641,287.200 68.332,287.200 68.161 C 287.200 68.085,286.330 67.519,285.267 66.902 C 283.398 65.817,276.236 61.561,274.467 60.484 C 273.990 60.194,273.600 60.014,273.600 60.084 M111.200 69.163 C 110.540 69.648,109.820 70.267,109.600 70.537 C 109.380 70.807,109.950 70.447,110.867 69.738 C 112.326 68.608,112.719 68.248,112.467 68.273 C 112.430 68.277,111.860 68.677,111.200 69.163 M287.467 68.344 C 287.467 68.401,288.217 69.026,289.133 69.732 C 290.050 70.439,290.560 70.744,290.267 70.411 C 289.748 69.821,287.467 68.138,287.467 68.344 M107.118 73.156 C 105.709 74.962,104.670 76.533,104.885 76.533 C 104.961 76.533,105.301 76.083,105.641 75.533 C 105.981 74.983,106.781 73.893,107.418 73.111 C 108.055 72.328,108.537 71.648,108.488 71.599 C 108.440 71.551,107.823 72.251,107.118 73.156 M291.467 71.577 C 291.467 71.667,291.977 72.371,292.600 73.141 C 293.223 73.911,293.949 74.839,294.212 75.204 C 294.685 75.861,294.686 75.859,294.254 75.055 C 293.794 74.201,291.467 71.297,291.467 71.577 M288.933 79.464 C 288.095 79.616,288.376 79.666,290.244 79.695 C 291.552 79.716,292.572 79.689,292.511 79.634 C 292.246 79.398,289.910 79.287,288.933 79.464 M285.467 80.420 C 284.587 80.784,283.567 81.330,283.200 81.634 C 282.534 82.186,282.534 82.186,283.494 81.629 C 284.022 81.323,285.222 80.777,286.161 80.416 C 287.099 80.055,287.687 79.759,287.467 79.759 C 287.247 79.759,286.347 80.057,285.467 80.420 M292.822 79.839 C 293.027 80.033,294.933 80.774,294.933 80.660 C 294.933 80.483,293.397 79.733,293.035 79.733 C 292.857 79.733,292.761 79.781,292.822 79.839 M102.800 80.800 C 102.700 81.115,102.678 81.434,102.751 81.507 C 102.825 81.580,102.967 81.382,103.067 81.067 C 103.167 80.751,103.189 80.433,103.115 80.360 C 103.042 80.286,102.900 80.485,102.800 80.800 M296.911 81.067 C 297.016 81.433,297.163 81.973,297.238 82.267 L 297.374 82.800 296.877 82.267 C 295.740 81.047,295.152 80.763,296.135 81.908 C 297.552 83.560,297.956 83.580,297.472 81.974 C 297.269 81.299,297.017 80.669,296.912 80.574 C 296.807 80.478,296.807 80.700,296.911 81.067 M102.163 83.058 C 101.995 83.725,101.804 85.019,101.738 85.935 L 101.618 87.600 101.875 86.133 C 102.017 85.327,102.265 84.090,102.428 83.384 C 102.807 81.742,102.569 81.448,102.163 83.058 M281.121 82.781 C 279.814 83.705,279.723 83.910,280.933 83.204 C 282.185 82.473,282.617 82.128,282.253 82.146 C 282.114 82.154,281.604 82.439,281.121 82.781 M277.258 85.179 C 275.591 86.333,275.320 86.648,276.689 85.842 C 278.254 84.920,279.108 84.295,278.800 84.295 C 278.653 84.296,277.960 84.693,277.258 85.179 M273.388 87.581 C 272.904 87.923,272.424 88.292,272.321 88.402 C 272.042 88.698,273.648 87.840,274.267 87.362 C 275.116 86.706,274.358 86.895,273.388 87.581 M267.333 91.359 C 264.840 92.910,262.680 94.306,262.533 94.462 C 262.187 94.830,262.201 94.822,267.333 91.656 C 271.248 89.241,272.310 88.529,271.987 88.536 C 271.921 88.537,269.827 89.808,267.333 91.359 M261.400 94.992 C 261.070 95.151,260.800 95.386,260.800 95.514 C 260.800 95.641,261.100 95.549,261.467 95.309 C 262.445 94.668,262.410 94.505,261.400 94.992 M259.467 96.289 L 258.800 96.832 259.667 96.409 C 260.143 96.177,260.533 95.929,260.533 95.860 C 260.533 95.595,260.109 95.765,259.467 96.289 M256.800 97.896 C 255.212 98.895,253.928 99.878,254.933 99.325 C 255.943 98.770,258.667 97.007,258.667 96.909 C 258.667 96.728,258.598 96.765,256.800 97.896 M253.067 100.232 C 252.407 100.649,250.277 101.978,248.333 103.184 C 246.390 104.390,244.800 105.441,244.800 105.519 C 244.800 105.597,245.070 105.487,245.400 105.275 C 245.730 105.062,247.320 104.072,248.933 103.075 C 253.833 100.045,254.400 99.682,254.400 99.572 C 254.400 99.400,254.320 99.439,253.067 100.232 M242.858 106.554 C 242.020 107.079,241.333 107.572,241.333 107.651 C 241.333 107.730,241.653 107.585,242.044 107.329 C 242.434 107.073,243.154 106.628,243.644 106.339 C 244.411 105.886,244.726 105.600,244.458 105.600 C 244.417 105.600,243.697 106.029,242.858 106.554 M239.000 108.951 C 238.377 109.325,237.867 109.693,237.867 109.770 C 237.867 109.914,239.666 108.892,240.120 108.491 C 240.578 108.085,240.151 108.261,239.000 108.951 M235.733 110.962 C 233.899 112.116,233.015 112.831,234.133 112.256 C 234.986 111.818,237.600 110.088,237.600 109.962 C 237.600 109.797,237.506 109.847,235.733 110.962 M230.800 114.026 C 229.480 114.841,228.280 115.641,228.133 115.803 C 227.987 115.965,228.167 115.918,228.533 115.698 C 232.092 113.564,233.671 112.510,233.267 112.538 C 233.230 112.540,232.120 113.210,230.800 114.026 M225.258 117.445 C 223.803 118.453,223.212 119.015,224.377 118.285 C 224.804 118.016,225.554 117.561,226.044 117.272 C 226.533 116.984,226.933 116.699,226.933 116.640 C 226.933 116.387,226.453 116.618,225.258 117.445 M221.388 119.848 C 220.081 120.772,219.990 120.976,221.200 120.270 C 222.452 119.540,222.883 119.194,222.520 119.213 C 222.381 119.220,221.871 119.506,221.388 119.848 M218.169 121.845 C 217.235 122.419,216.335 123.031,216.169 123.204 C 216.003 123.377,216.797 122.958,217.933 122.273 C 219.695 121.211,220.253 120.799,219.933 120.800 C 219.897 120.800,219.103 121.270,218.169 121.845 M213.237 124.920 C 211.937 125.708,210.737 126.495,210.570 126.668 C 210.403 126.841,211.497 126.244,213.000 125.340 C 214.503 124.436,215.733 123.645,215.733 123.582 C 215.733 123.405,215.747 123.397,213.237 124.920 M209.400 127.259 C 209.070 127.418,208.800 127.653,208.800 127.780 C 208.800 127.908,209.100 127.816,209.467 127.575 C 210.445 126.935,210.410 126.772,209.400 127.259 M205.852 129.960 C 202.931 132.383,199.059 137.014,199.545 137.501 C 199.613 137.569,200.046 136.955,200.508 136.137 C 201.346 134.653,204.780 130.968,206.800 129.387 C 207.387 128.927,207.800 128.547,207.719 128.542 C 207.637 128.537,206.797 129.175,205.852 129.960 M198.808 138.822 C 198.333 139.959,197.796 141.885,197.919 142.008 C 197.967 142.056,198.323 141.144,198.709 139.981 C 199.443 137.774,199.493 137.181,198.808 138.822 M197.515 143.603 C 197.418 144.188,197.354 145.267,197.372 146.000 C 197.399 147.104,197.443 146.966,197.632 145.200 C 197.877 142.899,197.802 141.865,197.515 143.603 M228.854 145.654 C 228.371 145.953,228.034 146.256,228.105 146.328 C 228.177 146.399,228.604 146.196,229.053 145.877 C 230.598 144.776,230.784 145.064,230.933 148.803 C 231.077 152.383,231.327 152.833,232.726 152.029 C 233.085 151.822,232.958 151.794,232.200 151.913 L 231.200 152.070 231.200 148.730 C 231.200 144.752,230.916 144.380,228.854 145.654 M226.800 146.949 C 225.407 147.837,225.333 148.091,225.333 152.033 L 225.333 155.698 224.122 156.690 C 222.879 157.709,220.059 161.253,219.294 162.757 C 218.693 163.940,218.945 163.637,220.504 161.300 C 221.250 160.182,222.701 158.442,223.730 157.434 L 225.599 155.600 225.599 151.984 C 225.600 148.109,225.793 147.513,227.191 147.070 C 227.489 146.975,227.733 146.785,227.733 146.649 C 227.733 146.343,227.770 146.331,226.800 146.949 M234.000 151.475 C 233.508 151.606,233.970 151.635,235.200 151.552 C 238.163 151.351,238.769 151.661,238.568 153.271 C 238.460 154.132,238.487 154.364,238.653 154.000 C 239.690 151.723,237.516 150.543,234.000 151.475 M238.000 155.467 C 237.899 155.928,237.876 156.365,237.949 156.438 C 238.023 156.511,238.165 156.194,238.267 155.733 C 238.368 155.272,238.391 154.835,238.317 154.762 C 238.244 154.689,238.101 155.006,238.000 155.467 M237.371 157.923 C 236.875 159.824,236.844 159.843,234.219 159.780 C 232.925 159.748,231.728 159.815,231.559 159.928 C 231.389 160.041,232.458 160.121,233.933 160.107 C 236.226 160.084,236.668 160.007,236.980 159.581 C 237.384 159.029,237.968 157.079,237.785 156.896 C 237.721 156.832,237.534 157.294,237.371 157.923 M229.475 160.816 C 228.892 161.107,228.292 161.475,228.141 161.634 C 227.906 161.882,230.601 160.650,230.911 160.368 C 231.206 160.099,230.422 160.344,229.475 160.816 M226.179 163.230 C 222.737 166.673,223.137 172.660,226.800 172.509 C 227.225 172.492,227.195 172.446,226.651 172.280 C 223.162 171.222,223.009 167.032,226.327 163.448 C 228.123 161.507,228.034 161.375,226.179 163.230 M218.021 165.488 C 217.630 166.465,217.355 167.310,217.410 167.366 C 217.465 167.421,217.829 166.664,218.218 165.684 C 218.606 164.704,218.881 163.859,218.829 163.806 C 218.776 163.754,218.412 164.510,218.021 165.488 M217.099 168.000 C 217.077 168.220,216.993 168.700,216.911 169.067 C 216.783 169.643,216.804 169.669,217.066 169.259 C 217.232 168.998,217.317 168.518,217.254 168.192 C 217.191 167.867,217.121 167.780,217.099 168.000 M216.473 171.800 C 216.398 172.717,216.417 174.127,216.516 174.933 C 216.657 176.083,216.702 175.724,216.725 173.267 C 216.758 169.772,216.678 169.308,216.473 171.800 M230.661 172.814 C 235.340 173.235,237.246 174.083,239.024 176.533 C 239.502 177.192,239.502 177.191,239.052 176.400 C 237.636 173.914,235.264 172.859,230.676 172.675 L 227.867 172.563 230.661 172.814 M217.716 178.827 C 218.812 181.150,221.498 182.336,226.064 182.511 L 229.200 182.631 225.733 182.295 C 220.959 181.832,219.376 181.089,217.663 178.508 C 217.477 178.229,217.501 178.372,217.716 178.827 M101.649 179.467 C 101.639 179.980,101.730 180.880,101.851 181.467 C 102.158 182.947,102.183 181.434,101.880 179.733 C 101.681 178.614,101.666 178.596,101.649 179.467 M240.053 179.200 C 240.053 179.567,240.149 180.167,240.267 180.533 L 240.480 181.200 240.480 180.533 C 240.480 180.167,240.384 179.567,240.267 179.200 L 240.053 178.533 240.053 179.200 M240.621 183.067 C 240.622 184.093,240.670 184.481,240.728 183.927 C 240.786 183.374,240.785 182.534,240.726 182.061 C 240.667 181.587,240.620 182.040,240.621 183.067 M102.171 182.933 C 102.171 183.153,102.274 183.573,102.400 183.867 C 102.544 184.203,102.629 184.252,102.629 184.000 C 102.629 183.780,102.526 183.360,102.400 183.067 C 102.256 182.730,102.171 182.681,102.171 182.933 M230.225 183.056 C 233.156 184.101,233.923 187.491,232.072 191.224 C 231.647 192.081,231.444 192.663,231.621 192.516 C 234.584 190.057,233.209 182.612,229.804 182.678 C 229.367 182.687,229.484 182.791,230.225 183.056 M102.675 184.800 C 102.675 185.020,102.791 185.380,102.933 185.600 C 103.163 185.956,103.192 185.956,103.192 185.600 C 103.192 185.380,103.076 185.020,102.933 184.800 C 102.704 184.444,102.675 184.444,102.675 184.800 M240.179 185.838 C 240.081 186.330,240.013 186.988,240.029 187.300 C 240.045 187.612,240.165 187.327,240.295 186.667 C 240.424 186.007,240.492 185.349,240.445 185.204 C 240.397 185.060,240.278 185.345,240.179 185.838 M239.633 188.410 C 239.541 188.649,239.477 189.044,239.490 189.288 C 239.502 189.533,239.618 189.379,239.747 188.947 C 239.999 188.105,239.910 187.689,239.633 188.410 M104.343 188.880 C 105.419 191.685,113.187 199.702,114.020 198.869 C 114.091 198.798,113.387 198.243,112.455 197.636 C 109.663 195.817,104.800 190.391,104.800 189.094 C 104.800 188.950,104.660 188.745,104.488 188.639 C 104.280 188.510,104.231 188.590,104.343 188.880 M239.055 190.295 C 238.968 190.573,238.660 191.325,238.370 191.966 C 238.080 192.607,237.890 193.179,237.949 193.238 C 238.008 193.296,238.384 192.613,238.785 191.719 C 239.186 190.824,239.447 190.025,239.364 189.941 C 239.281 189.858,239.142 190.018,239.055 190.295 M229.987 194.150 C 228.695 195.478,225.622 197.039,223.697 197.346 L 222.267 197.574 223.670 197.492 C 225.533 197.384,228.563 195.877,230.122 194.282 C 230.776 193.614,231.250 193.067,231.176 193.067 C 231.102 193.067,230.567 193.554,229.987 194.150 M237.209 194.290 C 236.961 194.669,236.818 195.040,236.892 195.115 C 236.967 195.189,237.219 194.878,237.454 194.425 C 237.972 193.422,237.830 193.343,237.209 194.290 M236.157 196.135 C 235.916 196.502,234.981 197.672,234.078 198.735 C 233.176 199.797,232.771 200.367,233.178 200.000 C 233.872 199.376,236.207 196.541,236.638 195.800 C 236.996 195.184,236.599 195.460,236.157 196.135 M218.253 197.716 C 217.790 198.423,216.685 202.641,216.905 202.861 C 216.980 202.935,217.115 202.652,217.206 202.231 C 217.786 199.553,218.165 198.259,218.530 197.701 C 218.758 197.352,218.886 197.067,218.812 197.067 C 218.739 197.067,218.487 197.359,218.253 197.716 M219.467 197.331 C 219.828 197.566,222.109 197.733,221.844 197.504 C 221.783 197.452,221.133 197.332,220.400 197.239 C 219.490 197.124,219.194 197.153,219.467 197.331 M114.800 199.341 C 115.093 199.579,115.693 199.951,116.133 200.167 C 116.881 200.534,116.899 200.531,116.400 200.126 C 116.107 199.888,115.507 199.516,115.067 199.300 C 114.319 198.933,114.301 198.936,114.800 199.341 M117.067 200.627 C 117.067 200.729,120.178 202.651,121.467 203.346 C 121.760 203.504,122.360 203.850,122.800 204.115 L 123.600 204.597 122.933 204.044 C 122.567 203.740,121.967 203.336,121.600 203.148 C 121.233 202.959,120.333 202.432,119.600 201.976 C 117.953 200.951,117.067 200.480,117.067 200.627 M231.613 201.053 C 231.191 201.519,231.160 201.920,231.332 204.770 C 231.492 207.443,231.453 208.105,231.094 208.826 C 230.858 209.299,230.716 209.738,230.779 209.801 C 231.368 210.391,231.787 207.944,231.615 204.920 C 231.453 202.073,231.485 201.619,231.880 201.225 C 232.128 200.977,232.275 200.720,232.208 200.652 C 232.141 200.585,231.873 200.765,231.613 201.053 M216.431 204.044 C 216.235 205.027,216.826 206.138,217.539 206.125 C 217.935 206.118,217.925 206.074,217.467 205.815 C 216.690 205.374,216.564 205.082,216.725 204.090 C 216.909 202.958,216.656 202.918,216.431 204.044 M124.000 204.813 C 124.925 205.441,125.452 205.624,124.800 205.090 C 124.433 204.791,124.013 204.544,123.867 204.543 C 123.720 204.542,123.780 204.664,124.000 204.813 M224.424 205.294 C 224.334 205.440,224.492 205.491,224.791 205.413 C 225.286 205.284,225.320 205.445,225.405 208.305 L 225.495 211.333 225.481 208.270 C 225.467 205.284,225.089 204.219,224.424 205.294 M222.533 205.867 C 221.854 206.159,222.555 206.159,223.467 205.867 C 224.003 205.695,224.029 205.652,223.600 205.645 C 223.307 205.641,222.827 205.741,222.533 205.867 M126.400 206.260 C 126.400 206.329,126.790 206.577,127.267 206.809 L 128.133 207.232 127.467 206.689 C 126.825 206.165,126.400 205.995,126.400 206.260 M219.138 206.327 C 219.617 206.386,220.337 206.385,220.738 206.324 C 221.139 206.263,220.747 206.214,219.867 206.216 C 218.987 206.217,218.659 206.267,219.138 206.327 M128.413 207.424 C 128.832 207.794,130.667 208.853,130.667 208.724 C 130.667 208.563,128.596 207.200,128.352 207.200 C 128.247 207.200,128.274 207.301,128.413 207.424 M130.933 208.926 C 130.933 208.996,131.323 209.243,131.800 209.476 L 132.667 209.899 132.000 209.355 C 131.358 208.832,130.933 208.661,130.933 208.926 M132.933 210.080 C 133.080 210.233,134.220 210.949,135.467 211.672 C 136.713 212.394,138.183 213.256,138.733 213.586 C 139.283 213.916,139.733 214.126,139.733 214.052 C 139.733 213.979,138.443 213.146,136.867 212.201 C 133.618 210.254,132.547 209.677,132.933 210.080 M228.595 210.781 C 226.613 212.012,226.502 212.252,228.400 211.204 C 230.096 210.267,230.680 209.852,230.253 209.888 C 230.114 209.900,229.368 210.302,228.595 210.781 M225.600 211.739 C 225.600 211.892,225.785 212.088,226.012 212.175 C 226.637 212.415,226.710 212.156,226.121 211.788 C 225.791 211.582,225.600 211.564,225.600 211.739 M140.513 214.594 C 140.868 214.854,141.768 215.399,142.513 215.806 C 143.257 216.213,143.576 216.333,143.220 216.073 C 142.865 215.813,141.965 215.267,141.220 214.860 C 140.476 214.454,140.157 214.334,140.513 214.594 M144.147 216.757 C 144.566 217.128,146.400 218.186,146.400 218.057 C 146.400 217.897,144.330 216.533,144.086 216.533 C 143.980 216.533,144.007 216.634,144.147 216.757 M146.667 218.260 C 146.667 218.329,147.057 218.577,147.533 218.809 L 148.400 219.232 147.733 218.689 C 147.091 218.165,146.667 217.995,146.667 218.260 M148.533 219.283 C 148.533 219.346,150.003 220.271,151.800 221.338 C 155.719 223.666,155.467 223.525,155.467 223.383 C 155.467 223.320,153.997 222.396,152.200 221.329 C 148.281 219.001,148.533 219.142,148.533 219.283 M156.246 223.927 C 156.602 224.187,157.502 224.733,158.246 225.140 C 158.991 225.546,159.309 225.666,158.954 225.406 C 158.598 225.146,157.698 224.601,156.954 224.194 C 156.209 223.787,155.891 223.667,156.246 223.927 M159.733 225.986 C 159.733 226.060,160.093 226.306,160.533 226.533 C 160.973 226.761,161.333 226.887,161.333 226.814 C 161.333 226.740,160.973 226.494,160.533 226.267 C 160.093 226.039,159.733 225.913,159.733 225.986 M161.600 227.032 C 161.600 227.103,162.350 227.608,163.267 228.154 C 164.183 228.700,165.323 229.378,165.800 229.661 C 166.277 229.945,166.667 230.117,166.667 230.045 C 166.667 229.972,165.617 229.286,164.333 228.520 C 161.416 226.778,161.600 226.878,161.600 227.032 M166.933 230.253 C 166.933 230.326,167.293 230.572,167.733 230.800 C 168.173 231.028,168.533 231.154,168.533 231.080 C 168.533 231.007,168.173 230.761,167.733 230.533 C 167.293 230.306,166.933 230.180,166.933 230.253 M168.800 231.293 C 168.800 231.369,170.870 232.653,173.400 234.148 C 175.930 235.643,178.540 237.193,179.200 237.594 C 181.801 239.171,182.400 239.505,182.400 239.376 C 182.400 239.302,179.730 237.657,176.467 235.720 C 173.203 233.783,170.143 231.964,169.667 231.677 C 169.190 231.391,168.800 231.218,168.800 231.293 M197.365 235.356 C 197.382 236.077,197.493 237.027,197.611 237.467 C 197.742 237.955,197.769 237.487,197.678 236.267 C 197.509 233.970,197.318 233.417,197.365 235.356 M197.991 239.255 C 198.197 240.270,198.659 241.430,198.801 241.288 C 198.867 241.222,198.678 240.576,198.383 239.851 C 198.087 239.126,197.911 238.858,197.991 239.255 M182.800 239.660 C 182.947 239.800,183.547 240.184,184.133 240.514 C 184.720 240.843,184.960 240.913,184.667 240.669 C 184.071 240.174,182.382 239.261,182.800 239.660 M185.333 241.193 C 185.333 241.263,185.723 241.510,186.200 241.743 L 187.067 242.165 186.400 241.622 C 185.758 241.099,185.333 240.928,185.333 241.193 M198.947 241.781 C 198.940 241.955,199.548 242.735,200.298 243.515 C 201.049 244.295,201.259 244.452,200.765 243.864 C 200.271 243.276,199.663 242.496,199.414 242.131 C 199.165 241.766,198.955 241.608,198.947 241.781 M187.600 242.542 C 188.234 243.058,190.683 244.339,190.804 244.218 C 190.850 244.171,190.028 243.678,188.977 243.121 C 187.926 242.564,187.307 242.303,187.600 242.542 M192.800 245.032 C 193.020 245.164,193.620 245.346,194.133 245.437 C 194.763 245.549,194.893 245.528,194.533 245.374 C 193.709 245.021,192.327 244.749,192.800 245.032 M202.196 245.145 C 202.450 245.351,202.580 245.598,202.485 245.693 C 202.389 245.789,202.451 245.867,202.622 245.867 C 203.147 245.867,202.968 245.369,202.333 245.061 C 201.795 244.800,201.781 244.809,202.196 245.145 M196.133 245.895 C 197.195 246.102,202.323 246.222,202.111 246.035 C 202.050 245.981,200.440 245.881,198.533 245.812 C 196.518 245.739,195.513 245.774,196.133 245.895 " stroke="none" fill="#9da0a4" fill-rule="evenodd"></path><path id="path4" d="M197.733 19.974 C 197.130 20.068,198.057 20.141,199.867 20.144 C 202.047 20.147,202.684 20.088,201.867 19.961 C 200.461 19.741,199.214 19.745,197.733 19.974 M194.400 20.547 C 194.113 20.743,194.302 20.769,195.067 20.641 C 196.390 20.420,196.602 20.265,195.578 20.271 C 195.150 20.273,194.620 20.397,194.400 20.547 M203.489 20.365 C 203.550 20.419,204.080 20.543,204.667 20.641 C 205.431 20.769,205.620 20.743,205.333 20.547 C 204.974 20.302,203.221 20.129,203.489 20.365 M192.667 21.067 C 192.472 21.382,192.733 21.382,193.467 21.067 C 193.981 20.846,193.979 20.837,193.416 20.819 C 193.094 20.808,192.757 20.920,192.667 21.067 M186.780 23.901 C 184.884 25.019,183.213 26.057,183.067 26.206 C 182.696 26.584,182.890 26.479,186.267 24.475 C 187.880 23.517,189.560 22.544,190.000 22.311 C 190.440 22.078,190.671 21.883,190.514 21.877 C 190.356 21.871,188.676 22.782,186.780 23.901 M211.467 23.018 C 211.467 23.082,212.637 23.827,214.067 24.673 C 217.250 26.556,217.067 26.456,217.067 26.315 C 217.067 26.251,215.897 25.507,214.467 24.661 C 211.284 22.777,211.467 22.877,211.467 23.018 M178.933 28.555 L 178.267 29.099 179.133 28.676 C 179.610 28.443,180.000 28.196,180.000 28.126 C 180.000 27.861,179.575 28.032,178.933 28.555 M220.000 28.126 C 220.000 28.196,220.390 28.443,220.867 28.676 L 221.733 29.099 221.067 28.555 C 220.425 28.032,220.000 27.861,220.000 28.126 M176.267 30.155 L 175.600 30.699 176.467 30.276 C 176.943 30.043,177.333 29.796,177.333 29.726 C 177.333 29.461,176.909 29.632,176.267 30.155 M222.667 29.726 C 222.667 29.796,223.057 30.043,223.533 30.276 L 224.400 30.699 223.733 30.155 C 223.091 29.632,222.667 29.461,222.667 29.726 M174.331 31.300 C 173.050 32.087,172.692 32.459,173.733 31.921 C 174.569 31.489,175.697 30.684,175.467 30.683 C 175.393 30.683,174.882 30.961,174.331 31.300 M224.933 31.064 C 225.529 31.559,227.218 32.472,226.800 32.073 C 226.653 31.933,226.053 31.549,225.467 31.220 C 224.880 30.890,224.640 30.820,224.933 31.064 M171.533 32.951 C 170.910 33.325,170.400 33.693,170.400 33.770 C 170.400 33.914,172.199 32.892,172.653 32.491 C 173.112 32.085,172.685 32.261,171.533 32.951 M227.333 32.460 C 227.480 32.600,228.080 32.984,228.667 33.314 C 229.253 33.643,229.493 33.713,229.200 33.469 C 228.604 32.974,226.915 32.061,227.333 32.460 M169.267 34.286 C 168.270 34.827,168.330 35.052,169.333 34.533 C 169.773 34.306,170.133 34.063,170.133 33.993 C 170.133 33.822,170.105 33.831,169.267 34.286 M229.867 33.986 C 229.867 34.060,230.227 34.306,230.667 34.533 C 231.107 34.761,231.467 34.887,231.467 34.814 C 231.467 34.740,231.107 34.494,230.667 34.267 C 230.227 34.039,229.867 33.913,229.867 33.986 M166.533 35.901 C 164.543 37.081,163.910 37.673,165.754 36.631 C 167.221 35.803,168.480 34.964,168.267 34.957 C 168.193 34.955,167.413 35.380,166.533 35.901 M232.246 35.394 C 232.602 35.654,233.502 36.199,234.246 36.606 C 234.991 37.013,235.309 37.133,234.954 36.873 C 234.598 36.613,233.698 36.067,232.954 35.660 C 232.209 35.254,231.891 35.134,232.246 35.394 M163.000 38.018 C 162.377 38.391,161.867 38.760,161.867 38.837 C 161.867 38.981,163.666 37.959,164.120 37.557 C 164.578 37.152,164.151 37.328,163.000 38.018 M235.867 37.527 C 236.013 37.667,236.613 38.051,237.200 38.380 C 237.787 38.710,238.027 38.780,237.733 38.536 C 237.138 38.041,235.448 37.128,235.867 37.527 M160.333 39.618 C 159.710 39.991,159.200 40.360,159.200 40.437 C 159.200 40.581,160.999 39.559,161.453 39.157 C 161.912 38.752,161.485 38.928,160.333 39.618 M238.533 39.127 C 238.680 39.267,239.280 39.651,239.867 39.980 C 240.453 40.310,240.693 40.380,240.400 40.136 C 239.804 39.641,238.115 38.728,238.533 39.127 M157.867 41.090 C 157.424 41.453,157.379 41.543,157.733 41.360 C 158.603 40.911,159.085 40.541,158.800 40.543 C 158.653 40.544,158.233 40.791,157.867 41.090 M241.333 40.813 C 242.258 41.441,242.785 41.624,242.133 41.090 C 241.767 40.791,241.347 40.544,241.200 40.543 C 241.053 40.542,241.113 40.664,241.333 40.813 M156.200 42.019 C 155.797 42.238,155.467 42.473,155.467 42.542 C 155.467 42.799,155.888 42.638,156.533 42.133 C 157.326 41.513,157.207 41.473,156.200 42.019 M243.467 42.111 C 244.109 42.635,244.533 42.805,244.533 42.540 C 244.533 42.471,244.143 42.223,243.667 41.991 L 242.800 41.568 243.467 42.111 M154.064 43.300 C 152.783 44.087,152.426 44.459,153.467 43.921 C 154.303 43.489,155.430 42.684,155.200 42.683 C 155.127 42.683,154.616 42.961,154.064 43.300 M245.200 43.064 C 245.796 43.559,247.485 44.472,247.067 44.073 C 246.920 43.933,246.320 43.549,245.733 43.220 C 245.147 42.890,244.907 42.820,245.200 43.064 M151.267 44.951 C 150.643 45.325,150.133 45.693,150.133 45.770 C 150.133 45.914,151.932 44.892,152.387 44.491 C 152.845 44.085,152.418 44.261,151.267 44.951 M247.600 44.460 C 247.747 44.600,248.347 44.984,248.933 45.314 C 249.520 45.643,249.760 45.713,249.467 45.469 C 248.871 44.974,247.182 44.061,247.600 44.460 M147.000 47.497 C 146.091 48.079,145.797 48.470,146.600 48.029 C 147.212 47.693,148.170 46.951,148.000 46.946 C 147.927 46.944,147.477 47.192,147.000 47.497 M252.400 47.338 C 252.693 47.577,253.173 47.890,253.467 48.034 L 254.000 48.296 253.467 47.862 C 253.173 47.623,252.693 47.310,252.400 47.166 L 251.867 46.904 252.400 47.338 M144.800 48.822 L 144.133 49.365 145.000 48.943 C 145.477 48.710,145.867 48.463,145.867 48.393 C 145.867 48.128,145.442 48.299,144.800 48.822 M254.133 48.393 C 254.133 48.463,254.523 48.710,255.000 48.943 L 255.867 49.365 255.200 48.822 C 254.558 48.299,254.133 48.128,254.133 48.393 M142.733 50.018 C 141.475 50.772,141.184 51.166,142.333 50.561 C 143.139 50.136,144.211 49.354,144.000 49.344 C 143.927 49.341,143.357 49.644,142.733 50.018 M256.400 49.741 C 256.693 49.979,257.293 50.351,257.733 50.567 C 258.481 50.934,258.499 50.931,258.000 50.526 C 257.707 50.288,257.107 49.916,256.667 49.700 C 255.919 49.333,255.901 49.336,256.400 49.741 M140.067 51.618 C 139.443 51.991,138.933 52.360,138.933 52.437 C 138.933 52.581,140.732 51.559,141.187 51.157 C 141.645 50.752,141.218 50.928,140.067 51.618 M258.800 51.127 C 258.947 51.267,259.547 51.651,260.133 51.980 C 260.720 52.310,260.960 52.380,260.667 52.136 C 260.071 51.641,258.382 50.728,258.800 51.127 M137.800 52.953 C 136.803 53.493,136.864 53.719,137.867 53.200 C 138.307 52.972,138.667 52.729,138.667 52.660 C 138.667 52.488,138.638 52.498,137.800 52.953 M261.333 52.653 C 261.333 52.726,261.693 52.972,262.133 53.200 C 262.573 53.428,262.933 53.554,262.933 53.480 C 262.933 53.407,262.573 53.161,262.133 52.933 C 261.693 52.706,261.333 52.580,261.333 52.653 M134.933 54.689 L 134.267 55.232 135.133 54.809 C 135.610 54.577,136.000 54.329,136.000 54.260 C 136.000 53.995,135.575 54.165,134.933 54.689 M264.000 54.260 C 264.000 54.329,264.390 54.577,264.867 54.809 L 265.733 55.232 265.067 54.689 C 264.425 54.165,264.000 53.995,264.000 54.260 M133.267 55.619 C 132.270 56.160,132.330 56.385,133.333 55.867 C 133.773 55.639,134.133 55.396,134.133 55.326 C 134.133 55.155,134.105 55.165,133.267 55.619 M265.867 55.320 C 265.867 55.393,266.227 55.639,266.667 55.867 C 267.107 56.094,267.467 56.220,267.467 56.147 C 267.467 56.074,267.107 55.828,266.667 55.600 C 266.227 55.372,265.867 55.246,265.867 55.320 M131.131 56.900 C 129.850 57.687,129.492 58.059,130.533 57.521 C 131.369 57.089,132.497 56.284,132.267 56.283 C 132.193 56.283,131.682 56.561,131.131 56.900 M268.133 56.664 C 268.729 57.159,270.418 58.072,270.000 57.673 C 269.853 57.533,269.253 57.149,268.667 56.820 C 268.080 56.490,267.840 56.420,268.133 56.664 M128.600 58.431 C 127.691 59.013,127.397 59.404,128.200 58.962 C 128.812 58.626,129.770 57.885,129.600 57.880 C 129.527 57.877,129.077 58.125,128.600 58.431 M270.800 58.271 C 271.093 58.510,271.573 58.824,271.867 58.968 L 272.400 59.229 271.867 58.795 C 271.573 58.556,271.093 58.243,270.800 58.099 L 270.267 57.837 270.800 58.271 M124.333 60.951 C 123.710 61.325,123.200 61.693,123.200 61.770 C 123.200 61.914,124.999 60.892,125.453 60.491 C 125.912 60.085,125.485 60.261,124.333 60.951 M274.533 60.460 C 274.680 60.600,275.280 60.984,275.867 61.314 C 276.453 61.643,276.693 61.713,276.400 61.469 C 275.804 60.974,274.115 60.061,274.533 60.460 M121.867 62.422 L 121.200 62.965 122.067 62.543 C 122.543 62.310,122.933 62.063,122.933 61.993 C 122.933 61.728,122.509 61.899,121.867 62.422 M277.067 61.993 C 277.067 62.063,277.457 62.310,277.933 62.543 L 278.800 62.965 278.133 62.422 C 277.491 61.899,277.067 61.728,277.067 61.993 M119.800 63.618 C 118.542 64.372,118.251 64.766,119.400 64.161 C 120.206 63.736,121.278 62.954,121.067 62.944 C 120.993 62.941,120.423 63.244,119.800 63.618 M279.333 63.341 C 279.627 63.579,280.227 63.951,280.667 64.167 C 281.415 64.534,281.432 64.531,280.933 64.126 C 280.640 63.888,280.040 63.516,279.600 63.300 C 278.852 62.933,278.835 62.936,279.333 63.341 M117.133 65.218 C 115.875 65.972,115.584 66.366,116.733 65.761 C 117.539 65.336,118.611 64.554,118.400 64.544 C 118.327 64.541,117.757 64.844,117.133 65.218 M282.000 64.941 C 282.293 65.179,282.893 65.551,283.333 65.767 C 284.081 66.134,284.099 66.131,283.600 65.726 C 283.307 65.488,282.707 65.116,282.267 64.900 C 281.519 64.533,281.501 64.536,282.000 64.941 M114.867 66.553 C 113.870 67.093,113.930 67.319,114.933 66.800 C 115.373 66.572,115.733 66.329,115.733 66.260 C 115.733 66.088,115.705 66.098,114.867 66.553 M284.267 66.253 C 284.267 66.326,284.627 66.572,285.067 66.800 C 285.507 67.028,285.867 67.154,285.867 67.080 C 285.867 67.007,285.507 66.761,285.067 66.533 C 284.627 66.306,284.267 66.180,284.267 66.253 M112.263 68.175 C 110.653 69.248,108.671 70.933,109.019 70.933 C 109.141 70.933,109.521 70.635,109.864 70.269 C 110.207 69.904,111.248 69.110,112.177 68.505 C 113.643 67.550,114.077 67.200,113.796 67.200 C 113.758 67.200,113.068 67.639,112.263 68.175 M286.133 67.286 C 286.133 67.351,286.894 67.899,287.823 68.505 C 288.752 69.110,289.793 69.904,290.136 70.269 C 290.479 70.635,290.859 70.933,290.981 70.933 C 291.301 70.933,289.402 69.292,288.000 68.358 C 286.452 67.325,286.133 67.143,286.133 67.286 M106.539 73.519 C 105.729 74.500,105.073 75.430,105.081 75.585 C 105.088 75.740,105.298 75.568,105.547 75.204 C 105.796 74.839,106.511 73.909,107.136 73.137 C 107.761 72.365,108.214 71.733,108.142 71.733 C 108.070 71.733,107.349 72.537,106.539 73.519 M292.672 72.867 C 293.244 73.563,293.756 74.133,293.808 74.133 C 293.999 74.133,292.840 72.652,292.244 72.133 C 291.907 71.840,292.099 72.170,292.672 72.867 M294.597 75.587 C 294.991 76.240,295.349 76.740,295.392 76.697 C 295.522 76.567,294.280 74.405,294.073 74.402 C 293.967 74.401,294.203 74.934,294.597 75.587 M296.560 79.533 C 297.144 81.015,297.535 81.639,297.201 80.557 C 296.884 79.525,296.270 78.133,296.134 78.133 C 296.064 78.133,296.256 78.763,296.560 79.533 M286.717 80.182 C 286.084 80.406,285.618 80.640,285.680 80.702 C 285.742 80.764,286.139 80.680,286.563 80.515 C 286.987 80.350,287.873 80.121,288.533 80.006 C 289.634 79.813,289.656 79.795,288.800 79.786 C 288.287 79.780,287.349 79.958,286.717 80.182 M291.222 79.831 C 291.283 79.885,291.813 80.010,292.400 80.108 C 293.164 80.236,293.353 80.209,293.067 80.014 C 292.707 79.769,290.955 79.595,291.222 79.831 M294.000 80.582 C 294.293 80.747,294.893 81.128,295.333 81.430 C 295.987 81.879,296.064 81.892,295.753 81.505 C 295.543 81.245,295.039 80.859,294.633 80.649 C 293.766 80.201,293.217 80.143,294.000 80.582 M102.286 81.752 C 102.188 82.143,102.159 82.514,102.222 82.577 C 102.285 82.640,102.416 82.372,102.514 81.981 C 102.612 81.590,102.641 81.219,102.578 81.156 C 102.515 81.093,102.384 81.362,102.286 81.752 M282.267 82.400 C 281.827 82.691,281.587 82.928,281.733 82.926 C 282.001 82.921,283.451 81.882,283.200 81.874 C 283.127 81.872,282.707 82.109,282.267 82.400 M296.795 82.867 C 297.339 83.688,298.133 84.044,298.133 83.467 C 298.133 83.320,297.943 83.200,297.709 83.200 C 297.476 83.200,297.046 82.930,296.753 82.600 C 296.293 82.082,296.299 82.119,296.795 82.867 M279.329 84.171 C 277.968 85.073,277.488 85.549,278.551 84.943 C 279.486 84.409,280.734 83.481,280.529 83.473 C 280.453 83.469,279.913 83.783,279.329 84.171 M275.733 86.429 C 274.780 87.029,273.880 87.649,273.733 87.809 C 273.587 87.968,273.767 87.913,274.133 87.687 C 274.500 87.461,275.430 86.889,276.200 86.415 C 277.388 85.685,277.833 85.324,277.533 85.336 C 277.497 85.337,276.687 85.829,275.733 86.429 M101.413 86.933 C 101.413 87.740,101.463 88.070,101.524 87.667 C 101.585 87.263,101.585 86.603,101.524 86.200 C 101.463 85.797,101.413 86.127,101.413 86.933 M272.467 88.419 C 271.470 88.960,271.530 89.185,272.533 88.667 C 272.973 88.439,273.333 88.196,273.333 88.126 C 273.333 87.955,273.305 87.965,272.467 88.419 M101.464 134.533 C 101.464 159.907,101.495 170.247,101.533 157.512 C 101.572 144.777,101.572 124.017,101.533 111.379 C 101.495 98.741,101.464 109.160,101.464 134.533 M268.400 90.969 C 266.716 92.011,266.187 92.533,267.600 91.758 C 268.678 91.167,270.112 90.146,269.867 90.144 C 269.793 90.144,269.133 90.515,268.400 90.969 M265.122 92.977 C 264.493 93.357,264.032 93.721,264.098 93.787 C 264.216 93.905,266.400 92.555,266.400 92.365 C 266.400 92.214,266.345 92.240,265.122 92.977 M261.729 95.104 C 260.368 96.006,259.888 96.482,260.951 95.876 C 261.886 95.342,263.134 94.415,262.929 94.406 C 262.853 94.403,262.313 94.717,261.729 95.104 M258.325 97.221 C 257.486 97.745,256.800 98.239,256.800 98.318 C 256.800 98.397,257.120 98.252,257.510 97.996 C 257.901 97.740,258.621 97.294,259.110 97.006 C 259.878 96.553,260.193 96.267,259.925 96.267 C 259.884 96.267,259.164 96.696,258.325 97.221 M255.067 99.235 C 254.333 99.689,253.613 100.184,253.467 100.335 C 253.172 100.639,255.009 99.593,256.023 98.881 C 257.087 98.132,256.492 98.353,255.067 99.235 M251.000 101.751 C 249.742 102.505,249.451 102.899,250.600 102.294 C 251.406 101.869,252.478 101.087,252.267 101.078 C 252.193 101.074,251.623 101.377,251.000 101.751 M247.664 103.833 C 246.383 104.621,246.026 104.992,247.067 104.454 C 247.903 104.022,249.030 103.217,248.800 103.217 C 248.727 103.217,248.216 103.494,247.664 103.833 M242.800 106.834 C 240.323 108.374,239.045 109.358,240.933 108.271 C 243.449 106.823,245.685 105.310,245.267 105.338 C 245.230 105.340,244.120 106.014,242.800 106.834 M237.867 109.896 C 236.913 110.495,236.013 111.116,235.867 111.275 C 235.720 111.434,235.900 111.380,236.267 111.154 C 236.633 110.928,237.563 110.355,238.333 109.882 C 239.521 109.152,239.966 108.791,239.667 108.803 C 239.630 108.804,238.820 109.296,237.867 109.896 M233.400 112.684 C 232.142 113.439,231.851 113.833,233.000 113.227 C 233.806 112.802,234.878 112.020,234.667 112.011 C 234.593 112.008,234.023 112.311,233.400 112.684 M230.667 114.400 C 230.007 114.839,229.559 115.198,229.672 115.199 C 229.905 115.200,232.000 113.849,232.000 113.698 C 232.000 113.528,231.895 113.584,230.667 114.400 M226.972 116.657 C 225.208 117.781,224.840 118.149,226.267 117.362 C 227.344 116.768,228.779 115.744,228.533 115.746 C 228.460 115.747,227.758 116.156,226.972 116.657 M221.686 119.946 C 219.591 121.252,217.948 122.430,219.200 121.728 C 220.540 120.976,224.267 118.615,224.267 118.517 C 224.267 118.336,224.283 118.327,221.686 119.946 M217.200 122.702 C 215.516 123.744,214.987 124.266,216.400 123.492 C 217.478 122.901,218.912 121.879,218.667 121.878 C 218.593 121.877,217.933 122.248,217.200 122.702 M213.122 125.244 C 212.493 125.623,212.032 125.988,212.098 126.054 C 212.216 126.171,214.400 124.822,214.400 124.631 C 214.400 124.481,214.345 124.507,213.122 125.244 M209.398 127.605 C 208.189 128.414,207.200 129.138,207.200 129.213 C 207.200 129.345,211.076 126.828,211.587 126.364 C 212.198 125.807,211.438 126.238,209.398 127.605 M204.181 131.800 C 202.811 133.157,201.417 134.687,201.084 135.200 C 200.620 135.914,200.713 135.851,201.478 134.933 C 202.029 134.273,203.499 132.743,204.745 131.533 C 205.990 130.323,206.933 129.333,206.841 129.333 C 206.748 129.333,205.551 130.443,204.181 131.800 M199.304 138.295 C 199.083 138.825,198.950 139.306,199.009 139.365 C 199.069 139.424,199.306 138.991,199.537 138.403 C 200.059 137.073,199.854 136.978,199.304 138.295 M198.038 141.923 C 197.948 142.259,197.884 142.773,197.897 143.067 C 197.910 143.360,198.030 143.132,198.164 142.560 C 198.424 141.452,198.313 140.894,198.038 141.923 M197.680 145.600 C 197.680 146.407,197.730 146.737,197.791 146.333 C 197.852 145.930,197.852 145.270,197.791 144.867 C 197.730 144.463,197.680 144.793,197.680 145.600 M229.067 145.371 L 228.400 145.930 229.158 145.476 C 229.631 145.193,230.167 145.084,230.581 145.188 C 231.008 145.295,231.184 145.256,231.073 145.077 C 230.793 144.624,229.781 144.772,229.067 145.371 M231.303 148.800 C 231.303 150.633,231.345 151.383,231.397 150.467 C 231.450 149.550,231.450 148.050,231.397 147.133 C 231.345 146.217,231.303 146.967,231.303 148.800 M227.267 146.431 C 226.358 147.013,226.064 147.404,226.867 146.962 C 227.479 146.626,228.437 145.885,228.267 145.880 C 228.193 145.877,227.743 146.125,227.267 146.431 M197.420 190.400 C 197.401 214.233,197.464 234.393,197.560 235.200 C 197.719 236.550,197.689 162.814,197.526 151.867 C 197.486 149.227,197.439 166.567,197.420 190.400 M225.125 151.946 L 225.067 155.492 223.255 157.280 C 221.645 158.868,219.200 162.052,219.200 162.561 C 219.200 162.665,219.821 161.861,220.579 160.775 C 221.338 159.689,222.722 158.066,223.654 157.168 L 225.349 155.536 225.266 151.968 L 225.183 148.400 225.125 151.946 M234.329 151.157 C 234.070 151.260,234.730 151.341,235.796 151.338 C 236.861 151.336,238.033 151.428,238.400 151.544 L 239.067 151.756 238.400 151.354 C 237.713 150.940,235.187 150.818,234.329 151.157 M232.133 151.733 C 231.938 152.049,232.199 152.049,232.933 151.733 C 233.448 151.512,233.446 151.503,232.882 151.485 C 232.561 151.475,232.224 151.587,232.133 151.733 M237.767 157.367 C 237.673 157.835,237.646 158.268,237.706 158.328 C 237.767 158.389,237.899 158.061,238.000 157.600 C 238.101 157.139,238.128 156.706,238.061 156.638 C 237.993 156.570,237.860 156.898,237.767 157.367 M236.995 159.505 C 236.591 160.209,236.426 160.290,235.667 160.154 C 234.898 160.016,234.866 160.033,235.385 160.300 C 236.200 160.720,238.145 159.389,237.564 158.809 C 237.505 158.750,237.249 159.063,236.995 159.505 M231.467 160.267 C 230.931 160.438,230.905 160.482,231.333 160.488 C 231.627 160.492,232.107 160.393,232.400 160.267 C 233.080 159.975,232.378 159.975,231.467 160.267 M228.533 161.586 C 228.020 161.859,227.300 162.424,226.934 162.841 L 226.269 163.600 227.068 162.897 C 227.507 162.511,228.257 161.997,228.733 161.757 C 229.210 161.516,229.600 161.263,229.600 161.193 C 229.600 161.021,229.591 161.024,228.533 161.586 M218.256 164.288 C 217.878 165.033,217.607 165.755,217.653 165.893 C 217.699 166.030,218.056 165.421,218.446 164.538 C 219.310 162.582,219.196 162.432,218.256 164.288 M225.165 164.805 C 224.775 165.395,224.503 165.922,224.561 165.977 C 224.619 166.032,224.992 165.550,225.390 164.905 C 226.295 163.437,226.121 163.360,225.165 164.805 M224.168 167.000 C 223.945 167.834,223.967 169.936,224.204 170.307 C 224.312 170.475,224.400 169.665,224.400 168.507 C 224.400 166.173,224.396 166.148,224.168 167.000 M216.700 168.677 C 216.608 168.915,216.546 169.370,216.561 169.688 C 216.578 170.054,216.668 169.924,216.807 169.335 C 217.040 168.344,216.976 167.955,216.700 168.677 M216.129 172.340 C 216.033 173.113,216.064 174.163,216.199 174.673 C 216.400 175.435,216.445 175.186,216.449 173.267 C 216.454 170.582,216.377 170.358,216.129 172.340 M227.222 172.365 C 227.283 172.419,228.653 172.521,230.267 172.592 C 231.880 172.663,232.900 172.631,232.533 172.520 C 231.869 172.320,227.011 172.178,227.222 172.365 M234.267 173.067 C 235.001 173.382,235.262 173.382,235.067 173.067 C 234.976 172.920,234.639 172.808,234.318 172.819 C 233.754 172.837,233.752 172.846,234.267 173.067 M216.552 176.718 C 216.542 177.039,216.653 177.376,216.800 177.467 C 217.115 177.662,217.115 177.401,216.800 176.667 C 216.579 176.152,216.570 176.154,216.552 176.718 M239.610 177.298 C 239.850 177.792,240.206 178.932,240.402 179.832 C 240.598 180.731,240.767 181.158,240.779 180.782 C 240.808 179.847,240.110 177.575,239.595 176.929 C 239.229 176.469,239.231 176.517,239.610 177.298 M217.077 178.162 C 217.055 179.067,220.488 182.268,220.967 181.789 C 221.031 181.724,220.736 181.528,220.310 181.351 C 219.405 180.976,218.106 179.670,217.508 178.533 C 217.265 178.070,217.084 177.914,217.077 178.162 M101.639 181.467 C 101.635 181.907,101.863 182.927,102.145 183.733 C 102.652 185.187,102.630 184.969,101.980 182.133 C 101.750 181.125,101.643 180.917,101.639 181.467 M223.533 182.584 C 223.790 182.651,224.210 182.651,224.467 182.584 C 224.723 182.517,224.513 182.462,224.000 182.462 C 223.487 182.462,223.277 182.517,223.533 182.584 M226.867 182.860 C 227.343 182.919,228.123 182.919,228.600 182.860 C 229.077 182.800,228.687 182.752,227.733 182.752 C 226.780 182.752,226.390 182.800,226.867 182.860 M231.764 184.120 C 232.000 184.421,232.327 184.907,232.489 185.200 C 232.651 185.493,232.787 185.585,232.792 185.404 C 232.796 185.223,232.470 184.737,232.067 184.325 C 231.663 183.912,231.527 183.820,231.764 184.120 M240.412 186.012 C 240.310 186.692,240.287 187.309,240.360 187.382 C 240.433 187.456,240.577 186.959,240.679 186.279 C 240.781 185.599,240.804 184.982,240.731 184.909 C 240.658 184.835,240.514 185.332,240.412 186.012 M102.686 185.395 C 102.655 185.710,103.524 187.765,103.639 187.650 C 103.697 187.592,103.510 187.017,103.224 186.372 C 102.938 185.727,102.696 185.288,102.686 185.395 M232.883 187.333 C 232.884 188.213,232.934 188.541,232.993 188.062 C 233.053 187.583,233.051 186.863,232.991 186.462 C 232.930 186.061,232.881 186.453,232.883 187.333 M239.886 188.419 C 239.788 188.810,239.759 189.181,239.822 189.244 C 239.885 189.307,240.016 189.038,240.114 188.648 C 240.212 188.257,240.241 187.886,240.178 187.823 C 240.115 187.760,239.984 188.028,239.886 188.419 M232.422 189.787 C 232.144 191.026,230.405 193.590,229.043 194.770 C 228.358 195.364,228.212 195.560,228.692 195.239 C 230.541 194.007,233.073 190.258,232.728 189.263 C 232.665 189.082,232.527 189.317,232.422 189.787 M105.068 190.600 C 105.842 191.918,107.805 194.371,108.098 194.387 C 108.225 194.394,107.891 193.915,107.355 193.322 C 106.820 192.730,106.015 191.650,105.568 190.922 C 104.625 189.390,104.194 189.112,105.068 190.600 M237.803 193.690 C 237.108 195.034,236.727 195.893,236.958 195.600 C 237.468 194.951,239.268 191.445,239.150 191.329 C 239.104 191.283,238.498 192.346,237.803 193.690 M110.696 196.909 C 111.474 197.555,112.476 198.280,112.922 198.520 C 113.726 198.953,113.727 198.952,113.071 198.478 C 112.706 198.215,111.778 197.490,111.008 196.867 C 110.238 196.243,109.534 195.733,109.444 195.733 C 109.354 195.733,109.917 196.262,110.696 196.909 M235.198 197.736 C 234.575 198.544,233.647 199.571,233.138 200.019 C 232.628 200.467,232.267 200.889,232.336 200.958 C 232.480 201.102,235.121 198.301,235.986 197.086 C 236.966 195.710,236.403 196.175,235.198 197.736 M218.007 197.587 C 217.413 198.734,217.511 198.949,218.150 197.901 C 218.653 197.076,218.780 197.015,219.682 197.160 C 220.360 197.269,220.542 197.239,220.267 197.063 C 219.431 196.531,218.433 196.762,218.007 197.587 M223.867 197.067 L 223.333 197.296 223.867 197.296 C 224.160 197.296,224.640 197.193,224.933 197.067 L 225.467 196.837 224.933 196.837 C 224.640 196.837,224.160 196.941,223.867 197.067 M217.219 199.886 C 217.121 200.277,217.092 200.648,217.155 200.711 C 217.218 200.773,217.350 200.505,217.448 200.114 C 217.546 199.723,217.575 199.352,217.512 199.289 C 217.449 199.227,217.317 199.495,217.219 199.886 M115.733 200.120 C 115.733 200.193,116.093 200.439,116.533 200.667 C 116.973 200.894,117.333 201.020,117.333 200.947 C 117.333 200.874,116.973 200.628,116.533 200.400 C 116.093 200.172,115.733 200.046,115.733 200.120 M118.000 201.464 C 118.596 201.959,120.285 202.872,119.867 202.473 C 119.720 202.333,119.120 201.949,118.533 201.620 C 117.947 201.290,117.707 201.220,118.000 201.464 M216.667 202.133 C 216.565 202.594,216.538 203.027,216.606 203.095 C 216.674 203.163,216.806 202.835,216.900 202.367 C 216.994 201.898,217.021 201.465,216.961 201.405 C 216.900 201.345,216.768 201.672,216.667 202.133 M231.549 203.067 C 231.551 203.947,231.601 204.275,231.660 203.795 C 231.719 203.316,231.718 202.596,231.657 202.195 C 231.596 201.795,231.548 202.187,231.549 203.067 M121.067 203.326 C 121.067 203.396,121.457 203.643,121.933 203.876 L 122.800 204.299 122.133 203.755 C 121.491 203.232,121.067 203.061,121.067 203.326 M216.106 204.415 C 215.881 205.311,216.871 206.417,217.846 206.360 C 218.528 206.320,218.527 206.319,217.794 206.208 C 216.901 206.074,216.154 205.043,216.396 204.280 C 216.491 203.979,216.503 203.733,216.423 203.733 C 216.343 203.733,216.200 204.040,216.106 204.415 M123.467 204.778 C 124.109 205.301,124.533 205.472,124.533 205.207 C 124.533 205.137,124.143 204.890,123.667 204.657 L 122.800 204.235 123.467 204.778 M125.200 205.738 C 125.493 205.977,125.973 206.290,126.267 206.434 L 126.800 206.696 126.267 206.262 C 125.973 206.023,125.493 205.710,125.200 205.566 L 124.667 205.304 125.200 205.738 M224.267 205.622 C 223.954 205.841,223.997 205.865,224.467 205.733 C 225.061 205.566,225.067 205.591,225.071 208.315 C 225.075 211.160,225.384 212.325,226.176 212.478 C 227.194 212.674,231.766 209.492,231.723 208.618 C 231.717 208.498,231.547 208.703,231.346 209.073 C 230.999 209.710,226.857 212.267,226.171 212.267 C 225.600 212.267,225.333 210.946,225.333 208.116 C 225.333 205.255,225.208 204.962,224.267 205.622 M222.133 206.133 C 221.211 206.328,221.209 206.330,222.000 206.361 C 222.440 206.378,222.980 206.276,223.200 206.133 C 223.644 205.846,223.497 205.846,222.133 206.133 M219.403 206.589 C 219.735 206.652,220.215 206.650,220.470 206.583 C 220.725 206.516,220.453 206.464,219.867 206.467 C 219.280 206.470,219.071 206.525,219.403 206.589 M130.646 208.994 C 131.002 209.254,131.902 209.799,132.646 210.206 C 133.391 210.613,133.709 210.733,133.354 210.473 C 132.998 210.213,132.098 209.667,131.354 209.260 C 130.609 208.854,130.291 208.734,130.646 208.994 M134.133 211.053 C 134.133 211.126,134.493 211.372,134.933 211.600 C 135.373 211.828,135.733 211.954,135.733 211.880 C 135.733 211.807,135.373 211.561,134.933 211.333 C 134.493 211.106,134.133 210.980,134.133 211.053 M136.400 212.407 C 136.693 212.646,137.293 213.017,137.733 213.233 C 138.481 213.600,138.499 213.598,138.000 213.193 C 137.707 212.954,137.107 212.583,136.667 212.367 C 135.919 212.000,135.901 212.002,136.400 212.407 M138.667 213.720 C 138.667 213.793,139.027 214.039,139.467 214.267 C 139.907 214.494,140.267 214.620,140.267 214.547 C 140.267 214.474,139.907 214.228,139.467 214.000 C 139.027 213.772,138.667 213.646,138.667 213.720 M141.333 215.320 C 141.333 215.393,141.693 215.639,142.133 215.867 C 142.573 216.094,142.933 216.220,142.933 216.147 C 142.933 216.074,142.573 215.828,142.133 215.600 C 141.693 215.372,141.333 215.246,141.333 215.320 M143.200 216.343 C 143.200 216.503,145.270 217.867,145.514 217.867 C 145.620 217.867,145.593 217.766,145.453 217.643 C 145.034 217.272,143.200 216.214,143.200 216.343 M145.867 217.957 C 145.867 218.030,147.637 219.136,149.800 220.415 C 154.555 223.226,154.133 222.989,154.133 222.850 C 154.133 222.787,152.663 221.864,150.867 220.798 C 149.070 219.733,147.210 218.628,146.733 218.342 C 146.257 218.057,145.867 217.883,145.867 217.957 M154.800 223.341 C 155.093 223.579,155.693 223.951,156.133 224.167 C 156.881 224.534,156.899 224.531,156.400 224.126 C 156.107 223.888,155.507 223.516,155.067 223.300 C 154.319 222.933,154.301 222.936,154.800 223.341 M157.600 225.045 C 158.242 225.568,158.667 225.739,158.667 225.474 C 158.667 225.404,158.277 225.157,157.800 224.924 L 156.933 224.501 157.600 225.045 M159.467 226.110 C 159.833 226.409,160.253 226.656,160.400 226.657 C 160.685 226.659,160.203 226.289,159.333 225.840 C 158.979 225.657,159.024 225.747,159.467 226.110 M161.200 227.071 C 161.493 227.310,161.973 227.624,162.267 227.768 L 162.800 228.029 162.267 227.595 C 161.973 227.356,161.493 227.043,161.200 226.899 L 160.667 226.637 161.200 227.071 M164.267 228.887 C 164.267 228.952,165.137 229.516,166.200 230.139 C 167.263 230.762,168.523 231.505,169.000 231.791 C 169.477 232.076,169.867 232.247,169.867 232.171 C 169.867 232.065,166.664 230.113,164.467 228.881 C 164.357 228.819,164.267 228.822,164.267 228.887 M170.133 232.386 C 170.133 232.460,170.493 232.706,170.933 232.933 C 171.373 233.161,171.733 233.287,171.733 233.214 C 171.733 233.140,171.373 232.894,170.933 232.667 C 170.493 232.439,170.133 232.313,170.133 232.386 M172.800 233.986 C 172.800 234.060,173.160 234.306,173.600 234.533 C 174.040 234.761,174.400 234.887,174.400 234.814 C 174.400 234.740,174.040 234.494,173.600 234.267 C 173.160 234.039,172.800 233.913,172.800 233.986 M175.067 235.331 C 175.662 235.826,177.352 236.739,176.933 236.340 C 176.787 236.200,176.187 235.816,175.600 235.486 C 175.013 235.157,174.773 235.087,175.067 235.331 M177.733 236.941 C 178.027 237.179,178.627 237.551,179.067 237.767 C 179.815 238.134,179.832 238.131,179.333 237.726 C 179.040 237.488,178.440 237.116,178.000 236.900 C 177.252 236.533,177.235 236.536,177.733 236.941 M197.885 237.889 C 197.896 238.243,198.013 238.773,198.146 239.067 C 198.314 239.438,198.338 239.277,198.225 238.533 C 198.036 237.295,197.858 236.957,197.885 237.889 M182.267 239.597 C 182.862 240.093,184.552 241.006,184.133 240.606 C 183.987 240.467,183.387 240.082,182.800 239.753 C 182.213 239.424,181.973 239.354,182.267 239.597 M185.867 241.668 C 185.867 242.006,191.155 244.934,191.372 244.717 C 191.439 244.650,190.737 244.227,189.813 243.777 C 188.889 243.326,187.623 242.640,187.000 242.252 C 186.377 241.863,185.867 241.601,185.867 241.668 M200.948 243.898 C 201.543 244.468,202.263 245.069,202.548 245.235 C 203.516 245.800,202.628 246.000,199.159 246.000 C 197.255 246.000,195.975 246.078,196.315 246.173 C 197.132 246.403,201.576 246.445,202.633 246.233 C 203.685 246.023,203.701 245.468,202.670 244.935 C 202.232 244.709,201.422 244.150,200.870 243.693 C 199.891 242.883,199.893 242.888,200.948 243.898 M193.727 245.589 C 193.821 245.742,194.211 245.867,194.594 245.867 C 195.429 245.867,195.333 245.739,194.311 245.493 C 193.815 245.374,193.614 245.407,193.727 245.589 " stroke="none" fill="#7c7c84" fill-rule="evenodd"></path></g></svg>