<svg id="svg" version="1.1" xmlns="http://www.w3.org/2000/svg" xmlns:xlink="http://www.w3.org/1999/xlink" width="400" height="120.13888888888889" viewBox="0, 0, 400,120.13888888888889"><g id="svgg"><path id="path0" d="M342.923 0.424 C 342.376 0.649,341.867 0.833,341.792 0.833 C 341.149 0.833,338.299 3.277,337.529 4.489 C 337.380 4.724,337.204 4.956,337.139 5.004 C 336.028 5.817,335.341 11.288,336.080 13.438 C 336.297 14.069,336.029 14.889,335.318 15.765 C 335.236 15.865,334.952 16.352,334.686 16.848 C 334.420 17.344,333.897 18.237,333.525 18.833 C 333.152 19.429,332.640 20.310,332.389 20.792 C 332.137 21.273,331.871 21.667,331.799 21.667 C 331.726 21.667,331.667 21.817,331.667 22.000 C 331.667 22.183,331.605 22.333,331.530 22.333 C 331.454 22.333,331.221 22.677,331.011 23.097 C 330.801 23.517,330.339 24.324,329.984 24.889 C 329.629 25.454,329.226 26.142,329.089 26.417 C 328.952 26.692,328.704 27.142,328.537 27.417 C 328.371 27.692,327.991 28.329,327.693 28.833 C 326.922 30.138,326.804 30.332,326.292 31.133 C 326.040 31.528,325.833 31.959,325.833 32.092 C 325.833 32.225,325.771 32.333,325.695 32.333 C 325.619 32.333,325.381 32.708,325.167 33.167 C 324.952 33.625,324.727 34.000,324.667 34.000 C 324.606 34.000,324.381 34.375,324.167 34.833 C 323.952 35.292,323.722 35.667,323.654 35.667 C 323.587 35.667,323.450 35.873,323.349 36.125 C 323.138 36.650,322.827 37.203,321.326 39.720 C 320.734 40.711,319.987 41.995,319.667 42.572 C 319.346 43.150,318.999 43.726,318.895 43.853 C 318.792 43.980,318.538 44.421,318.331 44.833 C 318.124 45.246,317.909 45.621,317.853 45.667 C 317.796 45.712,317.619 46.012,317.459 46.333 C 317.077 47.100,316.587 47.944,316.371 48.206 C 316.276 48.322,316.017 48.754,315.794 49.167 C 315.139 50.381,314.643 51.236,314.468 51.451 C 314.379 51.561,314.175 51.899,314.016 52.201 C 313.649 52.898,313.184 53.694,312.528 54.750 C 312.243 55.208,311.822 55.934,311.592 56.363 C 311.361 56.792,311.097 57.190,311.003 57.248 C 310.910 57.306,310.833 57.499,310.833 57.677 C 310.833 57.854,310.769 58.000,310.690 58.000 C 310.611 58.000,310.368 58.375,310.150 58.833 C 309.933 59.292,309.697 59.667,309.627 59.667 C 309.557 59.667,309.500 59.732,309.500 59.812 C 309.500 59.949,309.060 60.747,308.214 62.141 C 308.012 62.476,307.747 62.938,307.627 63.167 C 307.429 63.545,306.625 64.918,306.118 65.744 C 305.265 67.132,305.037 67.520,304.623 68.295 C 304.364 68.778,303.968 69.445,303.743 69.776 C 303.518 70.108,303.333 70.468,303.333 70.575 C 303.333 70.683,303.200 70.916,303.036 71.094 C 302.873 71.271,302.583 71.717,302.392 72.083 C 301.868 73.091,301.315 74.062,301.151 74.265 C 301.070 74.365,300.768 74.890,300.480 75.432 C 300.193 75.973,299.810 76.626,299.629 76.882 C 299.449 77.137,299.075 77.775,298.798 78.298 C 298.522 78.822,298.200 79.362,298.084 79.500 C 297.967 79.637,297.703 80.087,297.497 80.500 C 297.291 80.912,297.072 81.287,297.011 81.333 C 296.949 81.379,296.764 81.679,296.600 82.000 C 296.072 83.027,295.715 83.657,295.539 83.873 C 295.388 84.059,294.766 85.136,294.262 86.086 C 294.164 86.270,293.930 86.645,293.742 86.919 C 293.554 87.193,293.307 87.604,293.192 87.833 C 293.078 88.063,292.803 88.550,292.581 88.917 C 292.195 89.557,291.947 89.985,290.801 92.000 C 290.514 92.504,290.235 92.954,290.181 93.000 C 290.127 93.046,289.829 93.571,289.517 94.167 C 289.206 94.763,288.897 95.287,288.831 95.333 C 288.765 95.379,288.511 95.792,288.267 96.250 C 286.921 98.779,286.643 99.127,285.858 99.263 C 283.643 99.644,279.167 103.341,279.167 104.789 C 279.167 104.870,279.011 105.259,278.822 105.652 C 278.163 107.014,278.067 111.473,278.669 112.673 C 278.759 112.853,278.908 113.149,279.000 113.331 C 279.092 113.513,279.167 113.733,279.167 113.820 C 279.167 114.552,282.486 118.333,283.129 118.333 C 283.199 118.333,283.517 118.507,283.836 118.719 C 287.846 121.386,295.372 119.564,297.736 115.355 C 297.820 115.205,297.932 115.046,297.986 115.000 C 299.147 114.008,299.899 109.729,299.329 107.353 L 298.994 105.955 299.789 104.633 C 300.226 103.906,300.858 102.810,301.193 102.197 C 301.529 101.585,301.878 101.000,301.970 100.898 C 302.061 100.797,302.303 100.384,302.507 99.982 C 302.711 99.579,302.924 99.212,302.981 99.167 C 303.070 99.094,303.272 98.740,304.071 97.250 C 304.170 97.067,304.337 96.804,304.443 96.667 C 304.549 96.529,304.818 96.079,305.040 95.667 C 305.686 94.466,306.190 93.599,306.365 93.383 C 306.455 93.272,306.660 92.935,306.822 92.633 C 307.166 91.989,307.401 91.579,308.139 90.333 C 308.924 89.007,309.034 88.827,309.542 88.033 C 309.794 87.639,310.000 87.208,310.000 87.075 C 310.000 86.942,310.060 86.833,310.133 86.833 C 310.207 86.833,310.434 86.515,310.639 86.125 C 310.844 85.735,311.270 85.004,311.586 84.500 C 311.902 83.996,312.276 83.358,312.418 83.083 C 312.559 82.808,312.897 82.208,313.168 81.750 C 313.439 81.292,313.850 80.579,314.082 80.167 C 314.821 78.851,315.101 78.375,315.421 77.890 C 315.593 77.630,315.911 77.079,316.129 76.667 C 316.346 76.254,316.696 75.654,316.905 75.333 C 317.447 74.503,317.908 73.715,318.440 72.708 C 318.695 72.227,318.962 71.833,319.035 71.833 C 319.107 71.833,319.167 71.683,319.167 71.500 C 319.167 71.317,319.228 71.167,319.304 71.167 C 319.379 71.167,319.617 70.810,319.832 70.375 C 320.047 69.940,320.276 69.546,320.340 69.500 C 320.404 69.454,320.655 69.042,320.899 68.583 C 321.142 68.125,321.477 67.525,321.643 67.250 C 321.809 66.975,322.136 66.412,322.370 66.000 C 322.827 65.193,323.555 63.953,323.882 63.423 C 324.694 62.106,324.965 61.641,325.391 60.833 C 325.658 60.329,325.970 59.804,326.085 59.667 C 326.200 59.529,326.472 59.085,326.689 58.681 C 326.906 58.276,327.285 57.601,327.530 57.181 C 327.776 56.760,328.072 56.229,328.188 56.000 C 328.303 55.771,328.489 55.471,328.600 55.333 C 328.712 55.196,328.985 54.746,329.207 54.333 C 329.956 52.942,330.366 52.251,330.600 51.987 C 330.728 51.842,330.833 51.667,330.833 51.598 C 330.833 51.529,331.288 50.710,331.844 49.778 C 333.020 47.808,333.113 47.652,333.662 46.756 C 333.889 46.386,334.159 45.933,334.262 45.750 C 334.365 45.567,334.618 45.117,334.823 44.750 C 335.029 44.383,335.447 43.671,335.754 43.167 C 336.060 42.662,336.493 41.912,336.715 41.500 C 336.937 41.087,337.275 40.487,337.466 40.167 C 337.658 39.846,338.127 39.021,338.511 38.333 C 338.894 37.646,339.369 36.858,339.566 36.583 C 339.763 36.308,340.140 35.671,340.403 35.167 C 340.667 34.662,340.975 34.137,341.088 34.000 C 341.202 33.862,341.455 33.450,341.652 33.083 C 341.849 32.717,342.182 32.117,342.392 31.750 C 342.603 31.383,342.919 30.821,343.096 30.499 C 343.272 30.178,343.585 29.679,343.792 29.390 C 343.998 29.101,344.170 28.802,344.174 28.724 C 344.178 28.647,344.514 28.058,344.921 27.417 C 345.329 26.775,345.774 26.025,345.911 25.750 C 346.048 25.475,346.296 25.025,346.463 24.750 C 346.983 23.889,347.898 22.336,348.357 21.537 C 348.731 20.884,348.929 20.726,349.664 20.486 C 350.140 20.331,350.613 20.121,350.715 20.019 C 350.817 19.917,351.001 19.833,351.125 19.833 C 351.753 19.833,354.221 17.809,355.101 16.572 C 357.130 13.719,357.632 8.764,356.151 6.199 C 355.976 5.896,355.833 5.577,355.833 5.491 C 355.833 4.977,352.894 1.681,352.427 1.670 C 352.342 1.668,352.117 1.525,351.927 1.352 C 350.516 0.060,345.150 -0.493,342.923 0.424 M348.750 5.503 C 353.337 7.668,352.895 14.178,348.047 15.846 C 344.448 17.084,340.822 14.429,340.809 10.547 C 340.795 6.370,344.969 3.719,348.750 5.503 M209.399 16.684 C 204.886 17.426,202.719 19.907,203.046 23.957 C 203.150 25.246,203.561 26.703,203.921 27.064 C 204.056 27.199,204.167 27.362,204.167 27.427 C 204.167 27.969,206.787 29.585,207.954 29.763 C 208.300 29.816,208.883 29.936,209.250 30.031 C 209.622 30.127,212.771 30.240,216.375 30.286 L 222.833 30.368 222.833 68.351 L 222.833 106.333 216.596 106.333 C 208.372 106.333,206.590 106.652,204.707 108.461 C 202.911 110.187,202.443 114.825,203.871 116.750 C 204.969 118.229,205.847 118.835,207.792 119.453 L 209.250 119.917 229.583 119.917 L 249.917 119.917 251.167 119.476 C 252.755 118.917,253.333 118.649,253.333 118.473 C 253.333 118.396,253.425 118.333,253.538 118.333 C 253.860 118.333,254.967 117.002,255.438 116.048 C 256.097 114.712,255.991 111.190,255.251 109.851 C 253.611 106.883,251.644 106.333,242.661 106.333 L 236.667 106.333 236.654 65.458 C 236.647 42.977,236.618 24.433,236.589 24.250 C 236.559 24.067,236.488 23.467,236.431 22.917 C 236.027 19.055,234.248 17.237,230.333 16.686 C 228.979 16.495,210.557 16.493,209.399 16.684 M265.167 29.356 C 264.571 29.541,263.821 29.759,263.500 29.840 C 262.787 30.021,261.140 30.868,260.697 31.281 C 260.519 31.447,260.174 31.733,259.930 31.917 C 259.686 32.100,259.396 32.347,259.285 32.466 C 259.174 32.585,258.915 32.863,258.708 33.084 C 258.502 33.304,258.333 33.539,258.333 33.604 C 258.333 33.670,258.230 33.842,258.103 33.987 C 255.085 37.435,256.273 45.276,260.231 48.039 C 260.517 48.238,260.787 48.446,260.833 48.501 C 261.005 48.708,262.957 49.635,264.000 50.005 C 266.841 51.011,272.940 49.828,273.639 48.135 C 273.669 48.061,273.760 48.000,273.839 48.000 C 274.338 48.000,276.296 45.452,276.917 43.994 C 277.742 42.059,277.930 38.600,277.303 36.917 C 276.843 35.681,276.431 34.764,275.896 33.785 C 275.615 33.270,273.034 30.667,272.805 30.667 C 272.725 30.667,272.380 30.493,272.038 30.281 C 270.199 29.142,267.169 28.733,265.167 29.356 M268.932 34.520 C 272.046 35.685,273.613 39.510,272.098 42.250 C 268.918 48.001,260.781 45.346,261.555 38.811 C 261.789 36.837,263.483 35.041,265.833 34.274 C 266.477 34.065,268.047 34.189,268.932 34.520 M77.333 44.485 C 74.739 45.199,73.427 47.005,72.842 50.667 C 72.600 52.182,72.621 54.009,72.989 63.464 C 73.166 68.021,73.355 73.850,73.409 76.417 C 73.462 78.983,73.543 81.758,73.590 82.583 C 73.754 85.494,74.161 96.780,74.186 99.083 C 74.252 105.326,75.634 110.166,78.083 112.734 C 78.267 112.927,78.605 113.309,78.836 113.584 C 79.409 114.265,81.252 115.833,81.481 115.833 C 81.583 115.833,81.667 115.890,81.667 115.958 C 81.667 116.027,82.023 116.306,82.459 116.578 C 82.894 116.851,83.349 117.169,83.470 117.287 C 83.591 117.404,83.762 117.500,83.849 117.500 C 83.935 117.500,84.304 117.687,84.667 117.917 C 85.030 118.146,85.404 118.333,85.499 118.333 C 85.593 118.333,85.988 118.478,86.377 118.656 C 88.718 119.724,90.822 119.969,97.750 119.977 C 103.713 119.985,104.265 119.941,106.794 119.261 C 108.111 118.906,111.406 117.475,111.667 117.144 C 111.712 117.086,112.106 116.872,112.542 116.668 C 112.977 116.464,113.333 116.235,113.333 116.160 C 113.333 116.084,113.502 115.970,113.708 115.906 C 113.915 115.842,114.307 115.631,114.580 115.436 C 114.853 115.242,115.202 115.008,115.355 114.917 C 115.865 114.611,119.747 112.025,119.917 111.878 C 120.008 111.798,120.205 111.687,120.354 111.630 C 120.503 111.573,121.126 111.183,121.739 110.763 C 122.353 110.343,122.890 110.000,122.934 110.000 C 122.979 110.000,123.217 109.813,123.464 109.583 C 123.711 109.354,123.982 109.167,124.066 109.167 C 124.150 109.167,124.467 108.977,124.771 108.745 L 125.324 108.323 125.321 110.413 C 125.319 112.616,125.367 113.088,125.778 114.833 C 127.317 121.371,136.421 121.913,138.392 115.583 C 138.804 114.261,138.938 103.621,138.926 73.250 L 138.917 51.250 138.532 49.667 C 138.083 47.815,136.822 45.500,136.263 45.500 C 136.179 45.500,135.975 45.378,135.810 45.229 C 135.342 44.805,133.374 44.333,132.087 44.336 C 128.495 44.343,126.582 45.820,125.685 49.278 C 125.166 51.277,125.180 50.668,125.173 72.256 L 125.167 92.595 124.646 92.922 C 124.360 93.103,123.929 93.379,123.688 93.537 C 123.447 93.694,123.025 93.949,122.750 94.103 C 122.475 94.257,122.018 94.559,121.734 94.775 C 121.451 94.990,121.164 95.167,121.098 95.167 C 121.032 95.167,120.732 95.354,120.431 95.583 C 120.131 95.813,119.831 96.000,119.765 96.000 C 119.699 96.000,119.399 96.188,119.098 96.417 C 118.798 96.646,118.498 96.833,118.431 96.833 C 118.365 96.833,118.065 97.021,117.765 97.250 C 117.464 97.479,117.164 97.667,117.098 97.667 C 117.032 97.667,116.732 97.854,116.431 98.083 C 116.131 98.313,115.824 98.500,115.750 98.500 C 115.676 98.500,115.369 98.688,115.069 98.917 C 114.768 99.146,114.472 99.333,114.410 99.333 C 114.349 99.333,114.075 99.521,113.803 99.750 C 113.531 99.979,113.201 100.167,113.071 100.167 C 112.940 100.167,112.833 100.230,112.833 100.307 C 112.833 100.432,112.531 100.626,110.758 101.636 C 110.488 101.791,110.188 101.976,110.091 102.050 C 107.849 103.754,103.826 105.961,102.667 106.123 C 99.586 106.551,93.519 106.156,91.677 105.408 C 88.107 103.957,87.759 102.387,87.413 86.167 C 87.363 83.829,87.286 81.392,87.242 80.750 C 87.124 79.010,86.696 66.698,86.585 61.833 C 86.338 51.009,85.893 47.726,84.477 46.311 C 84.307 46.140,84.167 45.936,84.167 45.858 C 84.167 44.753,79.654 43.846,77.333 44.485 M28.333 44.586 C 25.639 44.907,21.250 46.646,20.327 47.757 C 20.217 47.891,20.051 48.000,19.960 48.000 C 19.869 48.000,19.549 48.206,19.248 48.458 C 18.948 48.710,18.507 49.067,18.266 49.250 C 18.026 49.433,17.615 49.771,17.353 50.000 C 17.090 50.229,16.553 50.679,16.158 51.000 C 15.764 51.321,15.305 51.715,15.137 51.875 C 14.970 52.035,14.788 52.167,14.732 52.167 C 14.677 52.167,14.484 52.354,14.304 52.583 C 14.123 52.813,13.910 53.000,13.829 53.000 C 13.748 53.000,13.500 53.169,13.278 53.375 C 13.057 53.581,12.622 53.950,12.313 54.195 C 12.003 54.440,11.044 55.228,10.182 55.945 C 9.320 56.663,8.382 57.435,8.099 57.662 C 6.397 59.023,3.333 62.115,3.333 62.472 C 3.333 62.557,3.215 62.724,3.071 62.843 C 2.927 62.963,2.664 63.329,2.486 63.656 C 2.308 63.982,2.092 64.362,2.005 64.500 C 1.606 65.129,0.989 66.726,0.556 68.250 L 0.083 69.917 0.083 82.167 C 0.083 94.379,0.084 94.421,0.462 95.833 C 0.886 97.418,1.974 100.167,2.178 100.167 C 2.251 100.167,2.363 100.330,2.426 100.529 C 2.489 100.729,2.719 101.085,2.937 101.319 C 3.155 101.554,3.333 101.836,3.333 101.945 C 3.333 102.053,3.521 102.290,3.750 102.470 C 3.979 102.650,4.167 102.847,4.167 102.906 C 4.167 102.966,4.673 103.512,5.292 104.119 C 6.357 105.163,7.031 105.744,11.181 109.192 C 12.136 109.986,13.179 110.857,13.500 111.128 C 20.515 117.056,22.760 118.502,26.417 119.444 L 28.250 119.916 43.667 119.968 C 60.628 120.025,60.489 120.033,62.831 118.943 C 63.554 118.607,64.764 117.553,65.091 116.977 C 65.807 115.711,65.872 115.418,65.894 113.333 C 65.928 110.189,65.018 108.562,62.592 107.426 C 60.331 106.367,59.796 106.333,45.429 106.333 C 31.756 106.333,31.065 106.298,29.463 105.522 C 29.059 105.327,28.665 105.167,28.588 105.167 C 28.511 105.167,28.202 104.979,27.902 104.750 C 27.601 104.521,27.282 104.333,27.192 104.333 C 27.102 104.333,26.853 104.188,26.639 104.010 C 26.425 103.832,25.275 102.880,24.083 101.894 C 22.892 100.908,21.760 99.947,21.569 99.759 C 21.378 99.571,20.975 99.229,20.674 99.000 C 20.372 98.771,19.955 98.433,19.746 98.250 C 19.537 98.067,19.049 97.654,18.663 97.333 C 18.276 97.013,17.791 96.581,17.586 96.375 C 17.380 96.169,17.139 96.000,17.050 96.000 C 16.961 96.000,16.695 95.794,16.459 95.542 C 16.223 95.290,15.798 94.878,15.515 94.628 C 15.232 94.377,15.000 94.096,15.000 94.003 C 15.000 93.910,14.920 93.833,14.823 93.833 C 14.725 93.833,14.423 93.342,14.151 92.742 L 13.656 91.651 13.703 81.917 C 13.739 74.403,13.798 72.136,13.958 71.975 C 14.073 71.860,14.167 71.659,14.167 71.526 C 14.167 71.091,15.673 69.512,17.728 67.792 C 18.840 66.861,19.900 65.965,20.083 65.802 C 20.558 65.379,21.079 64.946,21.883 64.307 C 22.267 64.001,22.795 63.544,23.054 63.292 C 23.313 63.040,23.554 62.833,23.589 62.833 C 23.660 62.833,24.371 62.205,25.006 61.582 C 25.239 61.353,25.479 61.167,25.540 61.167 C 25.601 61.167,26.153 60.792,26.766 60.333 C 27.379 59.875,27.952 59.500,28.040 59.500 C 28.127 59.500,28.415 59.346,28.679 59.158 C 28.944 58.970,29.321 58.784,29.519 58.746 C 29.716 58.708,30.311 58.527,30.841 58.344 C 31.772 58.022,32.256 58.010,45.360 57.996 C 59.516 57.981,60.456 57.938,61.782 57.246 C 62.039 57.112,62.358 57.002,62.491 57.001 C 62.993 56.999,64.980 55.365,64.995 54.942 C 64.998 54.865,65.153 54.587,65.340 54.324 C 66.287 52.994,66.161 49.096,65.118 47.500 C 64.575 46.668,63.375 45.500,63.064 45.500 C 62.995 45.500,62.604 45.338,62.196 45.141 C 60.654 44.394,59.508 44.344,44.333 44.362 C 34.067 44.373,29.594 44.436,28.333 44.586 M150.237 44.660 C 147.530 45.242,145.935 48.034,145.816 52.397 C 145.634 59.048,145.766 113.650,145.965 114.500 C 146.885 118.423,148.578 119.868,152.376 119.974 C 155.781 120.069,157.480 119.013,158.711 116.036 L 159.242 114.750 159.293 95.833 L 159.343 76.917 159.963 76.371 C 160.304 76.070,160.693 75.733,160.828 75.621 C 161.460 75.094,163.362 73.531,163.917 73.083 C 164.257 72.808,164.713 72.433,164.928 72.250 C 165.144 72.067,165.518 71.767,165.760 71.583 C 166.001 71.400,166.373 71.100,166.585 70.917 C 166.798 70.733,167.296 70.321,167.694 70.000 C 168.091 69.679,168.588 69.248,168.799 69.042 C 169.010 68.835,169.235 68.665,169.299 68.662 C 169.364 68.660,169.829 68.275,170.333 67.808 C 170.838 67.341,171.511 66.762,171.830 66.521 C 172.149 66.280,172.562 65.958,172.747 65.804 C 172.932 65.651,174.283 64.538,175.750 63.331 C 177.217 62.124,178.631 60.956,178.892 60.735 C 179.154 60.514,179.423 60.333,179.491 60.333 C 179.559 60.333,179.758 60.175,179.933 59.982 C 181.248 58.526,183.901 57.934,188.583 58.052 C 195.961 58.238,198.142 59.950,198.176 65.580 C 198.195 68.736,198.887 71.556,199.763 72.050 C 199.894 72.123,200.000 72.273,200.000 72.383 C 200.000 72.493,200.265 72.795,200.590 73.054 C 203.320 75.232,207.633 75.113,209.857 72.797 C 211.795 70.779,212.560 62.841,211.192 58.964 C 211.006 58.440,210.820 57.802,210.777 57.547 C 210.702 57.103,209.982 55.355,209.658 54.833 C 209.573 54.696,209.343 54.286,209.146 53.922 C 208.656 53.014,208.140 52.294,207.792 52.033 C 207.631 51.913,207.500 51.746,207.500 51.663 C 207.500 51.425,205.103 48.970,204.329 48.417 C 203.945 48.142,203.506 47.802,203.353 47.662 C 202.978 47.319,201.366 46.333,201.180 46.333 C 201.098 46.333,200.668 46.152,200.224 45.930 C 197.627 44.634,195.971 44.463,186.667 44.531 C 178.386 44.591,178.794 44.539,175.969 45.909 C 174.953 46.402,172.328 48.064,171.668 48.633 C 171.530 48.752,170.779 49.349,170.000 49.960 C 169.221 50.571,168.497 51.149,168.392 51.244 C 168.287 51.339,167.956 51.604,167.657 51.833 C 167.357 52.063,166.947 52.419,166.745 52.625 C 166.543 52.831,166.302 53.000,166.208 53.000 C 166.115 53.000,165.915 53.188,165.765 53.417 C 165.615 53.646,165.382 53.833,165.246 53.833 C 165.111 53.833,165.000 53.900,165.000 53.982 C 165.000 54.064,164.438 54.562,163.750 55.089 C 163.063 55.615,162.500 56.111,162.500 56.190 C 162.500 56.269,162.417 56.333,162.316 56.333 C 162.214 56.333,161.984 56.521,161.804 56.750 C 161.623 56.979,161.410 57.167,161.329 57.167 C 161.248 57.167,161.001 57.335,160.779 57.542 C 160.558 57.748,160.160 58.097,159.897 58.317 L 159.417 58.717 159.310 54.483 C 159.193 49.835,159.175 49.696,158.541 48.250 C 157.201 45.198,154.057 43.838,150.237 44.660 M263.833 66.742 C 254.841 69.839,253.477 81.509,261.583 86.000 C 261.950 86.203,262.325 86.430,262.418 86.504 C 264.025 87.804,269.320 87.647,272.000 86.220 C 283.266 80.221,275.876 62.594,263.833 66.742 M269.316 71.658 C 274.724 74.388,273.010 82.338,267.015 82.332 C 262.537 82.328,259.932 77.529,262.352 73.741 C 263.887 71.338,266.898 70.437,269.316 71.658 M290.875 104.111 C 292.004 104.554,293.667 105.933,293.667 106.427 C 293.667 106.543,293.744 106.665,293.838 106.696 C 294.676 106.975,294.607 110.798,293.741 112.121 C 289.653 118.360,280.325 112.859,284.052 106.407 C 284.342 105.904,285.125 105.000,285.270 105.000 C 285.339 105.000,285.550 104.859,285.739 104.687 C 286.859 103.670,289.108 103.418,290.875 104.111 " stroke="none" fill="#043454" fill-rule="evenodd"></path><path id="path1" d="M386.333 0.345 C 385.829 0.529,385.229 0.741,385.000 0.817 C 380.866 2.178,377.949 8.205,379.136 12.933 C 379.299 13.584,379.374 14.220,379.302 14.349 C 379.229 14.478,378.795 15.208,378.335 15.971 C 377.876 16.734,377.500 17.382,377.500 17.412 C 377.500 17.442,377.193 17.971,376.818 18.588 C 376.443 19.206,376.003 19.945,375.839 20.231 C 375.676 20.516,375.146 21.425,374.662 22.250 C 373.603 24.053,373.344 24.499,371.829 27.140 C 371.689 27.384,371.285 28.071,370.931 28.667 C 370.577 29.262,370.159 29.975,370.001 30.250 C 369.843 30.525,369.467 31.162,369.167 31.667 C 368.617 32.589,368.266 33.189,367.560 34.417 C 367.349 34.783,366.982 35.421,366.745 35.833 C 366.507 36.246,366.142 36.883,365.934 37.250 C 365.726 37.617,365.243 38.431,364.861 39.059 C 364.479 39.687,364.167 40.225,364.167 40.255 C 364.167 40.285,363.810 40.896,363.373 41.613 C 362.937 42.330,362.486 43.104,362.371 43.333 C 362.256 43.563,361.928 44.125,361.641 44.583 C 361.127 45.407,360.773 46.005,360.097 47.192 C 359.906 47.527,359.488 48.239,359.167 48.775 C 358.542 49.819,358.341 50.165,357.623 51.436 C 357.115 52.336,356.879 52.740,355.932 54.333 C 355.578 54.929,355.158 55.642,354.999 55.917 C 354.840 56.192,354.313 57.092,353.828 57.917 C 352.766 59.725,352.312 60.510,351.753 61.500 C 351.284 62.332,351.042 62.747,350.099 64.333 C 349.744 64.929,349.325 65.642,349.167 65.917 C 348.443 67.174,347.555 68.685,346.875 69.816 C 346.467 70.495,345.978 71.320,345.788 71.650 C 345.599 71.980,345.271 72.550,345.060 72.917 C 344.849 73.283,344.486 73.921,344.253 74.333 C 344.021 74.746,343.760 75.196,343.674 75.333 C 343.453 75.689,342.023 78.117,341.673 78.733 C 341.511 79.017,341.089 79.737,340.735 80.333 C 340.381 80.929,339.977 81.610,339.837 81.847 C 339.516 82.391,337.999 85.029,337.662 85.630 C 337.522 85.879,337.118 86.571,336.764 87.167 C 336.411 87.763,335.992 88.475,335.834 88.750 C 335.676 89.025,335.301 89.662,335.000 90.167 C 334.699 90.671,334.324 91.308,334.165 91.583 C 334.006 91.858,333.479 92.758,332.994 93.583 C 332.508 94.408,331.895 95.458,331.630 95.917 C 331.365 96.375,330.923 97.125,330.649 97.583 C 330.374 98.042,330.108 98.543,330.058 98.698 C 329.967 98.977,329.196 99.333,328.681 99.333 C 327.676 99.333,324.822 101.336,323.530 102.948 C 319.443 108.046,321.359 116.068,327.333 118.873 C 335.286 122.608,343.928 116.291,342.559 107.742 C 342.431 106.944,342.289 106.230,342.243 106.156 C 342.198 106.082,342.301 105.773,342.474 105.469 C 343.041 104.471,344.038 102.771,344.797 101.509 C 345.207 100.827,345.733 99.927,345.966 99.509 C 346.198 99.092,346.524 98.525,346.690 98.250 C 346.856 97.975,347.182 97.412,347.414 97.000 C 347.881 96.171,348.119 95.764,349.068 94.167 C 349.422 93.571,349.842 92.858,350.000 92.583 C 350.158 92.308,350.578 91.596,350.932 91.000 C 351.919 89.339,352.024 89.160,352.917 87.603 C 353.375 86.804,353.916 85.873,354.119 85.534 C 354.322 85.194,354.679 84.579,354.912 84.167 C 355.386 83.328,355.636 82.901,356.568 81.333 C 356.922 80.737,357.341 80.025,357.499 79.750 C 357.656 79.475,358.404 78.200,359.161 76.917 C 359.917 75.633,360.691 74.321,360.880 74.000 C 361.257 73.360,361.625 72.721,363.171 70.027 C 363.311 69.783,363.715 69.096,364.069 68.500 C 364.423 67.904,364.841 67.192,364.999 66.917 C 365.157 66.642,365.533 66.004,365.833 65.500 C 366.134 64.996,366.510 64.358,366.669 64.083 C 366.827 63.808,367.354 62.908,367.838 62.083 C 368.901 60.275,369.355 59.490,369.913 58.500 C 370.383 57.668,370.625 57.253,371.568 55.667 C 371.922 55.071,372.342 54.358,372.500 54.083 C 373.224 52.826,374.112 51.315,374.792 50.184 C 375.200 49.505,375.689 48.680,375.878 48.350 C 377.492 45.542,377.842 44.938,378.255 44.250 C 378.475 43.883,378.846 43.246,379.079 42.833 C 379.553 41.995,379.803 41.568,380.735 40.000 C 381.089 39.404,381.509 38.692,381.668 38.417 C 381.827 38.142,382.354 37.242,382.838 36.417 C 383.942 34.537,384.889 32.901,385.732 31.417 C 385.941 31.050,386.424 30.236,386.806 29.608 C 387.187 28.980,387.500 28.442,387.500 28.412 C 387.500 28.382,387.875 27.747,388.333 27.000 C 388.792 26.253,389.167 25.616,389.167 25.583 C 389.167 25.551,389.532 24.929,389.979 24.202 C 390.425 23.474,390.819 22.812,390.854 22.731 C 391.172 21.986,392.082 20.667,392.277 20.667 C 392.411 20.667,392.931 20.479,393.432 20.250 C 393.933 20.021,394.389 19.833,394.446 19.833 C 395.070 19.833,397.656 17.499,398.552 16.128 C 401.058 12.292,400.492 6.452,397.293 3.140 C 394.581 0.333,389.748 -0.900,386.333 0.345 M391.959 5.506 C 396.574 7.812,395.967 14.461,391.011 15.903 C 387.065 17.052,383.265 13.573,384.016 9.500 C 384.683 5.881,388.684 3.869,391.959 5.506 M145.731 63.167 C 145.731 64.313,145.758 64.781,145.790 64.208 C 145.823 63.635,145.823 62.698,145.790 62.125 C 145.758 61.552,145.731 62.021,145.731 63.167 M138.894 83.917 C 138.895 84.833,138.923 85.187,138.956 84.703 C 138.990 84.218,138.990 83.468,138.956 83.036 C 138.921 82.604,138.894 83.000,138.894 83.917 M138.899 92.417 C 138.899 93.700,138.926 94.203,138.957 93.534 C 138.989 92.866,138.989 91.816,138.957 91.201 C 138.925 90.586,138.899 91.133,138.899 92.417 M333.714 103.988 C 338.706 105.705,338.986 112.199,334.167 114.481 C 331.074 115.944,327.140 113.813,326.512 110.333 C 325.762 106.181,329.785 102.636,333.714 103.988 M125.221 109.417 C 125.222 110.058,125.252 110.300,125.288 109.955 C 125.324 109.609,125.324 109.084,125.287 108.788 C 125.250 108.492,125.221 108.775,125.221 109.417 " stroke="none" fill="#04544c" fill-rule="evenodd"></path></g></svg>