<svg id="svg" version="1.1" xmlns="http://www.w3.org/2000/svg" xmlns:xlink="http://www.w3.org/1999/xlink" width="400" height="400" viewBox="0, 0, 400,400"><g id="svgg"><path id="path0" d="M191.200 5.600 C 191.200 5.820,190.658 6.000,189.995 6.000 C 189.332 6.000,188.432 6.180,187.995 6.400 C 187.558 6.620,186.842 6.980,186.405 7.200 C 185.968 7.420,185.248 7.600,184.805 7.600 C 184.362 7.600,184.000 7.780,184.000 8.000 C 184.000 8.220,183.737 8.400,183.415 8.400 C 182.687 8.400,175.049 12.047,174.867 12.482 C 174.793 12.657,174.388 12.800,173.967 12.800 C 173.545 12.800,173.200 12.980,173.200 13.200 C 173.200 13.420,172.840 13.600,172.400 13.600 C 171.960 13.600,171.600 13.780,171.600 14.000 C 171.600 14.220,171.240 14.400,170.800 14.400 C 170.360 14.400,170.000 14.580,170.000 14.800 C 170.000 15.020,169.640 15.200,169.200 15.200 C 168.760 15.200,168.400 15.380,168.400 15.600 C 168.400 15.820,168.040 16.000,167.600 16.000 C 167.160 16.000,166.800 16.180,166.800 16.400 C 166.800 16.620,166.440 16.800,166.000 16.800 C 165.560 16.800,165.200 16.980,165.200 17.200 C 165.200 17.420,164.935 17.600,164.612 17.600 C 164.289 17.600,163.383 17.960,162.600 18.400 C 161.817 18.840,160.911 19.200,160.588 19.200 C 160.265 19.200,160.000 19.380,160.000 19.600 C 160.000 19.820,159.640 20.000,159.200 20.000 C 158.760 20.000,158.400 20.180,158.400 20.400 C 158.400 20.620,158.040 20.800,157.600 20.800 C 157.160 20.800,156.800 20.980,156.800 21.200 C 156.800 21.420,156.440 21.600,156.000 21.600 C 155.560 21.600,155.200 21.780,155.200 22.000 C 155.200 22.220,154.840 22.400,154.400 22.400 C 153.960 22.400,153.600 22.580,153.600 22.800 C 153.600 23.020,153.240 23.200,152.800 23.200 C 152.360 23.200,152.000 23.380,152.000 23.600 C 152.000 23.820,151.640 24.000,151.200 24.000 C 150.760 24.000,150.400 24.180,150.400 24.400 C 150.400 24.620,150.122 24.800,149.782 24.800 C 149.028 24.800,141.454 28.428,141.267 28.879 C 141.193 29.055,140.912 29.200,140.642 29.200 C 140.149 29.200,137.942 30.157,135.062 31.619 C 134.216 32.049,133.271 32.400,132.962 32.400 C 132.653 32.400,132.400 32.580,132.400 32.800 C 132.400 33.020,132.040 33.200,131.600 33.200 C 131.160 33.200,130.800 33.380,130.800 33.600 C 130.800 33.820,130.440 34.000,130.000 34.000 C 129.560 34.000,129.200 34.180,129.200 34.400 C 129.200 34.620,128.840 34.800,128.400 34.800 C 127.960 34.800,127.600 34.946,127.600 35.125 C 127.600 35.304,126.970 35.698,126.200 36.000 C 125.430 36.302,124.800 36.696,124.800 36.875 C 124.800 37.054,124.440 37.200,124.000 37.200 C 123.560 37.200,123.200 37.380,123.200 37.600 C 123.200 37.820,122.840 38.000,122.400 38.000 C 121.960 38.000,121.600 38.180,121.600 38.400 C 121.600 38.620,121.240 38.800,120.800 38.800 C 120.360 38.800,120.000 38.980,120.000 39.200 C 120.000 39.420,119.640 39.600,119.200 39.600 C 118.760 39.600,118.400 39.780,118.400 40.000 C 118.400 40.220,118.040 40.400,117.600 40.400 C 117.160 40.400,116.800 40.536,116.800 40.703 C 116.800 40.869,116.059 41.237,115.153 41.519 C 114.247 41.802,112.223 42.656,110.654 43.417 C 109.086 44.177,107.577 44.800,107.301 44.800 C 107.026 44.800,106.800 44.980,106.800 45.200 C 106.800 45.420,106.440 45.600,106.000 45.600 C 105.560 45.600,105.200 45.780,105.200 46.000 C 105.200 46.220,104.840 46.400,104.400 46.400 C 103.960 46.400,103.600 46.580,103.600 46.800 C 103.600 47.020,103.240 47.200,102.800 47.200 C 102.360 47.200,102.000 47.380,102.000 47.600 C 102.000 47.820,101.640 48.000,101.200 48.000 C 100.760 48.000,100.400 48.180,100.400 48.400 C 100.400 48.620,100.040 48.800,99.600 48.800 C 99.160 48.800,98.800 48.980,98.800 49.200 C 98.800 49.420,98.440 49.600,98.000 49.600 C 97.560 49.600,97.200 49.780,97.200 50.000 C 97.200 50.220,96.840 50.400,96.400 50.400 C 95.960 50.400,95.600 50.580,95.600 50.800 C 95.600 51.020,95.240 51.200,94.800 51.200 C 94.360 51.200,94.000 51.380,94.000 51.600 C 94.000 51.820,93.640 52.000,93.200 52.000 C 92.760 52.000,92.400 52.136,92.400 52.302 C 92.400 52.469,91.815 52.840,91.100 53.129 C 90.385 53.417,89.487 53.821,89.105 54.026 C 88.723 54.232,88.138 54.400,87.805 54.400 C 87.472 54.400,87.200 54.580,87.200 54.800 C 87.200 55.020,86.840 55.200,86.400 55.200 C 85.960 55.200,85.600 55.380,85.600 55.600 C 85.600 55.820,85.240 56.000,84.800 56.000 C 84.360 56.000,84.000 56.180,84.000 56.400 C 84.000 56.620,83.640 56.800,83.200 56.800 C 82.760 56.800,82.400 56.980,82.400 57.200 C 82.400 57.420,82.040 57.600,81.600 57.600 C 81.160 57.600,80.800 57.780,80.800 58.000 C 80.800 58.220,80.535 58.400,80.211 58.400 C 79.472 58.400,75.047 60.457,74.867 60.884 C 74.793 61.058,74.388 61.200,73.967 61.200 C 73.545 61.200,73.200 61.380,73.200 61.600 C 73.200 61.820,72.840 62.000,72.400 62.000 C 71.960 62.000,71.600 62.180,71.600 62.400 C 71.600 62.620,71.240 62.800,70.800 62.800 C 70.360 62.800,70.000 62.980,70.000 63.200 C 70.000 63.420,69.640 63.600,69.200 63.600 C 68.760 63.600,68.400 63.780,68.400 64.000 C 68.400 64.220,68.147 64.400,67.838 64.400 C 67.529 64.400,66.584 64.739,65.738 65.153 C 64.892 65.567,63.300 66.332,62.200 66.853 C 61.100 67.374,60.140 67.935,60.067 68.100 C 59.993 68.265,59.588 68.400,59.167 68.400 C 58.745 68.400,58.400 68.580,58.400 68.800 C 58.400 69.020,58.040 69.200,57.600 69.200 C 57.160 69.200,56.800 69.380,56.800 69.600 C 56.800 69.820,56.440 70.000,56.000 70.000 C 55.560 70.000,55.200 70.180,55.200 70.400 C 55.200 70.620,54.840 70.800,54.400 70.800 C 53.960 70.800,53.600 70.980,53.600 71.200 C 53.600 71.420,53.240 71.600,52.800 71.600 C 52.360 71.600,52.000 71.780,52.000 72.000 C 52.000 72.220,51.640 72.400,51.200 72.400 C 50.760 72.400,50.400 72.580,50.400 72.800 C 50.400 73.020,50.164 73.200,49.875 73.200 C 49.587 73.200,49.002 73.515,48.575 73.900 C 48.149 74.285,47.313 74.851,46.717 75.158 C 45.386 75.845,38.800 82.639,38.800 83.326 C 38.800 83.600,38.440 84.083,38.000 84.400 C 37.560 84.717,37.200 85.257,37.200 85.600 C 37.200 85.943,36.840 86.483,36.400 86.800 C 35.960 87.117,35.600 87.697,35.600 88.088 C 35.600 88.480,35.420 88.800,35.200 88.800 C 34.980 88.800,34.800 89.160,34.800 89.600 C 34.800 90.040,34.620 90.400,34.400 90.400 C 34.180 90.400,34.000 90.760,34.000 91.200 C 34.000 91.640,33.820 92.000,33.600 92.000 C 33.380 92.000,33.200 92.439,33.200 92.976 C 33.200 93.513,33.020 94.064,32.800 94.200 C 32.580 94.336,32.400 94.876,32.400 95.400 C 32.400 95.924,32.220 96.464,32.000 96.600 C 31.780 96.736,31.600 97.647,31.600 98.624 C 31.600 99.601,31.420 100.400,31.200 100.400 C 30.980 100.400,30.800 101.120,30.800 102.000 C 30.800 102.880,30.620 103.600,30.400 103.600 C 30.180 103.600,30.000 104.399,30.000 105.376 C 30.000 106.353,29.820 107.264,29.600 107.400 C 29.380 107.536,29.200 108.256,29.200 109.000 C 29.200 109.744,29.020 110.464,28.800 110.600 C 28.580 110.736,28.400 111.647,28.400 112.624 C 28.400 113.601,28.220 114.400,28.000 114.400 C 27.780 114.400,27.600 115.109,27.600 115.976 C 27.600 116.843,27.420 117.664,27.200 117.800 C 26.980 117.936,26.800 118.721,26.800 119.544 C 26.800 120.367,26.638 121.211,26.441 121.420 C 26.244 121.629,25.978 122.520,25.850 123.400 C 25.723 124.280,25.402 126.485,25.137 128.300 C 24.873 130.115,24.509 131.600,24.328 131.600 C 24.148 131.600,24.000 132.399,24.000 133.376 C 24.000 134.353,23.820 135.264,23.600 135.400 C 23.380 135.536,23.200 136.357,23.200 137.224 C 23.200 138.091,23.020 138.800,22.800 138.800 C 22.580 138.800,22.400 139.509,22.400 140.376 C 22.400 141.243,22.220 142.064,22.000 142.200 C 21.780 142.336,21.600 143.157,21.600 144.024 C 21.600 144.891,21.420 145.600,21.200 145.600 C 20.980 145.600,20.800 146.410,20.800 147.400 C 20.800 148.390,20.620 149.200,20.400 149.200 C 20.180 149.200,20.000 150.010,20.000 151.000 C 20.000 151.990,19.820 152.800,19.600 152.800 C 19.380 152.800,19.200 153.509,19.200 154.376 C 19.200 155.243,19.020 156.064,18.800 156.200 C 18.580 156.336,18.400 157.146,18.400 158.000 C 18.400 158.854,18.220 159.664,18.000 159.800 C 17.780 159.936,17.600 160.746,17.600 161.600 C 17.600 162.454,17.420 163.264,17.200 163.400 C 16.980 163.536,16.800 164.357,16.800 165.224 C 16.800 166.091,16.620 166.800,16.400 166.800 C 16.180 166.800,16.000 167.509,16.000 168.376 C 16.000 169.243,15.820 170.064,15.600 170.200 C 15.380 170.336,15.200 171.247,15.200 172.224 C 15.200 173.201,15.020 174.000,14.800 174.000 C 14.580 174.000,14.400 174.709,14.400 175.576 C 14.400 176.443,14.220 177.264,14.000 177.400 C 13.780 177.536,13.600 178.357,13.600 179.224 C 13.600 180.091,13.438 180.800,13.240 180.800 C 13.042 180.800,12.772 181.610,12.640 182.600 C 12.508 183.590,12.292 185.210,12.160 186.200 C 12.028 187.190,11.776 188.000,11.600 188.000 C 11.424 188.000,11.184 188.765,11.066 189.700 C 10.728 192.378,10.374 194.134,9.998 195.000 C 9.635 195.834,9.522 196.451,8.734 201.900 C 8.471 203.715,8.109 205.200,7.928 205.200 C 7.748 205.200,7.600 206.100,7.600 207.200 C 7.600 208.300,7.420 209.200,7.200 209.200 C 6.980 209.200,6.800 209.920,6.800 210.800 C 6.800 211.680,6.620 212.400,6.400 212.400 C 6.180 212.400,6.000 213.210,6.000 214.200 C 6.000 215.190,5.820 216.000,5.600 216.000 C 5.380 216.000,5.200 216.720,5.200 217.600 C 5.200 218.480,5.020 219.200,4.800 219.200 C 4.580 219.200,4.400 220.100,4.400 221.200 C 4.400 222.300,4.220 223.200,4.000 223.200 C 3.780 223.200,3.600 223.920,3.600 224.800 C 3.600 225.680,3.420 226.400,3.200 226.400 C 2.980 226.400,2.800 227.210,2.800 228.200 C 2.800 229.190,2.620 230.000,2.400 230.000 C 2.180 230.000,2.000 230.709,2.000 231.576 C 2.000 232.443,1.820 233.264,1.600 233.400 C 1.380 233.536,1.200 234.256,1.200 235.000 C 1.200 235.744,1.020 236.464,0.800 236.600 C 0.260 236.934,0.260 252.666,0.800 253.000 C 1.020 253.136,1.200 253.957,1.200 254.824 C 1.200 255.691,1.380 256.400,1.600 256.400 C 1.820 256.400,2.000 256.940,2.000 257.600 C 2.000 258.260,2.180 258.800,2.400 258.800 C 2.620 258.800,2.800 259.340,2.800 260.000 C 2.800 260.660,2.980 261.200,3.200 261.200 C 3.420 261.200,3.600 261.560,3.600 262.000 C 3.600 262.440,3.780 262.800,4.000 262.800 C 4.220 262.800,4.400 263.160,4.400 263.600 C 4.400 264.040,4.580 264.400,4.800 264.400 C 5.020 264.400,5.200 264.760,5.200 265.200 C 5.200 265.640,5.380 266.000,5.600 266.000 C 5.820 266.000,6.000 266.360,6.000 266.800 C 6.000 267.240,6.180 267.600,6.400 267.600 C 6.620 267.600,6.800 267.870,6.800 268.200 C 6.800 268.530,6.980 268.800,7.200 268.800 C 7.420 268.800,7.600 269.070,7.600 269.400 C 7.600 269.730,7.741 270.000,7.914 270.000 C 8.086 270.000,8.565 270.585,8.978 271.300 C 9.695 272.541,10.931 274.056,14.422 277.969 C 15.290 278.941,16.000 279.901,16.000 280.100 C 16.000 280.300,16.720 281.154,17.600 282.000 C 18.480 282.846,19.200 283.746,19.200 284.000 C 19.200 284.254,19.920 285.154,20.800 286.000 C 21.680 286.846,22.400 287.731,22.400 287.969 C 22.400 288.206,22.580 288.400,22.800 288.400 C 23.020 288.400,23.200 288.604,23.200 288.853 C 23.200 289.102,23.517 289.597,23.904 289.953 C 24.292 290.309,25.138 291.320,25.784 292.200 C 26.430 293.080,27.247 294.070,27.598 294.400 C 27.950 294.730,28.672 295.630,29.204 296.400 C 29.735 297.170,30.671 298.277,31.285 298.860 C 31.898 299.444,32.400 300.097,32.400 300.312 C 32.400 300.527,33.120 301.445,34.000 302.352 C 34.880 303.259,35.600 304.089,35.600 304.196 C 35.600 304.467,36.756 305.856,38.300 307.440 C 39.015 308.173,39.600 308.887,39.600 309.026 C 39.600 309.165,40.113 309.758,40.741 310.345 C 41.368 310.931,42.164 311.948,42.510 312.605 C 42.856 313.262,43.873 314.603,44.770 315.584 C 45.666 316.565,46.400 317.524,46.400 317.715 C 46.400 317.906,47.120 318.754,48.000 319.600 C 48.880 320.446,49.600 321.318,49.600 321.538 C 49.600 321.758,50.320 322.644,51.200 323.507 C 52.080 324.369,52.800 325.207,52.800 325.369 C 52.800 325.531,53.520 326.354,54.400 327.200 C 55.280 328.046,56.000 328.949,56.000 329.208 C 56.000 329.467,56.495 330.156,57.100 330.740 C 57.706 331.323,58.740 332.610,59.400 333.600 C 60.060 334.590,61.094 335.877,61.700 336.460 C 62.305 337.044,62.800 337.687,62.800 337.890 C 62.800 338.093,63.517 338.966,64.393 339.830 C 65.270 340.693,65.990 341.549,65.993 341.731 C 65.997 341.914,66.720 342.754,67.600 343.600 C 68.480 344.446,69.200 345.300,69.200 345.498 C 69.200 345.696,70.100 346.822,71.200 348.000 C 72.300 349.178,73.200 350.314,73.200 350.524 C 73.200 350.734,73.527 351.197,73.926 351.553 C 74.326 351.909,75.403 353.190,76.319 354.400 C 78.943 357.864,80.089 359.255,81.700 360.934 C 82.525 361.793,83.200 362.669,83.200 362.880 C 83.200 363.090,83.920 363.954,84.800 364.800 C 85.680 365.646,86.400 366.546,86.400 366.800 C 86.400 367.054,87.120 367.954,88.000 368.800 C 88.880 369.646,89.600 370.505,89.600 370.709 C 89.600 370.914,90.095 371.607,90.700 372.250 C 91.305 372.892,92.331 374.134,92.979 375.009 C 93.628 375.884,94.447 376.870,94.798 377.200 C 95.150 377.530,95.875 378.430,96.410 379.200 C 97.636 380.965,98.629 381.959,100.400 383.193 C 101.170 383.730,102.250 384.626,102.800 385.185 C 103.350 385.743,104.295 386.455,104.900 386.768 C 105.505 387.080,106.000 387.485,106.000 387.668 C 106.000 387.850,106.278 388.000,106.617 388.000 C 106.956 388.000,107.609 388.350,108.068 388.777 C 109.228 389.858,113.019 391.600,114.211 391.600 C 114.755 391.600,115.200 391.780,115.200 392.000 C 115.200 392.220,115.740 392.400,116.400 392.400 C 117.060 392.400,117.600 392.580,117.600 392.800 C 117.600 393.020,118.320 393.200,119.200 393.200 C 120.080 393.200,120.800 393.380,120.800 393.600 C 120.800 393.865,146.933 394.000,198.400 394.000 C 249.867 394.000,276.000 393.865,276.000 393.600 C 276.000 393.380,276.709 393.200,277.576 393.200 C 278.443 393.200,279.264 393.020,279.400 392.800 C 279.536 392.580,280.166 392.400,280.800 392.400 C 281.434 392.400,282.064 392.220,282.200 392.000 C 282.336 391.780,282.738 391.600,283.094 391.600 C 283.721 391.600,289.598 388.876,290.000 388.399 C 290.110 388.268,290.830 387.721,291.600 387.184 C 293.269 386.018,301.200 378.157,301.200 377.668 C 301.200 377.481,301.965 376.512,302.900 375.515 C 303.835 374.518,305.140 373.017,305.800 372.180 C 306.460 371.343,307.225 370.433,307.500 370.158 C 307.775 369.882,308.000 369.450,308.000 369.197 C 308.000 368.944,308.720 368.046,309.600 367.200 C 310.480 366.354,311.200 365.500,311.200 365.302 C 311.200 365.104,312.100 363.978,313.200 362.800 C 314.300 361.622,315.200 360.496,315.200 360.298 C 315.200 360.100,315.920 359.246,316.800 358.400 C 317.680 357.554,318.400 356.759,318.400 356.632 C 318.400 356.505,319.120 355.659,320.000 354.752 C 320.880 353.845,321.600 352.946,321.600 352.753 C 321.600 352.560,322.206 351.759,322.947 350.974 C 323.688 350.189,324.543 349.063,324.847 348.473 C 325.151 347.883,326.075 346.739,326.900 345.931 C 327.725 345.124,328.400 344.254,328.400 344.000 C 328.400 343.746,329.120 342.846,330.000 342.000 C 330.880 341.154,331.600 340.341,331.600 340.192 C 331.600 340.043,332.102 339.444,332.715 338.860 C 333.329 338.277,334.271 337.170,334.809 336.400 C 335.347 335.630,336.375 334.409,337.093 333.687 C 337.812 332.964,338.400 332.218,338.400 332.029 C 338.400 331.840,338.941 331.081,339.601 330.342 C 341.433 328.295,341.600 328.067,341.600 327.606 C 341.600 327.371,342.365 326.385,343.300 325.415 C 346.649 321.938,348.000 320.380,348.000 319.993 C 348.000 319.777,348.180 319.600,348.400 319.600 C 348.620 319.600,348.800 319.420,348.800 319.200 C 348.800 318.981,349.520 318.059,350.400 317.152 C 351.280 316.245,352.000 315.327,352.000 315.112 C 352.000 314.897,352.502 314.244,353.115 313.660 C 353.729 313.077,354.670 311.970,355.207 311.200 C 355.743 310.430,356.547 309.404,356.991 308.919 C 358.265 307.532,358.800 306.851,358.800 306.617 C 358.800 306.498,359.520 305.659,360.400 304.752 C 361.280 303.845,362.000 302.931,362.000 302.720 C 362.000 302.510,362.720 301.646,363.600 300.800 C 364.480 299.954,365.200 299.054,365.200 298.800 C 365.200 298.546,365.920 297.646,366.800 296.800 C 367.680 295.954,368.400 295.090,368.400 294.880 C 368.400 294.669,369.075 293.794,369.900 292.936 C 370.725 292.078,371.877 290.751,372.459 289.988 C 373.042 289.225,373.897 288.203,374.359 287.717 C 374.822 287.231,375.200 286.632,375.200 286.385 C 375.200 286.139,375.920 285.246,376.800 284.400 C 377.680 283.554,378.400 282.700,378.400 282.502 C 378.400 282.304,379.300 281.178,380.400 280.000 C 381.500 278.822,382.400 277.696,382.400 277.498 C 382.400 277.300,383.120 276.446,384.000 275.600 C 384.880 274.754,385.600 273.959,385.600 273.832 C 385.600 273.705,386.320 272.837,387.200 271.903 C 388.080 270.969,388.800 270.069,388.800 269.903 C 388.800 269.737,389.430 268.934,390.200 268.118 C 390.970 267.301,391.600 266.393,391.600 266.100 C 391.600 265.807,391.960 265.180,392.400 264.708 C 392.840 264.236,393.200 263.613,393.200 263.325 C 393.200 263.036,393.380 262.800,393.600 262.800 C 393.820 262.800,394.000 262.440,394.000 262.000 C 394.000 261.560,394.180 261.200,394.400 261.200 C 394.620 261.200,394.800 260.840,394.800 260.400 C 394.800 259.960,394.980 259.600,395.200 259.600 C 395.420 259.600,395.600 259.328,395.600 258.995 C 395.600 258.662,395.780 258.032,396.000 257.595 C 396.220 257.158,396.580 256.442,396.800 256.005 C 397.020 255.568,397.200 254.668,397.200 254.005 C 397.200 253.342,397.380 252.800,397.600 252.800 C 397.820 252.800,398.000 251.900,398.000 250.800 C 398.000 249.700,398.180 248.800,398.400 248.800 C 398.641 248.800,398.800 247.141,398.800 244.624 C 398.800 242.271,398.625 240.339,398.400 240.200 C 398.180 240.064,398.000 239.153,398.000 238.176 C 398.000 237.199,397.820 236.400,397.600 236.400 C 397.380 236.400,397.200 235.860,397.200 235.200 C 397.200 234.540,397.020 234.000,396.800 234.000 C 396.580 234.000,396.400 233.190,396.400 232.200 C 396.400 231.210,396.220 230.400,396.000 230.400 C 395.780 230.400,395.600 229.691,395.600 228.824 C 395.600 227.957,395.420 227.136,395.200 227.000 C 394.980 226.864,394.800 226.144,394.800 225.400 C 394.800 224.656,394.620 223.936,394.400 223.800 C 394.180 223.664,394.000 222.753,394.000 221.776 C 394.000 220.799,393.820 220.000,393.600 220.000 C 393.380 220.000,393.200 219.291,393.200 218.424 C 393.200 217.557,393.020 216.736,392.800 216.600 C 392.580 216.464,392.400 215.553,392.400 214.576 C 392.400 213.599,392.252 212.800,392.072 212.800 C 391.784 212.800,391.326 210.309,390.547 204.500 C 390.422 203.565,390.158 202.800,389.960 202.800 C 389.762 202.800,389.600 202.001,389.600 201.024 C 389.600 200.047,389.420 199.136,389.200 199.000 C 388.980 198.864,388.800 198.043,388.800 197.176 C 388.800 196.309,388.620 195.600,388.400 195.600 C 388.180 195.600,388.000 194.790,388.000 193.800 C 388.000 192.810,387.820 192.000,387.600 192.000 C 387.380 192.000,387.200 191.280,387.200 190.400 C 387.200 189.520,387.020 188.800,386.800 188.800 C 386.580 188.800,386.400 187.900,386.400 186.800 C 386.400 185.700,386.220 184.800,386.000 184.800 C 385.780 184.800,385.600 184.080,385.600 183.200 C 385.600 182.320,385.420 181.600,385.200 181.600 C 384.980 181.600,384.800 180.801,384.800 179.824 C 384.800 178.847,384.620 177.936,384.400 177.800 C 384.180 177.664,384.000 176.933,384.000 176.176 C 384.000 175.419,383.820 174.800,383.600 174.800 C 383.380 174.800,383.200 173.900,383.200 172.800 C 383.200 171.700,383.020 170.800,382.800 170.800 C 382.580 170.800,382.400 170.080,382.400 169.200 C 382.400 168.320,382.220 167.600,382.000 167.600 C 381.780 167.600,381.600 166.700,381.600 165.600 C 381.600 164.500,381.420 163.600,381.200 163.600 C 380.980 163.600,380.800 162.880,380.800 162.000 C 380.800 161.120,380.620 160.400,380.400 160.400 C 380.180 160.400,380.000 159.590,380.000 158.600 C 380.000 157.610,379.820 156.800,379.600 156.800 C 379.380 156.800,379.200 156.080,379.200 155.200 C 379.200 154.320,379.020 153.600,378.800 153.600 C 378.580 153.600,378.400 152.700,378.400 151.600 C 378.400 150.500,378.220 149.600,378.000 149.600 C 377.780 149.600,377.600 148.880,377.600 148.000 C 377.600 147.120,377.420 146.400,377.200 146.400 C 376.980 146.400,376.800 145.590,376.800 144.600 C 376.800 143.610,376.620 142.800,376.400 142.800 C 376.180 142.800,376.000 142.080,376.000 141.200 C 376.000 140.320,375.820 139.600,375.600 139.600 C 375.380 139.600,375.192 138.835,375.183 137.900 C 375.173 136.965,374.982 135.390,374.758 134.400 C 374.179 131.845,373.596 128.848,373.338 127.100 C 373.216 126.275,372.955 125.600,372.758 125.600 C 372.561 125.600,372.400 124.801,372.400 123.824 C 372.400 122.847,372.220 121.936,372.000 121.800 C 371.780 121.664,371.600 120.843,371.600 119.976 C 371.600 119.109,371.420 118.400,371.200 118.400 C 370.980 118.400,370.800 117.601,370.800 116.624 C 370.800 115.647,370.620 114.736,370.400 114.600 C 370.180 114.464,370.000 113.744,370.000 113.000 C 370.000 112.256,369.820 111.536,369.600 111.400 C 369.380 111.264,369.200 110.353,369.200 109.376 C 369.200 108.399,369.020 107.600,368.800 107.600 C 368.580 107.600,368.400 106.880,368.400 106.000 C 368.400 105.120,368.220 104.400,368.000 104.400 C 367.780 104.400,367.600 103.601,367.600 102.624 C 367.600 101.647,367.420 100.736,367.200 100.600 C 366.980 100.464,366.800 99.643,366.800 98.776 C 366.800 97.909,366.620 97.200,366.400 97.200 C 366.180 97.200,366.000 96.480,366.000 95.600 C 366.000 94.720,365.820 94.000,365.600 94.000 C 365.380 94.000,365.200 93.550,365.200 93.000 C 365.200 92.450,365.020 92.000,364.800 92.000 C 364.580 92.000,364.400 91.460,364.400 90.800 C 364.400 90.140,364.220 89.600,364.000 89.600 C 363.780 89.600,363.600 89.240,363.600 88.800 C 363.600 88.360,363.420 88.000,363.200 88.000 C 362.980 88.000,362.800 87.680,362.800 87.288 C 362.800 86.897,362.440 86.317,362.000 86.000 C 361.560 85.683,361.200 85.143,361.200 84.800 C 361.200 84.457,360.840 83.917,360.400 83.600 C 359.960 83.283,359.600 82.816,359.600 82.562 C 359.600 81.798,354.886 76.928,352.981 75.724 C 352.002 75.106,351.201 74.465,351.201 74.300 C 351.200 74.135,350.840 74.000,350.400 74.000 C 349.960 74.000,349.600 73.853,349.600 73.674 C 349.600 73.208,346.469 71.600,345.562 71.600 C 345.143 71.600,344.800 71.420,344.800 71.200 C 344.800 70.980,344.440 70.800,344.000 70.800 C 343.560 70.800,343.200 70.620,343.200 70.400 C 343.200 70.180,342.840 70.000,342.400 70.000 C 341.960 70.000,341.600 69.820,341.600 69.600 C 341.600 69.380,341.240 69.200,340.800 69.200 C 340.360 69.200,340.000 69.020,340.000 68.800 C 340.000 68.580,339.640 68.400,339.200 68.400 C 338.760 68.400,338.400 68.220,338.400 68.000 C 338.400 67.780,338.135 67.600,337.812 67.600 C 337.489 67.600,336.583 67.240,335.800 66.800 C 335.017 66.360,334.111 66.000,333.788 66.000 C 333.465 66.000,333.200 65.820,333.200 65.600 C 333.200 65.380,332.840 65.200,332.400 65.200 C 331.960 65.200,331.600 65.020,331.600 64.800 C 331.600 64.580,331.240 64.400,330.800 64.400 C 330.360 64.400,330.000 64.220,330.000 64.000 C 330.000 63.780,329.640 63.600,329.200 63.600 C 328.760 63.600,328.400 63.420,328.400 63.200 C 328.400 62.980,328.040 62.800,327.600 62.800 C 327.160 62.800,326.800 62.620,326.800 62.400 C 326.800 62.180,326.455 62.000,326.033 62.000 C 325.612 62.000,325.207 61.856,325.133 61.679 C 324.950 61.238,318.953 58.400,318.205 58.400 C 317.872 58.400,317.600 58.220,317.600 58.000 C 317.600 57.780,317.240 57.600,316.800 57.600 C 316.360 57.600,316.000 57.420,316.000 57.200 C 316.000 56.980,315.640 56.800,315.200 56.800 C 314.760 56.800,314.400 56.620,314.400 56.400 C 314.400 56.180,314.128 56.000,313.795 56.000 C 313.462 56.000,312.832 55.820,312.395 55.600 C 311.958 55.380,311.242 55.020,310.805 54.800 C 310.368 54.580,309.738 54.400,309.405 54.400 C 309.072 54.400,308.800 54.220,308.800 54.000 C 308.800 53.780,308.530 53.600,308.200 53.600 C 307.870 53.600,307.600 53.420,307.600 53.200 C 307.600 52.980,307.240 52.800,306.800 52.800 C 306.360 52.800,306.000 52.620,306.000 52.400 C 306.000 52.180,305.640 52.000,305.200 52.000 C 304.760 52.000,304.400 51.820,304.400 51.600 C 304.400 51.380,304.040 51.200,303.600 51.200 C 303.160 51.200,302.800 51.020,302.800 50.800 C 302.800 50.580,302.440 50.400,302.000 50.400 C 301.560 50.400,301.200 50.220,301.200 50.000 C 301.200 49.780,300.840 49.600,300.400 49.600 C 299.960 49.600,299.600 49.420,299.600 49.200 C 299.600 48.980,299.240 48.800,298.800 48.800 C 298.360 48.800,298.000 48.620,298.000 48.400 C 298.000 48.180,297.640 48.000,297.200 48.000 C 296.760 48.000,296.400 47.820,296.400 47.600 C 296.400 47.380,296.040 47.200,295.600 47.200 C 295.160 47.200,294.800 47.020,294.800 46.800 C 294.800 46.580,294.440 46.400,294.000 46.400 C 293.560 46.400,293.200 46.220,293.200 46.000 C 293.200 45.780,292.955 45.600,292.656 45.600 C 292.357 45.600,291.052 45.078,289.756 44.440 C 288.460 43.802,286.680 42.983,285.800 42.620 C 284.920 42.258,283.887 41.790,283.505 41.581 C 283.123 41.371,282.538 41.200,282.205 41.200 C 281.872 41.200,281.600 41.020,281.600 40.800 C 281.600 40.580,281.240 40.400,280.800 40.400 C 280.360 40.400,280.000 40.220,280.000 40.000 C 280.000 39.780,279.640 39.600,279.200 39.600 C 278.760 39.600,278.400 39.420,278.400 39.200 C 278.400 38.980,278.040 38.800,277.600 38.800 C 277.160 38.800,276.800 38.620,276.800 38.400 C 276.800 38.180,276.440 38.000,276.000 38.000 C 275.560 38.000,275.200 37.854,275.200 37.675 C 275.200 37.496,274.570 37.102,273.800 36.800 C 273.030 36.498,272.400 36.104,272.400 35.925 C 272.400 35.746,272.040 35.600,271.600 35.600 C 271.160 35.600,270.800 35.420,270.800 35.200 C 270.800 34.980,270.555 34.800,270.256 34.800 C 269.957 34.800,268.562 34.238,267.156 33.551 C 265.750 32.864,263.908 31.964,263.062 31.551 C 262.216 31.138,261.271 30.800,260.962 30.800 C 260.653 30.800,260.400 30.620,260.400 30.400 C 260.400 30.180,260.055 30.000,259.633 30.000 C 259.212 30.000,258.807 29.856,258.733 29.679 C 258.544 29.222,249.386 24.800,248.629 24.800 C 248.283 24.800,248.000 24.620,248.000 24.400 C 248.000 24.180,247.640 24.000,247.200 24.000 C 246.760 24.000,246.400 23.820,246.400 23.600 C 246.400 23.380,246.040 23.200,245.600 23.200 C 245.160 23.200,244.800 23.020,244.800 22.800 C 244.800 22.580,244.440 22.400,244.000 22.400 C 243.560 22.400,243.200 22.220,243.200 22.000 C 243.200 21.780,242.840 21.600,242.400 21.600 C 241.960 21.600,241.600 21.420,241.600 21.200 C 241.600 20.980,241.335 20.800,241.012 20.800 C 240.689 20.800,239.783 20.440,239.000 20.000 C 238.217 19.560,237.311 19.200,236.988 19.200 C 236.665 19.200,236.400 19.020,236.400 18.800 C 236.400 18.580,236.040 18.400,235.600 18.400 C 235.160 18.400,234.800 18.220,234.800 18.000 C 234.800 17.780,234.440 17.600,234.000 17.600 C 233.560 17.600,233.200 17.420,233.200 17.200 C 233.200 16.980,232.840 16.800,232.400 16.800 C 231.960 16.800,231.600 16.620,231.600 16.400 C 231.600 16.180,231.240 16.000,230.800 16.000 C 230.360 16.000,230.000 15.820,230.000 15.600 C 230.000 15.380,229.640 15.200,229.200 15.200 C 228.760 15.200,228.400 15.020,228.400 14.800 C 228.400 14.580,228.040 14.400,227.600 14.400 C 227.160 14.400,226.800 14.220,226.800 14.000 C 226.800 13.780,226.440 13.600,226.000 13.600 C 225.560 13.600,225.200 13.420,225.200 13.200 C 225.200 12.980,224.840 12.800,224.400 12.800 C 223.960 12.800,223.600 12.664,223.600 12.498 C 223.600 12.331,223.015 11.935,222.300 11.616 C 216.574 9.065,214.858 8.409,213.900 8.405 C 213.295 8.402,212.800 8.220,212.800 8.000 C 212.800 7.780,212.260 7.600,211.600 7.600 C 210.940 7.600,210.400 7.420,210.400 7.200 C 210.400 6.980,209.860 6.800,209.200 6.800 C 208.540 6.800,208.000 6.620,208.000 6.400 C 208.000 6.180,207.370 6.000,206.600 6.000 C 205.830 6.000,205.200 5.820,205.200 5.600 C 205.200 5.349,202.600 5.200,198.200 5.200 C 193.800 5.200,191.200 5.349,191.200 5.600 M205.635 24.045 C 207.777 24.504,210.695 25.807,223.000 31.795 C 234.564 37.423,243.053 41.533,248.200 43.996 C 250.840 45.259,256.240 47.870,260.200 49.797 C 264.160 51.724,269.920 54.517,273.000 56.004 C 284.080 61.352,291.122 64.761,298.200 68.204 C 302.160 70.131,307.560 72.741,310.200 74.004 C 338.984 87.777,340.229 88.475,344.670 93.334 C 347.713 96.664,348.974 99.416,350.425 105.900 C 350.659 106.945,351.008 108.430,351.200 109.200 C 351.525 110.502,351.810 111.749,352.778 116.100 C 352.986 117.035,353.516 119.330,353.956 121.200 C 355.419 127.413,355.950 129.735,357.803 138.000 C 358.815 142.510,360.002 147.730,360.442 149.600 C 361.256 153.062,362.147 156.921,362.796 159.800 C 362.994 160.680,363.536 163.020,364.000 165.000 C 364.872 168.720,365.369 170.901,366.053 174.000 C 366.272 174.990,366.608 176.430,366.800 177.200 C 367.125 178.502,367.410 179.749,368.378 184.100 C 368.586 185.035,369.116 187.330,369.556 189.200 C 370.629 193.759,371.055 195.605,374.633 211.200 C 377.772 224.883,378.006 225.918,378.743 229.400 C 378.976 230.500,379.424 232.390,379.740 233.600 C 382.715 245.001,380.977 252.144,372.720 262.440 C 370.674 264.992,368.460 267.765,367.800 268.602 C 367.140 269.440,366.150 270.671,365.600 271.337 C 365.050 272.004,356.050 283.205,345.600 296.227 C 280.772 377.017,285.601 371.197,281.800 373.108 C 276.878 375.581,283.252 375.388,202.200 375.518 C 121.021 375.649,126.304 375.799,120.545 373.199 C 114.226 370.347,113.261 369.379,99.207 351.800 C 93.228 344.320,88.031 337.840,87.660 337.400 C 87.289 336.960,83.392 332.100,79.001 326.600 C 74.610 321.100,70.923 316.510,70.808 316.400 C 70.694 316.290,69.972 315.390,69.206 314.400 C 67.658 312.402,67.231 311.868,65.200 309.382 C 64.430 308.440,63.248 306.978,62.573 306.134 C 48.239 288.215,28.077 263.091,26.192 260.800 C 21.033 254.532,19.679 251.336,19.333 244.600 C 19.122 240.496,19.291 238.816,20.399 234.000 C 20.576 233.230,20.897 231.790,21.111 230.800 C 21.326 229.810,22.693 223.780,24.150 217.400 C 25.607 211.020,27.247 203.820,27.794 201.400 C 28.707 197.360,29.878 192.203,30.791 188.200 C 30.992 187.320,31.536 184.980,32.000 183.000 C 32.464 181.020,33.014 178.635,33.222 177.700 C 33.430 176.765,33.770 175.235,33.978 174.300 C 34.186 173.365,34.736 170.980,35.200 169.000 C 35.664 167.020,36.214 164.635,36.422 163.700 C 36.630 162.765,36.980 161.190,37.200 160.200 C 37.420 159.210,37.781 157.635,38.003 156.700 C 38.224 155.765,39.753 149.060,41.399 141.800 C 44.601 127.679,45.797 122.409,46.413 119.700 C 46.626 118.765,46.970 117.235,47.178 116.300 C 47.386 115.365,47.936 112.980,48.400 111.000 C 49.387 106.789,49.789 105.006,50.430 102.000 C 51.579 96.614,52.781 94.389,56.622 90.545 L 59.874 87.291 71.755 81.445 C 78.290 78.230,83.700 75.600,83.776 75.600 C 83.853 75.600,88.300 73.462,93.658 70.848 C 104.355 65.631,112.630 61.623,120.600 57.799 C 123.460 56.427,129.040 53.728,133.000 51.803 C 143.814 46.544,152.800 42.192,158.600 39.403 C 161.460 38.029,167.040 35.327,171.000 33.400 C 187.904 25.173,189.049 24.661,191.600 24.173 C 194.916 23.540,202.937 23.466,205.635 24.045 M196.235 69.613 C 191.870 71.791,190.357 76.267,191.777 82.800 C 192.528 86.251,193.598 95.601,193.599 98.713 C 193.600 101.108,192.909 103.045,191.655 104.162 C 191.060 104.692,190.800 105.395,190.800 106.471 C 190.800 108.413,190.541 108.525,184.048 109.375 C 171.987 110.954,160.099 114.962,149.000 121.192 C 145.537 123.135,137.229 128.764,136.000 129.999 C 135.890 130.110,134.630 131.189,133.200 132.398 C 131.770 133.608,129.437 135.707,128.015 137.065 L 125.429 139.533 124.353 138.767 C 123.688 138.293,122.610 138.000,121.531 138.000 C 118.882 138.000,116.445 136.117,108.859 128.211 C 99.628 118.590,96.803 117.150,91.985 119.608 C 84.958 123.192,87.551 131.856,97.130 136.798 C 104.928 140.821,112.296 146.623,112.675 149.038 C 112.812 149.905,113.429 151.186,114.064 151.917 L 115.206 153.235 114.161 155.117 C 113.587 156.153,112.979 157.180,112.811 157.400 C 112.080 158.358,108.732 164.905,107.267 168.241 C 103.735 176.283,101.400 184.550,99.540 195.594 C 99.027 198.645,98.822 213.405,99.200 220.198 L 99.400 223.797 98.109 224.216 C 97.399 224.446,96.199 225.358,95.442 226.242 C 93.289 228.757,91.494 229.171,75.600 230.814 C 64.606 231.950,59.663 237.060,63.396 243.430 C 66.189 248.195,71.250 248.577,80.000 244.682 C 87.218 241.470,96.125 239.375,98.034 240.441 C 98.565 240.738,100.064 241.075,101.364 241.190 L 103.729 241.400 104.835 244.485 C 112.044 264.595,125.873 282.315,143.526 294.061 C 145.877 295.625,147.938 297.028,148.106 297.179 C 148.275 297.329,148.119 298.041,147.760 298.760 C 147.225 299.833,147.181 300.439,147.516 302.132 C 148.191 305.551,145.976 310.185,138.190 321.643 C 135.199 326.044,135.000 326.565,135.000 329.994 C 135.000 338.617,144.926 340.520,149.782 332.829 C 150.309 331.994,151.645 328.631,152.750 325.355 C 156.608 313.919,158.294 310.559,160.897 309.124 C 161.831 308.609,162.820 307.718,163.095 307.145 C 164.032 305.190,164.382 305.138,168.067 306.399 C 188.483 313.388,213.586 313.321,233.550 306.222 C 235.975 305.360,236.219 305.412,237.200 307.001 C 237.677 307.771,238.481 308.506,238.989 308.633 C 241.671 309.306,243.669 313.544,248.861 329.575 C 250.923 335.942,257.158 339.451,261.600 336.744 C 266.777 333.589,266.814 327.393,261.696 320.918 C 255.605 313.213,251.586 304.429,252.767 301.403 C 252.951 300.934,252.858 300.080,252.543 299.326 C 251.886 297.754,252.122 297.055,253.522 296.419 C 254.115 296.149,256.400 294.646,258.600 293.077 C 274.568 281.691,287.359 265.216,294.373 247.000 C 295.305 244.580,296.239 242.172,296.448 241.650 C 296.775 240.833,297.023 240.731,298.219 240.926 C 299.156 241.078,300.206 240.887,301.441 240.341 C 304.173 239.132,311.946 240.916,320.400 244.692 C 328.624 248.365,334.336 247.552,337.040 242.322 C 338.199 240.082,336.431 236.280,333.268 234.206 C 330.901 232.655,328.580 232.083,322.000 231.428 C 308.437 230.080,306.035 229.497,303.800 227.015 C 302.920 226.038,301.718 225.123,301.129 224.983 C 299.682 224.638,299.662 224.516,300.086 218.800 C 301.658 197.596,296.349 175.580,285.184 157.000 C 283.391 154.016,283.394 154.051,284.747 152.655 C 285.589 151.785,286.000 150.966,286.000 150.153 C 286.000 147.670,290.826 143.743,300.759 138.144 C 307.965 134.083,310.484 131.082,310.505 126.535 C 310.531 120.757,304.066 117.352,298.884 120.414 C 297.940 120.971,293.800 124.767,289.684 128.849 C 281.581 136.883,279.491 138.437,276.916 138.336 C 275.799 138.292,274.906 138.555,274.015 139.189 L 272.728 140.106 270.264 137.720 C 263.687 131.354,259.228 127.797,252.972 123.929 C 247.675 120.653,240.190 116.905,235.600 115.230 C 234.830 114.949,233.840 114.565,233.400 114.376 C 230.083 112.952,219.411 110.263,214.400 109.588 C 208.116 108.741,208.229 108.788,207.980 106.938 C 207.857 106.027,207.305 104.765,206.730 104.082 C 205.001 102.027,204.960 93.411,206.637 84.465 C 208.744 73.217,203.635 65.920,196.235 69.613 M188.654 135.700 C 188.293 143.656,187.638 155.202,187.183 161.613 C 186.973 164.591,186.800 168.124,186.800 169.465 C 186.800 173.499,184.975 176.618,182.050 177.584 C 179.009 178.587,177.849 178.105,170.414 172.743 C 166.645 170.024,162.354 166.944,160.880 165.899 C 145.747 155.165,142.804 152.987,142.802 152.525 C 142.796 150.974,155.542 141.607,162.200 138.270 C 165.385 136.674,166.588 136.122,169.800 134.785 C 172.866 133.509,179.463 131.659,183.800 130.858 C 185.120 130.615,186.560 130.343,187.000 130.254 C 188.999 129.851,188.930 129.621,188.654 135.700 M213.923 130.811 C 214.955 131.038,216.700 131.414,217.800 131.649 C 223.101 132.777,231.077 135.727,236.344 138.507 C 243.384 142.224,255.250 151.129,255.185 152.648 C 255.173 152.927,229.569 171.407,222.697 176.096 C 219.295 178.418,216.429 178.308,213.594 175.747 C 211.483 173.840,211.631 174.956,210.393 151.600 C 210.153 147.090,209.789 140.635,209.582 137.256 C 209.117 129.646,209.051 129.744,213.923 130.811 M139.239 176.600 C 143.911 180.780,148.648 185.027,149.766 186.039 C 150.885 187.050,153.960 189.800,156.600 192.150 C 162.306 197.229,162.906 198.129,162.698 201.305 C 162.383 206.149,161.347 206.713,143.800 211.600 C 143.140 211.784,140.080 212.684,137.000 213.600 C 131.337 215.285,130.209 215.614,127.500 216.377 C 124.070 217.344,123.293 217.568,121.091 218.226 C 118.137 219.109,118.225 219.259,118.057 213.068 C 117.684 199.305,121.595 183.184,128.151 171.461 C 130.064 168.040,129.252 167.664,139.239 176.600 M270.769 173.438 C 274.949 181.752,277.637 190.422,279.253 200.800 C 279.769 204.119,279.970 218.163,279.508 218.626 C 279.347 218.787,276.917 218.247,274.108 217.426 C 271.298 216.606,268.370 215.759,267.600 215.545 C 266.830 215.330,265.660 214.995,265.000 214.800 C 264.340 214.605,263.125 214.255,262.300 214.023 C 261.475 213.790,260.215 213.435,259.500 213.234 C 237.955 207.165,237.091 206.816,235.765 203.651 C 234.063 199.589,234.767 198.414,243.762 190.286 C 247.954 186.499,252.287 182.563,253.392 181.541 C 261.841 173.719,267.488 168.824,267.969 168.905 C 268.281 168.957,269.541 170.997,270.769 173.438 M204.847 197.928 C 205.665 198.272,212.800 207.164,212.800 207.839 C 212.800 208.115,212.421 210.199,211.957 212.471 C 211.493 214.742,210.976 217.282,210.808 218.116 C 210.418 220.046,210.930 219.674,204.530 222.683 L 199.018 225.275 195.415 223.538 C 187.559 219.748,187.918 220.004,187.356 217.796 C 185.703 211.293,185.200 209.089,185.200 208.341 C 185.200 207.550,189.372 201.725,191.963 198.900 L 193.155 197.600 198.677 197.628 C 201.715 197.644,204.491 197.779,204.847 197.928 M237.600 232.004 C 238.810 232.206,240.880 232.552,242.200 232.772 C 245.017 233.241,248.986 233.921,251.800 234.416 C 252.900 234.610,254.970 234.962,256.400 235.200 C 257.830 235.438,259.900 235.782,261.000 235.965 C 262.100 236.149,265.462 236.707,268.470 237.207 C 275.323 238.346,275.068 238.183,274.189 240.853 C 270.165 253.079,257.682 268.924,245.522 277.242 C 242.538 279.283,242.794 279.431,240.798 274.500 C 239.840 272.135,238.655 269.300,238.163 268.200 C 237.672 267.100,236.699 264.760,236.003 263.000 C 235.306 261.240,234.480 259.215,234.168 258.500 C 233.855 257.785,233.345 256.615,233.032 255.900 C 232.720 255.185,231.894 253.160,231.197 251.400 C 230.499 249.640,229.603 247.480,229.204 246.600 C 225.086 237.508,225.636 233.767,231.400 231.664 C 232.579 231.234,233.201 231.268,237.600 232.004 M167.027 232.185 C 170.868 233.790,172.305 238.334,170.353 242.704 C 168.900 245.959,168.501 246.906,167.200 250.200 C 166.068 253.064,165.567 254.268,164.367 257.000 C 163.345 259.327,155.892 277.503,155.715 278.100 C 155.362 279.286,154.508 278.911,150.281 275.712 C 139.106 267.255,129.965 255.306,124.219 241.647 C 122.826 238.335,122.267 238.624,133.600 236.795 C 134.810 236.600,136.880 236.242,138.200 236.000 C 139.520 235.758,141.590 235.395,142.800 235.194 C 150.052 233.988,152.671 233.544,157.200 232.750 C 164.655 231.444,165.181 231.414,167.027 232.185 M200.954 249.007 C 203.259 249.970,204.513 251.622,208.649 259.143 C 210.784 263.024,212.926 266.920,213.410 267.800 C 213.893 268.680,214.876 270.480,215.594 271.800 C 216.311 273.120,217.214 274.740,217.599 275.400 C 218.577 277.073,220.168 279.967,222.487 284.297 L 224.468 287.994 223.334 288.426 C 211.918 292.773,193.607 293.252,178.637 289.596 C 172.559 288.112,172.736 288.726,176.455 282.000 C 179.424 276.631,180.725 274.263,183.597 269.000 C 190.378 256.576,193.309 251.367,193.884 250.720 C 195.628 248.756,198.620 248.031,200.954 249.007 " stroke="none" fill="#fafbfb" fill-rule="evenodd"></path><path id="path1" d="M191.600 24.173 C 189.049 24.661,187.904 25.173,171.000 33.400 C 167.040 35.327,161.460 38.029,158.600 39.403 C 152.800 42.192,143.814 46.544,133.000 51.803 C 129.040 53.728,123.460 56.427,120.600 57.799 C 112.630 61.623,104.355 65.631,93.658 70.848 C 88.300 73.462,83.853 75.600,83.776 75.600 C 83.700 75.600,78.290 78.230,71.755 81.445 L 59.874 87.291 56.622 90.545 C 52.781 94.389,51.579 96.614,50.430 102.000 C 49.789 105.006,49.387 106.789,48.400 111.000 C 47.936 112.980,47.386 115.365,47.178 116.300 C 46.970 117.235,46.626 118.765,46.413 119.700 C 45.797 122.409,44.601 127.679,41.399 141.800 C 39.753 149.060,38.224 155.765,38.003 156.700 C 37.781 157.635,37.420 159.210,37.200 160.200 C 36.980 161.190,36.630 162.765,36.422 163.700 C 36.214 164.635,35.664 167.020,35.200 169.000 C 34.736 170.980,34.186 173.365,33.978 174.300 C 33.770 175.235,33.430 176.765,33.222 177.700 C 33.014 178.635,32.464 181.020,32.000 183.000 C 31.536 184.980,30.992 187.320,30.791 188.200 C 29.878 192.203,28.707 197.360,27.794 201.400 C 27.247 203.820,25.607 211.020,24.150 217.400 C 22.693 223.780,21.326 229.810,21.111 230.800 C 20.897 231.790,20.576 233.230,20.399 234.000 C 17.731 245.594,19.175 252.274,26.192 260.800 C 28.077 263.091,48.239 288.215,62.573 306.134 C 63.248 306.978,64.430 308.440,65.200 309.382 C 67.231 311.868,67.658 312.402,69.206 314.400 C 69.972 315.390,70.694 316.290,70.808 316.400 C 70.923 316.510,74.610 321.100,79.001 326.600 C 83.392 332.100,87.289 336.960,87.660 337.400 C 88.031 337.840,93.228 344.320,99.207 351.800 C 114.617 371.075,116.576 372.783,125.800 374.972 C 130.357 376.053,274.754 375.754,278.000 374.656 C 284.451 372.474,284.186 372.751,306.638 344.777 C 317.617 331.097,335.150 309.250,345.600 296.227 C 356.050 283.205,365.050 272.004,365.600 271.337 C 366.150 270.671,367.140 269.440,367.800 268.602 C 368.460 267.765,370.674 264.992,372.720 262.440 C 380.977 252.144,382.715 245.001,379.740 233.600 C 379.424 232.390,378.976 230.500,378.743 229.400 C 378.006 225.918,377.772 224.883,374.633 211.200 C 371.055 195.605,370.629 193.759,369.556 189.200 C 369.116 187.330,368.586 185.035,368.378 184.100 C 367.410 179.749,367.125 178.502,366.800 177.200 C 366.608 176.430,366.272 174.990,366.053 174.000 C 365.369 170.901,364.872 168.720,364.000 165.000 C 363.536 163.020,362.994 160.680,362.796 159.800 C 362.147 156.921,361.256 153.062,360.442 149.600 C 360.002 147.730,358.815 142.510,357.803 138.000 C 355.950 129.735,355.419 127.413,353.956 121.200 C 353.516 119.330,352.986 117.035,352.778 116.100 C 351.810 111.749,351.525 110.502,351.200 109.200 C 351.008 108.430,350.659 106.945,350.425 105.900 C 348.974 99.416,347.713 96.664,344.670 93.334 C 340.229 88.475,338.984 87.777,310.200 74.004 C 307.560 72.741,302.160 70.131,298.200 68.204 C 291.122 64.761,284.080 61.352,273.000 56.004 C 269.920 54.517,264.160 51.724,260.200 49.797 C 256.240 47.870,250.840 45.259,248.200 43.996 C 243.053 41.533,234.564 37.423,223.000 31.795 C 210.695 25.807,207.777 24.504,205.635 24.045 C 202.937 23.466,194.916 23.540,191.600 24.173 M202.800 69.742 C 206.894 71.832,208.121 76.542,206.637 84.465 C 204.960 93.411,205.001 102.027,206.730 104.082 C 207.305 104.765,207.857 106.027,207.980 106.938 C 208.229 108.788,208.116 108.741,214.400 109.588 C 219.411 110.263,230.083 112.952,233.400 114.376 C 233.840 114.565,234.830 114.949,235.600 115.230 C 240.190 116.905,247.675 120.653,252.972 123.929 C 259.228 127.797,263.687 131.354,270.264 137.720 L 272.728 140.106 274.015 139.189 C 274.906 138.555,275.799 138.292,276.916 138.336 C 279.491 138.437,281.581 136.883,289.684 128.849 C 293.800 124.767,297.940 120.971,298.884 120.414 C 304.066 117.352,310.531 120.757,310.505 126.535 C 310.484 131.082,307.965 134.083,300.759 138.144 C 290.826 143.743,286.000 147.670,286.000 150.153 C 286.000 150.966,285.589 151.785,284.747 152.655 C 283.394 154.051,283.391 154.016,285.184 157.000 C 296.349 175.580,301.658 197.596,300.086 218.800 C 299.662 224.516,299.682 224.638,301.129 224.983 C 301.718 225.123,302.920 226.038,303.800 227.015 C 306.035 229.497,308.437 230.080,322.000 231.428 C 328.580 232.083,330.901 232.655,333.268 234.206 C 336.431 236.280,338.199 240.082,337.040 242.322 C 334.336 247.552,328.624 248.365,320.400 244.692 C 311.946 240.916,304.173 239.132,301.441 240.341 C 300.206 240.887,299.156 241.078,298.219 240.926 C 297.023 240.731,296.775 240.833,296.448 241.650 C 296.239 242.172,295.305 244.580,294.373 247.000 C 287.359 265.216,274.568 281.691,258.600 293.077 C 256.400 294.646,254.115 296.149,253.522 296.419 C 252.122 297.055,251.886 297.754,252.543 299.326 C 252.858 300.080,252.951 300.934,252.767 301.403 C 251.586 304.429,255.605 313.213,261.696 320.918 C 266.814 327.393,266.777 333.589,261.600 336.744 C 257.158 339.451,250.923 335.942,248.861 329.575 C 243.669 313.544,241.671 309.306,238.989 308.633 C 238.481 308.506,237.677 307.771,237.200 307.001 C 236.219 305.412,235.975 305.360,233.550 306.222 C 213.586 313.321,188.483 313.388,168.067 306.399 C 164.382 305.138,164.032 305.190,163.095 307.145 C 162.820 307.718,161.831 308.609,160.897 309.124 C 158.294 310.559,156.608 313.919,152.750 325.355 C 151.645 328.631,150.309 331.994,149.782 332.829 C 144.926 340.520,135.000 338.617,135.000 329.994 C 135.000 326.565,135.199 326.044,138.190 321.643 C 145.976 310.185,148.191 305.551,147.516 302.132 C 147.181 300.439,147.225 299.833,147.760 298.760 C 148.119 298.041,148.275 297.329,148.106 297.179 C 147.938 297.028,145.877 295.625,143.526 294.061 C 125.873 282.315,112.044 264.595,104.835 244.485 L 103.729 241.400 101.364 241.190 C 100.064 241.075,98.565 240.738,98.034 240.441 C 96.125 239.375,87.218 241.470,80.000 244.682 C 71.250 248.577,66.189 248.195,63.396 243.430 C 59.663 237.060,64.606 231.950,75.600 230.814 C 91.494 229.171,93.289 228.757,95.442 226.242 C 96.199 225.358,97.399 224.446,98.109 224.216 L 99.400 223.797 99.200 220.198 C 98.822 213.405,99.027 198.645,99.540 195.594 C 101.400 184.550,103.735 176.283,107.267 168.241 C 108.732 164.905,112.080 158.358,112.811 157.400 C 112.979 157.180,113.587 156.153,114.161 155.117 L 115.206 153.235 114.064 151.917 C 113.429 151.186,112.812 149.905,112.675 149.038 C 112.296 146.623,104.928 140.821,97.130 136.798 C 87.551 131.856,84.958 123.192,91.985 119.608 C 96.803 117.150,99.628 118.590,108.859 128.211 C 116.445 136.117,118.882 138.000,121.531 138.000 C 122.610 138.000,123.688 138.293,124.353 138.767 L 125.429 139.533 128.015 137.065 C 129.437 135.707,131.770 133.608,133.200 132.398 C 134.630 131.189,135.890 130.110,136.000 129.999 C 137.229 128.764,145.537 123.135,149.000 121.192 C 160.099 114.962,171.987 110.954,184.048 109.375 C 190.541 108.525,190.800 108.413,190.800 106.471 C 190.800 105.395,191.060 104.692,191.655 104.162 C 192.909 103.045,193.600 101.108,193.599 98.713 C 193.598 95.601,192.528 86.251,191.777 82.800 C 189.677 73.141,195.635 66.083,202.800 69.742 M187.000 130.254 C 186.560 130.343,185.120 130.615,183.800 130.858 C 179.463 131.659,172.866 133.509,169.800 134.785 C 166.588 136.122,165.385 136.674,162.200 138.270 C 155.542 141.607,142.796 150.974,142.802 152.525 C 142.804 152.987,145.747 155.165,160.880 165.899 C 162.354 166.944,166.645 170.024,170.414 172.743 C 177.849 178.105,179.009 178.587,182.050 177.584 C 184.975 176.618,186.800 173.499,186.800 169.465 C 186.800 168.124,186.973 164.591,187.183 161.613 C 187.638 155.202,188.293 143.656,188.654 135.700 C 188.930 129.621,188.999 129.851,187.000 130.254 M209.427 130.756 C 209.306 130.953,209.376 133.878,209.582 137.256 C 209.789 140.635,210.153 147.090,210.393 151.600 C 211.631 174.956,211.483 173.840,213.594 175.747 C 216.429 178.308,219.295 178.418,222.697 176.096 C 229.569 171.407,255.173 152.927,255.185 152.648 C 255.250 151.129,243.384 142.224,236.344 138.507 C 231.077 135.727,223.101 132.777,217.800 131.649 C 216.700 131.414,214.955 131.038,213.923 130.811 C 211.614 130.305,209.720 130.282,209.427 130.756 M128.151 171.461 C 121.595 183.184,117.684 199.305,118.057 213.068 C 118.225 219.259,118.137 219.109,121.091 218.226 C 123.293 217.568,124.070 217.344,127.500 216.377 C 130.209 215.614,131.337 215.285,137.000 213.600 C 140.080 212.684,143.140 211.784,143.800 211.600 C 161.347 206.713,162.383 206.149,162.698 201.305 C 162.906 198.129,162.306 197.229,156.600 192.150 C 153.960 189.800,150.885 187.050,149.766 186.039 C 138.964 176.272,130.649 168.978,130.205 168.877 C 129.890 168.805,129.034 169.882,128.151 171.461 M261.400 174.246 C 258.100 177.236,254.496 180.518,253.392 181.541 C 252.287 182.563,247.954 186.499,243.762 190.286 C 234.767 198.414,234.063 199.589,235.765 203.651 C 237.091 206.816,237.955 207.165,259.500 213.234 C 260.215 213.435,261.475 213.790,262.300 214.023 C 263.125 214.255,264.340 214.605,265.000 214.800 C 265.660 214.995,266.830 215.330,267.600 215.545 C 268.370 215.759,271.298 216.606,274.108 217.426 C 276.917 218.247,279.347 218.787,279.508 218.626 C 279.970 218.163,279.769 204.119,279.253 200.800 C 277.360 188.642,270.529 169.333,267.969 168.905 C 267.656 168.853,264.700 171.256,261.400 174.246 M191.963 198.900 C 189.372 201.725,185.200 207.550,185.200 208.341 C 185.200 209.089,185.703 211.293,187.356 217.796 C 187.918 220.004,187.559 219.748,195.415 223.538 L 199.018 225.275 204.530 222.683 C 210.930 219.674,210.418 220.046,210.808 218.116 C 210.976 217.282,211.493 214.742,211.957 212.471 C 212.421 210.199,212.800 208.115,212.800 207.839 C 212.800 207.164,205.665 198.272,204.847 197.928 C 204.491 197.779,201.715 197.644,198.677 197.628 L 193.155 197.600 191.963 198.900 M231.400 231.664 C 225.636 233.767,225.086 237.508,229.204 246.600 C 229.603 247.480,230.499 249.640,231.197 251.400 C 231.894 253.160,232.720 255.185,233.032 255.900 C 233.345 256.615,233.855 257.785,234.168 258.500 C 234.480 259.215,235.306 261.240,236.003 263.000 C 236.699 264.760,237.672 267.100,238.163 268.200 C 238.655 269.300,239.840 272.135,240.798 274.500 C 242.794 279.431,242.538 279.283,245.522 277.242 C 257.682 268.924,270.165 253.079,274.189 240.853 C 275.068 238.183,275.323 238.346,268.470 237.207 C 265.462 236.707,262.100 236.149,261.000 235.965 C 259.900 235.782,257.830 235.438,256.400 235.200 C 254.970 234.962,252.900 234.610,251.800 234.416 C 248.986 233.921,245.017 233.241,242.200 232.772 C 240.880 232.552,238.810 232.206,237.600 232.004 C 233.201 231.268,232.579 231.234,231.400 231.664 M161.400 232.032 C 160.300 232.215,158.410 232.538,157.200 232.750 C 152.671 233.544,150.052 233.988,142.800 235.194 C 141.590 235.395,139.520 235.758,138.200 236.000 C 136.880 236.242,134.810 236.600,133.600 236.795 C 122.267 238.624,122.826 238.335,124.219 241.647 C 129.965 255.306,139.106 267.255,150.281 275.712 C 154.508 278.911,155.362 279.286,155.715 278.100 C 155.892 277.503,163.345 259.327,164.367 257.000 C 165.567 254.268,166.068 253.064,167.200 250.200 C 168.501 246.906,168.900 245.959,170.353 242.704 C 172.305 238.334,170.868 233.790,167.027 232.185 C 165.506 231.550,164.470 231.522,161.400 232.032 M196.144 249.220 C 195.233 249.671,194.216 250.346,193.884 250.720 C 193.309 251.367,190.378 256.576,183.597 269.000 C 180.725 274.263,179.424 276.631,176.455 282.000 C 172.736 288.726,172.559 288.112,178.637 289.596 C 193.607 293.252,211.918 292.773,223.334 288.426 L 224.468 287.994 222.487 284.297 C 220.168 279.967,218.577 277.073,217.599 275.400 C 217.214 274.740,216.311 273.120,215.594 271.800 C 214.876 270.480,213.893 268.680,213.410 267.800 C 212.926 266.920,210.784 263.024,208.649 259.143 C 202.960 248.797,200.670 246.980,196.144 249.220 " stroke="none" fill="#346ce4" fill-rule="evenodd"></path></g></svg>