<svg id="svg" version="1.1" xmlns="http://www.w3.org/2000/svg" xmlns:xlink="http://www.w3.org/1999/xlink" width="400" height="400" viewBox="0, 0, 400,400"><g id="svgg"><path id="path0" d="M84.600 92.789 C 81.082 93.434,78.073 95.705,76.636 98.800 L 75.800 100.600 75.695 174.980 C 75.579 257.132,75.416 251.723,78.107 255.252 C 78.827 256.195,80.294 257.413,81.393 257.978 L 83.378 259.000 133.389 259.200 L 183.400 259.400 183.708 270.200 C 184.448 296.168,182.004 299.269,160.919 299.115 C 152.078 299.051,151.243 299.124,145.600 300.470 C 135.522 302.873,130.400 307.490,130.400 314.171 C 130.400 318.636,125.383 318.184,176.317 318.305 C 200.645 318.363,220.689 318.271,220.860 318.100 C 221.030 317.930,220.446 316.892,219.560 315.795 C 210.872 305.028,205.676 293.173,202.731 277.400 C 202.020 273.590,202.017 257.504,202.727 254.000 C 203.794 248.734,204.893 244.139,205.637 241.834 C 206.057 240.533,206.400 239.228,206.400 238.935 C 206.400 238.495,196.924 238.385,151.700 238.301 L 97.000 238.200 96.899 175.900 L 96.797 113.600 199.199 113.600 L 301.600 113.600 301.600 150.551 L 301.600 187.503 302.700 187.885 C 303.305 188.095,305.920 188.963,308.510 189.814 C 311.101 190.665,315.280 192.368,317.798 193.599 C 321.266 195.295,322.428 195.704,322.588 195.286 C 323.042 194.104,322.809 103.283,322.347 101.128 C 321.593 97.610,319.383 94.858,316.052 93.285 C 314.513 92.559,88.499 92.074,84.600 92.789 M274.400 197.408 C 258.591 199.452,245.713 205.593,234.659 216.361 C 223.368 227.359,217.690 238.213,214.341 255.200 C 213.652 258.693,213.647 272.566,214.334 276.000 C 216.243 285.555,217.962 290.768,221.321 297.200 C 242.802 338.328,297.037 346.995,330.336 314.621 C 361.821 284.010,356.548 231.753,319.566 207.896 C 315.967 205.574,308.121 201.600,307.136 201.600 C 306.819 201.600,306.389 201.449,306.180 201.263 C 305.779 200.909,301.441 199.572,298.400 198.867 C 297.410 198.637,296.150 198.345,295.600 198.218 C 289.920 196.907,280.932 196.563,274.400 197.408 M310.497 225.500 C 316.333 231.145,316.389 230.945,306.023 241.400 C 301.661 245.800,297.971 249.797,297.824 250.283 C 297.332 251.908,298.295 253.094,308.658 263.632 C 315.290 270.375,315.542 271.252,311.900 274.908 C 305.237 281.596,305.429 281.622,296.819 272.881 C 275.271 251.008,276.347 252.261,276.975 249.757 C 277.232 248.734,301.300 224.590,303.547 223.103 C 305.715 221.667,306.987 222.105,310.497 225.500 M264.139 255.100 C 287.637 277.719,289.128 279.484,287.139 282.323 C 286.826 282.770,280.879 288.910,273.925 295.968 L 261.280 308.800 259.430 308.800 C 257.663 308.800,257.434 308.658,254.239 305.591 C 248.807 300.376,248.804 300.388,258.600 290.214 C 269.183 279.223,269.183 280.776,258.600 270.544 C 248.279 260.565,248.330 260.733,253.954 255.100 C 257.128 251.921,257.589 251.600,258.976 251.600 C 260.352 251.600,260.862 251.946,264.139 255.100 " stroke="none" fill="#f3f3f3" fill-rule="evenodd"></path><path id="path1" d="M0.000 200.000 L 0.000 400.000 200.000 400.000 L 400.000 400.000 400.000 200.000 L 400.000 0.000 200.000 0.000 L 0.000 0.000 0.000 200.000 M316.052 93.285 C 319.383 94.858,321.593 97.610,322.347 101.128 C 322.809 103.283,323.042 194.104,322.588 195.286 C 322.428 195.704,321.266 195.295,317.798 193.599 C 315.280 192.368,311.101 190.665,308.510 189.814 C 305.920 188.963,303.305 188.095,302.700 187.885 L 301.600 187.503 301.600 150.551 L 301.600 113.600 199.199 113.600 L 96.797 113.600 96.899 175.900 L 97.000 238.200 151.700 238.301 C 196.924 238.385,206.400 238.495,206.400 238.935 C 206.400 239.228,206.057 240.533,205.637 241.834 C 204.893 244.139,203.794 248.734,202.727 254.000 C 202.017 257.504,202.020 273.590,202.731 277.400 C 205.676 293.173,210.872 305.028,219.560 315.795 C 220.446 316.892,221.030 317.930,220.860 318.100 C 220.689 318.271,200.645 318.363,176.317 318.305 C 125.383 318.184,130.400 318.636,130.400 314.171 C 130.400 307.490,135.522 302.873,145.600 300.470 C 151.243 299.124,152.078 299.051,160.919 299.115 C 182.004 299.269,184.448 296.168,183.708 270.200 L 183.400 259.400 133.389 259.200 L 83.378 259.000 81.393 257.978 C 80.294 257.413,78.827 256.195,78.107 255.252 C 75.416 251.723,75.579 257.132,75.695 174.980 L 75.800 100.600 76.636 98.800 C 78.073 95.705,81.082 93.434,84.600 92.789 C 88.499 92.074,314.513 92.559,316.052 93.285 M290.000 197.397 C 292.530 197.722,295.050 198.091,295.600 198.218 C 296.150 198.345,297.410 198.637,298.400 198.867 C 301.441 199.572,305.779 200.909,306.180 201.263 C 306.389 201.449,306.819 201.600,307.136 201.600 C 307.453 201.600,309.608 202.519,311.925 203.642 C 336.237 215.427,350.869 238.767,350.853 265.735 C 350.849 272.246,350.642 274.515,349.572 279.800 C 345.433 300.234,331.069 318.489,312.000 327.550 C 306.766 330.037,301.810 331.709,295.800 333.016 C 286.140 335.116,274.068 334.701,264.200 331.930 C 239.433 324.974,220.771 305.328,215.252 280.400 C 213.981 274.661,213.815 272.937,213.821 265.600 C 213.828 257.585,214.252 254.173,216.083 247.400 C 224.796 215.160,257.267 193.195,290.000 197.397 M303.547 223.103 C 301.300 224.590,277.232 248.734,276.975 249.757 C 276.451 251.845,277.208 252.946,283.731 259.581 C 307.656 283.921,304.585 282.250,311.900 274.908 C 315.542 271.252,315.290 270.375,308.658 263.632 C 298.295 253.094,297.332 251.908,297.824 250.283 C 297.971 249.797,301.661 245.800,306.023 241.400 C 316.389 230.945,316.333 231.145,310.497 225.500 C 306.987 222.105,305.715 221.667,303.547 223.103 M253.954 255.100 C 248.330 260.733,248.279 260.565,258.600 270.544 C 269.183 280.776,269.183 279.223,258.600 290.214 C 248.804 300.388,248.807 300.376,254.239 305.591 C 257.434 308.658,257.663 308.800,259.430 308.800 L 261.280 308.800 273.925 295.968 C 288.252 281.429,287.709 282.062,287.709 279.888 C 287.709 278.299,287.508 278.068,277.742 268.433 C 260.288 251.214,260.719 251.600,258.976 251.600 C 257.589 251.600,257.128 251.921,253.954 255.100 " stroke="none" fill="#d44424" fill-rule="evenodd"></path></g></svg>