<svg id="svg" version="1.1" xmlns="http://www.w3.org/2000/svg" xmlns:xlink="http://www.w3.org/1999/xlink" width="400" height="400" viewBox="0, 0, 400,400"><g id="svgg"><path id="path0" d="M286.800 35.200 C 286.800 35.453,283.878 35.600,278.833 35.600 C 274.053 35.600,270.813 35.755,270.733 35.987 C 270.654 36.217,267.538 36.393,263.100 36.419 C 255.932 36.461,255.600 36.497,255.600 37.247 C 255.600 39.184,254.780 58.663,254.352 66.910 L 253.879 76.019 254.809 77.010 C 256.292 78.588,256.920 78.300,264.559 72.540 C 268.541 69.538,272.078 67.006,272.418 66.915 C 272.772 66.820,275.505 68.716,278.818 71.355 C 285.571 76.733,286.307 77.103,287.841 75.896 L 288.920 75.048 288.648 67.024 C 288.499 62.611,288.212 53.690,288.009 47.200 C 287.806 40.710,287.632 35.265,287.620 35.100 C 287.589 34.645,286.800 34.741,286.800 35.200 M189.800 91.233 C 180.400 91.799,171.415 93.484,165.400 95.810 C 164.520 96.150,163.468 96.538,163.062 96.671 C 147.717 101.707,133.542 118.006,129.965 134.727 C 124.230 161.538,133.716 184.081,157.600 200.398 C 162.600 203.814,165.958 206.000,166.205 206.000 C 166.341 206.000,167.043 206.450,167.764 207.000 C 168.486 207.550,169.179 208.000,169.305 208.000 C 169.431 208.000,171.394 209.099,173.667 210.442 C 175.940 211.785,178.790 213.434,180.000 214.107 C 181.210 214.780,182.830 215.683,183.600 216.113 C 204.097 227.565,211.015 235.178,210.942 246.200 C 210.873 256.678,204.329 261.962,193.311 260.439 C 185.080 259.301,182.323 256.598,179.604 247.000 C 179.354 246.120,179.045 242.172,178.916 238.226 C 178.693 231.422,178.634 231.008,177.768 230.205 C 173.072 225.853,132.241 225.762,127.591 230.094 C 126.512 231.100,126.297 244.381,127.256 250.800 C 127.470 252.230,127.742 254.210,127.861 255.200 C 129.974 272.809,143.101 289.352,160.600 296.459 C 186.160 306.839,222.616 303.878,242.803 289.782 C 247.981 286.167,258.000 275.658,258.000 273.843 C 258.000 273.701,258.419 272.913,258.931 272.092 C 264.238 263.582,267.406 240.907,264.394 232.985 C 264.177 232.415,264.000 231.522,264.000 231.002 C 264.000 225.028,256.416 210.987,249.015 203.261 C 243.875 197.894,228.126 186.000,226.160 186.000 C 226.063 186.000,225.313 185.581,224.492 185.069 C 222.997 184.135,220.352 182.680,214.000 179.295 C 212.130 178.299,209.700 177.000,208.600 176.408 C 187.834 165.244,181.756 158.794,181.832 148.000 C 181.880 141.303,183.697 137.898,188.529 135.454 C 192.297 133.547,200.565 133.090,203.509 134.626 C 204.109 134.939,204.800 135.196,205.044 135.198 C 206.087 135.203,209.238 138.579,210.386 140.921 C 212.242 144.707,212.791 147.291,213.035 153.400 C 213.340 161.024,213.568 161.329,219.800 162.448 C 228.535 164.016,254.277 161.906,260.906 159.078 C 262.954 158.205,262.991 157.998,262.430 150.651 C 260.302 122.824,249.378 105.901,227.400 96.382 C 226.960 96.192,225.250 95.594,223.600 95.053 C 213.974 91.899,201.727 90.515,189.800 91.233 " stroke="none" fill="#fcfbfb" fill-rule="evenodd"></path><path id="path1" d="M305.000 34.000 C 305.162 34.262,302.211 34.400,296.445 34.400 L 287.643 34.400 287.841 42.900 C 287.950 47.575,288.210 54.850,288.420 59.066 C 289.433 79.487,289.278 79.685,278.818 71.355 C 275.505 68.716,272.772 66.820,272.418 66.915 C 272.078 67.006,268.541 69.538,264.559 72.540 C 256.920 78.300,256.292 78.588,254.809 77.010 L 253.879 76.019 254.352 66.910 C 254.790 58.470,255.600 39.169,255.600 37.153 C 255.600 36.329,255.556 36.316,254.869 36.938 C 254.242 37.505,253.044 37.600,246.492 37.600 C 241.827 37.600,238.751 37.756,238.600 38.000 C 238.449 38.244,235.412 38.400,230.825 38.400 C 224.622 38.400,223.210 38.506,222.800 39.000 C 222.389 39.495,220.955 39.600,214.575 39.600 C 209.854 39.600,206.751 39.756,206.600 40.000 C 206.449 40.244,203.343 40.400,198.619 40.400 C 192.114 40.400,190.849 40.495,190.655 41.000 C 190.461 41.506,189.166 41.600,182.413 41.600 C 177.338 41.600,174.400 41.747,174.400 42.000 C 174.400 42.253,171.533 42.400,166.600 42.400 C 159.933 42.400,158.800 42.487,158.800 43.000 C 158.800 43.509,145.057 44.052,142.670 43.637 C 142.489 43.606,142.455 43.765,142.594 43.990 C 142.764 44.265,140.274 44.400,135.056 44.400 C 127.315 44.400,125.796 44.547,126.232 45.252 C 126.357 45.454,126.311 45.594,126.130 45.563 C 124.506 45.280,110.401 45.678,110.600 46.000 C 110.762 46.262,108.096 46.400,102.900 46.400 C 96.532 46.400,94.799 46.517,94.176 46.987 C 93.558 47.455,91.839 47.577,85.724 47.587 C 81.052 47.595,77.950 47.757,77.800 48.000 C 77.662 48.223,75.796 48.400,73.576 48.400 C 70.308 48.400,69.600 48.507,69.600 49.000 C 69.600 49.421,69.175 49.600,68.171 49.600 C 67.386 49.600,66.492 49.825,66.185 50.100 C 64.862 51.287,64.409 51.600,64.017 51.600 C 63.788 51.600,63.600 51.780,63.600 52.000 C 63.600 52.220,63.330 52.400,63.000 52.400 C 62.670 52.400,62.400 52.592,62.400 52.827 C 62.400 53.062,61.770 53.848,61.000 54.574 C 60.230 55.300,59.600 56.259,59.600 56.704 C 59.600 57.150,59.330 57.618,59.000 57.745 C 58.649 57.879,58.400 58.479,58.400 59.187 C 58.400 59.854,58.220 60.400,58.000 60.400 C 57.742 60.400,57.600 64.925,57.600 73.176 C 57.600 81.263,57.747 86.044,58.000 86.200 C 58.254 86.357,58.400 91.254,58.400 99.575 C 58.400 110.755,58.489 112.776,59.000 113.200 C 59.511 113.624,59.600 115.669,59.600 127.049 C 59.600 135.683,59.741 140.400,60.000 140.400 C 60.258 140.400,60.400 144.990,60.400 153.371 C 60.400 164.368,60.491 166.434,61.000 166.943 C 61.509 167.452,61.600 169.526,61.600 180.595 C 61.600 189.195,61.736 193.563,62.000 193.400 C 62.263 193.237,62.416 197.507,62.446 205.876 C 62.472 212.874,62.534 218.780,62.585 219.000 C 62.636 219.220,62.706 219.636,62.739 219.924 C 62.773 220.212,62.980 220.336,63.200 220.200 C 63.513 220.006,63.933 245.088,63.647 246.900 C 63.621 247.065,63.780 247.200,64.000 247.200 C 64.258 247.200,64.400 251.752,64.400 260.056 C 64.400 271.814,64.460 272.961,65.100 273.486 C 65.528 273.837,65.567 273.947,65.200 273.771 C 64.713 273.537,64.694 273.584,65.100 274.021 C 65.478 274.429,65.600 277.658,65.600 287.280 C 65.600 295.493,65.742 300.000,66.000 300.000 C 66.259 300.000,66.400 304.717,66.400 313.351 C 66.400 324.731,66.489 326.776,67.000 327.200 C 67.497 327.612,67.600 329.069,67.600 335.649 C 67.600 340.683,67.747 343.600,68.000 343.600 C 68.220 343.600,68.400 344.230,68.400 345.000 C 68.400 345.978,68.581 346.400,69.000 346.400 C 69.373 346.400,69.600 346.778,69.600 347.400 C 69.600 347.950,69.780 348.400,70.000 348.400 C 70.220 348.400,70.400 348.670,70.400 349.000 C 70.400 349.330,70.593 349.600,70.829 349.600 C 71.382 349.600,72.400 350.618,72.400 351.171 C 72.400 351.407,72.593 351.600,72.829 351.600 C 73.332 351.600,74.399 352.597,74.403 353.071 C 74.407 353.440,76.305 354.400,77.031 354.400 C 77.290 354.400,77.726 354.670,78.000 355.000 C 78.286 355.345,79.158 355.600,80.049 355.600 C 80.902 355.600,81.600 355.780,81.600 356.000 C 81.600 356.255,84.938 356.400,90.813 356.400 C 98.632 356.400,100.060 356.491,100.255 357.000 C 100.452 357.513,102.072 357.600,111.443 357.600 C 118.481 357.600,122.400 357.743,122.400 358.000 C 122.400 358.257,126.317 358.400,133.351 358.400 C 142.597 358.400,144.380 358.493,144.800 359.000 C 145.220 359.506,146.980 359.600,156.049 359.600 C 162.492 359.600,166.800 359.751,166.800 359.976 C 166.800 360.201,171.167 360.366,177.640 360.387 C 186.616 360.416,188.581 360.524,189.068 361.011 C 189.558 361.501,191.503 361.600,200.629 361.600 C 207.676 361.600,211.600 361.743,211.600 362.000 C 211.600 362.257,215.476 362.400,222.429 362.400 C 231.521 362.400,233.353 362.496,233.857 363.000 C 234.360 363.503,236.162 363.600,245.005 363.600 C 251.605 363.600,255.645 363.750,255.800 364.000 C 255.955 364.251,260.208 364.400,267.236 364.400 C 276.813 364.400,278.458 364.486,278.655 365.000 C 278.853 365.514,280.558 365.600,290.619 365.600 C 298.382 365.600,302.441 365.742,302.612 366.020 C 302.923 366.523,309.200 366.450,309.200 365.944 C 309.200 365.755,310.190 365.600,311.400 365.600 C 313.089 365.600,313.600 365.461,313.600 365.000 C 313.600 364.627,313.978 364.400,314.600 364.400 C 315.150 364.400,315.600 364.220,315.600 364.000 C 315.600 363.780,315.935 363.600,316.344 363.600 C 316.753 363.600,317.426 363.150,317.839 362.600 C 318.252 362.050,318.817 361.600,319.095 361.600 C 319.373 361.600,319.600 361.407,319.600 361.171 C 319.600 360.668,320.597 359.601,321.071 359.597 C 321.442 359.593,322.400 357.694,322.400 356.963 C 322.400 356.700,322.670 356.382,323.000 356.255 C 323.347 356.122,323.600 355.524,323.600 354.836 C 323.600 354.182,323.780 353.536,324.000 353.400 C 324.555 353.057,324.555 47.343,324.000 47.000 C 323.780 46.864,323.600 46.328,323.600 45.809 C 323.600 44.520,323.191 43.558,322.758 43.826 C 322.561 43.948,322.400 43.712,322.400 43.303 C 322.400 42.360,321.505 40.407,321.071 40.403 C 320.597 40.399,319.600 39.332,319.600 38.829 C 319.600 38.593,319.373 38.400,319.095 38.400 C 318.817 38.400,318.252 37.950,317.839 37.400 C 317.426 36.850,316.753 36.400,316.344 36.400 C 315.935 36.400,315.600 36.220,315.600 36.000 C 315.600 35.780,315.150 35.600,314.600 35.600 C 313.978 35.600,313.600 35.373,313.600 35.000 C 313.600 34.528,313.042 34.400,310.976 34.400 C 309.329 34.400,308.445 34.251,308.600 34.000 C 308.753 33.753,308.063 33.600,306.800 33.600 C 305.537 33.600,304.847 33.753,305.000 34.000 M207.000 91.628 C 214.106 92.360,222.781 94.382,227.400 96.382 C 249.378 105.901,260.302 122.824,262.430 150.651 C 262.991 157.998,262.954 158.205,260.906 159.078 C 254.277 161.906,228.535 164.016,219.800 162.448 C 213.568 161.329,213.340 161.024,213.035 153.400 C 212.791 147.291,212.242 144.707,210.386 140.921 C 209.238 138.579,206.087 135.203,205.044 135.198 C 204.800 135.196,204.109 134.939,203.509 134.626 C 200.565 133.090,192.297 133.547,188.529 135.454 C 183.697 137.898,181.880 141.303,181.832 148.000 C 181.756 158.794,187.834 165.244,208.600 176.408 C 209.700 177.000,212.130 178.299,214.000 179.295 C 220.352 182.680,222.997 184.135,224.492 185.069 C 225.313 185.581,226.063 186.000,226.160 186.000 C 228.126 186.000,243.875 197.894,249.015 203.261 C 256.416 210.987,264.000 225.028,264.000 231.002 C 264.000 231.522,264.177 232.415,264.394 232.985 C 267.406 240.907,264.238 263.582,258.931 272.092 C 258.419 272.913,258.000 273.701,258.000 273.843 C 258.000 274.623,253.364 280.306,250.037 283.605 C 235.895 297.628,214.568 304.084,188.600 302.203 C 164.615 300.465,149.789 293.956,138.486 280.199 C 134.032 274.778,128.707 262.249,127.861 255.200 C 127.742 254.210,127.470 252.230,127.256 250.800 C 126.297 244.381,126.512 231.100,127.591 230.094 C 132.241 225.762,173.072 225.853,177.768 230.205 C 178.634 231.008,178.693 231.422,178.916 238.226 C 179.045 242.172,179.354 246.120,179.604 247.000 C 182.323 256.598,185.080 259.301,193.311 260.439 C 204.329 261.962,210.873 256.678,210.942 246.200 C 211.015 235.178,204.097 227.565,183.600 216.113 C 182.830 215.683,181.210 214.780,180.000 214.107 C 178.790 213.434,175.940 211.785,173.667 210.442 C 171.394 209.099,169.431 208.000,169.305 208.000 C 169.179 208.000,168.486 207.550,167.764 207.000 C 167.043 206.450,166.341 206.000,166.205 206.000 C 165.958 206.000,162.600 203.814,157.600 200.398 C 133.716 184.081,124.230 161.538,129.965 134.727 C 133.542 118.006,147.717 101.707,163.062 96.671 C 163.468 96.538,164.520 96.150,165.400 95.810 C 175.760 91.804,192.433 90.128,207.000 91.628 " stroke="none" fill="#fc4484" fill-rule="evenodd"></path></g></svg>