<svg id="svg" version="1.1" xmlns="http://www.w3.org/2000/svg" xmlns:xlink="http://www.w3.org/1999/xlink" width="400" height="400" viewBox="0, 0, 400,400"><g id="svgg"><path id="path0" d="M181.200 0.600 C 181.200 1.127,170.597 1.617,167.677 1.225 C 167.390 1.186,167.186 1.390,167.225 1.677 C 167.414 3.090,167.196 3.200,164.200 3.200 C 161.267 3.200,161.200 3.222,161.200 4.200 L 161.200 5.200 156.200 5.200 L 151.200 5.200 151.200 6.200 L 151.200 7.200 147.200 7.200 C 143.216 7.200,143.200 7.204,143.200 8.186 C 143.200 9.158,143.147 9.173,139.300 9.286 C 135.600 9.394,135.393 9.446,135.272 10.300 C 135.153 11.141,134.950 11.200,132.172 11.200 C 129.269 11.200,129.200 11.223,129.200 12.200 C 129.200 13.000,129.000 13.200,128.200 13.200 C 127.400 13.200,127.200 13.400,127.200 14.200 C 127.200 15.178,127.133 15.200,124.200 15.200 C 121.267 15.200,121.200 15.222,121.200 16.200 C 121.200 17.133,121.067 17.200,119.200 17.200 C 117.333 17.200,117.200 17.267,117.200 18.200 C 117.200 19.178,117.133 19.200,114.200 19.200 C 111.267 19.200,111.200 19.222,111.200 20.200 C 111.200 21.133,111.067 21.200,109.200 21.200 C 107.333 21.200,107.200 21.267,107.200 22.200 C 107.200 23.000,107.000 23.200,106.200 23.200 C 105.400 23.200,105.200 23.400,105.200 24.200 C 105.200 25.133,105.067 25.200,103.200 25.200 C 101.333 25.200,101.200 25.267,101.200 26.200 C 101.200 27.133,101.067 27.200,99.200 27.200 C 97.333 27.200,97.200 27.267,97.200 28.200 C 97.200 29.133,97.067 29.200,95.200 29.200 C 93.333 29.200,93.200 29.267,93.200 30.200 C 93.200 31.133,93.067 31.200,91.200 31.200 L 89.200 31.200 89.200 33.200 L 89.200 35.200 87.200 35.200 C 85.345 35.200,85.200 35.271,85.200 36.178 C 85.200 37.061,85.015 37.168,83.300 37.278 C 81.679 37.382,81.381 37.532,81.272 38.300 C 81.180 38.951,80.876 39.200,80.172 39.200 C 79.402 39.200,79.200 39.408,79.200 40.200 C 79.200 41.000,79.000 41.200,78.200 41.200 C 77.400 41.200,77.200 41.400,77.200 42.200 C 77.200 43.000,77.000 43.200,76.200 43.200 C 75.400 43.200,75.200 43.400,75.200 44.200 C 75.200 45.133,75.067 45.200,73.200 45.200 C 71.333 45.200,71.200 45.267,71.200 46.200 C 71.200 47.000,71.000 47.200,70.200 47.200 C 69.400 47.200,69.200 47.400,69.200 48.200 C 69.200 49.000,69.000 49.200,68.200 49.200 C 67.400 49.200,67.200 49.400,67.200 50.200 C 67.200 51.000,67.000 51.200,66.200 51.200 C 65.400 51.200,65.200 51.400,65.200 52.200 C 65.200 53.000,65.000 53.200,64.200 53.200 C 63.400 53.200,63.200 53.400,63.200 54.200 C 63.200 55.000,63.000 55.200,62.200 55.200 C 61.400 55.200,61.200 55.400,61.200 56.200 C 61.200 57.000,61.000 57.200,60.200 57.200 C 59.400 57.200,59.200 57.400,59.200 58.200 C 59.200 59.000,59.000 59.200,58.200 59.200 C 57.400 59.200,57.200 59.400,57.200 60.200 C 57.200 61.000,57.000 61.200,56.200 61.200 C 55.400 61.200,55.200 61.400,55.200 62.200 C 55.200 63.000,55.000 63.200,54.200 63.200 C 53.400 63.200,53.200 63.400,53.200 64.200 C 53.200 65.000,53.000 65.200,52.200 65.200 C 51.400 65.200,51.200 65.400,51.200 66.200 C 51.200 67.000,51.000 67.200,50.200 67.200 C 49.400 67.200,49.200 67.400,49.200 68.200 C 49.200 69.000,49.000 69.200,48.200 69.200 C 47.400 69.200,47.200 69.400,47.200 70.200 C 47.200 71.000,47.000 71.200,46.200 71.200 C 45.267 71.200,45.200 71.333,45.200 73.200 C 45.200 75.067,45.133 75.200,44.200 75.200 C 43.400 75.200,43.200 75.400,43.200 76.200 C 43.200 77.000,43.000 77.200,42.200 77.200 C 41.400 77.200,41.200 77.400,41.200 78.200 C 41.200 79.000,41.000 79.200,40.200 79.200 C 39.400 79.200,39.200 79.400,39.200 80.200 C 39.200 81.000,39.000 81.200,38.200 81.200 C 37.267 81.200,37.200 81.333,37.200 83.200 C 37.200 85.067,37.133 85.200,36.200 85.200 C 35.267 85.200,35.200 85.333,35.200 87.200 L 35.200 89.200 33.200 89.200 L 31.200 89.200 31.200 91.200 C 31.200 93.067,31.133 93.200,30.200 93.200 C 29.267 93.200,29.200 93.333,29.200 95.200 C 29.200 97.067,29.133 97.200,28.200 97.200 C 27.267 97.200,27.200 97.333,27.200 99.200 C 27.200 101.067,27.133 101.200,26.200 101.200 C 25.267 101.200,25.200 101.333,25.200 103.200 C 25.200 105.067,25.133 105.200,24.200 105.200 C 23.400 105.200,23.200 105.400,23.200 106.200 C 23.200 107.000,23.000 107.200,22.200 107.200 C 21.267 107.200,21.200 107.333,21.200 109.200 C 21.200 111.067,21.133 111.200,20.200 111.200 C 19.222 111.200,19.200 111.267,19.200 114.200 C 19.200 117.133,19.178 117.200,18.200 117.200 C 17.267 117.200,17.200 117.333,17.200 119.200 C 17.200 121.067,17.133 121.200,16.200 121.200 C 15.222 121.200,15.200 121.267,15.200 124.200 C 15.200 127.133,15.178 127.200,14.200 127.200 C 13.400 127.200,13.200 127.400,13.200 128.200 C 13.200 129.000,13.000 129.200,12.200 129.200 C 11.223 129.200,11.200 129.269,11.200 132.172 C 11.200 134.950,11.141 135.153,10.300 135.272 C 9.446 135.393,9.394 135.600,9.286 139.300 C 9.173 143.147,9.158 143.200,8.186 143.200 C 7.204 143.200,7.200 143.216,7.200 147.200 L 7.200 151.200 6.200 151.200 L 5.200 151.200 5.200 156.200 L 5.200 161.200 4.200 161.200 C 3.223 161.200,3.200 161.269,3.200 164.172 C 3.200 166.950,3.141 167.153,2.300 167.272 C 1.411 167.398,1.399 167.487,1.291 174.300 C 1.199 180.068,1.084 181.200,0.591 181.200 C 0.078 181.200,0.000 183.689,0.000 200.000 C 0.000 216.444,0.075 218.800,0.600 218.800 C 1.127 218.800,1.617 229.403,1.225 232.323 C 1.186 232.610,1.390 232.814,1.677 232.775 C 3.090 232.586,3.200 232.804,3.200 235.800 C 3.200 238.733,3.222 238.800,4.200 238.800 L 5.200 238.800 5.200 243.800 L 5.200 248.800 6.200 248.800 L 7.200 248.800 7.200 252.800 C 7.200 256.784,7.204 256.800,8.186 256.800 C 9.158 256.800,9.173 256.853,9.286 260.700 C 9.394 264.400,9.446 264.607,10.300 264.728 C 11.141 264.847,11.200 265.050,11.200 267.828 C 11.200 270.731,11.223 270.800,12.200 270.800 C 13.000 270.800,13.200 271.000,13.200 271.800 C 13.200 272.600,13.400 272.800,14.200 272.800 C 15.178 272.800,15.200 272.867,15.200 275.800 C 15.200 278.733,15.222 278.800,16.200 278.800 C 17.133 278.800,17.200 278.933,17.200 280.800 C 17.200 282.667,17.267 282.800,18.200 282.800 C 19.178 282.800,19.200 282.867,19.200 285.800 C 19.200 288.733,19.222 288.800,20.200 288.800 C 21.133 288.800,21.200 288.933,21.200 290.800 C 21.200 292.667,21.267 292.800,22.200 292.800 C 23.000 292.800,23.200 293.000,23.200 293.800 C 23.200 294.600,23.400 294.800,24.200 294.800 C 25.133 294.800,25.200 294.933,25.200 296.800 C 25.200 298.667,25.267 298.800,26.200 298.800 C 27.133 298.800,27.200 298.933,27.200 300.800 C 27.200 302.667,27.267 302.800,28.200 302.800 C 29.133 302.800,29.200 302.933,29.200 304.800 C 29.200 306.667,29.267 306.800,30.200 306.800 C 31.133 306.800,31.200 306.933,31.200 308.800 L 31.200 310.800 33.200 310.800 L 35.200 310.800 35.200 312.800 C 35.200 314.667,35.267 314.800,36.200 314.800 C 37.133 314.800,37.200 314.933,37.200 316.800 C 37.200 318.667,37.267 318.800,38.200 318.800 C 39.000 318.800,39.200 319.000,39.200 319.800 C 39.200 320.600,39.400 320.800,40.200 320.800 C 41.000 320.800,41.200 321.000,41.200 321.800 C 41.200 322.600,41.400 322.800,42.200 322.800 C 43.000 322.800,43.200 323.000,43.200 323.800 C 43.200 324.600,43.400 324.800,44.200 324.800 C 45.133 324.800,45.200 324.933,45.200 326.800 C 45.200 328.667,45.267 328.800,46.200 328.800 C 47.000 328.800,47.200 329.000,47.200 329.800 C 47.200 330.600,47.400 330.800,48.200 330.800 C 49.000 330.800,49.200 331.000,49.200 331.800 C 49.200 332.600,49.400 332.800,50.200 332.800 C 51.000 332.800,51.200 333.000,51.200 333.800 C 51.200 334.600,51.400 334.800,52.200 334.800 C 53.000 334.800,53.200 335.000,53.200 335.800 C 53.200 336.600,53.400 336.800,54.200 336.800 C 55.000 336.800,55.200 337.000,55.200 337.800 C 55.200 338.600,55.400 338.800,56.200 338.800 C 57.000 338.800,57.200 339.000,57.200 339.800 C 57.200 340.600,57.400 340.800,58.200 340.800 C 59.000 340.800,59.200 341.000,59.200 341.800 C 59.200 342.600,59.400 342.800,60.200 342.800 C 61.000 342.800,61.200 343.000,61.200 343.800 C 61.200 344.600,61.400 344.800,62.200 344.800 C 63.000 344.800,63.200 345.000,63.200 345.800 C 63.200 346.600,63.400 346.800,64.200 346.800 C 65.000 346.800,65.200 347.000,65.200 347.800 C 65.200 348.600,65.400 348.800,66.200 348.800 C 67.000 348.800,67.200 349.000,67.200 349.800 C 67.200 350.600,67.400 350.800,68.200 350.800 C 69.000 350.800,69.200 351.000,69.200 351.800 C 69.200 352.600,69.400 352.800,70.200 352.800 C 71.000 352.800,71.200 353.000,71.200 353.800 C 71.200 354.733,71.333 354.800,73.200 354.800 C 75.067 354.800,75.200 354.867,75.200 355.800 C 75.200 356.600,75.400 356.800,76.200 356.800 C 77.000 356.800,77.200 357.000,77.200 357.800 C 77.200 358.600,77.400 358.800,78.200 358.800 C 79.000 358.800,79.200 359.000,79.200 359.800 C 79.200 360.600,79.400 360.800,80.200 360.800 C 81.000 360.800,81.200 361.000,81.200 361.800 C 81.200 362.733,81.333 362.800,83.200 362.800 C 85.067 362.800,85.200 362.867,85.200 363.800 C 85.200 364.733,85.333 364.800,87.200 364.800 L 89.200 364.800 89.200 366.800 L 89.200 368.800 91.200 368.800 C 93.067 368.800,93.200 368.867,93.200 369.800 C 93.200 370.733,93.333 370.800,95.200 370.800 C 97.067 370.800,97.200 370.867,97.200 371.800 C 97.200 372.733,97.333 372.800,99.200 372.800 C 101.067 372.800,101.200 372.867,101.200 373.800 C 101.200 374.733,101.333 374.800,103.200 374.800 C 105.067 374.800,105.200 374.867,105.200 375.800 C 105.200 376.600,105.400 376.800,106.200 376.800 C 107.000 376.800,107.200 377.000,107.200 377.800 C 107.200 378.733,107.333 378.800,109.200 378.800 C 111.067 378.800,111.200 378.867,111.200 379.800 C 111.200 380.733,111.333 380.800,113.200 380.800 C 114.300 380.800,115.200 380.967,115.200 381.171 C 115.200 382.194,116.551 382.800,118.829 382.800 C 121.091 382.800,121.200 382.846,121.200 383.800 C 121.200 384.778,121.267 384.800,124.200 384.800 C 127.133 384.800,127.200 384.822,127.200 385.800 C 127.200 386.600,127.400 386.800,128.200 386.800 C 129.000 386.800,129.200 387.000,129.200 387.800 C 129.200 388.778,129.267 388.800,132.200 388.800 C 135.133 388.800,135.200 388.822,135.200 389.800 C 135.200 390.777,135.269 390.800,138.172 390.800 C 140.950 390.800,141.153 390.859,141.272 391.700 C 141.396 392.570,141.562 392.604,146.300 392.712 L 151.200 392.825 151.200 393.812 L 151.200 394.800 156.200 394.800 L 161.200 394.800 161.200 395.800 C 161.200 396.778,161.267 396.800,164.200 396.800 C 167.133 396.800,167.200 396.822,167.200 397.800 L 167.200 398.800 174.200 398.800 C 180.156 398.800,181.200 398.890,181.200 399.400 C 181.200 399.925,183.556 400.000,200.000 400.000 C 216.444 400.000,218.800 399.925,218.800 399.400 C 218.800 398.890,219.844 398.800,225.800 398.800 L 232.800 398.800 232.800 397.800 C 232.800 396.829,232.882 396.800,235.574 396.800 C 238.702 396.800,240.400 396.311,240.400 395.410 C 240.400 394.902,241.103 394.800,244.600 394.800 L 248.800 394.800 248.800 393.800 L 248.800 392.800 253.300 392.753 C 255.775 392.727,258.035 392.737,258.323 392.775 C 258.610 392.814,258.814 392.610,258.775 392.323 C 258.586 390.910,258.804 390.800,261.800 390.800 C 264.733 390.800,264.800 390.778,264.800 389.800 C 264.800 388.822,264.867 388.800,267.800 388.800 C 270.733 388.800,270.800 388.778,270.800 387.800 C 270.800 387.000,271.000 386.800,271.800 386.800 C 272.600 386.800,272.800 386.600,272.800 385.800 C 272.800 384.822,272.867 384.800,275.800 384.800 C 278.719 384.800,278.800 384.773,278.800 383.818 C 278.800 382.875,278.919 382.830,281.700 382.718 C 284.361 382.610,284.611 382.526,284.728 381.700 C 284.841 380.906,285.087 380.800,286.828 380.800 C 288.665 380.800,288.800 380.731,288.800 379.800 C 288.800 378.867,288.933 378.800,290.800 378.800 C 292.667 378.800,292.800 378.733,292.800 377.800 C 292.800 377.000,293.000 376.800,293.800 376.800 C 294.600 376.800,294.800 376.600,294.800 375.800 C 294.800 374.867,294.933 374.800,296.800 374.800 C 298.667 374.800,298.800 374.733,298.800 373.800 C 298.800 372.867,298.933 372.800,300.800 372.800 C 302.667 372.800,302.800 372.733,302.800 371.800 C 302.800 370.867,302.933 370.800,304.800 370.800 C 306.667 370.800,306.800 370.733,306.800 369.800 C 306.800 368.867,306.933 368.800,308.800 368.800 C 310.667 368.800,310.800 368.733,310.800 367.800 C 310.800 367.250,310.980 366.778,311.200 366.750 C 311.420 366.723,311.825 366.678,312.100 366.650 C 312.375 366.623,312.623 366.375,312.650 366.100 C 312.678 365.825,312.723 365.420,312.750 365.200 C 312.778 364.980,313.250 364.800,313.800 364.800 C 314.600 364.800,314.800 364.600,314.800 363.800 C 314.800 362.867,314.933 362.800,316.800 362.800 C 318.667 362.800,318.800 362.733,318.800 361.800 C 318.800 361.000,319.000 360.800,319.800 360.800 C 320.600 360.800,320.800 360.600,320.800 359.800 C 320.800 359.054,321.011 358.800,321.631 358.800 C 322.705 358.800,324.800 356.705,324.800 355.631 C 324.800 354.901,325.042 354.800,326.800 354.800 C 328.667 354.800,328.800 354.733,328.800 353.800 C 328.800 353.000,329.000 352.800,329.800 352.800 C 330.600 352.800,330.800 352.600,330.800 351.800 C 330.800 351.000,331.000 350.800,331.800 350.800 C 332.600 350.800,332.800 350.600,332.800 349.800 C 332.800 349.000,333.000 348.800,333.800 348.800 C 334.600 348.800,334.800 348.600,334.800 347.800 C 334.800 347.000,335.000 346.800,335.800 346.800 C 336.600 346.800,336.800 346.600,336.800 345.800 C 336.800 345.000,337.000 344.800,337.800 344.800 C 338.600 344.800,338.800 344.600,338.800 343.800 C 338.800 343.000,339.000 342.800,339.800 342.800 C 340.600 342.800,340.800 342.600,340.800 341.800 C 340.800 341.000,341.000 340.800,341.800 340.800 C 342.600 340.800,342.800 340.600,342.800 339.800 C 342.800 339.000,343.000 338.800,343.800 338.800 C 344.600 338.800,344.800 338.600,344.800 337.800 C 344.800 337.000,345.000 336.800,345.800 336.800 C 346.600 336.800,346.800 336.600,346.800 335.800 C 346.800 335.000,347.000 334.800,347.800 334.800 C 348.600 334.800,348.800 334.600,348.800 333.800 C 348.800 333.000,349.000 332.800,349.800 332.800 C 350.600 332.800,350.800 332.600,350.800 331.800 C 350.800 331.000,351.000 330.800,351.800 330.800 C 352.600 330.800,352.800 330.600,352.800 329.800 C 352.800 329.000,353.000 328.800,353.800 328.800 C 354.733 328.800,354.800 328.667,354.800 326.800 C 354.800 324.933,354.867 324.800,355.800 324.800 C 356.600 324.800,356.800 324.600,356.800 323.800 C 356.800 323.000,357.000 322.800,357.800 322.800 C 358.600 322.800,358.800 322.600,358.800 321.800 C 358.800 321.000,359.000 320.800,359.800 320.800 C 360.600 320.800,360.800 320.600,360.800 319.800 C 360.800 319.000,361.000 318.800,361.800 318.800 C 362.733 318.800,362.800 318.667,362.800 316.800 C 362.800 314.933,362.867 314.800,363.800 314.800 C 364.644 314.800,364.800 314.613,364.800 313.600 C 364.800 312.060,366.060 310.800,367.600 310.800 C 368.773 310.800,368.800 310.756,368.800 308.800 C 368.800 306.933,368.867 306.800,369.800 306.800 C 370.733 306.800,370.800 306.667,370.800 304.800 C 370.800 302.933,370.867 302.800,371.800 302.800 C 372.733 302.800,372.800 302.667,372.800 300.800 C 372.800 298.933,372.867 298.800,373.800 298.800 C 374.733 298.800,374.800 298.667,374.800 296.800 C 374.800 294.933,374.867 294.800,375.800 294.800 C 376.600 294.800,376.800 294.600,376.800 293.800 C 376.800 293.000,377.000 292.800,377.800 292.800 C 378.733 292.800,378.800 292.667,378.800 290.800 C 378.800 288.933,378.867 288.800,379.800 288.800 C 380.727 288.800,380.800 288.660,380.800 286.895 C 380.800 285.303,380.948 284.925,381.700 284.595 C 382.486 284.250,382.615 283.857,382.718 281.500 C 382.831 278.932,382.885 278.800,383.818 278.800 C 384.773 278.800,384.800 278.718,384.800 275.800 C 384.800 272.867,384.822 272.800,385.800 272.800 C 386.600 272.800,386.800 272.600,386.800 271.800 C 386.800 271.000,387.000 270.800,387.800 270.800 C 388.778 270.800,388.800 270.733,388.800 267.800 C 388.800 264.867,388.822 264.800,389.800 264.800 C 390.777 264.800,390.800 264.731,390.800 261.828 C 390.800 259.050,390.859 258.847,391.700 258.728 C 392.570 258.604,392.604 258.438,392.712 253.700 L 392.825 248.800 393.812 248.800 C 394.800 248.800,394.800 248.799,394.800 244.600 C 394.800 241.103,394.902 240.400,395.410 240.400 C 396.311 240.400,396.800 238.702,396.800 235.574 C 396.800 232.882,396.829 232.800,397.800 232.800 L 398.800 232.800 398.800 225.800 C 398.800 219.844,398.890 218.800,399.400 218.800 C 399.925 218.800,400.000 216.444,400.000 200.000 C 400.000 183.556,399.925 181.200,399.400 181.200 C 398.890 181.200,398.800 180.156,398.800 174.200 L 398.800 167.200 397.800 167.200 C 396.822 167.200,396.800 167.133,396.800 164.200 C 396.800 161.267,396.778 161.200,395.800 161.200 L 394.800 161.200 394.800 156.200 L 394.800 151.200 393.813 151.200 L 392.825 151.200 392.713 146.500 C 392.606 142.062,392.550 141.778,391.700 141.405 C 390.886 141.048,390.800 140.734,390.800 138.105 C 390.800 135.273,390.775 135.200,389.800 135.200 C 388.822 135.200,388.800 135.133,388.800 132.200 C 388.800 129.267,388.778 129.200,387.800 129.200 C 387.000 129.200,386.800 129.000,386.800 128.200 C 386.800 127.400,386.600 127.200,385.800 127.200 C 384.822 127.200,384.800 127.133,384.800 124.200 C 384.800 121.267,384.778 121.200,383.800 121.200 C 382.867 121.200,382.800 121.067,382.800 119.200 C 382.800 117.333,382.733 117.200,381.800 117.200 C 380.822 117.200,380.800 117.133,380.800 114.200 C 380.800 111.267,380.778 111.200,379.800 111.200 C 378.867 111.200,378.800 111.067,378.800 109.200 C 378.800 107.333,378.733 107.200,377.800 107.200 C 377.000 107.200,376.800 107.000,376.800 106.200 C 376.800 105.400,376.600 105.200,375.800 105.200 C 374.867 105.200,374.800 105.067,374.800 103.200 C 374.800 101.333,374.733 101.200,373.800 101.200 C 372.867 101.200,372.800 101.067,372.800 99.200 C 372.800 97.345,372.729 97.200,371.822 97.200 C 370.939 97.200,370.832 97.015,370.722 95.300 C 370.618 93.679,370.468 93.381,369.700 93.272 C 368.906 93.159,368.800 92.913,368.800 91.172 L 368.800 89.200 366.800 89.200 L 364.800 89.200 364.800 87.200 C 364.800 85.333,364.733 85.200,363.800 85.200 C 362.867 85.200,362.800 85.067,362.800 83.200 C 362.800 81.333,362.733 81.200,361.800 81.200 C 361.000 81.200,360.800 81.000,360.800 80.200 C 360.800 79.400,360.600 79.200,359.800 79.200 C 359.000 79.200,358.800 79.000,358.800 78.200 C 358.800 77.400,358.600 77.200,357.800 77.200 C 357.000 77.200,356.800 77.000,356.800 76.200 C 356.800 75.400,356.600 75.200,355.800 75.200 C 354.867 75.200,354.800 75.067,354.800 73.200 C 354.800 71.333,354.733 71.200,353.800 71.200 C 353.000 71.200,352.800 71.000,352.800 70.200 C 352.800 69.400,352.600 69.200,351.800 69.200 C 351.000 69.200,350.800 69.000,350.800 68.200 C 350.800 67.400,350.600 67.200,349.800 67.200 C 349.000 67.200,348.800 67.000,348.800 66.200 C 348.800 65.400,348.600 65.200,347.800 65.200 C 347.000 65.200,346.800 65.000,346.800 64.200 C 346.800 63.400,346.600 63.200,345.800 63.200 C 345.000 63.200,344.800 63.000,344.800 62.200 C 344.800 61.400,344.600 61.200,343.800 61.200 C 343.000 61.200,342.800 61.000,342.800 60.200 C 342.800 59.400,342.600 59.200,341.800 59.200 C 341.000 59.200,340.800 59.000,340.800 58.200 C 340.800 57.400,340.600 57.200,339.800 57.200 C 339.000 57.200,338.800 57.000,338.800 56.200 C 338.800 55.400,338.600 55.200,337.800 55.200 C 337.000 55.200,336.800 55.000,336.800 54.200 C 336.800 53.400,336.600 53.200,335.800 53.200 C 335.000 53.200,334.800 53.000,334.800 52.200 C 334.800 51.400,334.600 51.200,333.800 51.200 C 333.000 51.200,332.800 51.000,332.800 50.200 C 332.800 49.400,332.600 49.200,331.800 49.200 C 331.000 49.200,330.800 49.000,330.800 48.200 C 330.800 47.400,330.600 47.200,329.800 47.200 C 329.000 47.200,328.800 47.000,328.800 46.200 C 328.800 45.267,328.667 45.200,326.800 45.200 C 324.933 45.200,324.800 45.133,324.800 44.200 C 324.800 43.400,324.600 43.200,323.800 43.200 C 323.000 43.200,322.800 43.000,322.800 42.200 C 322.800 41.400,322.600 41.200,321.800 41.200 C 321.000 41.200,320.800 41.000,320.800 40.200 C 320.800 39.400,320.600 39.200,319.800 39.200 C 319.000 39.200,318.800 39.000,318.800 38.200 C 318.800 37.267,318.667 37.200,316.800 37.200 C 314.933 37.200,314.800 37.133,314.800 36.200 C 314.800 35.267,314.667 35.200,312.800 35.200 L 310.800 35.200 310.800 33.200 L 310.800 31.200 308.800 31.200 C 306.933 31.200,306.800 31.133,306.800 30.200 C 306.800 29.267,306.667 29.200,304.800 29.200 C 302.933 29.200,302.800 29.133,302.800 28.200 C 302.800 27.267,302.667 27.200,300.800 27.200 C 298.933 27.200,298.800 27.133,298.800 26.200 C 298.800 25.267,298.667 25.200,296.800 25.200 C 294.933 25.200,294.800 25.133,294.800 24.200 C 294.800 23.400,294.600 23.200,293.800 23.200 C 293.000 23.200,292.800 23.000,292.800 22.200 C 292.800 21.267,292.667 21.200,290.800 21.200 C 288.933 21.200,288.800 21.133,288.800 20.200 C 288.800 19.222,288.733 19.200,285.800 19.200 C 282.867 19.200,282.800 19.178,282.800 18.200 C 282.800 17.267,282.667 17.200,280.800 17.200 C 278.933 17.200,278.800 17.133,278.800 16.200 C 278.800 15.222,278.733 15.200,275.800 15.200 C 272.867 15.200,272.800 15.178,272.800 14.200 C 272.800 13.400,272.600 13.200,271.800 13.200 C 271.000 13.200,270.800 13.000,270.800 12.200 C 270.800 11.222,270.733 11.200,267.800 11.200 C 264.867 11.200,264.800 11.178,264.800 10.200 L 264.800 9.200 260.800 9.200 L 256.800 9.200 256.800 8.200 L 256.800 7.200 252.800 7.200 L 248.800 7.200 248.800 6.200 L 248.800 5.200 243.800 5.200 L 238.800 5.200 238.800 4.200 C 238.800 3.222,238.733 3.200,235.800 3.200 C 232.867 3.200,232.800 3.178,232.800 2.200 L 232.800 1.200 225.800 1.200 C 219.844 1.200,218.800 1.110,218.800 0.600 C 218.800 0.075,216.444 0.000,200.000 0.000 C 183.556 0.000,181.200 0.075,181.200 0.600 M219.000 30.767 C 220.320 30.957,223.110 31.311,225.200 31.553 C 233.985 32.573,236.352 32.928,239.170 33.646 C 240.804 34.063,242.431 34.666,242.787 34.988 C 243.142 35.309,244.415 35.781,245.616 36.036 C 246.817 36.290,248.468 36.836,249.284 37.249 C 250.100 37.662,251.035 38.000,251.361 38.000 C 252.168 38.000,260.420 40.720,260.964 41.165 C 261.204 41.361,262.210 41.725,263.200 41.973 C 265.725 42.607,268.819 43.999,270.000 45.032 C 271.277 46.150,274.795 48.000,275.644 48.000 C 276.002 48.000,277.624 48.723,279.248 49.606 C 280.871 50.490,282.830 51.483,283.600 51.813 C 286.449 53.036,287.596 53.741,290.068 55.790 C 291.461 56.943,293.047 58.028,293.592 58.200 C 294.138 58.372,295.038 58.809,295.592 59.172 C 296.919 60.041,297.943 60.673,299.381 61.511 C 300.031 61.890,301.111 62.807,301.781 63.549 C 302.452 64.290,303.990 65.630,305.200 66.526 C 313.952 73.006,328.690 87.697,333.394 94.629 C 333.897 95.371,335.015 96.658,335.878 97.489 C 337.988 99.522,340.091 102.680,341.944 106.600 C 342.360 107.480,343.398 109.010,344.250 110.001 C 346.644 112.783,347.500 114.142,347.980 115.925 C 348.223 116.828,348.612 117.684,348.844 117.827 C 349.076 117.971,349.617 118.833,350.047 119.744 C 350.476 120.655,351.088 121.850,351.408 122.400 C 351.727 122.950,351.991 123.718,351.994 124.108 C 352.001 124.890,354.103 129.009,355.004 130.005 C 356.018 131.125,357.549 134.316,357.822 135.880 C 357.969 136.716,358.423 137.986,358.833 138.703 C 359.242 139.420,359.842 140.950,360.166 142.103 C 360.872 144.610,361.792 147.540,362.646 150.000 C 362.990 150.990,363.452 152.520,363.673 153.400 C 363.894 154.280,364.436 155.695,364.876 156.545 C 366.022 158.758,367.054 162.812,367.590 167.200 C 367.844 169.290,368.315 173.019,368.634 175.487 C 370.217 187.706,370.448 212.449,369.061 221.200 C 368.730 223.290,368.346 226.350,368.208 228.000 C 367.637 234.829,366.142 241.650,364.794 243.578 C 364.401 244.140,363.969 245.372,363.833 246.315 C 363.697 247.258,363.229 248.695,362.793 249.509 C 362.357 250.322,362.000 251.407,362.000 251.920 C 362.000 252.432,361.649 253.695,361.219 254.726 C 360.790 255.757,360.233 257.410,359.983 258.400 C 359.732 259.390,359.183 260.761,358.763 261.447 C 358.344 262.133,358.000 263.106,358.000 263.608 C 358.000 264.731,355.708 269.689,355.002 270.095 C 354.343 270.474,352.000 275.315,352.000 276.297 C 352.000 276.708,351.550 277.655,351.000 278.400 C 350.450 279.145,350.000 279.966,350.000 280.224 C 350.000 280.481,349.651 281.136,349.225 281.678 C 348.798 282.220,348.327 283.189,348.176 283.832 C 347.826 285.328,345.780 288.616,344.128 290.338 C 343.422 291.075,342.112 293.110,341.216 294.863 C 339.226 298.756,338.425 299.921,335.603 303.017 C 334.391 304.346,331.780 307.447,329.800 309.909 C 324.040 317.069,313.063 327.667,305.522 333.348 C 304.709 333.961,303.246 335.213,302.272 336.131 C 299.745 338.511,298.564 339.325,294.974 341.160 C 293.226 342.053,291.167 343.369,290.398 344.086 C 288.468 345.884,285.927 347.472,284.234 347.940 C 283.452 348.155,282.335 348.707,281.752 349.166 C 281.169 349.625,280.481 350.000,280.224 350.000 C 279.966 350.000,279.145 350.450,278.400 351.000 C 277.655 351.550,276.675 352.006,276.222 352.013 C 275.284 352.027,271.052 354.048,270.038 354.966 C 268.880 356.013,265.709 357.544,264.120 357.822 C 263.284 357.969,262.014 358.423,261.297 358.833 C 260.580 359.242,259.050 359.840,257.897 360.162 C 256.744 360.484,255.080 361.021,254.200 361.356 C 253.320 361.691,252.275 361.973,251.878 361.982 C 251.481 361.992,250.333 362.375,249.326 362.834 C 248.320 363.292,246.845 363.765,246.048 363.885 C 245.252 364.005,244.025 364.449,243.321 364.871 C 241.439 366.001,237.140 367.105,232.600 367.624 C 230.400 367.875,225.990 368.442,222.800 368.884 C 211.458 370.454,188.601 370.333,175.487 368.634 C 173.019 368.315,169.290 367.846,167.200 367.594 C 162.658 367.044,159.701 366.298,157.000 365.020 C 155.900 364.500,154.280 363.894,153.400 363.673 C 152.520 363.452,150.990 362.990,150.000 362.646 C 147.217 361.679,144.406 360.790,142.054 360.133 C 140.874 359.803,139.344 359.189,138.654 358.768 C 137.964 358.347,137.063 358.002,136.650 358.001 C 135.644 357.999,131.201 356.037,130.198 355.152 C 129.061 354.149,124.951 352.005,124.108 351.975 C 123.718 351.961,122.140 351.247,120.600 350.388 C 119.060 349.530,117.350 348.626,116.800 348.379 C 113.637 346.964,112.348 346.194,110.383 344.549 C 109.182 343.543,107.480 342.373,106.600 341.948 C 105.720 341.523,104.640 340.959,104.200 340.695 C 100.785 338.645,98.773 337.192,97.400 335.782 C 96.520 334.878,95.080 333.621,94.200 332.987 C 86.588 327.504,72.442 313.357,67.017 305.800 C 66.385 304.920,65.043 303.372,64.034 302.361 C 61.975 300.295,61.114 299.040,58.986 295.000 C 58.175 293.460,56.636 291.126,55.565 289.814 C 53.813 287.665,53.035 286.360,51.621 283.200 C 51.374 282.650,50.470 280.940,49.612 279.400 C 48.753 277.860,48.039 276.290,48.025 275.912 C 47.992 275.003,45.758 270.629,45.010 270.008 C 44.274 269.397,42.573 265.723,42.202 263.941 C 42.049 263.203,41.514 261.700,41.014 260.600 C 39.855 258.051,37.991 252.420,37.996 251.484 C 37.998 251.090,37.645 250.072,37.211 249.221 C 36.776 248.370,36.308 246.892,36.171 245.937 C 36.033 244.982,35.570 243.701,35.141 243.091 C 33.738 241.092,32.871 236.779,31.586 225.400 C 31.362 223.420,30.970 220.360,30.713 218.600 C 30.090 214.320,30.094 185.732,30.718 181.400 C 30.972 179.640,31.362 176.580,31.586 174.600 C 32.823 163.644,33.736 158.996,34.905 157.705 C 35.284 157.287,35.775 155.984,35.998 154.811 C 36.220 153.638,36.677 152.128,37.012 151.457 C 37.347 150.785,37.891 149.070,38.221 147.646 C 38.552 146.221,38.971 144.863,39.153 144.628 C 39.335 144.392,39.696 143.335,39.954 142.277 C 40.212 141.219,40.778 139.692,41.212 138.883 C 41.645 138.074,42.000 137.170,42.000 136.874 C 42.000 135.854,44.082 130.998,44.784 130.381 C 45.757 129.526,47.998 125.185,47.999 124.154 C 48.000 123.689,48.327 122.879,48.727 122.354 C 49.127 121.829,49.700 120.770,50.000 120.000 C 50.300 119.230,50.873 118.171,51.273 117.646 C 51.673 117.121,52.000 116.489,52.000 116.240 C 52.000 115.438,53.583 112.804,55.637 110.191 C 56.739 108.788,58.306 106.408,59.120 104.901 C 61.629 100.255,62.138 99.517,64.105 97.665 C 65.152 96.679,66.552 95.053,67.215 94.052 C 70.642 88.877,88.596 70.866,93.800 67.380 C 94.680 66.791,96.507 65.294,97.860 64.054 C 100.983 61.193,101.998 60.475,105.200 58.862 C 106.630 58.142,108.790 56.755,110.000 55.780 C 111.210 54.806,113.190 53.532,114.400 52.950 C 115.610 52.368,117.050 51.636,117.600 51.324 C 118.150 51.012,119.230 50.478,120.000 50.138 C 120.770 49.798,121.670 49.285,122.000 48.997 C 122.330 48.710,123.410 48.259,124.400 47.995 C 126.284 47.494,129.515 45.786,130.200 44.930 C 130.642 44.378,136.050 42.002,136.878 41.996 C 137.165 41.994,138.300 41.550,139.400 41.009 C 140.500 40.468,141.760 40.018,142.200 40.010 C 142.640 40.002,143.540 39.713,144.200 39.369 C 144.860 39.025,146.555 38.475,147.967 38.147 C 149.378 37.820,150.998 37.314,151.567 37.024 C 152.135 36.735,153.586 36.289,154.790 36.033 C 155.995 35.778,157.345 35.242,157.790 34.842 C 158.236 34.442,159.680 33.891,161.000 33.618 C 162.320 33.345,164.120 32.965,165.000 32.774 C 165.880 32.583,168.760 32.238,171.400 32.008 C 174.040 31.778,177.010 31.407,178.000 31.184 C 182.830 30.096,212.257 29.796,219.000 30.767 M131.800 100.268 C 131.360 100.365,129.528 100.794,127.729 101.222 C 125.930 101.650,124.022 102.000,123.489 102.000 C 122.147 102.000,119.364 103.549,116.367 105.964 C 114.977 107.084,113.636 108.000,113.387 108.000 C 112.274 108.000,108.005 114.750,108.002 116.516 C 108.001 116.910,107.647 117.923,107.217 118.768 C 106.786 119.612,106.258 121.393,106.043 122.725 C 105.828 124.057,105.338 125.628,104.953 126.216 C 103.967 127.721,103.625 132.638,103.230 151.000 C 103.046 159.580,102.687 167.770,102.432 169.200 C 102.178 170.630,101.792 172.823,101.575 174.073 C 100.840 178.303,96.283 186.000,94.514 186.000 C 94.214 186.000,93.210 186.394,92.284 186.875 C 90.979 187.554,89.594 187.808,86.122 188.008 C 79.888 188.366,80.400 187.272,80.400 200.225 C 80.400 212.889,79.834 211.648,85.776 212.012 C 95.412 212.602,100.808 218.109,102.027 228.600 C 102.206 230.140,102.540 232.570,102.768 234.000 C 102.997 235.430,103.193 241.640,103.204 247.800 C 103.229 261.565,103.996 272.891,104.977 273.975 C 105.347 274.383,105.801 275.792,105.987 277.105 C 106.172 278.418,106.606 280.039,106.951 280.706 C 107.296 281.373,107.756 282.711,107.973 283.680 C 108.798 287.360,111.268 290.531,115.966 293.939 C 120.597 297.299,121.819 297.993,123.126 298.007 C 123.497 298.011,125.690 298.458,128.000 299.000 C 132.830 300.133,146.541 300.499,147.520 299.520 C 148.220 298.820,148.201 280.657,147.500 280.101 C 147.225 279.883,144.480 279.598,141.400 279.468 C 128.045 278.904,127.386 277.703,126.751 252.800 C 126.281 234.316,126.025 231.048,124.887 229.006 C 124.395 228.122,123.994 226.697,123.987 225.806 C 123.980 224.923,123.611 223.210,123.167 222.000 C 122.723 220.790,122.198 219.170,122.000 218.400 C 121.092 214.862,117.875 209.183,115.992 207.794 C 114.388 206.611,111.600 203.678,111.600 203.175 C 111.600 202.978,110.880 202.449,110.000 202.000 C 107.948 200.953,107.721 199.172,109.521 198.241 C 111.774 197.076,120.000 188.189,120.000 186.920 C 120.000 186.811,120.266 186.154,120.591 185.460 C 121.780 182.923,124.000 175.513,124.001 174.077 C 124.002 173.258,124.391 171.976,124.874 171.200 C 125.999 169.389,126.319 165.358,126.774 147.200 C 127.408 121.949,128.404 120.420,144.220 120.403 C 145.876 120.401,147.238 120.202,147.520 119.920 C 148.201 119.239,148.201 101.161,147.520 100.480 C 147.054 100.014,133.773 99.835,131.800 100.268 M252.500 100.445 C 252.129 100.827,252.000 103.356,252.000 110.231 C 252.000 121.208,251.391 120.213,258.313 120.548 C 262.702 120.760,269.047 121.874,269.372 122.490 C 269.403 122.551,269.908 123.320,270.492 124.200 C 272.657 127.459,273.201 131.948,273.619 150.000 C 274.016 167.180,274.070 167.840,275.245 169.767 C 275.697 170.509,275.998 171.746,275.999 172.872 C 276.002 177.056,280.538 188.929,283.001 191.200 C 283.359 191.530,285.161 193.240,287.006 195.000 C 288.850 196.760,290.729 198.515,291.180 198.900 C 292.363 199.910,292.211 201.070,290.801 201.799 C 289.283 202.584,282.612 209.230,281.836 210.730 C 281.515 211.351,280.971 212.092,280.626 212.378 C 280.282 212.664,280.000 213.168,280.000 213.499 C 280.000 213.830,279.570 215.112,279.044 216.350 C 277.629 219.683,275.989 225.584,275.995 227.325 C 275.998 228.163,275.555 229.790,275.011 230.939 C 274.033 233.007,274.019 233.204,273.609 249.814 C 273.382 259.046,273.016 267.410,272.796 268.400 C 272.575 269.390,272.250 271.010,272.073 272.000 C 271.080 277.552,268.204 279.153,258.600 279.498 C 251.355 279.759,252.000 278.752,252.000 289.800 C 252.000 301.267,250.920 300.117,261.483 299.899 C 272.806 299.665,279.075 298.224,282.800 295.002 C 283.350 294.526,284.625 293.606,285.634 292.958 C 287.479 291.771,290.000 289.212,290.000 288.525 C 290.000 288.322,290.450 287.545,291.000 286.800 C 291.550 286.055,292.000 284.957,292.000 284.362 C 292.000 283.767,292.448 282.317,292.996 281.140 C 293.544 279.963,293.994 278.547,293.996 277.994 C 293.998 277.441,294.389 276.271,294.865 275.394 C 296.107 273.105,296.391 269.332,296.732 250.600 C 296.896 241.579,297.159 233.990,297.317 233.734 C 297.475 233.479,297.756 231.769,297.942 229.935 C 298.326 226.157,299.789 220.995,300.815 219.800 C 301.193 219.360,301.750 218.525,302.051 217.945 C 303.696 214.782,308.729 212.324,314.224 212.001 C 316.658 211.858,318.863 211.608,319.124 211.447 C 319.776 211.044,319.808 188.976,319.157 188.573 C 318.913 188.423,316.618 188.175,314.057 188.023 C 310.430 187.808,309.027 187.554,307.716 186.873 C 306.790 186.393,305.793 186.000,305.501 186.000 C 305.208 186.000,304.344 185.235,303.580 184.300 C 298.331 177.875,297.252 172.255,296.767 148.800 C 296.384 130.341,296.098 126.700,294.870 124.713 C 294.391 123.939,293.998 122.787,293.996 122.153 C 293.994 121.519,293.550 120.100,293.009 119.000 C 292.468 117.900,292.019 116.579,292.013 116.065 C 291.978 113.456,288.870 109.555,284.039 106.055 C 279.268 102.600,278.190 102.005,276.674 101.993 C 276.193 101.989,274.450 101.616,272.800 101.163 C 268.994 100.118,253.354 99.565,252.500 100.445 M150.200 187.041 C 143.197 188.671,140.925 190.541,139.316 196.000 C 135.974 207.335,145.734 216.113,157.298 212.173 C 159.768 211.331,163.470 207.702,163.833 205.765 C 163.974 205.011,164.475 203.904,164.945 203.306 C 166.145 201.781,166.145 198.219,164.945 196.694 C 164.475 196.096,163.974 194.989,163.833 194.235 C 163.068 190.155,155.034 185.916,150.200 187.041 M196.107 187.593 C 184.632 190.484,183.689 209.316,194.876 212.174 C 204.154 214.544,210.671 211.540,212.460 204.068 C 215.197 192.631,207.378 184.753,196.107 187.593 M246.000 187.064 C 240.976 188.029,236.988 191.240,236.015 195.105 C 235.763 196.109,235.206 197.375,234.778 197.919 C 233.744 199.234,233.815 200.658,235.010 202.600 C 235.552 203.480,235.997 204.561,235.998 205.001 C 236.001 206.074,238.361 209.338,240.177 210.782 C 245.200 214.774,256.012 213.128,259.386 207.858 C 261.080 205.212,262.099 199.317,261.242 197.119 C 261.045 196.613,260.648 195.390,260.361 194.400 C 259.023 189.792,251.583 185.991,246.000 187.064 " stroke="none" fill="#f9faf8" fill-rule="evenodd"></path><path id="path1" d="M184.800 30.419 C 182.050 30.617,178.990 30.961,178.000 31.184 C 177.010 31.407,174.040 31.778,171.400 32.008 C 168.760 32.238,165.880 32.583,165.000 32.774 C 164.120 32.965,162.320 33.345,161.000 33.618 C 159.680 33.891,158.236 34.442,157.790 34.842 C 157.345 35.242,155.995 35.778,154.790 36.033 C 153.586 36.289,152.135 36.735,151.567 37.024 C 150.998 37.314,149.378 37.820,147.967 38.147 C 146.555 38.475,144.860 39.025,144.200 39.369 C 143.540 39.713,142.640 40.002,142.200 40.010 C 141.760 40.018,140.500 40.468,139.400 41.009 C 138.300 41.550,137.165 41.994,136.878 41.996 C 136.050 42.002,130.642 44.378,130.200 44.930 C 129.515 45.786,126.284 47.494,124.400 47.995 C 123.410 48.259,122.330 48.710,122.000 48.997 C 121.670 49.285,120.770 49.798,120.000 50.138 C 119.230 50.478,118.150 51.012,117.600 51.324 C 117.050 51.636,115.610 52.368,114.400 52.950 C 113.190 53.532,111.210 54.806,110.000 55.780 C 108.790 56.755,106.630 58.142,105.200 58.862 C 101.998 60.475,100.983 61.193,97.860 64.054 C 96.507 65.294,94.680 66.791,93.800 67.380 C 88.596 70.866,70.642 88.877,67.215 94.052 C 66.552 95.053,65.152 96.679,64.105 97.665 C 62.138 99.517,61.629 100.255,59.120 104.901 C 58.306 106.408,56.739 108.788,55.637 110.191 C 53.583 112.804,52.000 115.438,52.000 116.240 C 52.000 116.489,51.673 117.121,51.273 117.646 C 50.873 118.171,50.300 119.230,50.000 120.000 C 49.700 120.770,49.127 121.829,48.727 122.354 C 48.327 122.879,48.000 123.689,47.999 124.154 C 47.998 125.185,45.757 129.526,44.784 130.381 C 44.082 130.998,42.000 135.854,42.000 136.874 C 42.000 137.170,41.645 138.074,41.212 138.883 C 40.778 139.692,40.212 141.219,39.954 142.277 C 39.696 143.335,39.335 144.392,39.153 144.628 C 38.971 144.863,38.552 146.221,38.221 147.646 C 37.891 149.070,37.347 150.785,37.012 151.457 C 36.677 152.128,36.220 153.638,35.998 154.811 C 35.775 155.984,35.284 157.287,34.905 157.705 C 33.736 158.996,32.823 163.644,31.586 174.600 C 31.362 176.580,30.972 179.640,30.718 181.400 C 30.094 185.732,30.090 214.320,30.713 218.600 C 30.970 220.360,31.362 223.420,31.586 225.400 C 32.871 236.779,33.738 241.092,35.141 243.091 C 35.570 243.701,36.033 244.982,36.171 245.937 C 36.308 246.892,36.776 248.370,37.211 249.221 C 37.645 250.072,37.998 251.090,37.996 251.484 C 37.991 252.420,39.855 258.051,41.014 260.600 C 41.514 261.700,42.049 263.203,42.202 263.941 C 42.573 265.723,44.274 269.397,45.010 270.008 C 45.758 270.629,47.992 275.003,48.025 275.912 C 48.039 276.290,48.753 277.860,49.612 279.400 C 50.470 280.940,51.374 282.650,51.621 283.200 C 53.035 286.360,53.813 287.665,55.565 289.814 C 56.636 291.126,58.175 293.460,58.986 295.000 C 61.114 299.040,61.975 300.295,64.034 302.361 C 65.043 303.372,66.385 304.920,67.017 305.800 C 72.442 313.357,86.588 327.504,94.200 332.987 C 95.080 333.621,96.520 334.878,97.400 335.782 C 98.773 337.192,100.785 338.645,104.200 340.695 C 104.640 340.959,105.720 341.523,106.600 341.948 C 107.480 342.373,109.182 343.543,110.383 344.549 C 112.348 346.194,113.637 346.964,116.800 348.379 C 117.350 348.626,119.060 349.530,120.600 350.388 C 122.140 351.247,123.718 351.961,124.108 351.975 C 124.951 352.005,129.061 354.149,130.198 355.152 C 131.201 356.037,135.644 357.999,136.650 358.001 C 137.063 358.002,137.964 358.347,138.654 358.768 C 139.344 359.189,140.874 359.803,142.054 360.133 C 144.406 360.790,147.217 361.679,150.000 362.646 C 150.990 362.990,152.520 363.452,153.400 363.673 C 154.280 363.894,155.900 364.500,157.000 365.020 C 159.701 366.298,162.658 367.044,167.200 367.594 C 169.290 367.846,173.019 368.315,175.487 368.634 C 188.601 370.333,211.458 370.454,222.800 368.884 C 225.990 368.442,230.400 367.875,232.600 367.624 C 237.140 367.105,241.439 366.001,243.321 364.871 C 244.025 364.449,245.252 364.005,246.048 363.885 C 246.845 363.765,248.320 363.292,249.326 362.834 C 250.333 362.375,251.481 361.992,251.878 361.982 C 252.275 361.973,253.320 361.691,254.200 361.356 C 255.080 361.021,256.744 360.484,257.897 360.162 C 259.050 359.840,260.580 359.242,261.297 358.833 C 262.014 358.423,263.284 357.969,264.120 357.822 C 265.709 357.544,268.880 356.013,270.038 354.966 C 271.052 354.048,275.284 352.027,276.222 352.013 C 276.675 352.006,277.655 351.550,278.400 351.000 C 279.145 350.450,279.966 350.000,280.224 350.000 C 280.481 350.000,281.169 349.625,281.752 349.166 C 282.335 348.707,283.452 348.155,284.234 347.940 C 285.927 347.472,288.468 345.884,290.398 344.086 C 291.167 343.369,293.226 342.053,294.974 341.160 C 298.564 339.325,299.745 338.511,302.272 336.131 C 303.246 335.213,304.709 333.961,305.522 333.348 C 313.063 327.667,324.040 317.069,329.800 309.909 C 331.780 307.447,334.391 304.346,335.603 303.017 C 338.425 299.921,339.226 298.756,341.216 294.863 C 342.112 293.110,343.422 291.075,344.128 290.338 C 345.780 288.616,347.826 285.328,348.176 283.832 C 348.327 283.189,348.798 282.220,349.225 281.678 C 349.651 281.136,350.000 280.481,350.000 280.224 C 350.000 279.966,350.450 279.145,351.000 278.400 C 351.550 277.655,352.000 276.708,352.000 276.297 C 352.000 275.315,354.343 270.474,355.002 270.095 C 355.708 269.689,358.000 264.731,358.000 263.608 C 358.000 263.106,358.344 262.133,358.763 261.447 C 359.183 260.761,359.732 259.390,359.983 258.400 C 360.233 257.410,360.790 255.757,361.219 254.726 C 361.649 253.695,362.000 252.432,362.000 251.920 C 362.000 251.407,362.357 250.322,362.793 249.509 C 363.229 248.695,363.697 247.258,363.833 246.315 C 363.969 245.372,364.401 244.140,364.794 243.578 C 366.142 241.650,367.637 234.829,368.208 228.000 C 368.346 226.350,368.730 223.290,369.061 221.200 C 370.448 212.449,370.217 187.706,368.634 175.487 C 368.315 173.019,367.844 169.290,367.590 167.200 C 367.054 162.812,366.022 158.758,364.876 156.545 C 364.436 155.695,363.894 154.280,363.673 153.400 C 363.452 152.520,362.990 150.990,362.646 150.000 C 361.792 147.540,360.872 144.610,360.166 142.103 C 359.842 140.950,359.242 139.420,358.833 138.703 C 358.423 137.986,357.969 136.716,357.822 135.880 C 357.549 134.316,356.018 131.125,355.004 130.005 C 354.103 129.009,352.001 124.890,351.994 124.108 C 351.991 123.718,351.727 122.950,351.408 122.400 C 351.088 121.850,350.476 120.655,350.047 119.744 C 349.617 118.833,349.076 117.971,348.844 117.827 C 348.612 117.684,348.223 116.828,347.980 115.925 C 347.500 114.142,346.644 112.783,344.250 110.001 C 343.398 109.010,342.360 107.480,341.944 106.600 C 340.091 102.680,337.988 99.522,335.878 97.489 C 335.015 96.658,333.897 95.371,333.394 94.629 C 328.690 87.697,313.952 73.006,305.200 66.526 C 303.990 65.630,302.452 64.290,301.781 63.549 C 301.111 62.807,300.031 61.890,299.381 61.511 C 297.943 60.673,296.919 60.041,295.592 59.172 C 295.038 58.809,294.138 58.372,293.592 58.200 C 293.047 58.028,291.461 56.943,290.068 55.790 C 287.596 53.741,286.449 53.036,283.600 51.813 C 282.830 51.483,280.871 50.490,279.248 49.606 C 277.624 48.723,276.002 48.000,275.644 48.000 C 274.795 48.000,271.277 46.150,270.000 45.032 C 268.819 43.999,265.725 42.607,263.200 41.973 C 262.210 41.725,261.204 41.361,260.964 41.165 C 260.420 40.720,252.168 38.000,251.361 38.000 C 251.035 38.000,250.100 37.662,249.284 37.249 C 248.468 36.836,246.817 36.290,245.616 36.036 C 244.415 35.781,243.142 35.309,242.787 34.988 C 242.431 34.666,240.804 34.063,239.170 33.646 C 236.352 32.928,233.985 32.573,225.200 31.553 C 223.110 31.311,220.320 30.957,219.000 30.767 C 215.447 30.256,190.578 30.002,184.800 30.419 M147.520 100.480 C 148.201 101.161,148.201 119.239,147.520 119.920 C 147.238 120.202,145.876 120.401,144.220 120.403 C 128.404 120.420,127.408 121.949,126.774 147.200 C 126.319 165.358,125.999 169.389,124.874 171.200 C 124.391 171.976,124.002 173.258,124.001 174.077 C 124.000 175.513,121.780 182.923,120.591 185.460 C 120.266 186.154,120.000 186.811,120.000 186.920 C 120.000 188.189,111.774 197.076,109.521 198.241 C 107.721 199.172,107.948 200.953,110.000 202.000 C 110.880 202.449,111.600 202.978,111.600 203.175 C 111.600 203.678,114.388 206.611,115.992 207.794 C 117.875 209.183,121.092 214.862,122.000 218.400 C 122.198 219.170,122.723 220.790,123.167 222.000 C 123.611 223.210,123.980 224.923,123.987 225.806 C 123.994 226.697,124.395 228.122,124.887 229.006 C 126.025 231.048,126.281 234.316,126.751 252.800 C 127.386 277.703,128.045 278.904,141.400 279.468 C 144.480 279.598,147.225 279.883,147.500 280.101 C 148.201 280.657,148.220 298.820,147.520 299.520 C 146.541 300.499,132.830 300.133,128.000 299.000 C 125.690 298.458,123.497 298.011,123.126 298.007 C 121.819 297.993,120.597 297.299,115.966 293.939 C 111.268 290.531,108.798 287.360,107.973 283.680 C 107.756 282.711,107.296 281.373,106.951 280.706 C 106.606 280.039,106.172 278.418,105.987 277.105 C 105.801 275.792,105.347 274.383,104.977 273.975 C 103.996 272.891,103.229 261.565,103.204 247.800 C 103.193 241.640,102.997 235.430,102.768 234.000 C 102.540 232.570,102.206 230.140,102.027 228.600 C 100.808 218.109,95.412 212.602,85.776 212.012 C 79.834 211.648,80.400 212.889,80.400 200.225 C 80.400 187.272,79.888 188.366,86.122 188.008 C 89.594 187.808,90.979 187.554,92.284 186.875 C 93.210 186.394,94.214 186.000,94.514 186.000 C 96.283 186.000,100.840 178.303,101.575 174.073 C 101.792 172.823,102.178 170.630,102.432 169.200 C 102.687 167.770,103.046 159.580,103.230 151.000 C 103.625 132.638,103.967 127.721,104.953 126.216 C 105.338 125.628,105.828 124.057,106.043 122.725 C 106.258 121.393,106.786 119.612,107.217 118.768 C 107.647 117.923,108.001 116.910,108.002 116.516 C 108.005 114.750,112.274 108.000,113.387 108.000 C 113.636 108.000,114.977 107.084,116.367 105.964 C 119.364 103.549,122.147 102.000,123.489 102.000 C 124.022 102.000,125.930 101.650,127.729 101.222 C 129.528 100.794,131.360 100.365,131.800 100.268 C 133.773 99.835,147.054 100.014,147.520 100.480 M272.800 101.163 C 274.450 101.616,276.193 101.989,276.674 101.993 C 278.190 102.005,279.268 102.600,284.039 106.055 C 288.870 109.555,291.978 113.456,292.013 116.065 C 292.019 116.579,292.468 117.900,293.009 119.000 C 293.550 120.100,293.994 121.519,293.996 122.153 C 293.998 122.787,294.391 123.939,294.870 124.713 C 296.098 126.700,296.384 130.341,296.767 148.800 C 297.252 172.255,298.331 177.875,303.580 184.300 C 304.344 185.235,305.208 186.000,305.501 186.000 C 305.793 186.000,306.790 186.393,307.716 186.873 C 309.027 187.554,310.430 187.808,314.057 188.023 C 316.618 188.175,318.913 188.423,319.157 188.573 C 319.808 188.976,319.776 211.044,319.124 211.447 C 318.863 211.608,316.658 211.858,314.224 212.001 C 308.729 212.324,303.696 214.782,302.051 217.945 C 301.750 218.525,301.193 219.360,300.815 219.800 C 299.789 220.995,298.326 226.157,297.942 229.935 C 297.756 231.769,297.475 233.479,297.317 233.734 C 297.159 233.990,296.896 241.579,296.732 250.600 C 296.391 269.332,296.107 273.105,294.865 275.394 C 294.389 276.271,293.998 277.441,293.996 277.994 C 293.994 278.547,293.544 279.963,292.996 281.140 C 292.448 282.317,292.000 283.767,292.000 284.362 C 292.000 284.957,291.550 286.055,291.000 286.800 C 290.450 287.545,290.000 288.322,290.000 288.525 C 290.000 289.212,287.479 291.771,285.634 292.958 C 284.625 293.606,283.350 294.526,282.800 295.002 C 279.075 298.224,272.806 299.665,261.483 299.899 C 250.920 300.117,252.000 301.267,252.000 289.800 C 252.000 278.752,251.355 279.759,258.600 279.498 C 268.204 279.153,271.080 277.552,272.073 272.000 C 272.250 271.010,272.575 269.390,272.796 268.400 C 273.016 267.410,273.382 259.046,273.609 249.814 C 274.019 233.204,274.033 233.007,275.011 230.939 C 275.555 229.790,275.998 228.163,275.995 227.325 C 275.989 225.584,277.629 219.683,279.044 216.350 C 279.570 215.112,280.000 213.830,280.000 213.499 C 280.000 213.168,280.282 212.664,280.626 212.378 C 280.971 212.092,281.515 211.351,281.836 210.730 C 282.612 209.230,289.283 202.584,290.801 201.799 C 292.211 201.070,292.363 199.910,291.180 198.900 C 290.729 198.515,288.850 196.760,287.006 195.000 C 285.161 193.240,283.359 191.530,283.001 191.200 C 280.538 188.929,276.002 177.056,275.999 172.872 C 275.998 171.746,275.697 170.509,275.245 169.767 C 274.070 167.840,274.016 167.180,273.619 150.000 C 273.201 131.948,272.657 127.459,270.492 124.200 C 269.908 123.320,269.403 122.551,269.372 122.490 C 269.047 121.874,262.702 120.760,258.313 120.548 C 251.391 120.213,252.000 121.208,252.000 110.231 C 252.000 103.356,252.129 100.827,252.500 100.445 C 253.354 99.565,268.994 100.118,272.800 101.163 M157.079 187.845 C 159.719 188.606,163.437 192.123,163.833 194.235 C 163.974 194.989,164.475 196.096,164.945 196.694 C 166.145 198.219,166.145 201.781,164.945 203.306 C 164.475 203.904,163.974 205.011,163.833 205.765 C 163.470 207.702,159.768 211.331,157.298 212.173 C 145.734 216.113,135.974 207.335,139.316 196.000 C 140.925 190.541,143.197 188.671,150.200 187.041 C 151.371 186.769,154.694 187.157,157.079 187.845 M203.923 187.630 C 209.046 188.868,211.222 190.983,212.429 195.898 C 215.385 207.939,207.376 215.367,194.876 212.174 C 183.689 209.316,184.632 190.484,196.107 187.593 C 199.840 186.652,199.880 186.652,203.923 187.630 M253.345 187.905 C 256.388 188.750,259.578 191.704,260.361 194.400 C 260.648 195.390,261.045 196.613,261.242 197.119 C 262.099 199.317,261.080 205.212,259.386 207.858 C 256.012 213.128,245.200 214.774,240.177 210.782 C 238.361 209.338,236.001 206.074,235.998 205.001 C 235.997 204.561,235.552 203.480,235.010 202.600 C 233.815 200.658,233.744 199.234,234.778 197.919 C 235.206 197.375,235.763 196.109,236.015 195.105 C 236.700 192.385,240.337 188.598,243.000 187.832 C 246.970 186.689,249.022 186.704,253.345 187.905 " stroke="none" fill="#6c9c04" fill-rule="evenodd"></path></g></svg>