<svg id="svg" version="1.1" xmlns="http://www.w3.org/2000/svg" xmlns:xlink="http://www.w3.org/1999/xlink" width="400" height="400" viewBox="0, 0, 400,400"><g id="svgg"><path id="path0" d="M182.600 45.021 C 182.380 45.114,180.940 45.357,179.400 45.561 C 177.085 45.868,177.361 45.887,181.000 45.671 C 186.428 45.349,210.163 45.369,214.800 45.700 C 217.755 45.912,217.938 45.890,216.200 45.536 C 214.281 45.145,183.423 44.672,182.600 45.021 M162.967 47.686 C 162.325 47.866,161.497 47.940,161.126 47.851 C 160.755 47.761,160.361 47.925,160.250 48.215 C 160.022 48.807,161.634 48.647,164.800 47.761 C 166.274 47.349,166.377 47.267,165.367 47.309 C 164.689 47.337,163.609 47.507,162.967 47.686 M229.000 47.602 C 230.848 48.203,234.102 48.741,233.731 48.384 C 233.380 48.047,231.514 47.629,229.200 47.369 L 227.800 47.212 229.000 47.602 M149.033 51.500 C 148.868 51.665,148.613 51.812,148.467 51.827 C 148.320 51.842,147.570 52.155,146.800 52.523 C 145.890 52.958,145.750 53.105,146.400 52.942 C 148.083 52.523,149.110 52.070,149.385 51.625 C 149.688 51.135,149.474 51.059,149.033 51.500 M246.800 52.573 C 248.474 53.250,249.116 53.347,248.580 52.842 C 248.371 52.645,247.570 52.377,246.800 52.246 L 245.400 52.007 246.800 52.573 M142.800 54.200 C 142.250 54.514,141.980 54.772,142.200 54.772 C 142.420 54.772,143.050 54.514,143.600 54.200 C 144.150 53.886,144.420 53.628,144.200 53.628 C 143.980 53.628,143.350 53.886,142.800 54.200 M254.576 56.178 C 255.004 56.520,255.634 56.786,255.976 56.768 C 256.515 56.741,256.518 56.707,256.000 56.514 C 255.670 56.392,255.040 56.126,254.600 55.924 C 253.813 55.562,253.812 55.566,254.576 56.178 M137.776 56.980 C 137.027 57.540,137.032 57.552,137.906 57.332 C 138.405 57.206,138.910 56.945,139.030 56.752 C 139.368 56.204,138.636 56.338,137.776 56.980 M132.200 61.235 C 131.980 61.452,131.480 61.938,131.090 62.315 C 129.937 63.427,127.535 66.800,127.895 66.800 C 128.078 66.800,128.570 66.221,128.988 65.513 C 129.406 64.806,130.541 63.456,131.511 62.513 C 132.480 61.571,133.122 60.809,132.937 60.820 C 132.752 60.831,132.420 61.018,132.200 61.235 M263.677 62.743 C 263.965 63.152,264.830 64.001,265.600 64.629 C 266.805 65.613,266.889 65.637,266.200 64.806 C 264.487 62.738,262.573 61.173,263.677 62.743 M270.278 71.395 C 270.644 72.162,271.014 72.719,271.101 72.632 C 271.284 72.449,270.070 70.000,269.796 70.000 C 269.695 70.000,269.912 70.628,270.278 71.395 M124.828 72.631 C 124.154 75.642,124.472 75.756,125.248 72.780 C 125.589 71.471,125.746 70.400,125.598 70.400 C 125.449 70.400,125.103 71.404,124.828 72.631 M273.709 83.200 C 273.709 84.190,273.787 84.595,273.882 84.100 C 273.978 83.605,273.978 82.795,273.882 82.300 C 273.787 81.805,273.709 82.210,273.709 83.200 M161.500 115.099 L 198.000 115.204 198.000 119.801 L 198.000 124.397 146.500 124.500 L 95.000 124.603 146.712 124.702 L 198.425 124.800 198.312 119.900 L 198.200 115.000 161.600 114.997 L 125.000 114.994 161.500 115.099 M84.800 125.213 C 84.154 125.429,84.580 125.466,86.000 125.319 C 87.210 125.194,88.275 125.026,88.367 124.946 C 88.687 124.665,85.791 124.883,84.800 125.213 M284.129 126.329 C 283.705 126.752,283.598 130.834,283.590 146.929 C 283.585 157.968,283.478 167.990,283.352 169.200 C 282.855 173.970,281.093 179.880,278.699 184.800 C 276.794 188.714,275.799 190.191,272.834 193.500 C 272.193 194.215,271.750 194.800,271.850 194.800 C 271.950 194.800,271.799 195.051,271.516 195.358 C 271.232 195.665,270.884 195.846,270.742 195.760 C 270.600 195.675,270.395 195.835,270.287 196.116 C 270.179 196.398,269.306 197.162,268.346 197.814 C 267.385 198.466,266.262 199.305,265.848 199.678 C 265.214 200.250,263.410 201.063,256.200 204.026 C 251.792 205.838,247.651 206.000,205.715 206.000 C 167.090 206.000,158.081 206.229,157.020 207.238 C 156.811 207.437,156.262 207.600,155.800 207.600 C 155.338 207.600,154.789 207.752,154.580 207.937 C 154.371 208.122,152.983 208.593,151.495 208.982 C 150.008 209.372,148.692 209.851,148.572 210.046 C 148.451 210.241,148.048 210.401,147.676 210.401 C 147.304 210.402,146.378 210.807,145.618 211.301 C 144.857 211.796,143.417 212.667,142.418 213.237 C 140.157 214.527,135.749 218.350,135.393 219.330 C 135.246 219.732,135.033 219.966,134.918 219.851 C 134.803 219.736,134.070 220.578,133.290 221.721 C 132.509 222.865,131.751 223.890,131.604 224.000 C 131.245 224.270,128.521 230.720,128.182 232.104 C 128.033 232.711,127.748 233.308,127.549 233.431 C 127.350 233.555,127.295 233.831,127.428 234.045 C 127.560 234.260,127.489 234.652,127.270 234.918 C 126.302 236.089,126.006 247.036,125.994 282.000 C 125.981 321.570,126.010 322.108,128.366 326.585 C 128.825 327.456,129.200 328.403,129.200 328.689 C 129.200 331.347,140.360 342.518,144.247 343.752 C 144.694 343.893,145.415 344.341,145.850 344.746 C 146.285 345.151,147.577 345.794,148.720 346.174 C 149.864 346.553,150.800 347.030,150.800 347.232 C 150.800 347.434,151.161 347.600,151.601 347.600 C 152.042 347.600,153.075 347.960,153.896 348.400 C 154.716 348.840,155.718 349.200,156.120 349.200 C 156.523 349.200,157.214 349.393,157.655 349.629 C 158.754 350.217,162.619 351.200,163.834 351.200 C 164.381 351.200,165.227 351.456,165.714 351.768 C 166.201 352.081,167.320 352.444,168.200 352.575 C 169.080 352.707,170.790 352.990,172.000 353.205 C 173.210 353.420,175.010 353.677,176.000 353.775 C 176.990 353.873,179.330 354.177,181.200 354.450 C 185.862 355.132,218.544 355.136,223.000 354.455 C 224.760 354.187,226.830 353.902,227.600 353.823 C 230.996 353.474,235.752 352.722,236.597 352.401 C 237.103 352.209,237.614 352.147,237.731 352.265 C 237.849 352.382,238.452 352.211,239.072 351.884 C 239.693 351.557,241.370 351.077,242.800 350.817 C 245.606 350.306,251.868 348.326,253.559 347.415 C 254.131 347.106,255.661 346.389,256.958 345.822 C 263.674 342.886,270.830 336.198,273.461 330.400 C 275.233 326.498,275.213 326.800,275.104 305.377 L 275.000 285.000 238.100 284.898 L 201.200 284.796 201.200 280.198 L 201.200 275.600 256.527 275.600 C 292.765 275.600,312.672 275.458,314.227 275.187 C 317.186 274.672,323.197 272.826,324.000 272.186 C 324.330 271.923,325.573 271.227,326.761 270.640 C 330.216 268.932,339.600 260.934,339.600 259.697 C 339.600 259.503,340.064 258.941,340.630 258.448 C 341.197 257.956,341.903 256.978,342.199 256.276 C 342.495 255.574,343.068 254.640,343.472 254.200 C 344.142 253.470,345.520 250.685,348.125 244.800 C 349.369 241.989,350.671 237.879,351.007 235.702 C 351.152 234.768,351.414 233.915,351.589 233.807 C 351.765 233.698,352.020 233.022,352.156 232.304 C 352.292 231.587,352.491 230.550,352.599 230.000 C 352.707 229.450,352.982 227.470,353.210 225.600 C 353.438 223.730,353.808 221.053,354.031 219.651 C 354.514 216.625,354.476 183.360,353.989 182.429 C 353.808 182.083,353.458 179.730,353.212 177.200 C 352.769 172.638,352.302 170.140,351.604 168.600 C 351.332 167.998,350.136 163.091,349.801 161.200 C 349.713 160.699,348.670 157.758,348.454 157.400 C 348.321 157.180,348.194 156.910,348.173 156.800 C 347.934 155.596,344.673 148.635,343.524 146.879 C 342.905 145.933,342.145 144.673,341.834 144.079 C 341.522 143.486,340.936 142.640,340.530 142.200 C 340.125 141.760,339.164 140.593,338.396 139.607 C 337.628 138.620,336.384 137.270,335.631 136.607 C 334.878 135.943,334.067 135.220,333.830 135.000 C 332.621 133.878,329.316 131.343,328.529 130.932 C 328.035 130.674,327.129 130.188,326.515 129.852 C 325.475 129.282,321.899 127.655,321.000 127.343 C 316.815 125.888,285.433 125.025,284.129 126.329 M73.144 129.624 L 72.200 130.447 73.400 129.745 C 74.979 128.820,75.003 128.800,74.511 128.800 C 74.279 128.800,73.664 129.171,73.144 129.624 M70.576 130.987 C 70.149 131.310,69.980 131.575,70.200 131.575 C 70.420 131.575,70.949 131.310,71.376 130.987 C 71.804 130.664,71.973 130.400,71.753 130.400 C 71.533 130.400,71.004 130.664,70.576 130.987 M60.700 140.214 C 59.701 141.550,59.831 141.923,60.846 140.633 C 61.311 140.042,61.626 139.495,61.546 139.418 C 61.466 139.341,61.085 139.700,60.700 140.214 M56.796 145.700 C 56.360 146.415,56.002 147.165,56.001 147.367 C 56.000 147.823,56.056 147.748,57.114 145.900 C 58.166 144.063,57.897 143.894,56.796 145.700 M54.181 150.037 C 53.829 150.718,53.612 151.345,53.699 151.432 C 53.786 151.519,54.156 150.962,54.522 150.195 C 55.344 148.470,55.059 148.338,54.181 150.037 M52.428 154.298 C 52.152 154.904,51.958 155.470,51.997 155.555 C 52.036 155.641,51.851 155.845,51.585 156.009 C 51.320 156.173,51.193 156.553,51.303 156.854 C 51.417 157.164,51.874 156.556,52.362 155.443 C 52.834 154.367,53.155 153.421,53.075 153.342 C 52.995 153.262,52.704 153.692,52.428 154.298 M273.701 158.600 C 273.705 159.480,273.787 159.793,273.883 159.295 C 273.979 158.798,273.975 158.078,273.875 157.695 C 273.775 157.313,273.696 157.720,273.701 158.600 M49.800 161.200 C 49.425 162.329,49.199 163.332,49.297 163.430 C 49.395 163.529,49.776 162.679,50.143 161.543 C 50.510 160.407,50.736 159.403,50.646 159.312 C 50.555 159.222,50.175 160.071,49.800 161.200 M272.955 163.900 C 272.834 164.285,272.570 165.013,272.367 165.519 C 271.916 166.649,271.912 166.800,272.333 166.800 C 272.517 166.800,272.681 166.575,272.698 166.300 C 272.716 166.025,272.913 165.215,273.137 164.500 C 273.361 163.785,273.461 163.200,273.360 163.200 C 273.258 163.200,273.076 163.515,272.955 163.900 M48.173 168.259 C 48.020 169.107,47.762 170.070,47.600 170.400 C 47.191 171.233,46.669 174.259,46.990 173.941 C 47.367 173.567,48.882 167.149,48.648 166.915 C 48.540 166.807,48.326 167.412,48.173 168.259 M270.295 171.996 C 269.948 172.878,269.749 173.600,269.853 173.600 C 270.123 173.600,271.278 170.745,271.086 170.552 C 270.997 170.464,270.641 171.113,270.295 171.996 M265.467 179.667 C 265.063 180.107,264.840 180.574,264.971 180.704 C 265.213 180.947,266.364 179.643,266.387 179.100 C 266.405 178.689,266.309 178.747,265.467 179.667 M45.902 181.000 C 45.797 181.550,45.866 182.000,46.055 182.000 C 46.245 182.000,46.400 181.550,46.400 181.000 C 46.400 180.450,46.331 180.000,46.247 180.000 C 46.162 180.000,46.007 180.450,45.902 181.000 M262.378 183.100 L 261.000 184.600 262.500 183.222 C 263.896 181.938,264.184 181.600,263.878 181.600 C 263.812 181.600,263.137 182.275,262.378 183.100 M45.731 185.800 C 45.733 187.340,45.805 187.921,45.892 187.091 C 45.979 186.261,45.977 185.001,45.889 184.291 C 45.800 183.581,45.729 184.260,45.731 185.800 M258.554 186.068 C 257.064 187.190,256.400 187.831,257.200 187.376 C 258.717 186.513,260.472 185.200,260.110 185.200 C 259.889 185.200,259.189 185.591,258.554 186.068 M255.067 187.867 C 254.684 188.249,254.738 188.800,255.157 188.800 C 255.354 188.800,255.618 188.530,255.745 188.200 C 255.979 187.590,255.553 187.381,255.067 187.867 M249.800 190.614 C 248.800 191.096,248.766 191.151,249.600 190.948 C 250.733 190.671,252.007 190.021,251.400 190.030 C 251.180 190.033,250.460 190.296,249.800 190.614 M244.000 192.424 C 244.000 192.657,243.821 192.737,243.603 192.602 C 243.385 192.467,242.890 192.548,242.503 192.781 C 241.919 193.134,241.999 193.183,242.977 193.072 C 243.930 192.964,245.060 192.000,244.233 192.000 C 244.105 192.000,244.000 192.191,244.000 192.424 M148.107 194.776 C 147.177 194.928,146.313 195.154,146.188 195.279 C 145.874 195.593,149.614 195.160,150.600 194.768 L 151.400 194.451 150.600 194.475 C 150.160 194.489,149.038 194.624,148.107 194.776 M139.445 197.528 C 139.333 197.708,139.773 197.777,140.421 197.682 C 141.070 197.587,141.600 197.440,141.600 197.355 C 141.600 197.050,139.643 197.207,139.445 197.528 M135.700 199.212 C 135.205 199.411,134.800 199.645,134.800 199.732 C 134.800 200.028,136.811 199.505,137.030 199.152 C 137.297 198.719,136.880 198.738,135.700 199.212 M129.800 203.600 C 129.168 204.260,128.819 204.790,129.025 204.778 C 129.378 204.757,131.439 202.400,131.105 202.400 C 131.020 202.400,130.432 202.940,129.800 203.600 M126.631 206.872 C 125.844 207.792,125.200 208.732,125.200 208.961 C 125.200 209.190,125.498 208.933,125.861 208.389 C 126.225 207.845,126.979 206.905,127.536 206.300 C 128.094 205.695,128.440 205.200,128.306 205.200 C 128.172 205.200,127.418 205.952,126.631 206.872 M45.728 211.200 C 45.728 212.630,45.801 213.215,45.889 212.500 C 45.978 211.785,45.978 210.615,45.889 209.900 C 45.801 209.185,45.728 209.770,45.728 211.200 M122.067 213.580 C 121.833 214.251,121.727 214.800,121.831 214.800 C 122.101 214.800,122.856 212.722,122.657 212.524 C 122.567 212.433,122.301 212.908,122.067 213.580 M45.902 216.200 C 46.007 216.750,46.162 217.200,46.247 217.200 C 46.331 217.200,46.400 216.750,46.400 216.200 C 46.400 215.650,46.245 215.200,46.055 215.200 C 45.866 215.200,45.797 215.650,45.902 216.200 M120.000 216.903 C 120.000 216.959,119.826 217.634,119.613 218.403 C 119.264 219.661,119.283 219.725,119.800 219.041 C 120.116 218.624,120.280 218.129,120.164 217.941 C 120.048 217.753,120.143 217.600,120.376 217.600 C 120.609 217.600,120.800 217.420,120.800 217.200 C 120.800 216.980,120.620 216.800,120.400 216.800 C 120.180 216.800,120.000 216.846,120.000 216.903 M47.003 225.000 C 47.231 226.570,47.781 228.819,48.420 230.800 C 48.625 231.435,48.660 231.071,48.516 229.800 C 48.391 228.700,48.134 227.497,47.945 227.126 C 47.755 226.756,47.597 226.036,47.594 225.526 C 47.591 225.017,47.404 224.330,47.179 224.000 C 46.883 223.566,46.835 223.842,47.003 225.000 M49.844 237.400 C 50.173 238.871,50.402 239.190,50.394 238.167 C 50.391 237.745,50.205 237.130,49.982 236.800 C 49.685 236.362,49.648 236.524,49.844 237.400 M51.200 242.120 C 51.200 242.494,51.380 242.800,51.600 242.800 C 51.820 242.800,51.971 242.935,51.936 243.100 C 51.866 243.431,52.242 244.520,52.904 245.899 C 53.668 247.496,53.608 246.610,52.801 244.402 C 51.942 242.053,51.200 240.995,51.200 242.120 M53.818 248.100 C 53.968 248.595,54.255 249.176,54.456 249.391 C 54.657 249.606,54.619 249.201,54.372 248.491 C 53.865 247.038,53.397 246.708,53.818 248.100 M56.187 252.775 C 57.055 254.454,57.614 254.647,56.844 253.002 C 56.490 252.245,56.060 251.620,55.890 251.613 C 55.719 251.606,55.853 252.129,56.187 252.775 M58.190 255.900 C 58.810 257.179,59.200 257.544,59.200 256.844 C 59.200 256.649,58.831 256.064,58.380 255.544 L 57.560 254.600 58.190 255.900 M62.800 261.900 C 62.800 262.065,63.475 262.724,64.300 263.364 L 65.800 264.528 64.422 263.064 C 62.983 261.536,62.800 261.405,62.800 261.900 M68.689 267.230 C 69.178 267.739,69.678 268.055,69.801 267.932 C 69.924 267.809,69.524 267.392,68.912 267.006 L 67.800 266.304 68.689 267.230 M78.400 272.563 C 79.512 273.240,80.796 273.431,80.180 272.828 C 79.971 272.624,79.260 272.344,78.600 272.205 L 77.400 271.954 78.400 272.563 M94.274 274.699 C 98.055 274.765,104.355 274.765,108.274 274.699 C 112.193 274.634,109.100 274.580,101.400 274.580 C 93.700 274.580,90.493 274.634,94.274 274.699 M251.777 303.006 C 258.187 306.039,261.011 313.764,258.023 320.090 C 253.180 330.339,239.342 330.582,234.372 320.505 C 228.944 309.502,240.643 297.739,251.777 303.006 " stroke="none" fill="#fcd444" fill-rule="evenodd"></path><path id="path1" d="M211.043 45.091 C 210.883 45.251,204.688 45.413,197.276 45.451 C 184.426 45.516,175.085 45.804,173.933 46.169 C 173.640 46.261,172.232 46.455,170.804 46.599 C 169.376 46.744,167.981 47.050,167.704 47.280 C 167.345 47.578,167.200 47.555,167.200 47.200 C 167.200 46.804,167.078 46.803,166.602 47.198 C 166.273 47.471,165.643 47.600,165.202 47.485 C 164.760 47.369,164.490 47.422,164.601 47.602 C 164.786 47.901,164.091 48.075,160.600 48.608 C 158.390 48.944,155.810 49.537,154.686 49.966 C 154.073 50.200,153.443 50.363,153.286 50.330 C 152.968 50.262,150.931 50.739,150.000 51.099 C 149.670 51.226,149.280 51.346,149.133 51.365 C 148.987 51.384,148.717 51.564,148.533 51.764 C 148.335 51.980,148.444 51.995,148.800 51.800 C 149.143 51.612,149.262 51.623,149.078 51.824 C 148.674 52.267,144.033 54.061,143.129 54.125 C 142.761 54.150,142.565 54.343,142.695 54.554 C 142.827 54.767,142.653 54.829,142.303 54.695 C 141.946 54.558,141.384 54.775,141.000 55.200 C 140.629 55.610,140.072 55.849,139.762 55.730 C 139.424 55.600,139.200 55.769,139.200 56.152 C 139.200 56.502,138.592 57.043,137.849 57.354 C 137.106 57.664,136.375 58.117,136.225 58.359 C 136.075 58.602,135.603 58.800,135.176 58.800 C 134.749 58.800,134.400 59.002,134.400 59.249 C 134.400 59.496,133.355 60.714,132.077 61.957 C 130.800 63.199,129.418 64.784,129.008 65.479 C 128.597 66.174,127.887 66.846,127.431 66.971 C 126.811 67.142,126.732 67.285,127.119 67.535 C 127.540 67.808,127.534 67.957,127.085 68.330 C 126.781 68.582,126.295 69.505,126.006 70.381 C 125.717 71.257,125.373 71.907,125.240 71.825 C 124.804 71.556,124.742 73.607,124.556 94.298 L 124.372 114.796 161.286 114.898 L 198.200 115.000 198.312 119.914 L 198.425 124.828 144.112 124.787 C 106.529 124.759,88.962 124.881,87.080 125.184 C 85.583 125.425,84.188 125.516,83.980 125.387 C 83.771 125.258,83.600 125.358,83.600 125.610 C 83.600 125.861,83.375 125.991,83.100 125.898 C 82.825 125.805,82.021 125.970,81.313 126.264 C 80.605 126.559,79.559 126.800,78.989 126.800 C 78.419 126.800,78.056 126.968,78.183 127.172 C 78.309 127.377,78.230 127.658,78.007 127.796 C 77.783 127.934,77.600 127.846,77.600 127.600 C 77.600 127.354,77.417 127.266,77.193 127.404 C 76.970 127.542,76.881 127.808,76.997 127.995 C 77.112 128.182,76.702 128.446,76.084 128.582 C 75.467 128.717,73.926 129.452,72.661 130.214 C 71.395 130.976,70.054 131.614,69.680 131.632 C 69.204 131.654,69.162 131.728,69.539 131.878 C 69.913 132.027,69.736 132.317,68.964 132.824 C 68.351 133.226,67.676 133.447,67.463 133.315 C 67.250 133.184,67.188 133.257,67.325 133.478 C 67.461 133.699,67.129 134.117,66.586 134.407 C 66.044 134.698,65.600 135.095,65.600 135.291 C 65.600 135.487,65.420 135.536,65.200 135.400 C 64.980 135.264,64.800 135.438,64.800 135.786 C 64.800 136.135,64.388 136.577,63.884 136.768 C 63.380 136.960,62.705 137.450,62.384 137.858 C 61.835 138.556,61.847 138.564,62.600 138.000 C 63.342 137.444,63.360 137.451,62.851 138.100 C 62.549 138.485,62.043 138.800,61.727 138.800 C 61.411 138.800,61.265 138.982,61.402 139.204 C 61.540 139.426,61.297 140.060,60.862 140.612 C 60.326 141.293,60.006 141.453,59.868 141.108 C 59.755 140.829,59.649 140.995,59.632 141.477 C 59.614 141.960,59.285 142.590,58.900 142.877 C 58.515 143.165,58.170 143.581,58.133 143.801 C 57.949 144.900,56.072 147.634,55.842 147.138 C 55.704 146.842,55.666 147.005,55.758 147.500 C 55.850 147.995,55.787 148.400,55.617 148.400 C 55.301 148.400,53.690 151.841,52.770 154.479 C 52.487 155.292,52.128 155.879,51.973 155.783 C 51.817 155.687,51.715 155.922,51.745 156.304 C 51.775 156.687,51.575 156.955,51.300 156.900 C 51.025 156.845,50.800 156.980,50.800 157.200 C 50.800 157.420,50.982 157.600,51.203 157.600 C 51.462 157.600,51.474 157.852,51.237 158.300 C 50.513 159.671,49.223 164.245,48.758 167.089 C 48.499 168.677,48.145 169.889,47.971 169.782 C 47.797 169.675,47.525 169.798,47.366 170.055 C 47.185 170.348,47.250 170.416,47.538 170.238 C 48.098 169.892,48.101 170.139,47.564 172.200 C 46.614 175.843,46.417 177.259,46.116 182.600 C 45.525 193.067,45.839 217.548,46.617 221.800 C 46.738 222.460,46.996 223.540,47.191 224.200 C 48.111 227.312,49.723 235.273,49.757 236.871 C 49.765 237.239,49.890 237.468,50.036 237.378 C 50.257 237.241,50.871 239.618,50.971 241.000 C 50.987 241.220,51.252 241.598,51.561 241.839 C 51.897 242.102,51.992 242.489,51.799 242.801 C 51.592 243.137,51.633 243.227,51.917 243.052 C 52.183 242.887,52.505 243.297,52.731 244.090 C 52.937 244.810,53.467 246.300,53.908 247.400 C 54.349 248.500,54.711 249.551,54.714 249.736 C 54.716 249.920,55.096 250.507,55.559 251.039 C 56.022 251.571,56.400 252.153,56.400 252.333 C 56.400 252.512,57.030 253.545,57.800 254.628 C 59.252 256.671,59.560 257.463,58.700 256.947 C 58.356 256.740,58.370 256.856,58.745 257.319 C 59.045 257.689,59.422 257.910,59.582 257.811 C 59.941 257.589,61.754 259.979,61.454 260.279 C 61.235 260.499,62.353 261.795,62.771 261.806 C 63.373 261.822,63.984 262.503,63.745 262.889 C 63.597 263.128,63.660 263.210,63.885 263.071 C 64.109 262.932,64.632 263.206,65.047 263.678 C 65.539 264.240,65.592 264.424,65.200 264.210 C 64.870 264.030,65.046 264.314,65.591 264.841 C 66.135 265.369,66.675 265.801,66.791 265.802 C 67.630 265.812,70.002 267.752,69.535 268.048 C 69.152 268.292,69.259 268.389,69.916 268.394 C 70.666 268.399,72.715 269.515,73.600 270.400 C 73.710 270.510,74.070 270.651,74.400 270.714 C 75.440 270.911,77.200 271.687,77.201 271.949 C 77.201 272.087,77.737 272.219,78.390 272.242 C 79.044 272.265,79.871 272.527,80.230 272.825 C 80.947 273.420,81.279 273.505,84.200 273.839 C 85.300 273.965,86.463 274.151,86.784 274.253 C 87.641 274.526,115.076 274.423,115.802 274.144 C 116.349 273.934,116.417 271.576,116.389 253.708 C 116.372 242.599,116.457 233.410,116.579 233.288 C 116.700 233.166,116.800 232.297,116.800 231.357 C 116.800 230.417,116.965 229.545,117.167 229.420 C 117.369 229.296,117.525 228.185,117.514 226.953 C 117.503 225.721,117.653 224.597,117.847 224.456 C 118.041 224.315,118.201 224.020,118.202 223.800 C 118.206 222.712,119.786 217.668,120.067 217.842 C 120.245 217.952,120.284 217.762,120.153 217.421 C 119.990 216.998,120.151 216.798,120.657 216.794 C 121.283 216.789,121.306 216.727,120.800 216.400 C 120.456 216.178,120.400 216.010,120.667 216.006 C 120.924 216.003,121.443 215.190,121.821 214.200 C 122.199 213.210,122.664 212.400,122.854 212.400 C 123.044 212.400,123.200 212.124,123.200 211.787 C 123.200 211.451,123.459 211.076,123.775 210.954 C 124.107 210.827,124.247 210.466,124.105 210.097 C 123.927 209.632,124.034 209.528,124.506 209.708 C 124.961 209.883,125.190 209.698,125.285 209.078 C 125.359 208.595,125.633 208.243,125.895 208.295 C 126.157 208.348,126.282 208.159,126.174 207.877 C 125.911 207.191,131.916 201.482,132.617 201.751 C 132.925 201.869,133.266 201.622,133.406 201.180 C 133.543 200.751,134.002 200.400,134.427 200.400 C 134.852 200.400,135.155 200.208,135.100 199.974 C 135.045 199.740,135.885 199.206,136.967 198.788 C 138.048 198.369,139.119 197.841,139.347 197.613 C 139.574 197.386,140.176 197.200,140.684 197.200 C 141.193 197.200,142.372 196.865,143.304 196.457 C 144.237 196.048,145.535 195.493,146.190 195.224 C 148.261 194.373,154.005 194.233,197.200 193.979 C 241.343 193.719,241.466 193.716,242.352 192.877 C 242.655 192.589,243.138 192.444,243.426 192.555 C 243.713 192.665,244.036 192.540,244.143 192.278 C 244.287 191.923,244.345 191.928,244.368 192.300 C 244.386 192.575,244.805 192.797,245.300 192.794 C 246.001 192.789,246.072 192.707,245.621 192.421 C 245.050 192.060,245.405 191.885,247.624 191.435 C 247.941 191.370,248.870 191.021,249.689 190.658 C 250.508 190.295,251.588 189.922,252.089 189.829 C 252.590 189.736,253.045 189.624,253.100 189.580 C 253.216 189.487,253.844 189.322,254.353 189.250 C 254.548 189.222,254.801 188.840,254.916 188.400 C 255.031 187.960,255.457 187.595,255.863 187.589 C 256.268 187.583,257.307 187.043,258.171 186.389 C 259.035 185.735,259.913 185.200,260.121 185.200 C 260.329 185.200,261.213 184.389,262.085 183.398 C 262.957 182.407,263.822 181.690,264.007 181.804 C 264.191 181.918,264.466 181.621,264.618 181.143 C 264.770 180.666,265.291 179.898,265.777 179.438 C 266.264 178.977,266.996 178.025,267.404 177.322 C 267.813 176.619,268.262 176.114,268.402 176.201 C 268.542 176.288,268.977 175.468,269.368 174.380 C 269.787 173.217,270.253 172.509,270.502 172.663 C 270.742 172.811,270.806 172.734,270.650 172.481 C 270.307 171.926,271.737 167.610,272.399 167.200 C 272.774 166.969,272.778 166.859,272.413 166.738 C 271.930 166.577,272.122 165.858,273.350 163.240 C 274.345 161.118,273.921 78.709,272.910 77.668 C 272.625 77.375,272.495 76.970,272.620 76.768 C 272.745 76.565,272.657 76.400,272.424 76.400 C 272.191 76.400,272.000 76.119,272.000 75.776 C 272.000 75.433,272.180 75.264,272.400 75.400 C 272.620 75.536,272.800 75.457,272.800 75.224 C 272.800 74.991,272.548 74.800,272.239 74.800 C 271.598 74.800,270.679 72.520,271.067 71.892 C 271.227 71.632,271.125 71.599,270.794 71.804 C 270.406 72.044,270.335 71.947,270.527 71.445 C 270.672 71.067,270.634 70.856,270.442 70.974 C 270.250 71.093,269.870 70.652,269.598 69.995 C 269.326 69.338,268.950 68.800,268.764 68.800 C 268.578 68.800,268.540 68.500,268.681 68.134 C 268.852 67.687,268.783 67.564,268.468 67.758 C 268.211 67.917,268.000 67.845,268.000 67.598 C 268.000 66.354,258.283 57.627,256.876 57.607 C 256.588 57.603,256.464 57.420,256.600 57.200 C 256.736 56.980,256.468 56.800,256.005 56.800 C 255.541 56.800,254.745 56.350,254.235 55.800 C 253.725 55.250,252.997 54.800,252.616 54.800 C 252.004 54.800,249.739 53.739,249.200 53.200 C 249.090 53.090,248.820 52.994,248.600 52.988 C 247.102 52.941,245.450 52.269,246.189 52.007 C 246.890 51.758,246.857 51.704,245.901 51.521 C 245.221 51.391,244.918 51.467,245.078 51.727 C 245.218 51.953,244.903 51.837,244.377 51.469 C 243.852 51.101,243.102 50.800,242.711 50.800 C 242.320 50.800,242.000 50.608,242.000 50.373 C 242.000 50.128,241.659 50.054,241.200 50.200 C 240.751 50.342,240.400 50.272,240.400 50.040 C 240.400 49.812,240.139 49.725,239.819 49.848 C 239.500 49.971,239.005 49.925,238.719 49.747 C 238.434 49.569,237.840 49.372,237.400 49.309 C 236.960 49.246,234.710 48.818,232.400 48.358 C 230.090 47.898,228.020 47.489,227.800 47.450 C 227.580 47.410,227.183 47.242,226.919 47.077 C 226.654 46.911,225.124 46.669,223.519 46.539 C 221.913 46.409,220.546 46.163,220.481 45.993 C 220.415 45.824,220.009 45.777,219.578 45.890 C 218.355 46.210,211.172 45.569,211.423 45.163 C 211.692 44.728,211.451 44.683,211.043 45.091 M159.690 69.415 C 169.456 71.527,172.960 84.213,165.765 91.409 C 162.200 94.974,155.919 96.159,151.468 94.107 C 137.039 87.456,144.164 66.058,159.690 69.415 " stroke="none" fill="#3474a4" fill-rule="evenodd"></path><path id="path2" d="M153.800 69.396 C 138.558 72.924,141.154 95.063,156.800 94.980 C 168.070 94.920,173.802 81.905,166.308 73.391 C 163.219 69.881,158.381 68.336,153.800 69.396 M292.100 125.899 C 296.005 125.965,302.395 125.965,306.300 125.899 C 310.205 125.834,307.010 125.780,299.200 125.780 C 291.390 125.780,288.195 125.834,292.100 125.899 M353.915 219.600 C 353.818 220.260,353.887 220.800,354.069 220.800 C 354.251 220.800,354.400 220.260,354.400 219.600 C 354.400 218.940,354.330 218.400,354.245 218.400 C 354.160 218.400,354.012 218.940,353.915 219.600 M243.094 302.011 C 237.349 303.457,233.012 308.969,233.029 314.800 C 233.069 328.914,251.964 332.913,258.023 320.090 C 262.550 310.507,253.392 299.417,243.094 302.011 " stroke="none" fill="#fafaf8" fill-rule="evenodd"></path></g></svg>