<svg id="svg" version="1.1" xmlns="http://www.w3.org/2000/svg" xmlns:xlink="http://www.w3.org/1999/xlink" width="400" height="400" viewBox="0, 0, 400,400"><g id="svgg"><path id="path0" d="M257.600 104.926 C 250.346 106.607,246.489 114.291,249.638 120.789 C 251.040 123.682,253.684 125.831,259.000 128.397 C 264.165 130.890,264.828 131.412,265.807 133.756 C 266.602 135.658,266.317 137.074,264.806 138.728 C 262.295 141.478,257.155 139.763,256.549 135.972 C 256.197 133.772,255.235 133.200,251.885 133.200 C 247.895 133.200,247.652 133.409,248.070 136.471 C 249.685 148.276,269.549 150.635,274.043 139.556 C 275.559 135.819,274.565 130.656,271.673 127.243 C 269.833 125.073,267.686 123.757,261.964 121.293 C 259.755 120.341,257.218 117.911,257.154 116.687 C 256.833 110.515,264.238 109.393,266.235 115.311 L 266.670 116.600 270.503 116.714 C 275.109 116.851,275.302 116.632,273.881 112.854 C 271.415 106.292,265.059 103.197,257.600 104.926 M289.600 104.800 C 281.184 105.903,277.288 115.173,282.157 122.508 C 283.479 124.501,288.861 128.400,290.288 128.400 C 290.800 128.400,293.539 129.804,295.319 130.978 C 298.502 133.079,298.026 139.184,294.630 139.821 C 291.213 140.462,288.325 138.708,287.814 135.681 C 287.438 133.459,286.658 133.085,282.769 133.262 C 278.748 133.445,278.585 133.621,279.456 136.839 C 283.367 151.279,306.000 149.723,306.000 135.014 C 306.000 132.762,304.972 129.396,303.833 127.919 C 302.791 126.568,298.480 123.200,297.792 123.200 C 296.284 123.200,290.549 119.825,289.250 118.172 C 287.090 115.427,289.150 111.600,292.787 111.600 C 294.971 111.600,296.104 112.300,296.811 114.084 C 297.790 116.556,298.222 116.800,301.629 116.800 C 306.436 116.800,306.694 116.488,305.223 112.463 C 303.010 106.408,297.595 103.752,289.600 104.800 M94.900 105.212 L 94.000 105.574 94.000 125.769 L 94.000 145.964 95.300 146.205 C 97.022 146.524,117.059 146.276,117.402 145.932 C 117.550 145.784,117.766 144.604,117.884 143.309 C 118.213 139.675,118.063 139.600,110.460 139.600 C 102.081 139.600,102.400 139.836,102.400 133.620 C 102.400 127.967,101.857 128.400,108.953 128.400 C 115.142 128.400,115.200 128.369,115.200 125.000 C 115.200 121.631,115.142 121.600,108.953 121.600 C 101.896 121.600,102.400 121.969,102.400 116.800 C 102.400 111.600,101.787 112.002,109.733 111.994 C 117.540 111.987,117.760 111.888,117.917 108.335 L 118.034 105.690 116.758 105.245 C 115.206 104.704,96.235 104.676,94.900 105.212 M121.325 105.203 L 120.451 105.555 121.768 108.278 C 128.239 121.648,129.486 124.318,129.672 125.211 C 129.742 125.547,129.142 127.167,128.337 128.811 C 126.982 131.582,125.978 133.701,122.279 141.600 C 120.013 146.440,119.863 146.181,125.010 146.312 L 129.420 146.425 130.510 144.272 C 131.110 143.089,131.600 141.865,131.600 141.554 C 131.600 141.243,131.936 140.361,132.347 139.594 C 132.757 138.827,133.216 137.660,133.366 137.000 C 133.863 134.810,136.400 132.718,136.400 134.497 C 136.400 134.745,136.750 135.679,137.177 136.574 C 137.910 138.108,138.436 139.455,139.895 143.528 C 140.808 146.080,141.630 146.452,146.049 146.316 C 150.459 146.179,150.675 145.918,149.079 142.648 C 147.431 139.271,143.775 131.584,142.448 128.705 C 141.120 125.823,141.196 122.765,142.628 121.577 C 142.942 121.316,143.200 120.917,143.200 120.691 C 143.200 120.302,145.003 116.449,148.452 109.468 C 150.729 104.860,150.692 104.800,145.586 104.800 C 141.545 104.800,140.521 105.265,139.959 107.354 C 139.718 108.246,139.269 109.337,138.961 109.777 C 138.652 110.218,138.399 110.853,138.398 111.189 C 138.396 111.525,138.108 112.340,137.757 113.000 C 137.406 113.660,136.857 115.067,136.536 116.126 L 135.954 118.052 134.777 116.571 C 134.130 115.756,133.598 114.800,133.596 114.445 C 133.594 114.090,133.150 112.900,132.609 111.800 C 132.068 110.700,131.619 109.655,131.613 109.478 C 131.587 108.832,129.885 105.392,129.449 105.106 C 128.824 104.697,122.391 104.774,121.325 105.203 M155.300 105.251 C 154.751 105.810,154.618 143.258,155.158 145.200 C 155.430 146.177,155.525 146.200,159.218 146.200 L 163.000 146.200 163.110 139.429 C 163.245 131.137,162.928 131.600,168.466 131.600 C 177.591 131.600,182.400 126.942,182.400 118.104 C 182.400 112.869,179.756 108.518,175.230 106.306 L 172.600 105.021 164.200 104.882 C 157.781 104.775,155.682 104.863,155.300 105.251 M188.700 105.203 C 187.969 105.659,187.652 142.655,188.357 145.200 C 188.620 146.151,188.797 146.206,191.956 146.317 C 196.566 146.479,196.400 146.747,196.400 139.125 C 196.400 131.280,197.017 130.003,200.029 131.616 C 200.719 131.985,203.200 136.730,203.200 137.680 C 203.200 138.126,204.863 141.911,206.153 144.400 L 207.085 146.200 210.241 146.319 C 215.484 146.516,216.029 146.037,214.445 142.626 C 212.097 137.572,211.600 136.399,211.600 135.914 C 211.600 135.619,211.368 135.023,211.085 134.589 C 210.802 134.155,210.148 132.749,209.632 131.465 L 208.694 129.130 210.906 126.865 C 216.960 120.665,215.415 109.933,207.929 106.196 C 205.528 104.997,190.291 104.210,188.700 105.203 M220.900 105.212 L 220.000 105.574 220.000 124.961 C 220.000 136.590,220.156 144.759,220.390 145.374 L 220.780 146.400 231.741 146.400 C 244.121 146.400,243.589 146.538,243.905 143.245 C 244.247 139.694,244.201 139.671,236.367 139.526 C 228.001 139.372,228.400 139.670,228.400 133.573 C 228.400 128.190,228.054 128.448,235.428 128.311 L 241.400 128.200 241.400 125.000 L 241.400 121.800 235.428 121.689 C 228.182 121.554,228.398 121.691,228.405 117.251 C 228.415 111.530,227.754 112.000,235.785 112.000 C 243.977 112.000,244.000 111.989,244.000 108.083 C 244.000 106.065,243.862 105.554,243.226 105.214 C 242.262 104.698,222.183 104.697,220.900 105.212 M171.851 113.116 C 173.466 114.515,174.161 117.439,173.593 120.439 C 173.377 121.578,173.200 122.568,173.200 122.640 C 173.200 124.242,164.639 125.743,163.733 124.300 C 163.304 123.615,163.047 116.014,163.379 113.800 L 163.649 112.000 167.125 112.016 C 170.317 112.031,170.702 112.121,171.851 113.116 M203.614 112.810 C 206.910 115.157,206.740 122.030,203.351 123.446 C 201.268 124.317,197.327 124.184,196.814 123.226 C 196.363 122.384,196.246 115.268,196.650 113.250 L 196.900 112.000 199.688 112.000 C 201.847 112.000,202.733 112.183,203.614 112.810 M185.076 185.116 C 184.488 185.765,184.414 189.872,184.287 228.816 C 184.136 275.358,184.167 274.694,181.973 278.244 C 179.649 282.004,177.445 282.975,171.200 282.989 C 164.401 283.005,160.157 280.725,155.146 274.362 C 152.557 271.076,151.716 270.793,149.645 272.511 C 149.290 272.805,148.550 273.262,148.000 273.527 C 147.450 273.792,146.460 274.362,145.800 274.793 C 145.140 275.224,143.970 275.949,143.200 276.402 C 142.430 276.856,140.990 277.757,140.000 278.406 C 139.010 279.054,137.840 279.774,137.400 280.007 C 131.411 283.174,131.456 284.362,137.863 292.200 C 142.773 298.206,146.445 301.265,152.962 304.779 C 160.865 309.041,173.924 310.997,181.200 309.010 C 182.410 308.680,183.943 308.407,184.606 308.405 C 185.269 308.402,186.484 308.040,187.304 307.600 C 188.125 307.160,188.989 306.800,189.223 306.800 C 189.905 306.800,193.989 304.778,195.977 303.458 C 202.390 299.196,206.197 293.499,209.248 283.600 L 210.172 280.600 210.307 233.313 C 210.403 199.771,210.316 185.790,210.007 185.213 C 209.371 184.024,186.145 183.934,185.076 185.116 M259.434 184.879 C 257.253 185.082,254.997 185.491,254.420 185.789 C 253.844 186.088,252.659 186.464,251.786 186.627 C 250.358 186.893,248.013 187.851,246.400 188.827 C 246.070 189.026,245.260 189.487,244.600 189.850 C 242.497 191.006,238.502 194.365,236.913 196.314 C 234.491 199.285,231.602 203.923,231.598 204.847 C 231.596 205.151,231.326 205.915,230.998 206.545 C 228.265 211.784,229.324 228.789,232.732 234.400 C 237.196 241.751,242.989 247.234,250.319 251.046 C 251.794 251.813,253.270 252.599,253.600 252.792 C 253.930 252.985,255.055 253.516,256.100 253.972 C 257.145 254.427,258.765 255.142,259.700 255.560 C 260.635 255.977,262.570 256.806,264.000 257.400 C 267.305 258.774,268.059 259.112,268.800 259.547 C 269.130 259.740,270.634 260.507,272.143 261.249 C 276.827 263.556,277.193 263.790,279.194 265.755 C 284.170 270.641,284.435 278.338,279.787 282.987 C 274.648 288.125,262.193 288.413,255.002 283.560 C 252.312 281.744,247.090 276.343,246.633 274.904 C 246.494 274.465,246.024 273.784,245.590 273.391 C 245.155 272.998,244.800 272.440,244.800 272.151 C 244.800 271.862,244.327 271.378,243.750 271.075 C 242.738 270.545,242.425 270.706,235.250 275.459 C 231.152 278.174,227.195 280.792,226.455 281.279 C 223.392 283.295,223.564 284.387,227.902 290.456 C 239.464 306.632,259.376 313.071,282.200 308.015 C 299.463 304.190,310.129 290.502,309.485 273.000 C 308.989 259.559,303.118 249.541,292.000 243.169 C 286.124 239.801,282.427 237.879,277.800 235.785 C 273.193 233.701,272.003 233.200,271.657 233.200 C 271.441 233.200,269.765 232.457,267.932 231.549 C 266.100 230.641,263.623 229.426,262.428 228.849 C 258.561 226.981,255.457 223.477,254.748 220.180 C 251.677 205.904,270.773 200.860,280.036 213.500 C 281.294 215.216,282.452 216.400,282.873 216.400 C 283.669 216.400,286.764 214.537,294.724 209.266 C 296.772 207.910,298.611 206.800,298.810 206.800 C 299.674 206.800,301.951 204.338,301.698 203.677 C 300.442 200.404,292.547 192.005,288.800 189.957 C 288.030 189.536,287.130 189.025,286.800 188.821 C 281.038 185.257,270.971 183.807,259.434 184.879 " stroke="none" fill="#060504" fill-rule="evenodd"></path><path id="path1" d="M174.000 0.400 C 174.000 0.647,171.934 0.800,168.603 0.800 C 163.640 0.800,163.167 0.864,162.707 1.600 C 162.274 2.294,161.774 2.400,158.936 2.400 C 155.322 2.400,154.400 2.612,154.400 3.443 C 154.400 3.850,153.821 4.000,152.250 4.000 C 148.985 4.000,147.600 4.372,147.600 5.250 C 147.600 5.906,147.276 6.000,145.000 6.000 C 142.667 6.000,142.400 6.082,142.400 6.800 C 142.400 7.530,142.133 7.600,139.363 7.600 C 136.662 7.600,136.302 7.689,136.116 8.400 C 135.940 9.074,135.570 9.200,133.767 9.200 C 132.038 9.200,131.546 9.353,131.200 10.000 C 130.882 10.593,130.362 10.800,129.186 10.800 C 127.867 10.800,127.600 10.935,127.600 11.600 C 127.600 12.294,127.333 12.400,125.596 12.400 C 124.087 12.400,123.423 12.598,122.907 13.200 C 122.530 13.640,121.827 14.000,121.344 14.000 C 119.939 14.000,119.200 14.429,119.200 15.243 C 119.200 15.860,118.903 16.000,117.600 16.000 C 116.267 16.000,116.000 16.133,116.000 16.800 C 116.000 17.503,115.733 17.600,113.803 17.600 C 112.040 17.600,111.508 17.758,111.107 18.400 C 110.832 18.840,110.216 19.200,109.736 19.200 C 108.447 19.200,107.600 19.613,107.600 20.243 C 107.600 20.565,107.193 20.800,106.633 20.800 C 105.252 20.800,104.400 21.198,104.400 21.843 C 104.400 22.149,104.023 22.400,103.563 22.400 C 103.062 22.400,102.641 22.721,102.516 23.200 C 102.383 23.708,101.970 24.000,101.386 24.000 C 99.940 24.000,99.200 24.421,99.200 25.243 C 99.200 25.860,98.903 26.000,97.600 26.000 C 96.267 26.000,96.000 26.133,96.000 26.800 C 96.000 27.452,95.733 27.600,94.563 27.600 C 93.462 27.600,93.076 27.787,92.916 28.400 C 92.781 28.918,92.370 29.200,91.753 29.200 C 91.067 29.200,90.800 29.424,90.800 30.000 C 90.800 30.622,90.533 30.800,89.603 30.800 C 88.840 30.800,88.226 31.090,87.907 31.600 C 87.632 32.040,87.091 32.400,86.704 32.400 C 86.277 32.400,86.000 32.702,86.000 33.165 C 86.000 33.745,85.615 33.995,84.400 34.200 C 83.185 34.405,82.800 34.655,82.800 35.235 C 82.800 35.784,82.518 36.000,81.800 36.000 C 81.067 36.000,80.800 36.213,80.800 36.800 C 80.800 37.333,80.533 37.600,80.000 37.600 C 79.467 37.600,79.200 37.867,79.200 38.400 C 79.200 38.979,78.933 39.200,78.233 39.200 C 76.852 39.200,76.000 39.598,76.000 40.243 C 76.000 40.549,75.640 40.800,75.200 40.800 C 74.667 40.800,74.400 41.067,74.400 41.600 C 74.400 42.145,74.133 42.400,73.563 42.400 C 73.075 42.400,72.642 42.719,72.526 43.163 C 72.416 43.583,71.983 44.016,71.563 44.126 C 71.119 44.242,70.800 44.675,70.800 45.163 C 70.800 45.733,70.545 46.000,70.000 46.000 C 69.467 46.000,69.200 46.267,69.200 46.800 C 69.200 47.467,68.933 47.600,67.600 47.600 C 66.267 47.600,66.000 47.733,66.000 48.400 C 66.000 48.933,65.733 49.200,65.200 49.200 C 64.667 49.200,64.400 49.467,64.400 50.000 C 64.400 50.545,64.133 50.800,63.563 50.800 C 63.075 50.800,62.642 51.119,62.526 51.563 C 62.416 51.983,61.983 52.416,61.563 52.526 C 61.143 52.635,60.800 53.000,60.800 53.336 C 60.800 53.671,60.440 54.060,60.000 54.200 C 59.560 54.340,59.200 54.802,59.200 55.227 C 59.200 55.733,58.924 56.000,58.400 56.000 C 57.867 56.000,57.600 56.267,57.600 56.800 C 57.600 57.333,57.333 57.600,56.800 57.600 C 56.267 57.600,56.000 57.867,56.000 58.400 C 56.000 58.924,55.733 59.200,55.227 59.200 C 54.802 59.200,54.346 59.541,54.214 59.957 C 54.082 60.373,53.619 60.806,53.187 60.919 C 52.754 61.033,52.400 61.391,52.400 61.716 C 52.400 62.041,52.040 62.401,51.600 62.516 C 51.121 62.641,50.800 63.062,50.800 63.563 C 50.800 64.133,50.545 64.400,50.000 64.400 C 49.467 64.400,49.200 64.667,49.200 65.200 C 49.200 65.733,48.933 66.000,48.400 66.000 C 47.733 66.000,47.600 66.267,47.600 67.600 C 47.600 68.933,47.467 69.200,46.800 69.200 C 46.267 69.200,46.000 69.467,46.000 70.000 C 46.000 70.545,45.733 70.800,45.163 70.800 C 44.675 70.800,44.242 71.119,44.126 71.563 C 44.016 71.983,43.583 72.416,43.163 72.526 C 42.719 72.642,42.400 73.075,42.400 73.563 C 42.400 74.133,42.145 74.400,41.600 74.400 C 41.067 74.400,40.800 74.667,40.800 75.200 C 40.800 75.640,40.549 76.000,40.243 76.000 C 39.598 76.000,39.200 76.852,39.200 78.233 C 39.200 78.933,38.979 79.200,38.400 79.200 C 37.867 79.200,37.600 79.467,37.600 80.000 C 37.600 80.533,37.333 80.800,36.800 80.800 C 36.213 80.800,36.000 81.067,36.000 81.800 C 36.000 82.518,35.784 82.800,35.235 82.800 C 34.655 82.800,34.405 83.185,34.200 84.400 C 33.995 85.615,33.745 86.000,33.165 86.000 C 32.702 86.000,32.400 86.277,32.400 86.704 C 32.400 87.091,32.040 87.632,31.600 87.907 C 31.090 88.226,30.800 88.840,30.800 89.603 C 30.800 90.533,30.622 90.800,30.000 90.800 C 29.424 90.800,29.200 91.067,29.200 91.753 C 29.200 92.370,28.918 92.781,28.400 92.916 C 27.787 93.076,27.600 93.462,27.600 94.563 C 27.600 95.733,27.452 96.000,26.800 96.000 C 26.133 96.000,26.000 96.267,26.000 97.600 C 26.000 98.903,25.860 99.200,25.243 99.200 C 24.421 99.200,24.000 99.940,24.000 101.386 C 24.000 101.970,23.708 102.383,23.200 102.516 C 22.721 102.641,22.400 103.062,22.400 103.563 C 22.400 104.023,22.149 104.400,21.843 104.400 C 21.198 104.400,20.800 105.252,20.800 106.633 C 20.800 107.193,20.565 107.600,20.243 107.600 C 19.613 107.600,19.200 108.447,19.200 109.736 C 19.200 110.216,18.840 110.832,18.400 111.107 C 17.758 111.508,17.600 112.040,17.600 113.803 C 17.600 115.733,17.503 116.000,16.800 116.000 C 16.133 116.000,16.000 116.267,16.000 117.600 C 16.000 118.903,15.860 119.200,15.243 119.200 C 14.429 119.200,14.000 119.939,14.000 121.344 C 14.000 121.827,13.640 122.530,13.200 122.907 C 12.598 123.423,12.400 124.087,12.400 125.596 C 12.400 127.333,12.294 127.600,11.600 127.600 C 10.935 127.600,10.800 127.867,10.800 129.186 C 10.800 130.362,10.593 130.882,10.000 131.200 C 9.353 131.546,9.200 132.038,9.200 133.767 C 9.200 135.570,9.074 135.940,8.400 136.116 C 7.689 136.302,7.600 136.662,7.600 139.363 C 7.600 142.133,7.530 142.400,6.800 142.400 C 6.082 142.400,6.000 142.667,6.000 145.000 C 6.000 147.276,5.906 147.600,5.250 147.600 C 4.372 147.600,4.000 148.985,4.000 152.250 C 4.000 153.821,3.850 154.400,3.443 154.400 C 2.612 154.400,2.400 155.322,2.400 158.936 C 2.400 161.774,2.294 162.274,1.600 162.707 C 0.864 163.167,0.800 163.640,0.800 168.603 C 0.800 171.934,0.647 174.000,0.400 174.000 C 0.137 174.000,0.000 182.933,0.000 200.000 C 0.000 217.067,0.137 226.000,0.400 226.000 C 0.647 226.000,0.800 228.066,0.800 231.397 C 0.800 236.360,0.864 236.833,1.600 237.293 C 2.269 237.711,2.400 238.226,2.400 240.446 C 2.400 243.849,2.757 245.600,3.450 245.600 C 3.848 245.600,4.000 246.192,4.000 247.750 C 4.000 251.015,4.372 252.400,5.250 252.400 C 5.906 252.400,6.000 252.724,6.000 255.000 C 6.000 257.333,6.082 257.600,6.800 257.600 C 7.530 257.600,7.600 257.867,7.600 260.637 C 7.600 263.338,7.689 263.698,8.400 263.884 C 9.074 264.060,9.200 264.430,9.200 266.233 C 9.200 267.962,9.353 268.454,10.000 268.800 C 10.593 269.118,10.800 269.638,10.800 270.814 C 10.800 272.133,10.935 272.400,11.600 272.400 C 12.294 272.400,12.400 272.667,12.400 274.404 C 12.400 275.913,12.598 276.577,13.200 277.093 C 13.640 277.470,14.000 278.173,14.000 278.656 C 14.000 280.061,14.429 280.800,15.243 280.800 C 15.860 280.800,16.000 281.097,16.000 282.400 C 16.000 283.733,16.133 284.000,16.800 284.000 C 17.503 284.000,17.600 284.267,17.600 286.197 C 17.600 287.960,17.758 288.492,18.400 288.893 C 18.840 289.168,19.200 289.784,19.200 290.264 C 19.200 291.553,19.613 292.400,20.243 292.400 C 20.549 292.400,20.800 292.760,20.800 293.200 C 20.800 293.733,21.067 294.000,21.600 294.000 C 22.270 294.000,22.400 294.267,22.400 295.637 C 22.400 296.938,22.564 297.318,23.200 297.484 C 23.708 297.617,24.000 298.030,24.000 298.614 C 24.000 300.060,24.421 300.800,25.243 300.800 C 25.860 300.800,26.000 301.097,26.000 302.400 C 26.000 303.733,26.133 304.000,26.800 304.000 C 27.345 304.000,27.600 304.267,27.600 304.837 C 27.600 305.338,27.921 305.759,28.400 305.884 C 29.027 306.048,29.200 306.430,29.200 307.647 C 29.200 308.933,29.337 309.200,30.000 309.200 C 30.622 309.200,30.800 309.467,30.800 310.397 C 30.800 311.160,31.090 311.774,31.600 312.093 C 32.040 312.368,32.400 312.909,32.400 313.296 C 32.400 313.723,32.702 314.000,33.165 314.000 C 33.745 314.000,33.995 314.385,34.200 315.600 C 34.405 316.815,34.655 317.200,35.235 317.200 C 35.784 317.200,36.000 317.482,36.000 318.200 C 36.000 318.933,36.213 319.200,36.800 319.200 C 37.333 319.200,37.600 319.467,37.600 320.000 C 37.600 320.533,37.867 320.800,38.400 320.800 C 38.979 320.800,39.200 321.067,39.200 321.767 C 39.200 323.148,39.598 324.000,40.243 324.000 C 40.549 324.000,40.800 324.360,40.800 324.800 C 40.800 325.333,41.067 325.600,41.600 325.600 C 42.145 325.600,42.400 325.867,42.400 326.437 C 42.400 326.925,42.719 327.358,43.163 327.474 C 43.583 327.584,44.016 328.017,44.126 328.437 C 44.242 328.881,44.675 329.200,45.163 329.200 C 45.733 329.200,46.000 329.455,46.000 330.000 C 46.000 330.533,46.267 330.800,46.800 330.800 C 47.452 330.800,47.600 331.067,47.600 332.237 C 47.600 333.338,47.787 333.724,48.400 333.884 C 48.843 334.000,49.200 334.430,49.200 334.847 C 49.200 335.333,49.483 335.600,50.000 335.600 C 50.545 335.600,50.800 335.867,50.800 336.437 C 50.800 336.938,51.121 337.359,51.600 337.484 C 52.040 337.599,52.400 337.959,52.400 338.284 C 52.400 338.609,52.754 338.967,53.187 339.081 C 53.619 339.194,54.082 339.627,54.214 340.043 C 54.346 340.459,54.802 340.800,55.227 340.800 C 55.733 340.800,56.000 341.076,56.000 341.600 C 56.000 342.133,56.267 342.400,56.800 342.400 C 57.333 342.400,57.600 342.667,57.600 343.200 C 57.600 343.733,57.867 344.000,58.400 344.000 C 58.924 344.000,59.200 344.267,59.200 344.773 C 59.200 345.198,59.560 345.660,60.000 345.800 C 60.440 345.940,60.800 346.329,60.800 346.664 C 60.800 347.000,61.143 347.365,61.563 347.474 C 61.983 347.584,62.416 348.017,62.526 348.437 C 62.642 348.881,63.075 349.200,63.563 349.200 C 64.133 349.200,64.400 349.455,64.400 350.000 C 64.400 350.517,64.667 350.800,65.153 350.800 C 65.570 350.800,66.000 351.157,66.116 351.600 C 66.276 352.213,66.662 352.400,67.763 352.400 C 68.933 352.400,69.200 352.548,69.200 353.200 C 69.200 353.733,69.467 354.000,70.000 354.000 C 70.545 354.000,70.800 354.267,70.800 354.837 C 70.800 355.325,71.119 355.758,71.563 355.874 C 71.983 355.984,72.416 356.417,72.526 356.837 C 72.642 357.281,73.075 357.600,73.563 357.600 C 74.133 357.600,74.400 357.855,74.400 358.400 C 74.400 358.933,74.667 359.200,75.200 359.200 C 75.640 359.200,76.000 359.451,76.000 359.757 C 76.000 360.402,76.852 360.800,78.233 360.800 C 78.933 360.800,79.200 361.021,79.200 361.600 C 79.200 362.133,79.467 362.400,80.000 362.400 C 80.533 362.400,80.800 362.667,80.800 363.200 C 80.800 363.787,81.067 364.000,81.800 364.000 C 82.518 364.000,82.800 364.216,82.800 364.765 C 82.800 365.345,83.185 365.595,84.400 365.800 C 85.615 366.005,86.000 366.255,86.000 366.835 C 86.000 367.298,86.277 367.600,86.704 367.600 C 87.091 367.600,87.632 367.960,87.907 368.400 C 88.226 368.910,88.840 369.200,89.603 369.200 C 90.533 369.200,90.800 369.378,90.800 370.000 C 90.800 370.663,91.067 370.800,92.353 370.800 C 93.570 370.800,93.952 370.973,94.116 371.600 C 94.241 372.079,94.662 372.400,95.163 372.400 C 95.733 372.400,96.000 372.655,96.000 373.200 C 96.000 373.867,96.267 374.000,97.600 374.000 C 98.903 374.000,99.200 374.140,99.200 374.757 C 99.200 375.579,99.940 376.000,101.386 376.000 C 101.970 376.000,102.383 376.292,102.516 376.800 C 102.682 377.436,103.062 377.600,104.363 377.600 C 105.733 377.600,106.000 377.730,106.000 378.400 C 106.000 378.933,106.267 379.200,106.800 379.200 C 107.240 379.200,107.600 379.451,107.600 379.757 C 107.600 380.387,108.447 380.800,109.736 380.800 C 110.216 380.800,110.832 381.160,111.107 381.600 C 111.508 382.242,112.040 382.400,113.803 382.400 C 115.733 382.400,116.000 382.497,116.000 383.200 C 116.000 383.867,116.267 384.000,117.600 384.000 C 118.903 384.000,119.200 384.140,119.200 384.757 C 119.200 385.571,119.939 386.000,121.344 386.000 C 121.827 386.000,122.530 386.360,122.907 386.800 C 123.423 387.402,124.087 387.600,125.596 387.600 C 127.333 387.600,127.600 387.706,127.600 388.400 C 127.600 389.065,127.867 389.200,129.186 389.200 C 130.362 389.200,130.882 389.407,131.200 390.000 C 131.546 390.647,132.038 390.800,133.767 390.800 C 135.570 390.800,135.940 390.926,136.116 391.600 C 136.302 392.311,136.662 392.400,139.363 392.400 C 142.133 392.400,142.400 392.470,142.400 393.200 C 142.400 393.918,142.667 394.000,145.000 394.000 C 147.276 394.000,147.600 394.094,147.600 394.750 C 147.600 395.628,148.985 396.000,152.250 396.000 C 153.808 396.000,154.400 396.152,154.400 396.550 C 154.400 397.243,156.151 397.600,159.554 397.600 C 161.774 397.600,162.289 397.731,162.707 398.400 C 163.167 399.136,163.640 399.200,168.603 399.200 C 171.934 399.200,174.000 399.353,174.000 399.600 C 174.000 399.863,182.933 400.000,200.000 400.000 C 217.067 400.000,226.000 399.863,226.000 399.600 C 226.000 399.355,227.922 399.200,230.967 399.200 C 236.255 399.200,237.200 399.042,237.200 398.157 C 237.200 397.731,237.895 397.600,240.150 397.600 C 243.836 397.600,245.600 397.260,245.600 396.550 C 245.600 396.152,246.192 396.000,247.750 396.000 C 251.015 396.000,252.400 395.628,252.400 394.750 C 252.400 394.080,252.737 394.000,255.573 394.000 C 258.395 394.000,258.774 393.911,259.000 393.200 C 259.214 392.527,259.605 392.400,261.464 392.400 C 263.338 392.400,263.707 392.278,263.884 391.600 C 264.060 390.926,264.430 390.800,266.233 390.800 C 267.962 390.800,268.454 390.647,268.800 390.000 C 269.118 389.407,269.638 389.200,270.814 389.200 C 272.133 389.200,272.400 389.065,272.400 388.400 C 272.400 387.706,272.667 387.600,274.404 387.600 C 275.913 387.600,276.577 387.402,277.093 386.800 C 277.470 386.360,278.173 386.000,278.656 386.000 C 280.061 386.000,280.800 385.571,280.800 384.757 C 280.800 384.140,281.097 384.000,282.400 384.000 C 283.733 384.000,284.000 383.867,284.000 383.200 C 284.000 382.497,284.267 382.400,286.197 382.400 C 287.960 382.400,288.492 382.242,288.893 381.600 C 289.168 381.160,289.784 380.800,290.264 380.800 C 291.553 380.800,292.400 380.387,292.400 379.757 C 292.400 379.435,292.807 379.200,293.367 379.200 C 294.748 379.200,295.600 378.802,295.600 378.157 C 295.600 377.851,295.977 377.600,296.437 377.600 C 296.938 377.600,297.359 377.279,297.484 376.800 C 297.617 376.292,298.030 376.000,298.614 376.000 C 300.060 376.000,300.800 375.579,300.800 374.757 C 300.800 374.140,301.097 374.000,302.400 374.000 C 303.733 374.000,304.000 373.867,304.000 373.200 C 304.000 372.655,304.267 372.400,304.837 372.400 C 305.338 372.400,305.759 372.079,305.884 371.600 C 306.048 370.973,306.430 370.800,307.647 370.800 C 308.933 370.800,309.200 370.663,309.200 370.000 C 309.200 369.378,309.467 369.200,310.397 369.200 C 311.160 369.200,311.774 368.910,312.093 368.400 C 312.368 367.960,312.909 367.600,313.296 367.600 C 313.723 367.600,314.000 367.298,314.000 366.835 C 314.000 366.255,314.385 366.005,315.600 365.800 C 316.815 365.595,317.200 365.345,317.200 364.765 C 317.200 364.216,317.482 364.000,318.200 364.000 C 318.933 364.000,319.200 363.787,319.200 363.200 C 319.200 362.667,319.467 362.400,320.000 362.400 C 320.533 362.400,320.800 362.133,320.800 361.600 C 320.800 361.021,321.067 360.800,321.767 360.800 C 323.148 360.800,324.000 360.402,324.000 359.757 C 324.000 359.451,324.360 359.200,324.800 359.200 C 325.333 359.200,325.600 358.933,325.600 358.400 C 325.600 357.855,325.867 357.600,326.437 357.600 C 326.925 357.600,327.358 357.281,327.474 356.837 C 327.584 356.417,328.017 355.984,328.437 355.874 C 328.881 355.758,329.200 355.325,329.200 354.837 C 329.200 354.143,329.445 354.000,330.637 354.000 C 331.738 354.000,332.124 353.813,332.284 353.200 C 332.400 352.757,332.830 352.400,333.247 352.400 C 333.733 352.400,334.000 352.117,334.000 351.600 C 334.000 351.067,334.267 350.800,334.800 350.800 C 335.333 350.800,335.600 350.533,335.600 350.000 C 335.600 349.455,335.867 349.200,336.437 349.200 C 336.925 349.200,337.358 348.881,337.474 348.437 C 337.584 348.017,338.017 347.584,338.437 347.474 C 338.857 347.365,339.200 347.000,339.200 346.664 C 339.200 346.329,339.560 345.940,340.000 345.800 C 340.440 345.660,340.800 345.198,340.800 344.773 C 340.800 344.267,341.076 344.000,341.600 344.000 C 342.133 344.000,342.400 343.733,342.400 343.200 C 342.400 342.667,342.667 342.400,343.200 342.400 C 343.733 342.400,344.000 342.133,344.000 341.600 C 344.000 341.076,344.267 340.800,344.773 340.800 C 345.198 340.800,345.654 340.459,345.786 340.043 C 345.918 339.627,346.381 339.194,346.813 339.081 C 347.246 338.967,347.600 338.609,347.600 338.284 C 347.600 337.959,347.960 337.599,348.400 337.484 C 348.879 337.359,349.200 336.938,349.200 336.437 C 349.200 335.867,349.455 335.600,350.000 335.600 C 350.517 335.600,350.800 335.333,350.800 334.847 C 350.800 334.430,351.157 334.000,351.600 333.884 C 352.213 333.724,352.400 333.338,352.400 332.237 C 352.400 331.067,352.548 330.800,353.200 330.800 C 353.733 330.800,354.000 330.533,354.000 330.000 C 354.000 329.455,354.267 329.200,354.837 329.200 C 355.325 329.200,355.758 328.881,355.874 328.437 C 355.984 328.017,356.417 327.584,356.837 327.474 C 357.281 327.358,357.600 326.925,357.600 326.437 C 357.600 325.867,357.855 325.600,358.400 325.600 C 358.933 325.600,359.200 325.333,359.200 324.800 C 359.200 324.360,359.451 324.000,359.757 324.000 C 360.402 324.000,360.800 323.148,360.800 321.767 C 360.800 321.067,361.021 320.800,361.600 320.800 C 362.133 320.800,362.400 320.533,362.400 320.000 C 362.400 319.467,362.667 319.200,363.200 319.200 C 363.864 319.200,364.000 318.933,364.000 317.628 C 364.000 316.302,364.141 316.036,364.900 315.928 C 365.478 315.846,365.846 315.478,365.928 314.900 C 366.010 314.322,366.332 314.000,366.828 314.000 C 367.298 314.000,367.600 313.725,367.600 313.296 C 367.600 312.909,367.960 312.368,368.400 312.093 C 368.910 311.774,369.200 311.160,369.200 310.397 C 369.200 309.467,369.378 309.200,370.000 309.200 C 370.663 309.200,370.800 308.933,370.800 307.647 C 370.800 306.430,370.973 306.048,371.600 305.884 C 372.079 305.759,372.400 305.338,372.400 304.837 C 372.400 304.267,372.655 304.000,373.200 304.000 C 373.867 304.000,374.000 303.733,374.000 302.400 C 374.000 301.097,374.140 300.800,374.757 300.800 C 375.579 300.800,376.000 300.060,376.000 298.614 C 376.000 298.030,376.292 297.617,376.800 297.484 C 377.279 297.359,377.600 296.938,377.600 296.437 C 377.600 295.977,377.851 295.600,378.157 295.600 C 378.802 295.600,379.200 294.748,379.200 293.367 C 379.200 292.807,379.435 292.400,379.757 292.400 C 380.387 292.400,380.800 291.553,380.800 290.264 C 380.800 289.784,381.160 289.168,381.600 288.893 C 382.242 288.492,382.400 287.960,382.400 286.197 C 382.400 284.267,382.497 284.000,383.200 284.000 C 383.867 284.000,384.000 283.733,384.000 282.400 C 384.000 281.097,384.140 280.800,384.757 280.800 C 385.571 280.800,386.000 280.061,386.000 278.656 C 386.000 278.173,386.360 277.470,386.800 277.093 C 387.402 276.577,387.600 275.913,387.600 274.404 C 387.600 272.667,387.706 272.400,388.400 272.400 C 389.065 272.400,389.200 272.133,389.200 270.814 C 389.200 269.638,389.407 269.118,390.000 268.800 C 390.647 268.454,390.800 267.962,390.800 266.233 C 390.800 264.430,390.926 264.060,391.600 263.884 C 392.311 263.698,392.400 263.338,392.400 260.637 C 392.400 257.867,392.470 257.600,393.200 257.600 C 393.918 257.600,394.000 257.333,394.000 255.000 C 394.000 252.724,394.094 252.400,394.750 252.400 C 395.628 252.400,396.000 251.015,396.000 247.750 C 396.000 246.192,396.152 245.600,396.550 245.600 C 397.260 245.600,397.600 243.836,397.600 240.150 C 397.600 237.895,397.731 237.200,398.157 237.200 C 399.042 237.200,399.200 236.255,399.200 230.967 C 399.200 227.922,399.355 226.000,399.600 226.000 C 399.863 226.000,400.000 217.067,400.000 200.000 C 400.000 182.933,399.863 174.000,399.600 174.000 C 399.353 174.000,399.200 171.934,399.200 168.603 C 399.200 163.640,399.136 163.167,398.400 162.707 C 397.706 162.274,397.600 161.774,397.600 158.936 C 397.600 155.322,397.388 154.400,396.557 154.400 C 396.150 154.400,396.000 153.821,396.000 152.250 C 396.000 148.985,395.628 147.600,394.750 147.600 C 394.094 147.600,394.000 147.276,394.000 145.000 C 394.000 142.667,393.918 142.400,393.200 142.400 C 392.470 142.400,392.400 142.133,392.400 139.363 C 392.400 136.662,392.311 136.302,391.600 136.116 C 390.926 135.940,390.800 135.570,390.800 133.767 C 390.800 132.038,390.647 131.546,390.000 131.200 C 389.407 130.882,389.200 130.362,389.200 129.186 C 389.200 127.867,389.065 127.600,388.400 127.600 C 387.706 127.600,387.600 127.333,387.600 125.596 C 387.600 124.087,387.402 123.423,386.800 122.907 C 386.360 122.530,386.000 121.827,386.000 121.344 C 386.000 119.939,385.571 119.200,384.757 119.200 C 384.140 119.200,384.000 118.903,384.000 117.600 C 384.000 116.267,383.867 116.000,383.200 116.000 C 382.497 116.000,382.400 115.733,382.400 113.803 C 382.400 112.040,382.242 111.508,381.600 111.107 C 381.160 110.832,380.800 110.216,380.800 109.736 C 380.800 108.447,380.387 107.600,379.757 107.600 C 379.435 107.600,379.200 107.193,379.200 106.633 C 379.200 105.252,378.802 104.400,378.157 104.400 C 377.851 104.400,377.600 104.023,377.600 103.563 C 377.600 103.062,377.279 102.641,376.800 102.516 C 376.292 102.383,376.000 101.970,376.000 101.386 C 376.000 99.940,375.579 99.200,374.757 99.200 C 374.140 99.200,374.000 98.903,374.000 97.600 C 374.000 96.267,373.867 96.000,373.200 96.000 C 372.655 96.000,372.400 95.733,372.400 95.163 C 372.400 94.662,372.079 94.241,371.600 94.116 C 370.973 93.952,370.800 93.570,370.800 92.353 C 370.800 91.067,370.663 90.800,370.000 90.800 C 369.378 90.800,369.200 90.533,369.200 89.603 C 369.200 88.840,368.910 88.226,368.400 87.907 C 367.960 87.632,367.600 87.091,367.600 86.704 C 367.600 86.277,367.298 86.000,366.835 86.000 C 366.255 86.000,366.005 85.615,365.800 84.400 C 365.595 83.185,365.345 82.800,364.765 82.800 C 364.216 82.800,364.000 82.518,364.000 81.800 C 364.000 81.067,363.787 80.800,363.200 80.800 C 362.667 80.800,362.400 80.533,362.400 80.000 C 362.400 79.467,362.133 79.200,361.600 79.200 C 361.021 79.200,360.800 78.933,360.800 78.233 C 360.800 76.852,360.402 76.000,359.757 76.000 C 359.451 76.000,359.200 75.640,359.200 75.200 C 359.200 74.667,358.933 74.400,358.400 74.400 C 357.855 74.400,357.600 74.133,357.600 73.563 C 357.600 73.075,357.281 72.642,356.837 72.526 C 356.417 72.416,355.984 71.983,355.874 71.563 C 355.758 71.119,355.325 70.800,354.837 70.800 C 354.143 70.800,354.000 70.555,354.000 69.363 C 354.000 68.262,353.813 67.876,353.200 67.716 C 352.757 67.600,352.400 67.170,352.400 66.753 C 352.400 66.267,352.117 66.000,351.600 66.000 C 351.067 66.000,350.800 65.733,350.800 65.200 C 350.800 64.667,350.533 64.400,350.000 64.400 C 349.455 64.400,349.200 64.133,349.200 63.563 C 349.200 63.075,348.881 62.642,348.437 62.526 C 348.017 62.416,347.584 61.983,347.474 61.563 C 347.365 61.143,347.000 60.800,346.664 60.800 C 346.329 60.800,345.940 60.440,345.800 60.000 C 345.660 59.560,345.198 59.200,344.773 59.200 C 344.267 59.200,344.000 58.924,344.000 58.400 C 344.000 57.867,343.733 57.600,343.200 57.600 C 342.667 57.600,342.400 57.333,342.400 56.800 C 342.400 56.267,342.133 56.000,341.600 56.000 C 341.076 56.000,340.800 55.733,340.800 55.227 C 340.800 54.802,340.459 54.346,340.043 54.214 C 339.627 54.082,339.194 53.619,339.081 53.187 C 338.967 52.754,338.609 52.400,338.284 52.400 C 337.959 52.400,337.599 52.040,337.484 51.600 C 337.359 51.121,336.938 50.800,336.437 50.800 C 335.867 50.800,335.600 50.545,335.600 50.000 C 335.600 49.467,335.333 49.200,334.800 49.200 C 334.267 49.200,334.000 48.933,334.000 48.400 C 334.000 47.883,333.733 47.600,333.247 47.600 C 332.830 47.600,332.400 47.243,332.284 46.800 C 332.124 46.187,331.738 46.000,330.637 46.000 C 329.445 46.000,329.200 45.857,329.200 45.163 C 329.200 44.675,328.881 44.242,328.437 44.126 C 328.017 44.016,327.584 43.583,327.474 43.163 C 327.358 42.719,326.925 42.400,326.437 42.400 C 325.867 42.400,325.600 42.145,325.600 41.600 C 325.600 41.067,325.333 40.800,324.800 40.800 C 324.360 40.800,324.000 40.549,324.000 40.243 C 324.000 39.598,323.148 39.200,321.767 39.200 C 321.067 39.200,320.800 38.979,320.800 38.400 C 320.800 37.867,320.533 37.600,320.000 37.600 C 319.467 37.600,319.200 37.333,319.200 36.800 C 319.200 36.213,318.933 36.000,318.200 36.000 C 317.482 36.000,317.200 35.784,317.200 35.235 C 317.200 34.655,316.815 34.405,315.600 34.200 C 314.385 33.995,314.000 33.745,314.000 33.165 C 314.000 32.702,313.723 32.400,313.296 32.400 C 312.909 32.400,312.368 32.040,312.093 31.600 C 311.774 31.090,311.160 30.800,310.397 30.800 C 309.467 30.800,309.200 30.622,309.200 30.000 C 309.200 29.424,308.933 29.200,308.247 29.200 C 307.630 29.200,307.219 28.918,307.084 28.400 C 306.924 27.787,306.538 27.600,305.437 27.600 C 304.267 27.600,304.000 27.452,304.000 26.800 C 304.000 26.133,303.733 26.000,302.400 26.000 C 301.097 26.000,300.800 25.860,300.800 25.243 C 300.800 24.421,300.060 24.000,298.614 24.000 C 298.030 24.000,297.617 23.708,297.484 23.200 C 297.359 22.721,296.938 22.400,296.437 22.400 C 295.977 22.400,295.600 22.149,295.600 21.843 C 295.600 21.198,294.748 20.800,293.367 20.800 C 292.807 20.800,292.400 20.565,292.400 20.243 C 292.400 19.613,291.553 19.200,290.264 19.200 C 289.784 19.200,289.168 18.840,288.893 18.400 C 288.492 17.758,287.960 17.600,286.197 17.600 C 284.267 17.600,284.000 17.503,284.000 16.800 C 284.000 16.133,283.733 16.000,282.400 16.000 C 281.097 16.000,280.800 15.860,280.800 15.243 C 280.800 14.429,280.061 14.000,278.656 14.000 C 278.173 14.000,277.470 13.640,277.093 13.200 C 276.577 12.598,275.913 12.400,274.404 12.400 C 272.667 12.400,272.400 12.294,272.400 11.600 C 272.400 10.935,272.133 10.800,270.814 10.800 C 269.638 10.800,269.118 10.593,268.800 10.000 C 268.454 9.353,267.962 9.200,266.233 9.200 C 264.430 9.200,264.060 9.074,263.884 8.400 C 263.707 7.722,263.338 7.600,261.464 7.600 C 259.605 7.600,259.214 7.473,259.000 6.800 C 258.774 6.089,258.395 6.000,255.573 6.000 C 252.737 6.000,252.400 5.920,252.400 5.250 C 252.400 4.372,251.015 4.000,247.750 4.000 C 246.179 4.000,245.600 3.850,245.600 3.443 C 245.600 2.612,244.678 2.400,241.064 2.400 C 238.226 2.400,237.726 2.294,237.293 1.600 C 236.833 0.864,236.360 0.800,231.397 0.800 C 228.066 0.800,226.000 0.647,226.000 0.400 C 226.000 0.137,217.067 0.000,200.000 0.000 C 182.933 0.000,174.000 0.137,174.000 0.400 M267.845 105.804 C 270.490 107.055,272.650 109.577,273.881 112.854 C 275.302 116.632,275.109 116.851,270.503 116.714 L 266.670 116.600 266.235 115.311 C 264.238 109.393,256.833 110.515,257.154 116.687 C 257.218 117.911,259.755 120.341,261.964 121.293 C 267.686 123.757,269.833 125.073,271.673 127.243 C 282.094 139.539,264.920 153.600,252.074 143.289 C 248.754 140.625,246.503 134.615,248.437 133.580 C 251.308 132.044,256.149 133.471,256.549 135.972 C 257.155 139.763,262.295 141.478,264.806 138.728 C 266.317 137.074,266.602 135.658,265.807 133.756 C 264.828 131.412,264.165 130.890,259.000 128.397 C 248.475 123.316,245.569 116.156,251.094 108.912 C 254.345 104.651,262.290 103.176,267.845 105.804 M299.135 105.695 C 302.095 107.077,304.048 109.249,305.223 112.463 C 306.694 116.488,306.436 116.800,301.629 116.800 C 298.222 116.800,297.790 116.556,296.811 114.084 C 296.104 112.300,294.971 111.600,292.787 111.600 C 289.150 111.600,287.090 115.427,289.250 118.172 C 290.549 119.825,296.284 123.200,297.792 123.200 C 298.480 123.200,302.791 126.568,303.833 127.919 C 304.972 129.396,306.000 132.762,306.000 135.014 C 306.000 149.723,283.367 151.279,279.456 136.839 C 278.585 133.621,278.748 133.445,282.769 133.262 C 286.658 133.085,287.438 133.459,287.814 135.681 C 288.325 138.708,291.213 140.462,294.630 139.821 C 298.026 139.184,298.502 133.079,295.319 130.978 C 293.539 129.804,290.800 128.400,290.288 128.400 C 288.861 128.400,283.479 124.501,282.157 122.508 C 275.117 111.902,287.073 100.062,299.135 105.695 M116.758 105.245 L 118.034 105.690 117.917 108.335 C 117.760 111.888,117.540 111.987,109.733 111.994 C 101.787 112.002,102.400 111.600,102.400 116.800 C 102.400 121.969,101.896 121.600,108.953 121.600 C 115.142 121.600,115.200 121.631,115.200 125.000 C 115.200 128.369,115.142 128.400,108.953 128.400 C 101.857 128.400,102.400 127.967,102.400 133.620 C 102.400 139.836,102.081 139.600,110.460 139.600 C 118.063 139.600,118.213 139.675,117.884 143.309 C 117.766 144.604,117.550 145.784,117.402 145.932 C 117.059 146.276,97.022 146.524,95.300 146.205 L 94.000 145.964 94.000 125.769 L 94.000 105.574 94.900 105.212 C 96.235 104.676,115.206 104.704,116.758 105.245 M129.449 105.106 C 129.885 105.392,131.587 108.832,131.613 109.478 C 131.619 109.655,132.068 110.700,132.609 111.800 C 133.150 112.900,133.594 114.090,133.596 114.445 C 133.598 114.800,134.130 115.756,134.777 116.571 L 135.954 118.052 136.536 116.126 C 136.857 115.067,137.406 113.660,137.757 113.000 C 138.108 112.340,138.396 111.525,138.398 111.189 C 138.399 110.853,138.652 110.218,138.961 109.777 C 139.269 109.337,139.718 108.246,139.959 107.354 C 140.521 105.265,141.545 104.800,145.586 104.800 C 150.692 104.800,150.729 104.860,148.452 109.468 C 145.003 116.449,143.200 120.302,143.200 120.691 C 143.200 120.917,142.942 121.316,142.628 121.577 C 141.196 122.765,141.120 125.823,142.448 128.705 C 143.775 131.584,147.431 139.271,149.079 142.648 C 150.675 145.918,150.459 146.179,146.049 146.316 C 141.630 146.452,140.808 146.080,139.895 143.528 C 138.436 139.455,137.910 138.108,137.177 136.574 C 136.750 135.679,136.400 134.745,136.400 134.497 C 136.400 132.718,133.863 134.810,133.366 137.000 C 133.216 137.660,132.757 138.827,132.347 139.594 C 131.936 140.361,131.600 141.243,131.600 141.554 C 131.600 141.865,131.110 143.089,130.510 144.272 L 129.420 146.425 125.010 146.312 C 119.863 146.181,120.013 146.440,122.279 141.600 C 125.978 133.701,126.982 131.582,128.337 128.811 C 129.142 127.167,129.742 125.547,129.672 125.211 C 129.486 124.318,128.239 121.648,121.768 108.278 L 120.451 105.555 121.325 105.203 C 122.391 104.774,128.824 104.697,129.449 105.106 M175.230 106.306 C 179.756 108.518,182.400 112.869,182.400 118.104 C 182.400 126.942,177.591 131.600,168.466 131.600 C 162.928 131.600,163.245 131.137,163.110 139.429 L 163.000 146.200 159.218 146.200 C 155.525 146.200,155.430 146.177,155.158 145.200 C 154.618 143.258,154.751 105.810,155.300 105.251 C 155.682 104.863,157.781 104.775,164.200 104.882 L 172.600 105.021 175.230 106.306 M207.929 106.196 C 215.415 109.933,216.960 120.665,210.906 126.865 L 208.694 129.130 209.632 131.465 C 210.148 132.749,210.802 134.155,211.085 134.589 C 211.368 135.023,211.600 135.619,211.600 135.914 C 211.600 136.399,212.097 137.572,214.445 142.626 C 216.029 146.037,215.484 146.516,210.241 146.319 L 207.085 146.200 206.153 144.400 C 204.863 141.911,203.200 138.126,203.200 137.680 C 203.200 136.730,200.719 131.985,200.029 131.616 C 197.017 130.003,196.400 131.280,196.400 139.125 C 196.400 146.747,196.566 146.479,191.956 146.317 C 188.797 146.206,188.620 146.151,188.357 145.200 C 187.652 142.655,187.969 105.659,188.700 105.203 C 190.291 104.210,205.528 104.997,207.929 106.196 M243.226 105.214 C 243.862 105.554,244.000 106.065,244.000 108.083 C 244.000 111.989,243.977 112.000,235.785 112.000 C 227.754 112.000,228.415 111.530,228.405 117.251 C 228.398 121.691,228.182 121.554,235.428 121.689 L 241.400 121.800 241.400 125.000 L 241.400 128.200 235.428 128.311 C 228.054 128.448,228.400 128.190,228.400 133.573 C 228.400 139.670,228.001 139.372,236.367 139.526 C 244.201 139.671,244.247 139.694,243.905 143.245 C 243.589 146.538,244.121 146.400,231.741 146.400 L 220.780 146.400 220.390 145.374 C 220.156 144.759,220.000 136.590,220.000 124.961 L 220.000 105.574 220.900 105.212 C 222.183 104.697,242.262 104.698,243.226 105.214 M163.379 113.800 C 163.047 116.014,163.304 123.615,163.733 124.300 C 164.639 125.743,173.200 124.242,173.200 122.640 C 173.200 122.568,173.377 121.578,173.593 120.439 C 174.664 114.792,172.552 112.042,167.125 112.016 L 163.649 112.000 163.379 113.800 M196.650 113.250 C 196.246 115.268,196.363 122.384,196.814 123.226 C 197.948 125.345,204.287 123.866,205.338 121.238 C 207.441 115.984,205.004 112.000,199.688 112.000 L 196.900 112.000 196.650 113.250 M210.007 185.213 C 210.316 185.790,210.403 199.771,210.307 233.313 L 210.172 280.600 209.248 283.600 C 206.197 293.499,202.390 299.196,195.977 303.458 C 193.989 304.778,189.905 306.800,189.223 306.800 C 188.989 306.800,188.125 307.160,187.304 307.600 C 186.484 308.040,185.269 308.402,184.606 308.405 C 183.943 308.407,182.410 308.680,181.200 309.010 C 173.924 310.997,160.865 309.041,152.962 304.779 C 146.445 301.265,142.773 298.206,137.863 292.200 C 131.456 284.362,131.411 283.174,137.400 280.007 C 137.840 279.774,139.010 279.054,140.000 278.406 C 140.990 277.757,142.430 276.856,143.200 276.402 C 143.970 275.949,145.140 275.224,145.800 274.793 C 146.460 274.362,147.450 273.792,148.000 273.527 C 148.550 273.262,149.290 272.805,149.645 272.511 C 151.716 270.793,152.557 271.076,155.146 274.362 C 160.157 280.725,164.401 283.005,171.200 282.989 C 177.445 282.975,179.649 282.004,181.973 278.244 C 184.167 274.694,184.136 275.358,184.287 228.816 C 184.414 189.872,184.488 185.765,185.076 185.116 C 186.145 183.934,209.371 184.024,210.007 185.213 M273.031 184.825 C 278.156 185.324,283.791 186.959,286.800 188.821 C 287.130 189.025,288.030 189.536,288.800 189.957 C 292.547 192.005,300.442 200.404,301.698 203.677 C 301.951 204.338,299.674 206.800,298.810 206.800 C 298.611 206.800,296.772 207.910,294.724 209.266 C 286.764 214.537,283.669 216.400,282.873 216.400 C 282.452 216.400,281.294 215.216,280.036 213.500 C 272.565 203.305,256.909 204.112,254.688 214.807 C 253.481 220.621,256.416 225.944,262.428 228.849 C 263.623 229.426,266.100 230.641,267.932 231.549 C 269.765 232.457,271.441 233.200,271.657 233.200 C 272.003 233.200,273.193 233.701,277.800 235.785 C 282.427 237.879,286.124 239.801,292.000 243.169 C 303.118 249.541,308.989 259.559,309.485 273.000 C 310.129 290.502,299.463 304.190,282.200 308.015 C 259.376 313.071,239.464 306.632,227.902 290.456 C 223.564 284.387,223.392 283.295,226.455 281.279 C 227.195 280.792,231.152 278.174,235.250 275.459 C 242.425 270.706,242.738 270.545,243.750 271.075 C 244.327 271.378,244.800 271.862,244.800 272.151 C 244.800 272.440,245.155 272.998,245.590 273.391 C 246.024 273.784,246.494 274.465,246.633 274.904 C 247.090 276.343,252.312 281.744,255.002 283.560 C 262.193 288.413,274.648 288.125,279.787 282.987 C 284.435 278.338,284.170 270.641,279.194 265.755 C 277.193 263.790,276.827 263.556,272.143 261.249 C 270.634 260.507,269.130 259.740,268.800 259.547 C 268.059 259.112,267.305 258.774,264.000 257.400 C 262.570 256.806,260.635 255.977,259.700 255.560 C 258.765 255.142,257.145 254.427,256.100 253.972 C 255.055 253.516,253.930 252.985,253.600 252.792 C 253.270 252.599,251.794 251.813,250.319 251.046 C 242.989 247.234,237.196 241.751,232.732 234.400 C 229.324 228.789,228.265 211.784,230.998 206.545 C 231.326 205.915,231.596 205.151,231.598 204.847 C 231.602 203.923,234.491 199.285,236.913 196.314 C 238.502 194.365,242.497 191.006,244.600 189.850 C 245.260 189.487,246.070 189.026,246.400 188.827 C 248.013 187.851,250.358 186.893,251.786 186.627 C 252.659 186.464,253.844 186.088,254.420 185.789 C 256.575 184.675,266.308 184.171,273.031 184.825 " stroke="none" fill="#f4c40c" fill-rule="evenodd"></path></g></svg>