<svg id="svg" version="1.1" xmlns="http://www.w3.org/2000/svg" xmlns:xlink="http://www.w3.org/1999/xlink" width="400" height="400" viewBox="0, 0, 400,400"><g id="svgg"><path id="path0" d="M87.030 82.019 C 85.366 82.516,82.058 85.913,81.534 87.663 C 80.646 90.626,79.431 89.331,134.278 143.853 C 187.894 197.151,188.000 197.261,188.000 199.480 C 188.000 201.854,187.797 202.066,134.654 255.148 C 103.314 286.452,82.179 307.859,81.777 308.705 C 80.035 312.376,85.187 318.208,89.475 317.417 C 91.168 317.105,93.419 314.904,161.695 246.807 C 196.993 211.601,197.813 210.855,200.603 211.369 C 202.407 211.701,203.004 212.284,270.263 279.357 C 306.458 315.452,308.740 317.600,310.880 317.600 C 313.778 317.600,318.000 313.426,318.000 310.561 C 318.000 308.260,314.655 304.781,264.512 254.929 C 229.115 219.737,212.645 203.098,211.995 201.872 C 210.112 198.323,206.264 202.533,264.813 144.082 C 301.667 107.288,317.658 91.067,317.835 90.297 C 318.483 87.475,316.366 84.030,312.977 82.389 C 309.396 80.656,313.159 77.229,255.424 134.806 C 203.536 186.553,202.012 188.002,199.520 187.997 C 197.369 187.993,197.846 188.450,143.712 134.592 C 109.237 100.293,91.151 82.571,90.225 82.185 C 88.662 81.532,88.659 81.531,87.030 82.019 M127.809 345.400 C 125.269 347.930,123.331 350.000,123.502 350.000 C 123.673 350.000,125.877 347.930,128.400 345.400 C 130.923 342.870,132.861 340.800,132.706 340.800 C 132.552 340.800,130.348 342.870,127.809 345.400 " stroke="none" fill="#f5f5f5" fill-rule="evenodd"></path><path id="path1" d="M95.000 28.000 C 94.864 28.220,94.431 28.400,94.038 28.400 C 93.645 28.400,92.998 28.760,92.600 29.200 C 92.202 29.640,91.678 30.000,91.437 30.000 C 91.195 30.000,81.278 39.720,69.400 51.600 C 57.522 63.480,47.621 73.200,47.398 73.200 C 46.338 73.200,29.303 91.038,28.260 93.240 C 26.679 96.581,26.778 102.567,28.444 104.356 C 28.860 104.802,29.200 105.309,29.200 105.484 C 29.200 105.917,110.913 187.600,111.347 187.600 C 112.407 187.600,122.533 198.518,122.533 199.661 C 122.533 200.844,112.110 212.000,111.005 212.000 C 110.495 212.000,29.200 293.265,29.200 293.775 C 29.200 293.980,28.795 294.580,28.300 295.106 C 26.932 296.563,26.932 305.037,28.300 306.494 C 28.795 307.020,29.200 307.621,29.200 307.829 C 29.200 308.335,47.697 326.800,48.205 326.800 C 48.424 326.800,58.232 336.430,70.000 348.200 C 81.768 359.970,91.614 369.600,91.879 369.600 C 92.144 369.600,92.504 369.825,92.680 370.100 C 93.513 371.402,102.000 372.471,102.000 371.275 C 102.000 371.096,102.614 370.708,103.364 370.414 C 104.202 370.085,107.792 366.812,112.661 361.939 C 117.023 357.573,120.775 354.000,120.997 354.000 C 121.220 354.000,138.501 336.889,159.401 315.975 C 201.113 274.233,199.071 276.173,200.526 276.928 C 201.081 277.216,218.759 294.675,239.810 315.726 C 260.862 336.777,278.203 354.000,278.347 354.000 C 278.490 354.000,282.116 357.515,286.404 361.810 C 295.512 370.935,296.520 371.600,301.233 371.600 C 306.173 371.600,304.682 372.840,329.116 348.403 C 340.335 337.181,349.714 328.000,349.957 328.000 C 350.201 328.000,350.400 327.730,350.400 327.400 C 350.400 327.070,350.626 326.800,350.903 326.800 C 351.462 326.800,370.000 308.399,370.000 307.844 C 370.000 307.651,370.315 307.201,370.700 306.843 C 373.163 304.551,373.163 297.049,370.700 294.757 C 370.315 294.399,370.000 293.947,370.000 293.752 C 370.000 293.301,288.713 212.000,288.262 212.000 C 287.732 212.000,277.503 201.635,276.916 200.503 C 276.223 199.168,276.766 198.468,283.521 192.000 C 292.057 183.828,368.511 107.435,370.119 105.472 C 370.934 104.478,371.600 103.301,371.600 102.856 C 371.600 102.411,371.780 101.936,372.000 101.800 C 372.972 101.199,372.342 94.739,371.199 93.600 C 371.089 93.490,370.740 92.860,370.424 92.200 C 369.798 90.891,351.260 72.000,350.602 72.000 C 350.379 72.000,340.568 62.370,328.800 50.600 C 317.032 38.830,307.177 29.200,306.901 29.200 C 306.626 29.200,306.400 29.020,306.400 28.800 C 306.400 28.580,305.961 28.400,305.424 28.400 C 304.887 28.400,304.336 28.220,304.200 28.000 C 303.878 27.479,298.522 27.479,298.200 28.000 C 298.064 28.220,297.601 28.400,297.171 28.400 C 295.837 28.400,294.959 29.158,286.405 37.700 C 281.833 42.265,277.936 46.000,277.745 46.000 C 277.555 46.000,260.119 63.289,238.999 84.420 C 203.061 120.377,200.527 122.826,199.460 122.622 C 198.612 122.460,188.560 112.644,160.117 84.202 C 139.106 63.191,121.797 46.000,121.654 46.000 C 121.510 46.000,117.704 42.304,113.196 37.786 C 105.330 29.903,103.532 28.400,101.962 28.400 C 101.569 28.400,101.136 28.220,101.000 28.000 C 100.864 27.780,99.514 27.600,98.000 27.600 C 96.486 27.600,95.136 27.780,95.000 28.000 M90.225 82.185 C 91.151 82.571,109.237 100.293,143.712 134.592 C 197.846 188.450,197.369 187.993,199.520 187.997 C 202.012 188.002,203.536 186.553,255.424 134.806 C 313.159 77.229,309.396 80.656,312.977 82.389 C 316.366 84.030,318.483 87.475,317.835 90.297 C 317.658 91.067,301.667 107.288,264.813 144.082 C 206.264 202.533,210.112 198.323,211.995 201.872 C 212.645 203.098,229.115 219.737,264.512 254.929 C 314.655 304.781,318.000 308.260,318.000 310.561 C 318.000 313.426,313.778 317.600,310.880 317.600 C 308.740 317.600,306.458 315.452,270.263 279.357 C 203.004 212.284,202.407 211.701,200.603 211.369 C 197.813 210.855,196.993 211.601,161.695 246.807 C 93.419 314.904,91.168 317.105,89.475 317.417 C 85.187 318.208,80.035 312.376,81.777 308.705 C 82.179 307.859,103.314 286.452,134.654 255.148 C 187.797 202.066,188.000 201.854,188.000 199.480 C 188.000 197.261,187.894 197.151,134.278 143.853 C 79.431 89.331,80.646 90.626,81.534 87.663 C 82.058 85.913,85.366 82.516,87.030 82.019 C 88.659 81.531,88.662 81.532,90.225 82.185 M128.400 345.400 C 125.877 347.930,123.673 350.000,123.502 350.000 C 123.331 350.000,125.269 347.930,127.809 345.400 C 130.348 342.870,132.552 340.800,132.706 340.800 C 132.861 340.800,130.923 342.870,128.400 345.400 " stroke="none" fill="#040404" fill-rule="evenodd"></path></g></svg>